<?xml version="1.0" encoding="UTF-8"?>
<svg xmlns="http://www.w3.org/2000/svg" xmlns:xlink="http://www.w3.org/1999/xlink" width="408.861" height="201.113" viewBox="0 0 185.846 91.415">
<defs>
<g>
<g id="glyph-0-0">
<path d="M 3.25 -0.75 C 3.25 -0.90625 3.140625 -0.96875 2.984375 -0.96875 C 2.890625 -0.96875 2.796875 -0.96875 2.734375 -0.796875 C 2.609375 -0.5 2.328125 -0.421875 2.078125 -0.421875 C 1.515625 -0.421875 1.03125 -0.890625 1.03125 -1.5 C 1.03125 -1.84375 1.25 -2.578125 2.125 -2.578125 C 2.328125 -2.578125 2.4375 -2.5625 2.484375 -2.5625 C 2.5 -2.546875 2.5 -2.546875 2.5 -2.484375 C 2.515625 -2.28125 2.671875 -2.171875 2.84375 -2.171875 C 3.046875 -2.171875 3.171875 -2.3125 3.171875 -2.5 C 3.171875 -3.03125 2.453125 -3.03125 2.140625 -3.03125 C 0.90625 -3.03125 0.5 -2.078125 0.5 -1.5 C 0.5 -0.671875 1.15625 0.03125 2.046875 0.03125 C 3.03125 0.03125 3.25 -0.625 3.25 -0.75 Z M 3.25 -0.75 "/>
</g>
<g id="glyph-0-1">
<path d="M 3.265625 -0.234375 C 3.265625 -0.453125 3.0625 -0.453125 2.96875 -0.453125 L 2.09375 -0.453125 L 2.09375 -3.9375 C 2.09375 -4.171875 2.03125 -4.234375 1.796875 -4.234375 L 0.703125 -4.234375 C 0.609375 -4.234375 0.40625 -4.234375 0.40625 -4 C 0.40625 -3.765625 0.609375 -3.765625 0.703125 -3.765625 L 1.578125 -3.765625 L 1.578125 -0.453125 L 0.703125 -0.453125 C 0.609375 -0.453125 0.40625 -0.453125 0.40625 -0.234375 C 0.40625 0 0.609375 0 0.703125 0 L 2.96875 0 C 3.0625 0 3.265625 0 3.265625 -0.234375 Z M 3.265625 -0.234375 "/>
</g>
<g id="glyph-0-2">
<path d="M 3.640625 -0.234375 C 3.640625 -0.453125 3.4375 -0.453125 3.34375 -0.453125 C 3.078125 -0.453125 3.015625 -0.484375 2.953125 -0.5 L 2.953125 -1.953125 C 2.953125 -2.53125 2.5 -3.03125 1.546875 -3.03125 C 1.21875 -3.03125 0.515625 -3.03125 0.515625 -2.5 C 0.515625 -2.3125 0.640625 -2.171875 0.84375 -2.171875 C 0.984375 -2.171875 1.171875 -2.25 1.1875 -2.5 C 1.1875 -2.546875 1.1875 -2.5625 1.28125 -2.578125 C 1.359375 -2.578125 1.46875 -2.578125 1.5625 -2.578125 C 2.125 -2.578125 2.421875 -2.328125 2.421875 -1.9375 C 1.6875 -1.9375 0.328125 -1.765625 0.328125 -0.921875 C 0.328125 -0.40625 0.8125 0.03125 1.515625 0.03125 C 2.0625 0.03125 2.40625 -0.171875 2.5 -0.234375 C 2.640625 -0.015625 2.9375 0 3.265625 0 C 3.453125 0 3.640625 0 3.640625 -0.234375 Z M 2.421875 -0.984375 C 2.421875 -0.84375 2.421875 -0.6875 2.15625 -0.546875 C 1.90625 -0.421875 1.640625 -0.421875 1.546875 -0.421875 C 1.140625 -0.421875 0.859375 -0.671875 0.859375 -0.921875 C 0.859375 -1.28125 1.625 -1.5 2.421875 -1.5 Z M 2.421875 -0.984375 "/>
</g>
<g id="glyph-0-3">
<path d="M 3.5 -2.75 C 3.5 -2.984375 3.296875 -2.984375 3.203125 -2.984375 L 2.390625 -2.984375 C 2.28125 -2.984375 2.09375 -2.984375 2.09375 -2.75 C 2.09375 -2.53125 2.28125 -2.53125 2.390625 -2.53125 L 2.546875 -2.53125 L 1.828125 -0.390625 L 1.109375 -2.53125 L 1.28125 -2.53125 C 1.390625 -2.53125 1.578125 -2.53125 1.578125 -2.75 C 1.578125 -2.984375 1.390625 -2.984375 1.28125 -2.984375 L 0.46875 -2.984375 C 0.359375 -2.984375 0.171875 -2.984375 0.171875 -2.75 C 0.171875 -2.53125 0.359375 -2.53125 0.46875 -2.53125 L 0.65625 -2.53125 L 1.4375 -0.234375 C 1.515625 0.03125 1.6875 0.03125 1.828125 0.03125 C 1.984375 0.03125 2.140625 0.03125 2.234375 -0.234375 L 3.015625 -2.53125 L 3.203125 -2.53125 C 3.296875 -2.53125 3.5 -2.53125 3.5 -2.75 Z M 3.5 -2.75 "/>
</g>
<g id="glyph-0-4">
<path d="M 3.25 -0.75 C 3.25 -0.90625 3.140625 -0.96875 2.984375 -0.96875 C 2.875 -0.96875 2.796875 -0.953125 2.734375 -0.796875 C 2.59375 -0.484375 2.25 -0.421875 2.03125 -0.421875 C 1.53125 -0.421875 1.03125 -0.75 0.90625 -1.296875 L 2.953125 -1.296875 C 3.09375 -1.296875 3.25 -1.296875 3.25 -1.5625 C 3.25 -2.390625 2.78125 -3.03125 1.890625 -3.03125 C 1.03125 -3.03125 0.359375 -2.34375 0.359375 -1.5 C 0.359375 -0.671875 1.0625 0.03125 2 0.03125 C 2.953125 0.03125 3.25 -0.578125 3.25 -0.75 Z M 2.71875 -1.75 L 0.921875 -1.75 C 1.03125 -2.234375 1.4375 -2.578125 1.890625 -2.578125 C 2.515625 -2.578125 2.671875 -2.09375 2.71875 -1.75 Z M 2.71875 -1.75 "/>
</g>
<g id="glyph-1-0">
<path d="M 3.875 -0.984375 C 3.875 -1.078125 3.78125 -1.078125 3.765625 -1.078125 C 3.65625 -1.078125 3.65625 -1.046875 3.625 -0.90625 C 3.53125 -0.609375 3.34375 -0.125 3.015625 -0.125 C 2.828125 -0.125 2.765625 -0.296875 2.765625 -0.484375 C 2.765625 -0.609375 2.765625 -0.609375 2.8125 -0.796875 C 2.8125 -0.8125 2.84375 -0.9375 2.84375 -1.015625 C 2.84375 -1.625 2.015625 -1.71875 1.71875 -1.75 C 1.921875 -1.875 2.1875 -2.09375 2.296875 -2.203125 C 2.65625 -2.53125 3 -2.859375 3.390625 -2.859375 C 3.46875 -2.859375 3.5625 -2.84375 3.609375 -2.765625 C 3.3125 -2.71875 3.25 -2.484375 3.25 -2.375 C 3.25 -2.234375 3.375 -2.125 3.53125 -2.125 C 3.71875 -2.125 3.921875 -2.28125 3.921875 -2.5625 C 3.921875 -2.796875 3.765625 -3.046875 3.390625 -3.046875 C 3 -3.046875 2.640625 -2.765625 2.28125 -2.4375 C 2 -2.171875 1.765625 -1.953125 1.484375 -1.828125 L 2.171875 -4.59375 C 2.171875 -4.609375 2.1875 -4.703125 2.1875 -4.703125 C 2.1875 -4.734375 2.171875 -4.796875 2.078125 -4.796875 C 1.9375 -4.796875 1.375 -4.75 1.203125 -4.734375 C 1.140625 -4.734375 1.046875 -4.71875 1.046875 -4.578125 C 1.046875 -4.484375 1.140625 -4.484375 1.21875 -4.484375 C 1.5625 -4.484375 1.5625 -4.4375 1.5625 -4.375 C 1.5625 -4.328125 1.546875 -4.28125 1.53125 -4.21875 L 0.546875 -0.296875 C 0.515625 -0.1875 0.515625 -0.15625 0.515625 -0.15625 C 0.515625 -0.046875 0.609375 0.0625 0.75 0.0625 C 0.9375 0.0625 1.03125 -0.0625 1.078125 -0.21875 C 1.09375 -0.25 1.390625 -1.46875 1.40625 -1.5625 C 1.90625 -1.515625 2.296875 -1.359375 2.296875 -1 C 2.296875 -0.96875 2.296875 -0.921875 2.28125 -0.859375 C 2.25 -0.75 2.25 -0.71875 2.25 -0.640625 C 2.25 -0.15625 2.65625 0.0625 2.984375 0.0625 C 3.65625 0.0625 3.875 -0.984375 3.875 -0.984375 Z M 3.875 -0.984375 "/>
</g>
<g id="glyph-1-1">
<path d="M 4.296875 -0.984375 C 4.296875 -1.078125 4.203125 -1.078125 4.1875 -1.078125 C 4.078125 -1.078125 4.078125 -1.03125 4.046875 -0.96875 C 3.890625 -0.40625 3.578125 -0.125 3.3125 -0.125 C 3.171875 -0.125 3.140625 -0.21875 3.140625 -0.359375 C 3.140625 -0.53125 3.171875 -0.609375 3.296875 -0.921875 C 3.390625 -1.140625 3.671875 -1.875 3.671875 -2.265625 C 3.671875 -2.375 3.671875 -2.671875 3.40625 -2.859375 C 3.296875 -2.953125 3.09375 -3.046875 2.765625 -3.046875 C 2.265625 -3.046875 1.890625 -2.78125 1.640625 -2.484375 L 2.171875 -4.59375 C 2.171875 -4.609375 2.1875 -4.703125 2.1875 -4.703125 C 2.1875 -4.734375 2.171875 -4.796875 2.078125 -4.796875 C 1.9375 -4.796875 1.375 -4.75 1.203125 -4.734375 C 1.140625 -4.734375 1.046875 -4.71875 1.046875 -4.578125 C 1.046875 -4.484375 1.140625 -4.484375 1.21875 -4.484375 C 1.5625 -4.484375 1.5625 -4.4375 1.5625 -4.375 C 1.5625 -4.328125 1.546875 -4.28125 1.53125 -4.21875 L 0.546875 -0.296875 C 0.515625 -0.1875 0.515625 -0.15625 0.515625 -0.15625 C 0.515625 -0.046875 0.609375 0.0625 0.75 0.0625 C 0.828125 0.0625 0.96875 0.03125 1.03125 -0.109375 C 1.0625 -0.15625 1.125 -0.40625 1.15625 -0.546875 L 1.3125 -1.15625 C 1.328125 -1.265625 1.40625 -1.53125 1.421875 -1.640625 C 1.5 -1.890625 1.5 -1.90625 1.640625 -2.125 C 1.859375 -2.46875 2.203125 -2.859375 2.734375 -2.859375 C 3.125 -2.859375 3.15625 -2.546875 3.15625 -2.375 C 3.15625 -1.953125 2.859375 -1.1875 2.734375 -0.90625 C 2.671875 -0.703125 2.640625 -0.640625 2.640625 -0.53125 C 2.640625 -0.15625 2.9375 0.0625 3.296875 0.0625 C 3.984375 0.0625 4.296875 -0.890625 4.296875 -0.984375 Z M 4.296875 -0.984375 "/>
</g>
<g id="glyph-2-0">
<path d="M 2.8125 -2.609375 C 2.8125 -2.84375 2.59375 -3.046875 2.265625 -3.046875 C 1.921875 -3.046875 1.546875 -2.84375 1.328125 -2.3125 L 1.328125 -3.046875 L 0.34375 -2.96875 L 0.34375 -2.734375 C 0.796875 -2.734375 0.859375 -2.671875 0.859375 -2.34375 L 0.859375 -0.546875 C 0.859375 -0.25 0.796875 -0.25 0.34375 -0.25 L 0.34375 0 C 0.375 0 0.84375 -0.03125 1.125 -0.03125 L 2.03125 0 L 2.03125 -0.25 L 1.890625 -0.25 C 1.375 -0.25 1.375 -0.328125 1.375 -0.5625 L 1.375 -1.578125 C 1.375 -2.15625 1.640625 -2.859375 2.3125 -2.859375 C 2.25 -2.8125 2.1875 -2.71875 2.1875 -2.609375 C 2.1875 -2.375 2.375 -2.296875 2.5 -2.296875 C 2.671875 -2.296875 2.8125 -2.40625 2.8125 -2.609375 Z M 2.8125 -2.609375 "/>
</g>
<g id="glyph-2-1">
<path d="M 3.234375 -0.828125 C 3.234375 -0.859375 3.21875 -0.921875 3.125 -0.921875 C 3.03125 -0.921875 3.015625 -0.890625 3 -0.8125 C 2.78125 -0.25 2.25 -0.15625 2 -0.15625 C 1.6875 -0.15625 1.375 -0.296875 1.15625 -0.5625 C 0.90625 -0.890625 0.90625 -1.3125 0.90625 -1.578125 L 3.046875 -1.578125 C 3.1875 -1.578125 3.234375 -1.578125 3.234375 -1.734375 C 3.234375 -2.34375 2.90625 -3.09375 1.875 -3.09375 C 0.96875 -3.09375 0.265625 -2.375 0.265625 -1.515625 C 0.265625 -0.640625 1.03125 0.0625 1.953125 0.0625 C 2.890625 0.0625 3.234375 -0.671875 3.234375 -0.828125 Z M 2.75 -1.765625 L 0.90625 -1.765625 C 0.984375 -2.734375 1.609375 -2.890625 1.875 -2.890625 C 2.71875 -2.890625 2.75 -1.9375 2.75 -1.765625 Z M 2.75 -1.765625 "/>
</g>
<g id="glyph-2-2">
<path d="M 4.046875 -1.5 C 4.046875 -2.34375 3.34375 -3.046875 2.453125 -3.046875 C 2.0625 -3.046875 1.65625 -2.90625 1.375 -2.625 L 1.375 -3.046875 L 0.34375 -2.96875 L 0.34375 -2.734375 C 0.828125 -2.734375 0.859375 -2.6875 0.859375 -2.40625 L 0.859375 0.796875 C 0.859375 1.09375 0.796875 1.09375 0.34375 1.09375 L 0.34375 1.34375 C 0.34375 1.34375 0.84375 1.3125 1.125 1.3125 C 1.390625 1.3125 1.859375 1.328125 1.921875 1.34375 L 1.921875 1.09375 C 1.46875 1.09375 1.40625 1.09375 1.40625 0.796875 L 1.40625 -0.328125 C 1.4375 -0.296875 1.765625 0.0625 2.34375 0.0625 C 3.265625 0.0625 4.046875 -0.609375 4.046875 -1.5 Z M 3.40625 -1.5 C 3.40625 -0.703125 2.890625 -0.125 2.3125 -0.125 C 1.703125 -0.125 1.421875 -0.65625 1.40625 -0.703125 L 1.40625 -2.3125 C 1.609375 -2.65625 2.015625 -2.828125 2.375 -2.828125 C 2.96875 -2.828125 3.40625 -2.21875 3.40625 -1.5 Z M 3.40625 -1.5 "/>
</g>
<g id="glyph-2-3">
<path d="M 3.765625 -0.625 L 3.765625 -1 L 3.53125 -1 L 3.53125 -0.625 C 3.53125 -0.5625 3.53125 -0.234375 3.28125 -0.234375 C 3.015625 -0.234375 3.015625 -0.546875 3.015625 -0.640625 L 3.015625 -1.859375 C 3.015625 -2.21875 3.015625 -2.484375 2.703125 -2.734375 C 2.421875 -2.96875 2.078125 -3.09375 1.671875 -3.09375 C 1.015625 -3.09375 0.546875 -2.84375 0.546875 -2.421875 C 0.546875 -2.1875 0.703125 -2.078125 0.890625 -2.078125 C 1.078125 -2.078125 1.21875 -2.21875 1.21875 -2.40625 C 1.21875 -2.515625 1.15625 -2.671875 0.96875 -2.71875 C 1.21875 -2.890625 1.625 -2.890625 1.65625 -2.890625 C 2.046875 -2.890625 2.46875 -2.640625 2.46875 -2.0625 L 2.46875 -1.84375 C 2.09375 -1.828125 1.640625 -1.8125 1.125 -1.625 C 0.5 -1.390625 0.3125 -1.015625 0.3125 -0.703125 C 0.3125 -0.109375 1.03125 0.0625 1.515625 0.0625 C 2.078125 0.0625 2.40625 -0.25 2.546875 -0.515625 C 2.578125 -0.234375 2.765625 0.03125 3.078125 0.03125 C 3.078125 0.03125 3.765625 0.03125 3.765625 -0.625 Z M 2.46875 -0.96875 C 2.46875 -0.3125 1.890625 -0.125 1.578125 -0.125 C 1.21875 -0.125 0.890625 -0.359375 0.890625 -0.703125 C 0.890625 -1.078125 1.21875 -1.609375 2.46875 -1.65625 Z M 2.46875 -0.96875 "/>
</g>
<g id="glyph-2-4">
<path d="M 2.59375 -0.875 L 2.59375 -1.25 L 2.359375 -1.25 L 2.359375 -0.875 C 2.359375 -0.40625 2.140625 -0.15625 1.875 -0.15625 C 1.390625 -0.15625 1.390625 -0.734375 1.390625 -0.859375 L 1.390625 -2.734375 L 2.46875 -2.734375 L 2.46875 -2.984375 L 1.390625 -2.984375 L 1.390625 -4.25 L 1.15625 -4.25 C 1.15625 -3.640625 0.859375 -2.953125 0.203125 -2.921875 L 0.203125 -2.734375 L 0.84375 -2.734375 L 0.84375 -0.859375 C 0.84375 -0.09375 1.421875 0.0625 1.8125 0.0625 C 2.28125 0.0625 2.59375 -0.328125 2.59375 -0.875 Z M 2.59375 -0.875 "/>
</g>
<g id="glyph-2-5">
<path d="M 3.65625 -1.46875 C 3.65625 -2.34375 2.921875 -3.09375 1.96875 -3.09375 C 1.015625 -3.09375 0.265625 -2.34375 0.265625 -1.46875 C 0.265625 -0.609375 1.03125 0.0625 1.96875 0.0625 C 2.90625 0.0625 3.65625 -0.609375 3.65625 -1.46875 Z M 3.03125 -1.53125 C 3.03125 -1.203125 3.015625 -0.84375 2.8125 -0.546875 C 2.625 -0.296875 2.3125 -0.15625 1.96875 -0.15625 C 1.703125 -0.15625 1.328125 -0.234375 1.109375 -0.578125 C 0.921875 -0.859375 0.90625 -1.21875 0.90625 -1.53125 C 0.90625 -1.828125 0.90625 -2.25 1.15625 -2.546875 C 1.328125 -2.734375 1.609375 -2.890625 1.96875 -2.890625 C 2.375 -2.890625 2.671875 -2.703125 2.8125 -2.484375 C 3.015625 -2.21875 3.03125 -1.875 3.03125 -1.53125 Z M 3.03125 -1.53125 "/>
</g>
<g id="glyph-2-6">
<path d="M 4.078125 0 L 4.078125 -0.25 C 3.640625 -0.25 3.5625 -0.25 3.5625 -0.546875 L 3.5625 -2.09375 C 3.5625 -2.703125 3.265625 -3.046875 2.53125 -3.046875 C 1.953125 -3.046875 1.59375 -2.734375 1.390625 -2.375 L 1.390625 -3.046875 L 0.375 -2.96875 L 0.375 -2.734375 C 0.84375 -2.734375 0.890625 -2.671875 0.890625 -2.34375 L 0.890625 -0.546875 C 0.890625 -0.25 0.828125 -0.25 0.375 -0.25 L 0.375 0 C 0.375 0 0.875 -0.03125 1.15625 -0.03125 C 1.421875 -0.03125 1.890625 0 1.953125 0 L 1.953125 -0.25 C 1.515625 -0.25 1.4375 -0.25 1.4375 -0.546875 L 1.4375 -1.796875 C 1.4375 -2.515625 2.015625 -2.859375 2.46875 -2.859375 C 2.953125 -2.859375 3.015625 -2.484375 3.015625 -2.125 L 3.015625 -0.546875 C 3.015625 -0.25 2.953125 -0.25 2.5 -0.25 L 2.5 0 C 2.5 0 3 -0.03125 3.28125 -0.03125 C 3.546875 -0.03125 4.015625 0 4.078125 0 Z M 4.078125 0 "/>
</g>
<g id="glyph-2-7">
<path d="M 4.015625 0 L 4.015625 -0.25 C 3.5625 -0.25 3.5 -0.296875 3.5 -0.640625 L 3.5 -4.796875 L 2.46875 -4.734375 L 2.46875 -4.484375 C 2.921875 -4.484375 2.984375 -4.4375 2.984375 -4.09375 L 2.984375 -2.65625 C 2.734375 -2.90625 2.390625 -3.046875 2.015625 -3.046875 C 1.09375 -3.046875 0.3125 -2.359375 0.3125 -1.484375 C 0.3125 -0.625 1.046875 0.0625 1.9375 0.0625 C 2.5 0.0625 2.84375 -0.234375 2.953125 -0.359375 L 2.953125 0.0625 Z M 2.953125 -0.734375 C 2.78125 -0.40625 2.421875 -0.125 1.96875 -0.125 C 1.578125 -0.125 1.3125 -0.359375 1.171875 -0.546875 C 1.03125 -0.765625 0.953125 -1.03125 0.953125 -1.484375 C 0.953125 -1.640625 0.953125 -2.15625 1.234375 -2.484375 C 1.515625 -2.796875 1.84375 -2.859375 2.046875 -2.859375 C 2.375 -2.859375 2.671875 -2.703125 2.875 -2.453125 C 2.953125 -2.34375 2.953125 -2.34375 2.953125 -2.203125 Z M 2.953125 -0.734375 "/>
</g>
<g id="glyph-2-8">
<path d="M 3.578125 -2.203125 C 3.578125 -2.96875 3.484375 -3.515625 3.15625 -4 C 2.953125 -4.3125 2.515625 -4.59375 1.96875 -4.59375 C 0.359375 -4.59375 0.359375 -2.703125 0.359375 -2.203125 C 0.359375 -1.703125 0.359375 0.140625 1.96875 0.140625 C 3.578125 0.140625 3.578125 -1.703125 3.578125 -2.203125 Z M 2.9375 -2.296875 C 2.9375 -1.78125 2.9375 -1.28125 2.859375 -0.84375 C 2.71875 -0.203125 2.25 -0.0625 1.96875 -0.0625 C 1.640625 -0.0625 1.21875 -0.25 1.09375 -0.8125 C 0.984375 -1.21875 0.984375 -1.78125 0.984375 -2.296875 C 0.984375 -2.796875 0.984375 -3.328125 1.09375 -3.703125 C 1.234375 -4.25 1.6875 -4.40625 1.96875 -4.40625 C 2.34375 -4.40625 2.703125 -4.171875 2.828125 -3.765625 C 2.9375 -3.40625 2.9375 -2.90625 2.9375 -2.296875 Z M 2.9375 -2.296875 "/>
</g>
<g id="glyph-2-9">
<path d="M 1.515625 -0.390625 C 1.515625 -0.640625 1.328125 -0.796875 1.125 -0.796875 C 0.875 -0.796875 0.71875 -0.609375 0.71875 -0.40625 C 0.71875 -0.15625 0.90625 0 1.109375 0 C 1.359375 0 1.515625 -0.1875 1.515625 -0.390625 Z M 1.515625 -0.390625 "/>
</g>
<g id="glyph-2-10">
<path d="M 5.515625 0 L 5.515625 -0.25 L 5.375 -0.25 C 4.921875 -0.25 4.859375 -0.3125 4.796875 -0.515625 L 3.109375 -4.78125 C 3.0625 -4.890625 3.046875 -4.9375 2.921875 -4.9375 C 2.78125 -4.9375 2.765625 -4.890625 2.71875 -4.78125 L 1.125 -0.734375 C 1.046875 -0.546875 0.9375 -0.25 0.3125 -0.25 L 0.3125 0 C 0.546875 -0.015625 0.796875 -0.03125 1.03125 -0.03125 C 1.296875 -0.03125 1.8125 0 1.859375 0 L 1.859375 -0.25 C 1.546875 -0.25 1.359375 -0.390625 1.359375 -0.578125 C 1.359375 -0.640625 1.359375 -0.65625 1.390625 -0.71875 L 1.71875 -1.578125 L 3.6875 -1.578125 L 4.09375 -0.5625 C 4.109375 -0.53125 4.125 -0.484375 4.125 -0.4375 C 4.125 -0.25 3.75 -0.25 3.5625 -0.25 L 3.5625 0 L 4.59375 -0.03125 C 4.921875 -0.03125 5.4375 0 5.515625 0 Z M 3.59375 -1.828125 L 1.828125 -1.828125 L 2.703125 -4.0625 Z M 3.59375 -1.828125 "/>
</g>
<g id="glyph-2-11">
<path d="M 3.28125 0 L 3.28125 -0.25 L 3.015625 -0.25 C 2.3125 -0.25 2.3125 -0.34375 2.3125 -0.5625 L 2.3125 -4.40625 C 2.3125 -4.59375 2.3125 -4.59375 2.109375 -4.59375 C 1.671875 -4.15625 1.03125 -4.15625 0.75 -4.15625 L 0.75 -3.90625 C 0.921875 -3.90625 1.375 -3.90625 1.765625 -4.09375 L 1.765625 -0.5625 C 1.765625 -0.34375 1.765625 -0.25 1.0625 -0.25 L 0.796875 -0.25 L 0.796875 0 L 2.03125 -0.03125 Z M 3.28125 0 "/>
</g>
<g id="glyph-2-12">
<path d="M 5.03125 -1.265625 C 5.03125 -1.875 4.4375 -2.375 3.578125 -2.46875 C 4.265625 -2.59375 4.828125 -3.015625 4.828125 -3.546875 C 4.828125 -4.171875 4.109375 -4.734375 3.140625 -4.734375 L 0.421875 -4.734375 L 0.421875 -4.484375 L 0.578125 -4.484375 C 1.109375 -4.484375 1.125 -4.40625 1.125 -4.171875 L 1.125 -0.5625 C 1.125 -0.328125 1.109375 -0.25 0.578125 -0.25 L 0.421875 -0.25 L 0.421875 0 L 3.34375 0 C 4.328125 0 5.03125 -0.609375 5.03125 -1.265625 Z M 4.140625 -3.546875 C 4.140625 -3.0625 3.671875 -2.546875 2.875 -2.546875 L 1.734375 -2.546875 L 1.734375 -4.203125 C 1.734375 -4.421875 1.75 -4.484375 2.0625 -4.484375 L 3.09375 -4.484375 C 3.78125 -4.484375 4.140625 -3.984375 4.140625 -3.546875 Z M 4.328125 -1.28125 C 4.328125 -0.765625 3.875 -0.25 3.109375 -0.25 L 2.0625 -0.25 C 1.75 -0.25 1.734375 -0.296875 1.734375 -0.515625 L 1.734375 -2.359375 L 3.21875 -2.359375 C 3.953125 -2.359375 4.328125 -1.765625 4.328125 -1.28125 Z M 4.328125 -1.28125 "/>
</g>
<g id="glyph-2-13">
<path d="M 3.5 -1.265625 L 3.265625 -1.265625 C 3.234375 -1.109375 3.171875 -0.703125 3.078125 -0.625 C 3.03125 -0.59375 2.484375 -0.59375 2.390625 -0.59375 L 1.125 -0.59375 C 1.84375 -1.234375 2.09375 -1.421875 2.5 -1.75 C 3.015625 -2.15625 3.5 -2.59375 3.5 -3.25 C 3.5 -4.078125 2.765625 -4.59375 1.875 -4.59375 C 1.015625 -4.59375 0.4375 -4 0.4375 -3.359375 C 0.4375 -3 0.734375 -2.96875 0.796875 -2.96875 C 0.96875 -2.96875 1.171875 -3.09375 1.171875 -3.34375 C 1.171875 -3.453125 1.125 -3.703125 0.765625 -3.703125 C 0.96875 -4.1875 1.453125 -4.34375 1.765625 -4.34375 C 2.46875 -4.34375 2.828125 -3.8125 2.828125 -3.25 C 2.828125 -2.640625 2.390625 -2.171875 2.171875 -1.921875 L 0.5 -0.265625 C 0.4375 -0.203125 0.4375 -0.1875 0.4375 0 L 3.28125 0 Z M 3.5 -1.265625 "/>
</g>
<g id="glyph-2-14">
<path d="M 5.15625 -1.625 C 5.15625 -1.703125 5.140625 -1.75 5.03125 -1.75 C 4.984375 -1.75 4.921875 -1.75 4.921875 -1.65625 C 4.859375 -0.546875 3.921875 -0.109375 3.234375 -0.109375 C 2.484375 -0.109375 1.21875 -0.5625 1.21875 -2.359375 C 1.21875 -4.234375 2.5625 -4.609375 3.21875 -4.609375 C 3.90625 -4.609375 4.71875 -4.15625 4.90625 -2.96875 C 4.921875 -2.890625 4.984375 -2.890625 5.03125 -2.890625 C 5.15625 -2.890625 5.15625 -2.921875 5.15625 -3.0625 L 5.15625 -4.6875 C 5.15625 -4.796875 5.15625 -4.859375 5.046875 -4.859375 C 5.03125 -4.859375 4.984375 -4.859375 4.9375 -4.78125 L 4.5625 -4.25 C 4.28125 -4.546875 3.796875 -4.859375 3.140625 -4.859375 C 1.6875 -4.859375 0.484375 -3.75 0.484375 -2.375 C 0.484375 -0.96875 1.703125 0.140625 3.140625 0.140625 C 4.359375 0.140625 5.15625 -0.78125 5.15625 -1.625 Z M 5.15625 -1.625 "/>
</g>
<g id="glyph-3-0">
<path d="M 2.59375 1.640625 C 2.59375 1.59375 2.578125 1.578125 2.53125 1.53125 C 1.609375 0.703125 1.265625 -0.46875 1.265625 -1.734375 C 1.265625 -3.59375 1.984375 -4.515625 2.546875 -5.03125 C 2.578125 -5.046875 2.59375 -5.078125 2.59375 -5.109375 C 2.59375 -5.1875 2.515625 -5.1875 2.453125 -5.1875 C 1.140625 -4.265625 0.796875 -2.796875 0.796875 -1.734375 C 0.796875 -0.765625 1.09375 0.75 2.453125 1.71875 C 2.515625 1.71875 2.59375 1.71875 2.59375 1.640625 Z M 2.59375 1.640625 "/>
</g>
<g id="glyph-3-1">
<path d="M 2.28125 -1.734375 C 2.28125 -2.703125 2 -4.21875 0.625 -5.1875 C 0.578125 -5.1875 0.484375 -5.1875 0.484375 -5.109375 C 0.484375 -5.078125 0.515625 -5.046875 0.546875 -5 C 1.15625 -4.453125 1.8125 -3.515625 1.8125 -1.734375 C 1.8125 -0.296875 1.359375 0.796875 0.609375 1.484375 C 0.5 1.59375 0.484375 1.609375 0.484375 1.640625 C 0.484375 1.671875 0.515625 1.71875 0.578125 1.71875 C 0.671875 1.71875 1.328125 1.265625 1.78125 0.40625 C 2.078125 -0.171875 2.28125 -0.921875 2.28125 -1.734375 Z M 2.28125 -1.734375 "/>
</g>
</g>
<clipPath id="clip-0">
<path clip-rule="nonzero" d="M 0.515625 32 L 43 32 L 43 59 L 0.515625 59 Z M 0.515625 32 "/>
</clipPath>
<clipPath id="clip-1">
<path clip-rule="nonzero" d="M 128 53 L 185 53 L 185 90.832031 L 128 90.832031 Z M 128 53 "/>
</clipPath>
</defs>
<g clip-path="url(#clip-0)">
<path fill="none" stroke-width="0.3985" stroke-linecap="butt" stroke-linejoin="miter" stroke="rgb(0%, 0%, 0%)" stroke-opacity="1" stroke-miterlimit="10" d="M 15.640059 7.086424 L -15.640878 7.086424 C -16.191253 7.086424 -16.635484 6.642193 -16.635484 6.091818 L -16.635484 -6.091118 C -16.635484 -6.641493 -16.191253 -7.085724 -15.640878 -7.085724 L 15.640059 -7.085724 C 16.190434 -7.085724 16.638596 -6.641493 16.638596 -6.091118 L 16.638596 6.091818 C 16.638596 6.642193 16.190434 7.086424 15.640059 7.086424 Z M 15.640059 7.086424 " transform="matrix(0.993641, 0, 0, -0.993641, 20.213298, 45.416363)"/>
</g>
<g fill="rgb(0%, 0%, 0%)" fill-opacity="1">
<use xlink:href="#glyph-0-0" x="6.98197" y="47.822962"/>
<use xlink:href="#glyph-0-1" x="10.66359" y="47.822962"/>
<use xlink:href="#glyph-0-2" x="14.34521" y="47.822962"/>
<use xlink:href="#glyph-0-3" x="18.026829" y="47.822962"/>
<use xlink:href="#glyph-0-4" x="21.708449" y="47.822962"/>
</g>
<g fill="rgb(0%, 0%, 0%)" fill-opacity="1">
<use xlink:href="#glyph-1-0" x="29.069622" y="47.822962"/>
</g>
<path fill-rule="nonzero" fill="rgb(83.529663%, 91.764832%, 83.529663%)" fill-opacity="1" stroke-width="0.3985" stroke-linecap="butt" stroke-linejoin="miter" stroke="rgb(0%, 0%, 0%)" stroke-opacity="1" stroke-miterlimit="10" d="M 74.074124 -0.00161593 C 74.074124 8.706098 67.017534 15.762687 58.309821 15.762687 C 49.606038 15.762687 42.549449 8.706098 42.549449 -0.00161593 C 42.549449 -8.705398 49.606038 -15.761988 58.309821 -15.761988 C 67.017534 -15.761988 74.074124 -8.705398 74.074124 -0.00161593 Z M 74.074124 -0.00161593 " transform="matrix(0.993641, 0, 0, -0.993641, 20.213298, 45.416363)"/>
<g fill="rgb(0%, 0%, 0%)" fill-opacity="1">
<use xlink:href="#glyph-2-0" x="65.620718" y="42.772284"/>
<use xlink:href="#glyph-2-1" x="68.714027" y="42.772284"/>
<use xlink:href="#glyph-2-2" x="72.233497" y="42.772284"/>
<use xlink:href="#glyph-2-3" x="76.605984" y="42.772284"/>
<use xlink:href="#glyph-2-0" x="80.551616" y="42.772284"/>
<use xlink:href="#glyph-2-4" x="83.644925" y="42.772284"/>
<use xlink:href="#glyph-2-5" x="86.738234" y="42.772284"/>
</g>
<g fill="rgb(0%, 0%, 0%)" fill-opacity="1">
<use xlink:href="#glyph-1-1" x="70.554147" y="50.691605"/>
</g>
<g fill="rgb(0%, 0%, 0%)" fill-opacity="1">
<use xlink:href="#glyph-3-0" x="75.189484" y="50.691605"/>
</g>
<g fill="rgb(0%, 0%, 0%)" fill-opacity="1">
<use xlink:href="#glyph-1-0" x="78.282689" y="50.691605"/>
</g>
<g fill="rgb(0%, 0%, 0%)" fill-opacity="1">
<use xlink:href="#glyph-3-1" x="82.658685" y="50.691605"/>
</g>
<path fill-rule="nonzero" fill="rgb(80.39093%, 87.841797%, 94.900513%)" fill-opacity="1" stroke-width="0.3985" stroke-linecap="butt" stroke-linejoin="miter" stroke="rgb(0%, 0%, 0%)" stroke-opacity="1" stroke-miterlimit="10" d="M 157.522716 42.518758 L 116.150267 42.518758 C 115.049517 42.518758 114.161055 41.626365 114.161055 40.529547 L 114.161055 16.167605 C 114.161055 15.066856 115.049517 14.174463 116.150267 14.174463 L 157.522716 14.174463 C 158.623466 14.174463 159.515859 15.066856 159.515859 16.167605 L 159.515859 40.529547 C 159.515859 41.626365 158.623466 42.518758 157.522716 42.518758 Z M 157.522716 42.518758 " transform="matrix(0.993641, 0, 0, -0.993641, 20.213298, 45.416363)"/>
<g fill="rgb(0%, 0%, 0%)" fill-opacity="1">
<use xlink:href="#glyph-2-6" x="144.447276" y="15.003984"/>
<use xlink:href="#glyph-2-5" x="148.819763" y="15.003984"/>
</g>
<g fill="rgb(0%, 0%, 0%)" fill-opacity="1">
<use xlink:href="#glyph-2-7" x="152.980208" y="15.003984"/>
<use xlink:href="#glyph-2-5" x="157.352695" y="15.003984"/>
</g>
<g fill="rgb(0%, 0%, 0%)" fill-opacity="1">
<use xlink:href="#glyph-2-8" x="163.966167" y="15.003984"/>
</g>
<g fill="rgb(0%, 0%, 0%)" fill-opacity="1">
<use xlink:href="#glyph-2-2" x="143.550018" y="22.923305"/>
<use xlink:href="#glyph-2-3" x="147.922505" y="22.923305"/>
<use xlink:href="#glyph-2-0" x="151.868137" y="22.923305"/>
<use xlink:href="#glyph-2-4" x="154.961446" y="22.923305"/>
<use xlink:href="#glyph-2-9" x="158.054755" y="22.923305"/>
</g>
<g fill="rgb(0%, 0%, 0%)" fill-opacity="1">
<use xlink:href="#glyph-2-10" x="162.963581" y="22.923305"/>
</g>
<path fill-rule="nonzero" fill="rgb(80.39093%, 87.841797%, 94.900513%)" fill-opacity="1" stroke-width="0.3985" stroke-linecap="butt" stroke-linejoin="miter" stroke="rgb(0%, 0%, 0%)" stroke-opacity="1" stroke-miterlimit="10" d="M 157.522716 14.174463 L 116.150267 14.174463 C 115.049517 14.174463 114.161055 13.28207 114.161055 12.18132 L 114.161055 -12.180621 C 114.161055 -13.28137 115.049517 -14.173764 116.150267 -14.173764 L 157.522716 -14.173764 C 158.623466 -14.173764 159.515859 -13.28137 159.515859 -12.180621 L 159.515859 12.18132 C 159.515859 13.28207 158.623466 14.174463 157.522716 14.174463 Z M 157.522716 14.174463 " transform="matrix(0.993641, 0, 0, -0.993641, 20.213298, 45.416363)"/>
<g fill="rgb(0%, 0%, 0%)" fill-opacity="1">
<use xlink:href="#glyph-2-6" x="144.447276" y="43.16974"/>
<use xlink:href="#glyph-2-5" x="148.819763" y="43.16974"/>
</g>
<g fill="rgb(0%, 0%, 0%)" fill-opacity="1">
<use xlink:href="#glyph-2-7" x="152.980208" y="43.16974"/>
<use xlink:href="#glyph-2-5" x="157.352695" y="43.16974"/>
</g>
<g fill="rgb(0%, 0%, 0%)" fill-opacity="1">
<use xlink:href="#glyph-2-11" x="163.966167" y="43.16974"/>
</g>
<g fill="rgb(0%, 0%, 0%)" fill-opacity="1">
<use xlink:href="#glyph-2-2" x="143.704033" y="51.089061"/>
<use xlink:href="#glyph-2-3" x="148.076519" y="51.089061"/>
<use xlink:href="#glyph-2-0" x="152.022151" y="51.089061"/>
<use xlink:href="#glyph-2-4" x="155.11546" y="51.089061"/>
<use xlink:href="#glyph-2-9" x="158.208769" y="51.089061"/>
</g>
<g fill="rgb(0%, 0%, 0%)" fill-opacity="1">
<use xlink:href="#glyph-2-12" x="163.117596" y="51.089061"/>
</g>
<path fill-rule="nonzero" fill="rgb(80.39093%, 87.841797%, 94.900513%)" fill-opacity="1" d="M 176.734375 59.5 L 135.625 59.5 C 134.53125 59.5 133.648438 60.386719 133.648438 61.480469 L 133.648438 85.6875 C 133.648438 86.78125 134.53125 87.667969 135.625 87.667969 L 176.734375 87.667969 C 177.828125 87.667969 178.714844 86.78125 178.714844 85.6875 L 178.714844 61.480469 C 178.714844 60.386719 177.828125 59.5 176.734375 59.5 Z M 176.734375 59.5 "/>
<g clip-path="url(#clip-1)">
<path fill="none" stroke-width="0.3985" stroke-linecap="butt" stroke-linejoin="miter" stroke="rgb(0%, 0%, 0%)" stroke-opacity="1" stroke-miterlimit="10" d="M 157.522716 -14.173764 L 116.150267 -14.173764 C 115.049517 -14.173764 114.161055 -15.066157 114.161055 -16.166906 L 114.161055 -40.528848 C 114.161055 -41.629597 115.049517 -42.52199 116.150267 -42.52199 L 157.522716 -42.52199 C 158.623466 -42.52199 159.515859 -41.629597 159.515859 -40.528848 L 159.515859 -16.166906 C 159.515859 -15.066157 158.623466 -14.173764 157.522716 -14.173764 Z M 157.522716 -14.173764 " transform="matrix(0.993641, 0, 0, -0.993641, 20.213298, 45.416363)"/>
</g>
<g fill="rgb(0%, 0%, 0%)" fill-opacity="1">
<use xlink:href="#glyph-2-6" x="144.447276" y="71.33649"/>
<use xlink:href="#glyph-2-5" x="148.819763" y="71.33649"/>
</g>
<g fill="rgb(0%, 0%, 0%)" fill-opacity="1">
<use xlink:href="#glyph-2-7" x="152.980208" y="71.33649"/>
<use xlink:href="#glyph-2-5" x="157.352695" y="71.33649"/>
</g>
<g fill="rgb(0%, 0%, 0%)" fill-opacity="1">
<use xlink:href="#glyph-2-13" x="163.966167" y="71.33649"/>
</g>
<g fill="rgb(0%, 0%, 0%)" fill-opacity="1">
<use xlink:href="#glyph-2-2" x="143.645408" y="79.255811"/>
<use xlink:href="#glyph-2-3" x="148.017894" y="79.255811"/>
<use xlink:href="#glyph-2-0" x="151.963526" y="79.255811"/>
<use xlink:href="#glyph-2-4" x="155.056835" y="79.255811"/>
<use xlink:href="#glyph-2-9" x="158.150144" y="79.255811"/>
</g>
<g fill="rgb(0%, 0%, 0%)" fill-opacity="1">
<use xlink:href="#glyph-2-14" x="163.058971" y="79.255811"/>
</g>
<path fill="none" stroke-width="0.59776" stroke-linecap="butt" stroke-linejoin="miter" stroke="rgb(0%, 0%, 0%)" stroke-opacity="1" stroke-miterlimit="10" d="M 16.835158 -0.00161593 L 38.767589 -0.00161593 " transform="matrix(0.993641, 0, 0, -0.993641, 20.213298, 45.416363)"/>
<path fill-rule="nonzero" fill="rgb(0%, 0%, 0%)" fill-opacity="1" stroke-width="0.59776" stroke-linecap="butt" stroke-linejoin="miter" stroke="rgb(0%, 0%, 0%)" stroke-opacity="1" stroke-miterlimit="10" d="M 4.816885 -0.00161593 L 0.964262 1.452946 L 2.237986 -0.00161593 L 0.964262 -1.456178 Z M 4.816885 -0.00161593 " transform="matrix(0.993641, 0, 0, -0.993641, 56.659057, 45.416363)"/>
<path fill="none" stroke-width="0.59776" stroke-linecap="butt" stroke-linejoin="miter" stroke="rgb(0%, 0%, 0%)" stroke-opacity="1" stroke-miterlimit="10" d="M 73.327186 5.419575 L 110.591483 18.876235 " transform="matrix(0.993641, 0, 0, -0.993641, 20.213298, 45.416363)"/>
<path fill-rule="nonzero" fill="rgb(0%, 0%, 0%)" fill-opacity="1" stroke-width="0.59776" stroke-linecap="butt" stroke-linejoin="miter" stroke="rgb(0%, 0%, 0%)" stroke-opacity="1" stroke-miterlimit="10" d="M 4.817333 -0.00000732951 L 0.965864 1.453336 L 2.238117 -0.000822009 L 0.96474 -1.455383 Z M 4.817333 -0.00000732951 " transform="matrix(0.934559, -0.337441, -0.337441, -0.934559, 128.150257, 27.363838)"/>
<path fill="none" stroke-width="0.59776" stroke-linecap="butt" stroke-linejoin="miter" stroke="rgb(0%, 0%, 0%)" stroke-opacity="1" stroke-miterlimit="10" d="M 74.274617 -0.00161593 L 110.379195 -0.00161593 " transform="matrix(0.993641, 0, 0, -0.993641, 20.213298, 45.416363)"/>
<path fill-rule="nonzero" fill="rgb(0%, 0%, 0%)" fill-opacity="1" stroke-width="0.59776" stroke-linecap="butt" stroke-linejoin="miter" stroke="rgb(0%, 0%, 0%)" stroke-opacity="1" stroke-miterlimit="10" d="M 4.816921 -0.00161593 L 0.964298 1.452946 L 2.238023 -0.00161593 L 0.964298 -1.456178 Z M 4.816921 -0.00161593 " transform="matrix(0.993641, 0, 0, -0.993641, 127.815271, 45.416363)"/>
<path fill="none" stroke-width="0.59776" stroke-linecap="butt" stroke-linejoin="miter" stroke="rgb(0%, 0%, 0%)" stroke-opacity="1" stroke-miterlimit="10" d="M 73.327186 -5.422806 L 110.591483 -18.875536 " transform="matrix(0.993641, 0, 0, -0.993641, 20.213298, 45.416363)"/>
<path fill-rule="nonzero" fill="rgb(0%, 0%, 0%)" fill-opacity="1" stroke-width="0.59776" stroke-linecap="butt" stroke-linejoin="miter" stroke="rgb(0%, 0%, 0%)" stroke-opacity="1" stroke-miterlimit="10" d="M 4.817096 0.000665174 L 0.964502 1.456041 L 2.237879 0.00147985 L 0.965627 -1.452678 Z M 4.817096 0.000665174 " transform="matrix(0.934559, 0.337441, 0.337441, -0.934559, 128.150257, 63.468888)"/>
</svg>
