<?xml version="1.0" encoding="UTF-8"?>
<svg xmlns="http://www.w3.org/2000/svg" xmlns:xlink="http://www.w3.org/1999/xlink" width="785.525" height="338.998" viewBox="0 0 357.057 154.09">
<defs>
<g>
<g id="glyph-0-0">
<path d="M 3.875 -2.53125 C 3.875 -3.375 3.78125 -3.890625 3.53125 -4.390625 C 3.171875 -5.09375 2.53125 -5.265625 2.09375 -5.265625 C 1.09375 -5.265625 0.734375 -4.515625 0.625 -4.296875 C 0.34375 -3.71875 0.328125 -2.9375 0.328125 -2.53125 C 0.328125 -2 0.34375 -1.203125 0.734375 -0.578125 C 1.09375 0.015625 1.671875 0.171875 2.09375 0.171875 C 2.484375 0.171875 3.15625 0.046875 3.5625 -0.734375 C 3.84375 -1.3125 3.875 -2.015625 3.875 -2.53125 Z M 3.171875 -2.625 C 3.171875 -2.15625 3.171875 -1.4375 3.078125 -1 C 2.90625 -0.171875 2.359375 -0.0625 2.09375 -0.0625 C 1.828125 -0.0625 1.28125 -0.1875 1.109375 -1.015625 C 1.03125 -1.46875 1.03125 -2.203125 1.03125 -2.625 C 1.03125 -3.171875 1.03125 -3.71875 1.109375 -4.15625 C 1.28125 -4.96875 1.90625 -5.046875 2.09375 -5.046875 C 2.375 -5.046875 2.921875 -4.90625 3.078125 -4.1875 C 3.171875 -3.75 3.171875 -3.15625 3.171875 -2.625 Z M 3.171875 -2.625 "/>
</g>
<g id="glyph-0-1">
<path d="M 3.546875 0 L 3.546875 -0.265625 L 3.265625 -0.265625 C 2.515625 -0.265625 2.484375 -0.359375 2.484375 -0.65625 L 2.484375 -5.046875 C 2.484375 -5.265625 2.46875 -5.265625 2.25 -5.265625 C 1.9375 -4.953125 1.515625 -4.765625 0.765625 -4.765625 L 0.765625 -4.5 C 0.96875 -4.5 1.40625 -4.5 1.859375 -4.71875 L 1.859375 -0.65625 C 1.859375 -0.359375 1.84375 -0.265625 1.078125 -0.265625 L 0.8125 -0.265625 L 0.8125 0 C 1.140625 -0.03125 1.8125 -0.03125 2.171875 -0.03125 C 2.53125 -0.03125 3.21875 -0.03125 3.546875 0 Z M 3.546875 0 "/>
</g>
<g id="glyph-0-2">
<path d="M 3.78125 -1.421875 L 3.53125 -1.421875 C 3.515625 -1.265625 3.453125 -0.859375 3.34375 -0.71875 C 3.296875 -0.65625 2.703125 -0.65625 2.578125 -0.65625 L 1.171875 -0.65625 L 2.234375 -1.609375 C 2.359375 -1.734375 2.6875 -2 2.8125 -2.109375 C 3.3125 -2.5625 3.78125 -3 3.78125 -3.71875 C 3.78125 -4.65625 2.984375 -5.265625 2 -5.265625 C 1.046875 -5.265625 0.421875 -4.546875 0.421875 -3.84375 C 0.421875 -3.453125 0.734375 -3.40625 0.84375 -3.40625 C 1 -3.40625 1.25 -3.515625 1.25 -3.8125 C 1.25 -4.234375 0.859375 -4.234375 0.765625 -4.234375 C 0.984375 -4.8125 1.515625 -5 1.90625 -5 C 2.640625 -5 3.03125 -4.375 3.03125 -3.71875 C 3.03125 -2.890625 2.453125 -2.296875 1.515625 -1.328125 L 0.515625 -0.296875 C 0.421875 -0.21875 0.421875 -0.203125 0.421875 0 L 3.546875 0 Z M 3.78125 -1.421875 "/>
</g>
<g id="glyph-0-3">
<path d="M 3.84375 -1.359375 C 3.84375 -2.015625 3.328125 -2.609375 2.515625 -2.78125 C 3.140625 -3.015625 3.609375 -3.546875 3.609375 -4.1875 C 3.609375 -4.8125 2.90625 -5.265625 2.078125 -5.265625 C 1.234375 -5.265625 0.59375 -4.8125 0.59375 -4.203125 C 0.59375 -3.90625 0.78125 -3.78125 0.984375 -3.78125 C 1.234375 -3.78125 1.390625 -3.96875 1.390625 -4.1875 C 1.390625 -4.484375 1.140625 -4.59375 0.96875 -4.609375 C 1.296875 -5.03125 1.90625 -5.0625 2.046875 -5.0625 C 2.25 -5.0625 2.859375 -5 2.859375 -4.1875 C 2.859375 -3.625 2.625 -3.296875 2.515625 -3.171875 C 2.28125 -2.921875 2.09375 -2.90625 1.609375 -2.875 C 1.46875 -2.875 1.40625 -2.859375 1.40625 -2.75 C 1.40625 -2.640625 1.46875 -2.640625 1.609375 -2.640625 L 2 -2.640625 C 2.625 -2.640625 3.03125 -2.1875 3.03125 -1.359375 C 3.03125 -0.359375 2.46875 -0.078125 2.046875 -0.078125 C 1.609375 -0.078125 1.015625 -0.234375 0.734375 -0.65625 C 1.015625 -0.65625 1.21875 -0.828125 1.21875 -1.09375 C 1.21875 -1.34375 1.03125 -1.53125 0.78125 -1.53125 C 0.578125 -1.53125 0.34375 -1.390625 0.34375 -1.078125 C 0.34375 -0.328125 1.15625 0.171875 2.0625 0.171875 C 3.109375 0.171875 3.84375 -0.5625 3.84375 -1.359375 Z M 3.84375 -1.359375 "/>
</g>
<g id="glyph-0-4">
<path d="M 3.96875 -1.296875 L 3.96875 -1.5625 L 3.125 -1.5625 L 3.125 -5.125 C 3.125 -5.28125 3.125 -5.34375 2.953125 -5.34375 C 2.859375 -5.34375 2.84375 -5.34375 2.765625 -5.234375 L 0.234375 -1.5625 L 0.234375 -1.296875 L 2.46875 -1.296875 L 2.46875 -0.640625 C 2.46875 -0.34375 2.453125 -0.265625 1.84375 -0.265625 L 1.65625 -0.265625 L 1.65625 0 L 2.796875 -0.03125 L 3.9375 0 L 3.9375 -0.265625 L 3.75 -0.265625 C 3.140625 -0.265625 3.125 -0.34375 3.125 -0.640625 L 3.125 -1.296875 Z M 2.53125 -1.5625 L 0.515625 -1.5625 L 2.53125 -4.484375 Z M 2.53125 -1.5625 "/>
</g>
<g id="glyph-0-5">
<path d="M 3.78125 -1.578125 C 3.78125 -2.5 3.109375 -3.3125 2.171875 -3.3125 C 1.78125 -3.3125 1.40625 -3.1875 1.109375 -2.921875 L 1.109375 -4.453125 C 1.21875 -4.421875 1.53125 -4.34375 1.859375 -4.34375 C 2.859375 -4.34375 3.453125 -5.03125 3.453125 -5.15625 C 3.453125 -5.25 3.40625 -5.265625 3.359375 -5.265625 C 3.359375 -5.265625 3.328125 -5.265625 3.25 -5.234375 C 2.953125 -5.109375 2.578125 -5.015625 2.15625 -5.015625 C 1.6875 -5.015625 1.296875 -5.140625 1.046875 -5.234375 C 0.96875 -5.265625 0.953125 -5.265625 0.953125 -5.265625 C 0.84375 -5.265625 0.84375 -5.1875 0.84375 -5.03125 L 0.84375 -2.71875 C 0.84375 -2.578125 0.84375 -2.484375 0.96875 -2.484375 C 1.03125 -2.484375 1.0625 -2.515625 1.09375 -2.578125 C 1.203125 -2.6875 1.5 -3.09375 2.171875 -3.09375 C 2.609375 -3.09375 2.828125 -2.734375 2.90625 -2.578125 C 3.03125 -2.296875 3.046875 -1.9375 3.046875 -1.625 C 3.046875 -1.328125 3.046875 -0.90625 2.8125 -0.546875 C 2.671875 -0.3125 2.359375 -0.078125 1.9375 -0.078125 C 1.421875 -0.078125 0.90625 -0.390625 0.734375 -0.90625 C 0.75 -0.90625 0.8125 -0.90625 0.8125 -0.90625 C 1.03125 -0.90625 1.203125 -1.046875 1.203125 -1.296875 C 1.203125 -1.578125 0.96875 -1.6875 0.8125 -1.6875 C 0.671875 -1.6875 0.421875 -1.609375 0.421875 -1.265625 C 0.421875 -0.546875 1.03125 0.171875 1.953125 0.171875 C 2.9375 0.171875 3.78125 -0.609375 3.78125 -1.578125 Z M 3.78125 -1.578125 "/>
</g>
<g id="glyph-0-6">
<path d="M 3.84375 -1.609375 C 3.84375 -2.640625 3.0625 -3.375 2.1875 -3.375 C 1.609375 -3.375 1.28125 -3.015625 1.09375 -2.625 C 1.09375 -3.28125 1.15625 -3.859375 1.4375 -4.34375 C 1.671875 -4.734375 2.078125 -5.0625 2.578125 -5.0625 C 2.734375 -5.0625 3.09375 -5.03125 3.28125 -4.765625 C 2.921875 -4.75 2.890625 -4.46875 2.890625 -4.390625 C 2.890625 -4.15625 3.078125 -4.015625 3.265625 -4.015625 C 3.40625 -4.015625 3.640625 -4.109375 3.640625 -4.40625 C 3.640625 -4.875 3.28125 -5.265625 2.5625 -5.265625 C 1.46875 -5.265625 0.34375 -4.21875 0.34375 -2.515625 C 0.34375 -0.359375 1.34375 0.171875 2.109375 0.171875 C 2.5 0.171875 2.90625 0.0625 3.265625 -0.28125 C 3.578125 -0.59375 3.84375 -0.921875 3.84375 -1.609375 Z M 3.109375 -1.609375 C 3.109375 -1.21875 3.109375 -0.859375 2.953125 -0.578125 C 2.734375 -0.21875 2.46875 -0.078125 2.109375 -0.078125 C 1.6875 -0.078125 1.4375 -0.359375 1.3125 -0.59375 C 1.140625 -0.9375 1.109375 -1.484375 1.109375 -1.78125 C 1.109375 -2.5625 1.546875 -3.15625 2.15625 -3.15625 C 2.546875 -3.15625 2.78125 -2.953125 2.9375 -2.671875 C 3.109375 -2.375 3.109375 -2.015625 3.109375 -1.609375 Z M 3.109375 -1.609375 "/>
</g>
<g id="glyph-0-7">
<path d="M 4.078125 -5.109375 L 2.0625 -5.109375 C 1.875 -5.109375 1.625 -5.109375 1.421875 -5.125 C 1.015625 -5.15625 1 -5.234375 0.984375 -5.359375 L 0.734375 -5.359375 L 0.46875 -3.6875 L 0.71875 -3.6875 C 0.734375 -3.796875 0.8125 -4.34375 0.921875 -4.40625 C 1.015625 -4.453125 1.609375 -4.453125 1.734375 -4.453125 L 3.40625 -4.453125 L 2.59375 -3.359375 C 1.6875 -2.15625 1.5 -0.90625 1.5 -0.28125 C 1.5 -0.203125 1.5 0.171875 1.875 0.171875 C 2.234375 0.171875 2.234375 -0.1875 2.234375 -0.28125 L 2.234375 -0.671875 C 2.234375 -1.8125 2.4375 -2.734375 2.8125 -3.25 L 4.015625 -4.828125 C 4.078125 -4.90625 4.078125 -4.921875 4.078125 -5.109375 Z M 4.078125 -5.109375 "/>
</g>
<g id="glyph-0-8">
<path d="M 3.84375 -1.328125 C 3.84375 -1.828125 3.578125 -2.15625 3.453125 -2.296875 C 3.3125 -2.421875 3.3125 -2.4375 2.625 -2.859375 C 3.078125 -3.078125 3.609375 -3.46875 3.609375 -4.09375 C 3.609375 -4.84375 2.84375 -5.265625 2.109375 -5.265625 C 1.265625 -5.265625 0.59375 -4.6875 0.59375 -3.9375 C 0.59375 -3.65625 0.6875 -3.375 0.890625 -3.15625 C 1.015625 -2.984375 1.046875 -2.96875 1.546875 -2.65625 C 0.5625 -2.21875 0.34375 -1.640625 0.34375 -1.203125 C 0.34375 -0.328125 1.234375 0.171875 2.09375 0.171875 C 3.0625 0.171875 3.84375 -0.484375 3.84375 -1.328125 Z M 3.21875 -4.09375 C 3.21875 -3.625 2.859375 -3.234375 2.390625 -3.015625 L 1.40625 -3.609375 C 1.171875 -3.734375 0.984375 -3.96875 0.984375 -4.25 C 0.984375 -4.75 1.53125 -5.0625 2.09375 -5.0625 C 2.703125 -5.0625 3.21875 -4.640625 3.21875 -4.09375 Z M 3.40625 -1.0625 C 3.40625 -0.453125 2.75 -0.078125 2.109375 -0.078125 C 1.40625 -0.078125 0.796875 -0.546875 0.796875 -1.203125 C 0.796875 -1.796875 1.25 -2.265625 1.796875 -2.515625 L 2.859375 -1.859375 C 2.984375 -1.796875 3.40625 -1.53125 3.40625 -1.0625 Z M 3.40625 -1.0625 "/>
</g>
<g id="glyph-0-9">
<path d="M 3.84375 -2.609375 C 3.84375 -4.671875 2.9375 -5.265625 2.125 -5.265625 C 1.1875 -5.265625 0.34375 -4.546875 0.34375 -3.5 C 0.34375 -2.484375 1.109375 -1.734375 2.015625 -1.734375 C 2.578125 -1.734375 2.921875 -2.09375 3.109375 -2.5 L 3.109375 -2.34375 C 3.109375 -0.40625 2.1875 -0.078125 1.734375 -0.078125 C 1.5625 -0.078125 1.15625 -0.09375 0.9375 -0.34375 C 1.28125 -0.375 1.3125 -0.640625 1.3125 -0.71875 C 1.3125 -0.953125 1.125 -1.078125 0.9375 -1.078125 C 0.796875 -1.078125 0.5625 -1 0.5625 -0.703125 C 0.5625 -0.15625 1 0.171875 1.734375 0.171875 C 2.8125 0.171875 3.84375 -0.90625 3.84375 -2.609375 Z M 3.09375 -3.328125 C 3.09375 -2.703125 2.75 -1.953125 2.046875 -1.953125 C 1.671875 -1.953125 1.453125 -2.125 1.28125 -2.421875 C 1.09375 -2.703125 1.09375 -3.09375 1.09375 -3.5 C 1.09375 -3.96875 1.09375 -4.296875 1.3125 -4.625 C 1.5 -4.90625 1.765625 -5.0625 2.125 -5.0625 C 2.65625 -5.0625 2.890625 -4.546875 2.921875 -4.5 C 3.078125 -4.109375 3.09375 -3.5 3.09375 -3.328125 Z M 3.09375 -3.328125 "/>
</g>
<g id="glyph-1-0">
<path d="M 1.703125 -0.03125 C 1.703125 -0.53125 1.515625 -0.875 1.171875 -0.875 C 0.890625 -0.875 0.734375 -0.65625 0.734375 -0.4375 C 0.734375 -0.21875 0.875 0 1.171875 0 C 1.359375 0 1.484375 -0.125 1.484375 -0.125 C 1.484375 0.390625 1.375 0.84375 0.875 1.34375 C 0.84375 1.359375 0.828125 1.375 0.828125 1.421875 C 0.828125 1.484375 0.890625 1.53125 0.953125 1.53125 C 1.046875 1.53125 1.703125 0.90625 1.703125 -0.03125 Z M 1.703125 -0.03125 "/>
</g>
<g id="glyph-2-0">
<path d="M 5.484375 -2.0625 L 5.234375 -2.0625 C 5.03125 -0.875 4.859375 -0.265625 3.4375 -0.265625 L 2.25 -0.265625 C 1.890625 -0.265625 1.875 -0.3125 1.875 -0.59375 L 1.875 -2.671875 L 2.640625 -2.671875 C 3.4375 -2.671875 3.546875 -2.4375 3.546875 -1.75 L 3.78125 -1.75 L 3.78125 -3.859375 L 3.546875 -3.859375 C 3.546875 -3.171875 3.4375 -2.9375 2.640625 -2.9375 L 1.875 -2.9375 L 1.875 -4.796875 C 1.875 -5.0625 1.890625 -5.125 2.25 -5.125 L 3.375 -5.125 C 4.703125 -5.125 4.859375 -4.65625 5 -3.59375 L 5.25 -3.59375 L 5.015625 -5.390625 L 0.34375 -5.390625 L 0.34375 -5.125 L 0.515625 -5.125 C 1.140625 -5.125 1.15625 -5.03125 1.15625 -4.75 L 1.15625 -0.640625 C 1.15625 -0.34375 1.140625 -0.265625 0.515625 -0.265625 L 0.34375 -0.265625 L 0.34375 0 L 5.140625 0 Z M 5.484375 -2.0625 "/>
</g>
<g id="glyph-2-1">
<path d="M 4.3125 0 L 4.3125 -0.265625 C 3.8125 -0.265625 3.734375 -0.296875 3.53125 -0.546875 L 2.4375 -1.859375 C 2.65625 -2.125 2.890625 -2.40625 3.125 -2.65625 C 3.390625 -2.9375 3.671875 -3.140625 4.171875 -3.15625 L 4.171875 -3.421875 C 3.859375 -3.390625 3.84375 -3.390625 3.484375 -3.390625 C 3.453125 -3.390625 2.984375 -3.390625 2.734375 -3.421875 L 2.734375 -3.15625 C 2.890625 -3.140625 2.921875 -3.046875 2.921875 -2.9375 C 2.921875 -2.84375 2.875 -2.734375 2.78125 -2.625 L 2.28125 -2.046875 L 1.65625 -2.78125 C 1.5625 -2.90625 1.5625 -2.96875 1.5625 -2.96875 C 1.5625 -3.03125 1.609375 -3.140625 1.8125 -3.15625 L 1.8125 -3.421875 C 1.484375 -3.390625 1.046875 -3.390625 0.953125 -3.390625 C 0.8125 -3.390625 0.40625 -3.390625 0.171875 -3.421875 L 0.171875 -3.15625 C 0.71875 -3.15625 0.71875 -3.140625 1.140625 -2.65625 L 1.953125 -1.671875 L 1.234375 -0.828125 C 1.03125 -0.609375 0.734375 -0.28125 0.140625 -0.265625 L 0.140625 0 C 0.421875 -0.03125 0.484375 -0.03125 0.8125 -0.03125 C 0.8125 -0.03125 1.3125 -0.03125 1.5625 0 L 1.5625 -0.265625 C 1.46875 -0.28125 1.375 -0.328125 1.375 -0.46875 C 1.375 -0.625 1.46875 -0.734375 1.5 -0.765625 L 2.109375 -1.46875 L 2.765625 -0.703125 C 2.921875 -0.515625 2.921875 -0.5 2.921875 -0.4375 C 2.921875 -0.375 2.875 -0.265625 2.671875 -0.265625 L 2.671875 0 C 3.015625 -0.03125 3.375 -0.03125 3.53125 -0.03125 C 3.671875 -0.03125 4.078125 -0.03125 4.3125 0 Z M 4.3125 0 "/>
</g>
<g id="glyph-2-2">
<path d="M 4.453125 0 L 4.453125 -0.265625 C 3.9375 -0.265625 3.84375 -0.265625 3.84375 -0.625 L 3.84375 -2.40625 C 3.84375 -3.0625 3.546875 -3.5 2.71875 -3.5 C 2.015625 -3.5 1.65625 -3.046875 1.515625 -2.796875 L 1.5 -2.796875 L 1.5 -5.5 L 0.328125 -5.40625 L 0.328125 -5.15625 C 0.859375 -5.15625 0.921875 -5.09375 0.921875 -4.703125 L 0.921875 -0.625 C 0.921875 -0.265625 0.828125 -0.265625 0.328125 -0.265625 L 0.328125 0 C 0.671875 -0.03125 1.015625 -0.03125 1.234375 -0.03125 C 1.453125 -0.03125 1.796875 -0.03125 2.125 0 L 2.125 -0.265625 C 1.625 -0.265625 1.53125 -0.265625 1.53125 -0.625 L 1.53125 -2.046875 C 1.53125 -2.890625 2.15625 -3.265625 2.640625 -3.265625 C 3.125 -3.265625 3.25 -2.9375 3.25 -2.4375 L 3.25 -0.625 C 3.25 -0.265625 3.15625 -0.265625 2.640625 -0.265625 L 2.640625 0 C 2.984375 -0.03125 3.328125 -0.03125 3.546875 -0.03125 C 3.78125 -0.03125 4.109375 -0.03125 4.453125 0 Z M 4.453125 0 "/>
</g>
<g id="glyph-2-3">
<path d="M 4.078125 -0.71875 L 4.078125 -1.15625 L 3.828125 -1.15625 L 3.828125 -0.71875 C 3.828125 -0.390625 3.703125 -0.265625 3.546875 -0.265625 C 3.25 -0.265625 3.25 -0.625 3.25 -0.71875 L 3.25 -2.359375 C 3.25 -3.140625 2.5 -3.53125 1.78125 -3.53125 C 1.109375 -3.53125 0.53125 -3.28125 0.53125 -2.75 C 0.53125 -2.515625 0.703125 -2.375 0.90625 -2.375 C 1.125 -2.375 1.28125 -2.53125 1.28125 -2.75 C 1.28125 -2.9375 1.15625 -3.078125 0.984375 -3.109375 C 1.28125 -3.3125 1.703125 -3.3125 1.765625 -3.3125 C 2.203125 -3.3125 2.640625 -3 2.640625 -2.359375 L 2.640625 -2.109375 C 2.1875 -2.078125 1.65625 -2.0625 1.09375 -1.828125 C 0.40625 -1.53125 0.265625 -1.0625 0.265625 -0.8125 C 0.265625 -0.125 1.0625 0.078125 1.609375 0.078125 C 2.1875 0.078125 2.546875 -0.25 2.71875 -0.5625 C 2.765625 -0.265625 2.96875 0.046875 3.3125 0.046875 C 3.40625 0.046875 4.078125 0.015625 4.078125 -0.71875 Z M 2.640625 -1.109375 C 2.640625 -0.34375 2 -0.140625 1.671875 -0.140625 C 1.265625 -0.140625 0.921875 -0.421875 0.921875 -0.796875 C 0.921875 -1.328125 1.40625 -1.859375 2.640625 -1.90625 Z M 2.640625 -1.109375 "/>
</g>
<g id="glyph-2-4">
<path d="M 4.453125 0 L 4.453125 -0.265625 C 3.90625 -0.265625 3.84375 -0.3125 3.84375 -0.703125 L 3.84375 -3.5 L 2.640625 -3.40625 L 2.640625 -3.140625 C 3.1875 -3.140625 3.25 -3.09375 3.25 -2.703125 L 3.25 -1.328125 C 3.25 -0.640625 2.84375 -0.140625 2.234375 -0.140625 C 1.5625 -0.140625 1.53125 -0.484375 1.53125 -0.875 L 1.53125 -3.5 L 0.328125 -3.40625 L 0.328125 -3.140625 C 0.921875 -3.140625 0.921875 -3.125 0.921875 -2.421875 L 0.921875 -1.234375 C 0.921875 -0.65625 0.921875 0.078125 2.1875 0.078125 C 2.9375 0.078125 3.21875 -0.484375 3.265625 -0.5625 L 3.265625 0.078125 Z M 4.453125 0 "/>
</g>
<g id="glyph-2-5">
<path d="M 3.03125 -1.015625 C 3.03125 -1.40625 2.796875 -1.953125 1.859375 -2.125 C 1.796875 -2.140625 1.359375 -2.21875 1.328125 -2.21875 C 1.078125 -2.28125 0.703125 -2.453125 0.703125 -2.765625 C 0.703125 -3 0.875 -3.328125 1.625 -3.328125 C 2.515625 -3.328125 2.5625 -2.6875 2.578125 -2.46875 C 2.578125 -2.40625 2.640625 -2.375 2.6875 -2.375 C 2.8125 -2.375 2.8125 -2.4375 2.8125 -2.578125 L 2.8125 -3.328125 C 2.8125 -3.453125 2.8125 -3.53125 2.71875 -3.53125 C 2.671875 -3.53125 2.65625 -3.53125 2.53125 -3.40625 C 2.515625 -3.40625 2.4375 -3.328125 2.421875 -3.328125 C 2.421875 -3.328125 2.390625 -3.328125 2.34375 -3.359375 C 2.21875 -3.453125 1.984375 -3.53125 1.625 -3.53125 C 0.515625 -3.53125 0.28125 -2.9375 0.28125 -2.546875 C 0.28125 -2.15625 0.578125 -1.921875 0.59375 -1.90625 C 0.90625 -1.65625 1.09375 -1.625 1.625 -1.53125 C 2 -1.46875 2.609375 -1.359375 2.609375 -0.8125 C 2.609375 -0.5 2.40625 -0.140625 1.671875 -0.140625 C 0.875 -0.140625 0.640625 -0.765625 0.53125 -1.1875 C 0.5 -1.28125 0.5 -1.328125 0.40625 -1.328125 C 0.28125 -1.328125 0.28125 -1.265625 0.28125 -1.109375 L 0.28125 -0.125 C 0.28125 0 0.28125 0.078125 0.375 0.078125 C 0.421875 0.078125 0.4375 0.078125 0.578125 -0.078125 C 0.625 -0.125 0.703125 -0.21875 0.75 -0.265625 C 1.09375 0.0625 1.46875 0.078125 1.671875 0.078125 C 2.6875 0.078125 3.03125 -0.5 3.03125 -1.015625 Z M 3.03125 -1.015625 "/>
</g>
<g id="glyph-2-6">
<path d="M 2.796875 -0.984375 L 2.796875 -1.4375 L 2.546875 -1.4375 L 2.546875 -1 C 2.546875 -0.453125 2.3125 -0.171875 2 -0.171875 C 1.46875 -0.171875 1.46875 -0.84375 1.46875 -0.96875 L 1.46875 -3.15625 L 2.65625 -3.15625 L 2.65625 -3.421875 L 1.46875 -3.421875 L 1.46875 -4.875 L 1.234375 -4.875 C 1.21875 -4.15625 0.890625 -3.40625 0.15625 -3.375 L 0.15625 -3.15625 L 0.875 -3.15625 L 0.875 -0.984375 C 0.875 -0.0625 1.578125 0.078125 1.953125 0.078125 C 2.484375 0.078125 2.796875 -0.390625 2.796875 -0.984375 Z M 2.796875 -0.984375 "/>
</g>
<g id="glyph-2-7">
<path d="M 2.0625 0 L 2.0625 -0.265625 C 1.546875 -0.265625 1.515625 -0.296875 1.515625 -0.609375 L 1.515625 -3.5 L 0.359375 -3.40625 L 0.359375 -3.140625 C 0.859375 -3.140625 0.9375 -3.09375 0.9375 -2.703125 L 0.9375 -0.625 C 0.9375 -0.265625 0.84375 -0.265625 0.328125 -0.265625 L 0.328125 0 C 0.640625 -0.03125 1.078125 -0.03125 1.203125 -0.03125 C 1.3125 -0.03125 1.78125 -0.03125 2.0625 0 Z M 1.609375 -4.765625 C 1.609375 -5.03125 1.40625 -5.21875 1.171875 -5.21875 C 0.9375 -5.21875 0.734375 -5.03125 0.734375 -4.765625 C 0.734375 -4.546875 0.921875 -4.328125 1.171875 -4.328125 C 1.421875 -4.328125 1.609375 -4.546875 1.609375 -4.765625 Z M 1.609375 -4.765625 "/>
</g>
<g id="glyph-2-8">
<path d="M 4.265625 -3.15625 L 4.265625 -3.421875 C 3.984375 -3.390625 3.96875 -3.390625 3.640625 -3.390625 C 3.578125 -3.390625 3.203125 -3.390625 2.953125 -3.421875 L 2.953125 -3.15625 C 3.234375 -3.140625 3.296875 -2.96875 3.296875 -2.828125 C 3.296875 -2.75 3.28125 -2.703125 3.25 -2.640625 L 2.40625 -0.640625 L 1.46875 -2.78125 C 1.421875 -2.890625 1.421875 -2.953125 1.421875 -2.953125 C 1.421875 -3.15625 1.703125 -3.15625 1.84375 -3.15625 L 1.84375 -3.421875 C 1.5 -3.390625 1.125 -3.390625 0.96875 -3.390625 C 0.8125 -3.390625 0.421875 -3.390625 0.171875 -3.421875 L 0.171875 -3.15625 C 0.65625 -3.15625 0.703125 -3.109375 0.8125 -2.84375 L 2 -0.09375 C 2.0625 0.03125 2.109375 0.078125 2.21875 0.078125 C 2.328125 0.078125 2.390625 0.015625 2.421875 -0.078125 L 3.515625 -2.59375 C 3.703125 -3.046875 3.96875 -3.140625 4.265625 -3.15625 Z M 4.265625 -3.15625 "/>
</g>
<g id="glyph-2-9">
<path d="M 4.390625 0 L 4.390625 -0.265625 C 3.84375 -0.265625 3.78125 -0.3125 3.78125 -0.703125 L 3.78125 -5.5 L 2.609375 -5.40625 L 2.609375 -5.15625 C 3.140625 -5.15625 3.203125 -5.09375 3.203125 -4.703125 L 3.203125 -3.03125 C 2.9375 -3.328125 2.5625 -3.5 2.140625 -3.5 C 1.15625 -3.5 0.28125 -2.71875 0.28125 -1.703125 C 0.28125 -0.734375 1.0625 0.078125 2.0625 0.078125 C 2.53125 0.078125 2.921875 -0.140625 3.1875 -0.421875 L 3.1875 0.078125 Z M 3.1875 -0.984375 C 3.1875 -0.84375 3.1875 -0.8125 3.0625 -0.65625 C 2.84375 -0.328125 2.484375 -0.140625 2.109375 -0.140625 C 1.75 -0.140625 1.421875 -0.328125 1.234375 -0.625 C 1.015625 -0.9375 0.984375 -1.328125 0.984375 -1.6875 C 0.984375 -2.15625 1.046875 -2.484375 1.234375 -2.75 C 1.421875 -3.046875 1.78125 -3.265625 2.1875 -3.265625 C 2.5625 -3.265625 2.953125 -3.078125 3.1875 -2.671875 Z M 3.1875 -0.984375 "/>
</g>
<g id="glyph-2-10">
<path d="M 2.796875 1.890625 C 2.796875 1.859375 2.78125 1.84375 2.6875 1.75 C 1.59375 0.71875 1.328125 -0.75 1.328125 -1.984375 C 1.328125 -4.265625 2.28125 -5.328125 2.671875 -5.703125 C 2.78125 -5.796875 2.796875 -5.8125 2.796875 -5.84375 C 2.796875 -5.890625 2.765625 -5.9375 2.6875 -5.9375 C 2.5625 -5.9375 2.15625 -5.53125 2.09375 -5.46875 C 1.03125 -4.359375 0.8125 -2.9375 0.8125 -1.984375 C 0.8125 -0.203125 1.5625 1.21875 2.640625 1.984375 C 2.703125 1.984375 2.796875 1.984375 2.796875 1.890625 Z M 2.796875 1.890625 "/>
</g>
<g id="glyph-2-11">
<path d="M 3.046875 -3 C 3.046875 -3.265625 2.78125 -3.5 2.4375 -3.5 C 1.921875 -3.5 1.578125 -3.109375 1.40625 -2.65625 L 1.40625 -3.5 L 0.28125 -3.40625 L 0.28125 -3.140625 C 0.8125 -3.140625 0.875 -3.09375 0.875 -2.703125 L 0.875 -0.625 C 0.875 -0.265625 0.78125 -0.265625 0.28125 -0.265625 L 0.28125 0 C 0.59375 -0.03125 1.015625 -0.03125 1.21875 -0.03125 C 1.671875 -0.03125 1.6875 -0.03125 2.203125 0 L 2.203125 -0.265625 L 2.046875 -0.265625 C 1.46875 -0.265625 1.453125 -0.34375 1.453125 -0.640625 L 1.453125 -1.8125 C 1.453125 -2.40625 1.703125 -3.25 2.46875 -3.265625 C 2.421875 -3.234375 2.34375 -3.171875 2.34375 -3 C 2.34375 -2.75 2.53125 -2.640625 2.6875 -2.640625 C 2.875 -2.640625 3.046875 -2.765625 3.046875 -3 Z M 3.046875 -3 "/>
</g>
<g id="glyph-2-12">
<path d="M 3.5 -0.953125 C 3.5 -0.984375 3.46875 -1.0625 3.359375 -1.0625 C 3.28125 -1.0625 3.265625 -1 3.25 -0.953125 C 2.96875 -0.1875 2.28125 -0.171875 2.140625 -0.171875 C 1.78125 -0.171875 1.421875 -0.328125 1.1875 -0.703125 C 0.9375 -1.0625 0.9375 -1.5625 0.9375 -1.8125 L 3.265625 -1.8125 C 3.453125 -1.8125 3.5 -1.8125 3.5 -1.984375 C 3.5 -2.6875 3.109375 -3.53125 1.984375 -3.53125 C 1 -3.53125 0.234375 -2.71875 0.234375 -1.734375 C 0.234375 -0.71875 1.09375 0.078125 2.09375 0.078125 C 3.09375 0.078125 3.5 -0.765625 3.5 -0.953125 Z M 2.953125 -2.015625 L 0.953125 -2.015625 C 1.015625 -3.125 1.6875 -3.3125 1.984375 -3.3125 C 2.921875 -3.3125 2.953125 -2.1875 2.953125 -2.015625 Z M 2.953125 -2.015625 "/>
</g>
<g id="glyph-2-13">
<path d="M 3.5 -0.953125 C 3.5 -1.046875 3.390625 -1.046875 3.359375 -1.046875 C 3.3125 -1.046875 3.265625 -1.03125 3.25 -0.953125 C 3.1875 -0.796875 2.96875 -0.171875 2.171875 -0.171875 C 1.6875 -0.171875 0.984375 -0.546875 0.984375 -1.71875 C 0.984375 -2.859375 1.5625 -3.28125 2.140625 -3.28125 C 2.21875 -3.28125 2.640625 -3.28125 2.921875 -3.140625 C 2.6875 -3.078125 2.65625 -2.890625 2.65625 -2.796875 C 2.65625 -2.578125 2.8125 -2.421875 3.03125 -2.421875 C 3.234375 -2.421875 3.40625 -2.5625 3.40625 -2.796875 C 3.40625 -3.296875 2.875 -3.53125 2.125 -3.53125 C 1.015625 -3.53125 0.28125 -2.65625 0.28125 -1.71875 C 0.28125 -0.703125 1.09375 0.078125 2.09375 0.078125 C 3.21875 0.078125 3.5 -0.859375 3.5 -0.953125 Z M 3.5 -0.953125 "/>
</g>
<g id="glyph-2-14">
<path d="M 2.109375 0 L 2.109375 -0.265625 C 1.609375 -0.265625 1.515625 -0.265625 1.515625 -0.625 L 1.515625 -5.5 L 0.328125 -5.40625 L 0.328125 -5.15625 C 0.875 -5.15625 0.9375 -5.09375 0.9375 -4.703125 L 0.9375 -0.625 C 0.9375 -0.265625 0.84375 -0.265625 0.328125 -0.265625 L 0.328125 0 C 0.640625 -0.03125 1.078125 -0.03125 1.21875 -0.03125 C 1.375 -0.03125 1.8125 -0.03125 2.109375 0 Z M 2.109375 0 "/>
</g>
<g id="glyph-2-15">
<path d="M 2.453125 -1.984375 C 2.453125 -2.734375 2.328125 -3.640625 1.828125 -4.578125 C 1.4375 -5.296875 0.71875 -5.9375 0.578125 -5.9375 C 0.5 -5.9375 0.46875 -5.890625 0.46875 -5.84375 C 0.46875 -5.8125 0.46875 -5.796875 0.578125 -5.703125 C 1.671875 -4.65625 1.9375 -3.203125 1.9375 -1.984375 C 1.9375 0.296875 0.984375 1.375 0.59375 1.734375 C 0.484375 1.84375 0.46875 1.84375 0.46875 1.890625 C 0.46875 1.921875 0.5 1.984375 0.578125 1.984375 C 0.703125 1.984375 1.09375 1.578125 1.171875 1.5 C 2.21875 0.390625 2.453125 -1.03125 2.453125 -1.984375 Z M 2.453125 -1.984375 "/>
</g>
<g id="glyph-2-16">
<path d="M 5.765625 -3.5625 L 5.609375 -5.359375 L 0.453125 -5.359375 L 0.296875 -3.5625 L 0.546875 -3.5625 C 0.65625 -4.890625 0.84375 -5.09375 2.046875 -5.09375 C 2.203125 -5.09375 2.453125 -5.09375 2.515625 -5.078125 C 2.65625 -5.046875 2.671875 -4.96875 2.671875 -4.765625 L 2.671875 -0.65625 C 2.671875 -0.375 2.671875 -0.265625 1.84375 -0.265625 L 1.546875 -0.265625 L 1.546875 0 C 1.84375 -0.03125 2.6875 -0.03125 3.03125 -0.03125 C 3.375 -0.03125 4.234375 -0.03125 4.515625 0 L 4.515625 -0.265625 L 4.21875 -0.265625 C 3.40625 -0.265625 3.40625 -0.375 3.40625 -0.65625 L 3.40625 -4.765625 C 3.40625 -4.953125 3.40625 -5.046875 3.5625 -5.078125 C 3.640625 -5.09375 3.859375 -5.09375 4.015625 -5.09375 C 5.234375 -5.09375 5.40625 -4.890625 5.515625 -3.5625 Z M 5.765625 -3.5625 "/>
</g>
<g id="glyph-2-17">
<path d="M 5.140625 -3.59375 L 4.90625 -5.390625 L 0.34375 -5.390625 L 0.34375 -5.125 L 0.515625 -5.125 C 1.140625 -5.125 1.15625 -5.03125 1.15625 -4.75 L 1.15625 -0.640625 C 1.15625 -0.34375 1.140625 -0.265625 0.515625 -0.265625 L 0.34375 -0.265625 L 0.34375 0 L 1.5625 -0.03125 C 1.9375 -0.03125 2.515625 -0.03125 2.875 0 L 2.875 -0.265625 L 2.625 -0.265625 C 1.875 -0.265625 1.875 -0.375 1.875 -0.65625 L 1.875 -2.5625 L 2.609375 -2.5625 C 3.390625 -2.5625 3.484375 -2.328125 3.484375 -1.640625 L 3.734375 -1.640625 L 3.734375 -3.75 L 3.484375 -3.75 C 3.484375 -3.078125 3.390625 -2.828125 2.609375 -2.828125 L 1.875 -2.828125 L 1.875 -4.796875 C 1.875 -5.0625 1.890625 -5.125 2.25 -5.125 L 3.3125 -5.125 C 4.609375 -5.125 4.75 -4.625 4.890625 -3.59375 Z M 5.140625 -3.59375 "/>
</g>
<g id="glyph-2-18">
<path d="M 2.328125 -1.453125 L 2.328125 -1.96875 L 0.09375 -1.96875 L 0.09375 -1.453125 Z M 2.328125 -1.453125 "/>
</g>
<g id="glyph-2-19">
<path d="M 2.71875 0 L 2.71875 -0.265625 L 2.53125 -0.265625 C 1.90625 -0.265625 1.875 -0.34375 1.875 -0.640625 L 1.875 -4.765625 C 1.875 -5.0625 1.90625 -5.15625 2.53125 -5.15625 L 2.71875 -5.15625 L 2.71875 -5.40625 L 1.515625 -5.390625 L 0.3125 -5.40625 L 0.3125 -5.15625 L 0.5 -5.15625 C 1.125 -5.15625 1.15625 -5.0625 1.15625 -4.765625 L 1.15625 -0.640625 C 1.15625 -0.34375 1.125 -0.265625 0.5 -0.265625 L 0.3125 -0.265625 L 0.3125 0 L 1.515625 -0.03125 Z M 2.71875 0 "/>
</g>
<g id="glyph-2-20">
<path d="M 5.953125 -2.65625 C 5.953125 -4.1875 4.796875 -5.40625 3.375 -5.40625 L 0.359375 -5.40625 L 0.359375 -5.15625 L 0.53125 -5.15625 C 1.15625 -5.15625 1.171875 -5.0625 1.171875 -4.765625 L 1.171875 -0.640625 C 1.171875 -0.34375 1.15625 -0.265625 0.53125 -0.265625 L 0.359375 -0.265625 L 0.359375 0 L 3.375 0 C 4.796875 0 5.953125 -1.1875 5.953125 -2.65625 Z M 5.15625 -2.65625 C 5.15625 -2.25 5.15625 -1.484375 4.65625 -0.890625 C 4.375 -0.578125 3.859375 -0.265625 3.15625 -0.265625 L 2.25 -0.265625 C 1.890625 -0.265625 1.875 -0.3125 1.875 -0.59375 L 1.875 -4.828125 C 1.875 -5.09375 1.890625 -5.15625 2.25 -5.15625 L 3.15625 -5.15625 C 3.78125 -5.15625 4.296875 -4.890625 4.640625 -4.5 C 5.15625 -3.890625 5.15625 -3.046875 5.15625 -2.65625 Z M 5.15625 -2.65625 "/>
</g>
<g id="glyph-2-21">
<path d="M 2.984375 -5 C 2.984375 -5.34375 2.65625 -5.578125 2.234375 -5.578125 C 1.640625 -5.578125 0.9375 -5.15625 0.9375 -4.296875 L 0.9375 -3.421875 L 0.28125 -3.421875 L 0.28125 -3.15625 L 0.9375 -3.15625 L 0.9375 -0.625 C 0.9375 -0.265625 0.84375 -0.265625 0.328125 -0.265625 L 0.328125 0 C 0.640625 -0.03125 1.078125 -0.03125 1.265625 -0.03125 C 1.734375 -0.03125 1.75 -0.03125 2.265625 0 L 2.265625 -0.265625 L 2.109375 -0.265625 C 1.53125 -0.265625 1.515625 -0.34375 1.515625 -0.640625 L 1.515625 -3.15625 L 2.46875 -3.15625 L 2.46875 -3.421875 L 1.484375 -3.421875 L 1.484375 -4.3125 C 1.484375 -5 1.875 -5.359375 2.21875 -5.359375 C 2.359375 -5.359375 2.421875 -5.328125 2.453125 -5.3125 C 2.3125 -5.25 2.28125 -5.109375 2.28125 -5 C 2.28125 -4.796875 2.421875 -4.65625 2.625 -4.65625 C 2.84375 -4.65625 2.984375 -4.796875 2.984375 -5 Z M 2.984375 -5 "/>
</g>
<g id="glyph-2-22">
<path d="M 4.453125 0 L 4.453125 -0.265625 C 3.9375 -0.265625 3.84375 -0.265625 3.84375 -0.625 L 3.84375 -2.40625 C 3.84375 -3.0625 3.546875 -3.5 2.71875 -3.5 C 1.9375 -3.5 1.578125 -2.921875 1.484375 -2.734375 L 1.46875 -2.734375 L 1.46875 -3.5 L 0.328125 -3.40625 L 0.328125 -3.140625 C 0.859375 -3.140625 0.921875 -3.09375 0.921875 -2.703125 L 0.921875 -0.625 C 0.921875 -0.265625 0.828125 -0.265625 0.328125 -0.265625 L 0.328125 0 C 0.671875 -0.03125 1.015625 -0.03125 1.234375 -0.03125 C 1.453125 -0.03125 1.796875 -0.03125 2.125 0 L 2.125 -0.265625 C 1.625 -0.265625 1.53125 -0.265625 1.53125 -0.625 L 1.53125 -2.046875 C 1.53125 -2.890625 2.15625 -3.265625 2.640625 -3.265625 C 3.125 -3.265625 3.25 -2.9375 3.25 -2.4375 L 3.25 -0.625 C 3.25 -0.265625 3.15625 -0.265625 2.640625 -0.265625 L 2.640625 0 C 2.984375 -0.03125 3.328125 -0.03125 3.546875 -0.03125 C 3.78125 -0.03125 4.109375 -0.03125 4.453125 0 Z M 4.453125 0 "/>
</g>
<g id="glyph-2-23">
<path d="M 4.390625 -1.71875 C 4.390625 -2.703125 3.578125 -3.5 2.609375 -3.5 C 1.984375 -3.5 1.59375 -3.15625 1.453125 -3.015625 L 1.453125 -5.5 L 0.28125 -5.40625 L 0.28125 -5.15625 C 0.8125 -5.15625 0.875 -5.09375 0.875 -4.703125 L 0.875 0 L 1.125 0 L 1.40625 -0.484375 C 1.59375 -0.21875 1.96875 0.078125 2.515625 0.078125 C 3.515625 0.078125 4.390625 -0.703125 4.390625 -1.71875 Z M 3.6875 -1.71875 C 3.6875 -1.53125 3.6875 -0.96875 3.40625 -0.609375 C 3.109375 -0.25 2.734375 -0.140625 2.484375 -0.140625 C 2.09375 -0.140625 1.78125 -0.34375 1.578125 -0.65625 C 1.484375 -0.796875 1.484375 -0.8125 1.484375 -0.953125 L 1.484375 -2.5 C 1.484375 -2.65625 1.484375 -2.671875 1.59375 -2.8125 C 1.828125 -3.109375 2.203125 -3.265625 2.5625 -3.265625 C 2.96875 -3.265625 3.28125 -3.03125 3.4375 -2.78125 C 3.578125 -2.578125 3.6875 -2.296875 3.6875 -1.71875 Z M 3.6875 -1.71875 "/>
</g>
<g id="glyph-3-0">
<path d="M -3.921875 -5.25 C -4.703125 -5.25 -5.40625 -4.40625 -5.40625 -3.265625 L -5.40625 -0.359375 L -5.15625 -0.359375 L -5.15625 -0.53125 C -5.15625 -1.15625 -5.0625 -1.171875 -4.765625 -1.171875 L -0.640625 -1.171875 C -0.34375 -1.171875 -0.265625 -1.15625 -0.265625 -0.53125 L -0.265625 -0.359375 L 0 -0.359375 L -0.03125 -1.53125 L 0 -2.6875 L -0.265625 -2.6875 L -0.265625 -2.515625 C -0.265625 -1.90625 -0.34375 -1.890625 -0.640625 -1.890625 L -2.46875 -1.890625 L -2.46875 -3.328125 C -2.46875 -4.3125 -3.09375 -5.25 -3.921875 -5.25 Z M -3.921875 -4.421875 C -3.578125 -4.421875 -2.703125 -4.421875 -2.703125 -3.078125 L -2.703125 -1.875 L -4.828125 -1.875 C -5.09375 -1.875 -5.15625 -1.890625 -5.15625 -2.25 L -5.15625 -3.078125 C -5.15625 -4.421875 -4.28125 -4.421875 -3.921875 -4.421875 Z M -3.921875 -4.421875 "/>
</g>
<g id="glyph-3-1">
<path d="M -3 -3.046875 C -3.265625 -3.046875 -3.5 -2.78125 -3.5 -2.4375 C -3.5 -1.921875 -3.109375 -1.578125 -2.65625 -1.40625 L -3.5 -1.40625 L -3.40625 -0.28125 L -3.140625 -0.28125 C -3.140625 -0.8125 -3.09375 -0.875 -2.703125 -0.875 L -0.625 -0.875 C -0.265625 -0.875 -0.265625 -0.78125 -0.265625 -0.28125 L 0 -0.28125 C -0.03125 -0.59375 -0.03125 -1.015625 -0.03125 -1.21875 C -0.03125 -1.671875 -0.03125 -1.6875 0 -2.203125 L -0.265625 -2.203125 L -0.265625 -2.046875 C -0.265625 -1.46875 -0.34375 -1.453125 -0.640625 -1.453125 L -1.8125 -1.453125 C -2.40625 -1.453125 -3.25 -1.703125 -3.265625 -2.46875 C -3.234375 -2.421875 -3.171875 -2.34375 -3 -2.34375 C -2.75 -2.34375 -2.640625 -2.53125 -2.640625 -2.6875 C -2.640625 -2.875 -2.765625 -3.046875 -3 -3.046875 Z M -3 -3.046875 "/>
</g>
<g id="glyph-3-2">
<path d="M -0.953125 -3.5 C -0.984375 -3.5 -1.0625 -3.46875 -1.0625 -3.359375 C -1.0625 -3.28125 -1 -3.265625 -0.953125 -3.25 C -0.1875 -2.96875 -0.171875 -2.28125 -0.171875 -2.140625 C -0.171875 -1.78125 -0.328125 -1.421875 -0.703125 -1.1875 C -1.0625 -0.9375 -1.5625 -0.9375 -1.8125 -0.9375 L -1.8125 -3.265625 C -1.8125 -3.453125 -1.8125 -3.5 -1.984375 -3.5 C -2.6875 -3.5 -3.53125 -3.109375 -3.53125 -1.984375 C -3.53125 -1 -2.71875 -0.234375 -1.734375 -0.234375 C -0.71875 -0.234375 0.078125 -1.09375 0.078125 -2.09375 C 0.078125 -3.09375 -0.765625 -3.5 -0.953125 -3.5 Z M -2.015625 -2.953125 L -2.015625 -0.953125 C -3.125 -1.015625 -3.3125 -1.6875 -3.3125 -1.984375 C -3.3125 -2.921875 -2.1875 -2.953125 -2.015625 -2.953125 Z M -2.015625 -2.953125 "/>
</g>
<g id="glyph-3-3">
<path d="M -0.953125 -3.5 C -1.046875 -3.5 -1.046875 -3.390625 -1.046875 -3.359375 C -1.046875 -3.3125 -1.03125 -3.265625 -0.953125 -3.25 C -0.796875 -3.1875 -0.171875 -2.96875 -0.171875 -2.171875 C -0.171875 -1.6875 -0.546875 -0.984375 -1.71875 -0.984375 C -2.859375 -0.984375 -3.28125 -1.5625 -3.28125 -2.140625 C -3.28125 -2.21875 -3.28125 -2.640625 -3.140625 -2.921875 C -3.078125 -2.6875 -2.890625 -2.65625 -2.796875 -2.65625 C -2.578125 -2.65625 -2.421875 -2.8125 -2.421875 -3.03125 C -2.421875 -3.234375 -2.5625 -3.40625 -2.796875 -3.40625 C -3.296875 -3.40625 -3.53125 -2.875 -3.53125 -2.125 C -3.53125 -1.015625 -2.65625 -0.28125 -1.71875 -0.28125 C -0.703125 -0.28125 0.078125 -1.09375 0.078125 -2.09375 C 0.078125 -3.21875 -0.859375 -3.5 -0.953125 -3.5 Z M -0.953125 -3.5 "/>
</g>
<g id="glyph-3-4">
<path d="M 0 -2.0625 L -0.265625 -2.0625 C -0.265625 -1.546875 -0.296875 -1.515625 -0.609375 -1.515625 L -3.5 -1.515625 L -3.40625 -0.359375 L -3.140625 -0.359375 C -3.140625 -0.859375 -3.09375 -0.9375 -2.703125 -0.9375 L -0.625 -0.9375 C -0.265625 -0.9375 -0.265625 -0.84375 -0.265625 -0.328125 L 0 -0.328125 C -0.03125 -0.640625 -0.03125 -1.078125 -0.03125 -1.203125 C -0.03125 -1.3125 -0.03125 -1.78125 0 -2.0625 Z M -4.765625 -1.609375 C -5.03125 -1.609375 -5.21875 -1.40625 -5.21875 -1.171875 C -5.21875 -0.9375 -5.03125 -0.734375 -4.765625 -0.734375 C -4.546875 -0.734375 -4.328125 -0.921875 -4.328125 -1.171875 C -4.328125 -1.421875 -4.546875 -1.609375 -4.765625 -1.609375 Z M -4.765625 -1.609375 "/>
</g>
<g id="glyph-3-5">
<path d="M -1.015625 -3.03125 C -1.40625 -3.03125 -1.953125 -2.796875 -2.125 -1.859375 C -2.140625 -1.796875 -2.21875 -1.359375 -2.21875 -1.328125 C -2.28125 -1.078125 -2.453125 -0.703125 -2.765625 -0.703125 C -3 -0.703125 -3.328125 -0.875 -3.328125 -1.625 C -3.328125 -2.515625 -2.6875 -2.5625 -2.46875 -2.578125 C -2.40625 -2.578125 -2.375 -2.640625 -2.375 -2.6875 C -2.375 -2.8125 -2.4375 -2.8125 -2.578125 -2.8125 L -3.328125 -2.8125 C -3.453125 -2.8125 -3.53125 -2.8125 -3.53125 -2.71875 C -3.53125 -2.671875 -3.53125 -2.65625 -3.40625 -2.53125 C -3.40625 -2.515625 -3.328125 -2.4375 -3.328125 -2.421875 C -3.328125 -2.421875 -3.328125 -2.390625 -3.359375 -2.34375 C -3.453125 -2.21875 -3.53125 -1.984375 -3.53125 -1.625 C -3.53125 -0.515625 -2.9375 -0.28125 -2.546875 -0.28125 C -2.15625 -0.28125 -1.921875 -0.578125 -1.90625 -0.59375 C -1.65625 -0.90625 -1.625 -1.09375 -1.53125 -1.625 C -1.46875 -2 -1.359375 -2.609375 -0.8125 -2.609375 C -0.5 -2.609375 -0.140625 -2.40625 -0.140625 -1.671875 C -0.140625 -0.875 -0.765625 -0.640625 -1.1875 -0.53125 C -1.28125 -0.5 -1.328125 -0.5 -1.328125 -0.40625 C -1.328125 -0.28125 -1.265625 -0.28125 -1.109375 -0.28125 L -0.125 -0.28125 C 0 -0.28125 0.078125 -0.28125 0.078125 -0.375 C 0.078125 -0.421875 0.078125 -0.4375 -0.078125 -0.578125 C -0.125 -0.625 -0.21875 -0.703125 -0.265625 -0.75 C 0.0625 -1.09375 0.078125 -1.46875 0.078125 -1.671875 C 0.078125 -2.6875 -0.5 -3.03125 -1.015625 -3.03125 Z M -1.015625 -3.03125 "/>
</g>
<g id="glyph-3-6">
<path d="M -1.6875 -3.96875 C -2.671875 -3.96875 -3.53125 -3.140625 -3.53125 -2.09375 C -3.53125 -1.046875 -2.671875 -0.234375 -1.6875 -0.234375 C -0.703125 -0.234375 0.078125 -1.078125 0.078125 -2.09375 C 0.078125 -3.125 -0.703125 -3.96875 -1.6875 -3.96875 Z M -1.765625 -3.25 C -1.390625 -3.25 -0.953125 -3.234375 -0.625 -3.015625 C -0.3125 -2.796875 -0.171875 -2.453125 -0.171875 -2.09375 C -0.171875 -1.671875 -0.375 -1.34375 -0.65625 -1.171875 C -0.96875 -0.96875 -1.359375 -0.9375 -1.765625 -0.9375 C -2.0625 -0.9375 -2.53125 -0.9375 -2.875 -1.1875 C -3.15625 -1.390625 -3.3125 -1.734375 -3.3125 -2.09375 C -3.3125 -2.515625 -3.109375 -2.859375 -2.84375 -3.03125 C -2.5 -3.25 -2.078125 -3.25 -1.765625 -3.25 Z M -5.21875 -3.15625 C -5.390625 -3.15625 -5.53125 -2.984375 -5.53125 -2.84375 C -5.53125 -2.8125 -5.53125 -2.703125 -5.40625 -2.59375 L -4.203125 -1.578125 L -4.015625 -1.75 L -4.953125 -3 C -5.015625 -3.078125 -5.078125 -3.15625 -5.21875 -3.15625 Z M -5.21875 -3.15625 "/>
</g>
<g id="glyph-3-7">
<path d="M 0 -4.453125 L -0.265625 -4.453125 C -0.265625 -3.9375 -0.265625 -3.84375 -0.625 -3.84375 L -2.40625 -3.84375 C -3.0625 -3.84375 -3.5 -3.546875 -3.5 -2.71875 C -3.5 -1.9375 -2.921875 -1.578125 -2.734375 -1.484375 L -2.734375 -1.46875 L -3.5 -1.46875 L -3.40625 -0.328125 L -3.140625 -0.328125 C -3.140625 -0.859375 -3.09375 -0.921875 -2.703125 -0.921875 L -0.625 -0.921875 C -0.265625 -0.921875 -0.265625 -0.828125 -0.265625 -0.328125 L 0 -0.328125 C -0.03125 -0.671875 -0.03125 -1.015625 -0.03125 -1.234375 C -0.03125 -1.453125 -0.03125 -1.796875 0 -2.125 L -0.265625 -2.125 C -0.265625 -1.625 -0.265625 -1.53125 -0.625 -1.53125 L -2.046875 -1.53125 C -2.890625 -1.53125 -3.265625 -2.15625 -3.265625 -2.640625 C -3.265625 -3.125 -2.9375 -3.25 -2.4375 -3.25 L -0.625 -3.25 C -0.265625 -3.25 -0.265625 -3.15625 -0.265625 -2.640625 L 0 -2.640625 C -0.03125 -2.984375 -0.03125 -3.328125 -0.03125 -3.546875 C -0.03125 -3.78125 -0.03125 -4.109375 0 -4.453125 Z M 0 -4.453125 "/>
</g>
</g>
<clipPath id="clip-0">
<path clip-rule="nonzero" d="M 33.367188 3.167969 L 343.867188 3.167969 L 343.867188 69 L 33.367188 69 Z M 33.367188 3.167969 "/>
</clipPath>
<clipPath id="clip-1">
<path clip-rule="nonzero" d="M 33.367188 3.167969 L 343.867188 3.167969 L 343.867188 83 L 33.367188 83 Z M 33.367188 3.167969 "/>
</clipPath>
<clipPath id="clip-2">
<path clip-rule="nonzero" d="M 331 44 L 355.539062 44 L 355.539062 70 L 331 70 Z M 331 44 "/>
</clipPath>
</defs>
<path fill="none" stroke-width="0.3985" stroke-linecap="butt" stroke-linejoin="miter" stroke="rgb(87.998962%, 87.998962%, 87.998962%)" stroke-opacity="1" stroke-miterlimit="10" d="M 0.00141711 0.000289466 L 0.00141711 119.577322 M 31.231644 0.000289466 L 31.231644 119.577322 M 62.4658 0.000289466 L 62.4658 119.577322 M 93.699956 0.000289466 L 93.699956 119.577322 M 124.934112 0.000289466 L 124.934112 119.577322 M 156.168268 0.000289466 L 156.168268 119.577322 M 187.398494 0.000289466 L 187.398494 119.577322 M 218.63265 0.000289466 L 218.63265 119.577322 M 249.866806 0.000289466 L 249.866806 119.577322 M 281.100962 0.000289466 L 281.100962 119.577322 M 312.335118 0.000289466 L 312.335118 119.577322 " transform="matrix(0.994129, 0, 0, -0.994129, 33.365779, 122.043257)"/>
<path fill="none" stroke-width="0.3985" stroke-linecap="butt" stroke-linejoin="miter" stroke="rgb(87.998962%, 87.998962%, 87.998962%)" stroke-opacity="1" stroke-miterlimit="10" d="M 0.00141711 0.000289466 L 312.335118 0.000289466 M 0.00141711 56.943979 L 312.335118 56.943979 M 0.00141711 113.883739 L 312.335118 113.883739 " transform="matrix(0.994129, 0, 0, -0.994129, 33.365779, 122.043257)"/>
<path fill="none" stroke-width="0.19925" stroke-linecap="butt" stroke-linejoin="miter" stroke="rgb(50%, 50%, 50%)" stroke-opacity="1" stroke-miterlimit="10" d="M 0.00141711 0.000289466 L 0.00141711 4.251813 M 31.231644 0.000289466 L 31.231644 4.251813 M 62.4658 0.000289466 L 62.4658 4.251813 M 93.699956 0.000289466 L 93.699956 4.251813 M 124.934112 0.000289466 L 124.934112 4.251813 M 156.168268 0.000289466 L 156.168268 4.251813 M 187.398494 0.000289466 L 187.398494 4.251813 M 218.63265 0.000289466 L 218.63265 4.251813 M 249.866806 0.000289466 L 249.866806 4.251813 M 281.100962 0.000289466 L 281.100962 4.251813 M 312.335118 0.000289466 L 312.335118 4.251813 M 0.00141711 119.577322 L 0.00141711 115.325799 M 31.231644 119.577322 L 31.231644 115.325799 M 62.4658 119.577322 L 62.4658 115.325799 M 93.699956 119.577322 L 93.699956 115.325799 M 124.934112 119.577322 L 124.934112 115.325799 M 156.168268 119.577322 L 156.168268 115.325799 M 187.398494 119.577322 L 187.398494 115.325799 M 218.63265 119.577322 L 218.63265 115.325799 M 249.866806 119.577322 L 249.866806 115.325799 M 281.100962 119.577322 L 281.100962 115.325799 M 312.335118 119.577322 L 312.335118 115.325799 " transform="matrix(0.994129, 0, 0, -0.994129, 33.365779, 122.043257)"/>
<path fill="none" stroke-width="0.19925" stroke-linecap="butt" stroke-linejoin="miter" stroke="rgb(50%, 50%, 50%)" stroke-opacity="1" stroke-miterlimit="10" d="M 0.00141711 0.000289466 L 4.25294 0.000289466 M 0.00141711 56.943979 L 4.25294 56.943979 M 0.00141711 113.883739 L 4.25294 113.883739 M 312.335118 0.000289466 L 308.083595 0.000289466 M 312.335118 56.943979 L 308.083595 56.943979 M 312.335118 113.883739 L 308.083595 113.883739 " transform="matrix(0.994129, 0, 0, -0.994129, 33.365779, 122.043257)"/>
<path fill="none" stroke-width="0.3985" stroke-linecap="butt" stroke-linejoin="miter" stroke="rgb(0%, 0%, 0%)" stroke-opacity="1" stroke-miterlimit="10" d="M 0.00141711 0.000289466 L 0.00141711 119.577322 L 312.335118 119.577322 L 312.335118 0.000289466 Z M 0.00141711 0.000289466 " transform="matrix(0.994129, 0, 0, -0.994129, 33.365779, 122.043257)"/>
<g fill="rgb(0%, 0%, 0%)" fill-opacity="1">
<use xlink:href="#glyph-0-0" x="31.261208" y="130.648437"/>
</g>
<g fill="rgb(0%, 0%, 0%)" fill-opacity="1">
<use xlink:href="#glyph-0-0" x="59.037173" y="130.648437"/>
</g>
<g fill="rgb(0%, 0%, 0%)" fill-opacity="1">
<use xlink:href="#glyph-1-0" x="63.246315" y="130.648437"/>
</g>
<g fill="rgb(0%, 0%, 0%)" fill-opacity="1">
<use xlink:href="#glyph-0-1" x="65.584507" y="130.648437"/>
</g>
<g fill="rgb(0%, 0%, 0%)" fill-opacity="1">
<use xlink:href="#glyph-0-0" x="90.086805" y="130.648437"/>
</g>
<g fill="rgb(0%, 0%, 0%)" fill-opacity="1">
<use xlink:href="#glyph-1-0" x="94.295947" y="130.648437"/>
</g>
<g fill="rgb(0%, 0%, 0%)" fill-opacity="1">
<use xlink:href="#glyph-0-2" x="96.634139" y="130.648437"/>
</g>
<g fill="rgb(0%, 0%, 0%)" fill-opacity="1">
<use xlink:href="#glyph-0-0" x="121.136437" y="130.648437"/>
</g>
<g fill="rgb(0%, 0%, 0%)" fill-opacity="1">
<use xlink:href="#glyph-1-0" x="125.345579" y="130.648437"/>
</g>
<g fill="rgb(0%, 0%, 0%)" fill-opacity="1">
<use xlink:href="#glyph-0-3" x="127.683771" y="130.648437"/>
</g>
<g fill="rgb(0%, 0%, 0%)" fill-opacity="1">
<use xlink:href="#glyph-0-0" x="152.186069" y="130.648437"/>
</g>
<g fill="rgb(0%, 0%, 0%)" fill-opacity="1">
<use xlink:href="#glyph-1-0" x="156.395211" y="130.648437"/>
</g>
<g fill="rgb(0%, 0%, 0%)" fill-opacity="1">
<use xlink:href="#glyph-0-4" x="158.733403" y="130.648437"/>
</g>
<g fill="rgb(0%, 0%, 0%)" fill-opacity="1">
<use xlink:href="#glyph-0-0" x="183.235701" y="130.648437"/>
</g>
<g fill="rgb(0%, 0%, 0%)" fill-opacity="1">
<use xlink:href="#glyph-1-0" x="187.444843" y="130.648437"/>
</g>
<g fill="rgb(0%, 0%, 0%)" fill-opacity="1">
<use xlink:href="#glyph-0-5" x="189.783035" y="130.648437"/>
</g>
<g fill="rgb(0%, 0%, 0%)" fill-opacity="1">
<use xlink:href="#glyph-0-0" x="214.285333" y="130.648437"/>
</g>
<g fill="rgb(0%, 0%, 0%)" fill-opacity="1">
<use xlink:href="#glyph-1-0" x="218.494475" y="130.648437"/>
</g>
<g fill="rgb(0%, 0%, 0%)" fill-opacity="1">
<use xlink:href="#glyph-0-6" x="220.832667" y="130.648437"/>
</g>
<g fill="rgb(0%, 0%, 0%)" fill-opacity="1">
<use xlink:href="#glyph-0-0" x="245.334965" y="130.648437"/>
</g>
<g fill="rgb(0%, 0%, 0%)" fill-opacity="1">
<use xlink:href="#glyph-1-0" x="249.544107" y="130.648437"/>
</g>
<g fill="rgb(0%, 0%, 0%)" fill-opacity="1">
<use xlink:href="#glyph-0-7" x="251.882299" y="130.648437"/>
</g>
<g fill="rgb(0%, 0%, 0%)" fill-opacity="1">
<use xlink:href="#glyph-0-0" x="276.384597" y="130.648437"/>
</g>
<g fill="rgb(0%, 0%, 0%)" fill-opacity="1">
<use xlink:href="#glyph-1-0" x="280.593739" y="130.648437"/>
</g>
<g fill="rgb(0%, 0%, 0%)" fill-opacity="1">
<use xlink:href="#glyph-0-8" x="282.931931" y="130.648437"/>
</g>
<g fill="rgb(0%, 0%, 0%)" fill-opacity="1">
<use xlink:href="#glyph-0-0" x="307.434229" y="130.648437"/>
</g>
<g fill="rgb(0%, 0%, 0%)" fill-opacity="1">
<use xlink:href="#glyph-1-0" x="311.643372" y="130.648437"/>
</g>
<g fill="rgb(0%, 0%, 0%)" fill-opacity="1">
<use xlink:href="#glyph-0-9" x="313.981563" y="130.648437"/>
</g>
<g fill="rgb(0%, 0%, 0%)" fill-opacity="1">
<use xlink:href="#glyph-0-1" x="341.757528" y="130.648437"/>
</g>
<g fill="rgb(0%, 0%, 0%)" fill-opacity="1">
<use xlink:href="#glyph-0-0" x="25.657302" y="124.59618"/>
</g>
<g fill="rgb(0%, 0%, 0%)" fill-opacity="1">
<use xlink:href="#glyph-0-0" x="19.109968" y="67.219029"/>
</g>
<g fill="rgb(0%, 0%, 0%)" fill-opacity="1">
<use xlink:href="#glyph-1-0" x="23.319111" y="67.219029"/>
</g>
<g fill="rgb(0%, 0%, 0%)" fill-opacity="1">
<use xlink:href="#glyph-0-5" x="25.657302" y="67.219029"/>
</g>
<g fill="rgb(0%, 0%, 0%)" fill-opacity="1">
<use xlink:href="#glyph-0-1" x="25.657302" y="11.382777"/>
</g>
<g clip-path="url(#clip-0)">
<path fill="none" stroke-width="0.79701" stroke-linecap="butt" stroke-linejoin="miter" stroke="rgb(12.156677%, 46.665955%, 70.588684%)" stroke-opacity="1" stroke-miterlimit="10" d="M 0.00141711 113.883739 L 218.63265 113.883739 L 249.866806 88.578926 L 281.100962 65.07374 L 312.335118 65.07374 " transform="matrix(0.994129, 0, 0, -0.994129, 33.365779, 122.043257)"/>
</g>
<g clip-path="url(#clip-1)">
<path fill="none" stroke-width="0.79701" stroke-linecap="butt" stroke-linejoin="miter" stroke="rgb(78.431702%, 15.684509%, 15.684509%)" stroke-opacity="1" stroke-dasharray="2.98883 2.98883" stroke-miterlimit="10" d="M 0.00141711 113.883739 L 218.63265 113.883739 L 249.866806 99.647817 L 281.100962 50.609917 L 312.335118 50.609917 " transform="matrix(0.994129, 0, 0, -0.994129, 33.365779, 122.043257)"/>
</g>
<path fill-rule="nonzero" fill="rgb(12.156677%, 46.665955%, 70.588684%)" fill-opacity="1" stroke-width="0.79701" stroke-linecap="butt" stroke-linejoin="miter" stroke="rgb(12.156677%, 46.665955%, 70.588684%)" stroke-opacity="1" stroke-miterlimit="10" d="M 1.294163 113.883739 C 1.294163 114.598875 0.716553 115.180415 0.00141711 115.180415 C -0.713719 115.180415 -1.295258 114.598875 -1.295258 113.883739 C -1.295258 113.168603 -0.713719 112.587064 0.00141711 112.587064 C 0.716553 112.587064 1.294163 113.168603 1.294163 113.883739 Z M 1.294163 113.883739 " transform="matrix(0.994129, 0, 0, -0.994129, 33.365779, 122.043257)"/>
<path fill-rule="nonzero" fill="rgb(12.156677%, 46.665955%, 70.588684%)" fill-opacity="1" stroke-width="0.79701" stroke-linecap="butt" stroke-linejoin="miter" stroke="rgb(12.156677%, 46.665955%, 70.588684%)" stroke-opacity="1" stroke-miterlimit="10" d="M 32.528319 113.883739 C 32.528319 114.598875 31.94678 115.180415 31.231644 115.180415 C 30.516508 115.180415 29.938898 114.598875 29.938898 113.883739 C 29.938898 113.168603 30.516508 112.587064 31.231644 112.587064 C 31.94678 112.587064 32.528319 113.168603 32.528319 113.883739 Z M 32.528319 113.883739 " transform="matrix(0.994129, 0, 0, -0.994129, 33.365779, 122.043257)"/>
<path fill-rule="nonzero" fill="rgb(12.156677%, 46.665955%, 70.588684%)" fill-opacity="1" stroke-width="0.79701" stroke-linecap="butt" stroke-linejoin="miter" stroke="rgb(12.156677%, 46.665955%, 70.588684%)" stroke-opacity="1" stroke-miterlimit="10" d="M 63.762475 113.883739 C 63.762475 114.598875 63.180936 115.180415 62.4658 115.180415 C 61.750664 115.180415 61.173054 114.598875 61.173054 113.883739 C 61.173054 113.168603 61.750664 112.587064 62.4658 112.587064 C 63.180936 112.587064 63.762475 113.168603 63.762475 113.883739 Z M 63.762475 113.883739 " transform="matrix(0.994129, 0, 0, -0.994129, 33.365779, 122.043257)"/>
<path fill-rule="nonzero" fill="rgb(12.156677%, 46.665955%, 70.588684%)" fill-opacity="1" stroke-width="0.79701" stroke-linecap="butt" stroke-linejoin="miter" stroke="rgb(12.156677%, 46.665955%, 70.588684%)" stroke-opacity="1" stroke-miterlimit="10" d="M 94.996631 113.883739 C 94.996631 114.598875 94.415092 115.180415 93.699956 115.180415 C 92.98482 115.180415 92.40328 114.598875 92.40328 113.883739 C 92.40328 113.168603 92.98482 112.587064 93.699956 112.587064 C 94.415092 112.587064 94.996631 113.168603 94.996631 113.883739 Z M 94.996631 113.883739 " transform="matrix(0.994129, 0, 0, -0.994129, 33.365779, 122.043257)"/>
<path fill-rule="nonzero" fill="rgb(12.156677%, 46.665955%, 70.588684%)" fill-opacity="1" stroke-width="0.79701" stroke-linecap="butt" stroke-linejoin="miter" stroke="rgb(12.156677%, 46.665955%, 70.588684%)" stroke-opacity="1" stroke-miterlimit="10" d="M 126.226858 113.883739 C 126.226858 114.598875 125.649248 115.180415 124.934112 115.180415 C 124.218976 115.180415 123.637436 114.598875 123.637436 113.883739 C 123.637436 113.168603 124.218976 112.587064 124.934112 112.587064 C 125.649248 112.587064 126.226858 113.168603 126.226858 113.883739 Z M 126.226858 113.883739 " transform="matrix(0.994129, 0, 0, -0.994129, 33.365779, 122.043257)"/>
<path fill-rule="nonzero" fill="rgb(12.156677%, 46.665955%, 70.588684%)" fill-opacity="1" stroke-width="0.79701" stroke-linecap="butt" stroke-linejoin="miter" stroke="rgb(12.156677%, 46.665955%, 70.588684%)" stroke-opacity="1" stroke-miterlimit="10" d="M 157.461014 113.883739 C 157.461014 114.598875 156.883404 115.180415 156.168268 115.180415 C 155.453132 115.180415 154.871592 114.598875 154.871592 113.883739 C 154.871592 113.168603 155.453132 112.587064 156.168268 112.587064 C 156.883404 112.587064 157.461014 113.168603 157.461014 113.883739 Z M 157.461014 113.883739 " transform="matrix(0.994129, 0, 0, -0.994129, 33.365779, 122.043257)"/>
<path fill-rule="nonzero" fill="rgb(12.156677%, 46.665955%, 70.588684%)" fill-opacity="1" stroke-width="0.79701" stroke-linecap="butt" stroke-linejoin="miter" stroke="rgb(12.156677%, 46.665955%, 70.588684%)" stroke-opacity="1" stroke-miterlimit="10" d="M 188.69517 113.883739 C 188.69517 114.598875 188.11363 115.180415 187.398494 115.180415 C 186.683358 115.180415 186.105748 114.598875 186.105748 113.883739 C 186.105748 113.168603 186.683358 112.587064 187.398494 112.587064 C 188.11363 112.587064 188.69517 113.168603 188.69517 113.883739 Z M 188.69517 113.883739 " transform="matrix(0.994129, 0, 0, -0.994129, 33.365779, 122.043257)"/>
<path fill-rule="nonzero" fill="rgb(12.156677%, 46.665955%, 70.588684%)" fill-opacity="1" stroke-width="0.79701" stroke-linecap="butt" stroke-linejoin="miter" stroke="rgb(12.156677%, 46.665955%, 70.588684%)" stroke-opacity="1" stroke-miterlimit="10" d="M 219.929326 113.883739 C 219.929326 114.598875 219.347786 115.180415 218.63265 115.180415 C 217.917514 115.180415 217.339904 114.598875 217.339904 113.883739 C 217.339904 113.168603 217.917514 112.587064 218.63265 112.587064 C 219.347786 112.587064 219.929326 113.168603 219.929326 113.883739 Z M 219.929326 113.883739 " transform="matrix(0.994129, 0, 0, -0.994129, 33.365779, 122.043257)"/>
<path fill-rule="nonzero" fill="rgb(12.156677%, 46.665955%, 70.588684%)" fill-opacity="1" stroke-width="0.79701" stroke-linecap="butt" stroke-linejoin="miter" stroke="rgb(12.156677%, 46.665955%, 70.588684%)" stroke-opacity="1" stroke-miterlimit="10" d="M 251.163481 88.578926 C 251.163481 89.294062 250.581942 89.875601 249.866806 89.875601 C 249.15167 89.875601 248.570131 89.294062 248.570131 88.578926 C 248.570131 87.863789 249.15167 87.28225 249.866806 87.28225 C 250.581942 87.28225 251.163481 87.863789 251.163481 88.578926 Z M 251.163481 88.578926 " transform="matrix(0.994129, 0, 0, -0.994129, 33.365779, 122.043257)"/>
<path fill-rule="nonzero" fill="rgb(12.156677%, 46.665955%, 70.588684%)" fill-opacity="1" stroke-width="0.79701" stroke-linecap="butt" stroke-linejoin="miter" stroke="rgb(12.156677%, 46.665955%, 70.588684%)" stroke-opacity="1" stroke-miterlimit="10" d="M 282.393708 65.07374 C 282.393708 65.788876 281.816098 66.370415 281.100962 66.370415 C 280.385826 66.370415 279.804287 65.788876 279.804287 65.07374 C 279.804287 64.358604 280.385826 63.777065 281.100962 63.777065 C 281.816098 63.777065 282.393708 64.358604 282.393708 65.07374 Z M 282.393708 65.07374 " transform="matrix(0.994129, 0, 0, -0.994129, 33.365779, 122.043257)"/>
<path fill-rule="nonzero" fill="rgb(12.156677%, 46.665955%, 70.588684%)" fill-opacity="1" d="M 345.152344 57.351562 C 345.152344 56.640625 344.578125 56.0625 343.867188 56.0625 C 343.15625 56.0625 342.578125 56.640625 342.578125 57.351562 C 342.578125 58.0625 343.15625 58.640625 343.867188 58.640625 C 344.578125 58.640625 345.152344 58.0625 345.152344 57.351562 Z M 345.152344 57.351562 "/>
<g clip-path="url(#clip-2)">
<path fill="none" stroke-width="0.79701" stroke-linecap="butt" stroke-linejoin="miter" stroke="rgb(12.156677%, 46.665955%, 70.588684%)" stroke-opacity="1" stroke-miterlimit="10" d="M 313.627864 65.07374 C 313.627864 65.788876 313.050254 66.370415 312.335118 66.370415 C 311.619982 66.370415 311.038443 65.788876 311.038443 65.07374 C 311.038443 64.358604 311.619982 63.777065 312.335118 63.777065 C 313.050254 63.777065 313.627864 64.358604 313.627864 65.07374 Z M 313.627864 65.07374 " transform="matrix(0.994129, 0, 0, -0.994129, 33.365779, 122.043257)"/>
</g>
<path fill="none" stroke-width="0.79701" stroke-linecap="butt" stroke-linejoin="miter" stroke="rgb(78.431702%, 15.684509%, 15.684509%)" stroke-opacity="1" stroke-dasharray="2.98883 2.98883" stroke-miterlimit="10" d="M -1.295258 112.587064 L 1.294163 112.587064 L 1.294163 115.180415 L -1.295258 115.180415 Z M -1.295258 112.587064 " transform="matrix(0.994129, 0, 0, -0.994129, 33.365779, 122.043257)"/>
<path fill="none" stroke-width="0.79701" stroke-linecap="butt" stroke-linejoin="miter" stroke="rgb(78.431702%, 15.684509%, 15.684509%)" stroke-opacity="1" stroke-dasharray="2.98883 2.98883" stroke-miterlimit="10" d="M 29.938898 112.587064 L 32.528319 112.587064 L 32.528319 115.180415 L 29.938898 115.180415 Z M 29.938898 112.587064 " transform="matrix(0.994129, 0, 0, -0.994129, 33.365779, 122.043257)"/>
<path fill="none" stroke-width="0.79701" stroke-linecap="butt" stroke-linejoin="miter" stroke="rgb(78.431702%, 15.684509%, 15.684509%)" stroke-opacity="1" stroke-dasharray="2.98883 2.98883" stroke-miterlimit="10" d="M 61.173054 112.587064 L 63.762475 112.587064 L 63.762475 115.180415 L 61.173054 115.180415 Z M 61.173054 112.587064 " transform="matrix(0.994129, 0, 0, -0.994129, 33.365779, 122.043257)"/>
<path fill="none" stroke-width="0.79701" stroke-linecap="butt" stroke-linejoin="miter" stroke="rgb(78.431702%, 15.684509%, 15.684509%)" stroke-opacity="1" stroke-dasharray="2.98883 2.98883" stroke-miterlimit="10" d="M 92.40328 112.587064 L 94.996631 112.587064 L 94.996631 115.180415 L 92.40328 115.180415 Z M 92.40328 112.587064 " transform="matrix(0.994129, 0, 0, -0.994129, 33.365779, 122.043257)"/>
<path fill="none" stroke-width="0.79701" stroke-linecap="butt" stroke-linejoin="miter" stroke="rgb(78.431702%, 15.684509%, 15.684509%)" stroke-opacity="1" stroke-dasharray="2.98883 2.98883" stroke-miterlimit="10" d="M 123.637436 112.587064 L 126.226858 112.587064 L 126.226858 115.180415 L 123.637436 115.180415 Z M 123.637436 112.587064 " transform="matrix(0.994129, 0, 0, -0.994129, 33.365779, 122.043257)"/>
<path fill="none" stroke-width="0.79701" stroke-linecap="butt" stroke-linejoin="miter" stroke="rgb(78.431702%, 15.684509%, 15.684509%)" stroke-opacity="1" stroke-dasharray="2.98883 2.98883" stroke-miterlimit="10" d="M 154.871592 112.587064 L 157.461014 112.587064 L 157.461014 115.180415 L 154.871592 115.180415 Z M 154.871592 112.587064 " transform="matrix(0.994129, 0, 0, -0.994129, 33.365779, 122.043257)"/>
<path fill="none" stroke-width="0.79701" stroke-linecap="butt" stroke-linejoin="miter" stroke="rgb(78.431702%, 15.684509%, 15.684509%)" stroke-opacity="1" stroke-dasharray="2.98883 2.98883" stroke-miterlimit="10" d="M 186.105748 112.587064 L 188.69517 112.587064 L 188.69517 115.180415 L 186.105748 115.180415 Z M 186.105748 112.587064 " transform="matrix(0.994129, 0, 0, -0.994129, 33.365779, 122.043257)"/>
<path fill="none" stroke-width="0.79701" stroke-linecap="butt" stroke-linejoin="miter" stroke="rgb(78.431702%, 15.684509%, 15.684509%)" stroke-opacity="1" stroke-dasharray="2.98883 2.98883" stroke-miterlimit="10" d="M 217.339904 112.587064 L 219.929326 112.587064 L 219.929326 115.180415 L 217.339904 115.180415 Z M 217.339904 112.587064 " transform="matrix(0.994129, 0, 0, -0.994129, 33.365779, 122.043257)"/>
<path fill="none" stroke-width="0.79701" stroke-linecap="butt" stroke-linejoin="miter" stroke="rgb(78.431702%, 15.684509%, 15.684509%)" stroke-opacity="1" stroke-dasharray="2.98883 2.98883" stroke-miterlimit="10" d="M 248.570131 98.355071 L 251.163481 98.355071 L 251.163481 100.944492 L 248.570131 100.944492 Z M 248.570131 98.355071 " transform="matrix(0.994129, 0, 0, -0.994129, 33.365779, 122.043257)"/>
<path fill="none" stroke-width="0.79701" stroke-linecap="butt" stroke-linejoin="miter" stroke="rgb(78.431702%, 15.684509%, 15.684509%)" stroke-opacity="1" stroke-dasharray="2.98883 2.98883" stroke-miterlimit="10" d="M 279.804287 49.313242 L 282.393708 49.313242 L 282.393708 51.906592 L 279.804287 51.906592 Z M 279.804287 49.313242 " transform="matrix(0.994129, 0, 0, -0.994129, 33.365779, 122.043257)"/>
<path fill="none" stroke-width="0.79701" stroke-linecap="butt" stroke-linejoin="miter" stroke="rgb(78.431702%, 15.684509%, 15.684509%)" stroke-opacity="1" stroke-dasharray="2.98883 2.98883" stroke-miterlimit="10" d="M 311.038443 49.313242 L 313.627864 49.313242 L 313.627864 51.906592 L 311.038443 51.906592 Z M 311.038443 49.313242 " transform="matrix(0.994129, 0, 0, -0.994129, 33.365779, 122.043257)"/>
<g fill="rgb(0%, 0%, 0%)" fill-opacity="1">
<use xlink:href="#glyph-2-0" x="147.607111" y="144.932083"/>
<use xlink:href="#glyph-2-1" x="153.332493" y="144.932083"/>
<use xlink:href="#glyph-2-2" x="157.775091" y="144.932083"/>
<use xlink:href="#glyph-2-3" x="162.45222" y="144.932083"/>
<use xlink:href="#glyph-2-4" x="166.661874" y="144.932083"/>
<use xlink:href="#glyph-2-5" x="171.339002" y="144.932083"/>
<use xlink:href="#glyph-2-6" x="174.65966" y="144.932083"/>
<use xlink:href="#glyph-2-7" x="177.933571" y="144.932083"/>
<use xlink:href="#glyph-2-8" x="180.271739" y="144.932083"/>
<use xlink:href="#glyph-2-7" x="184.714338" y="144.932083"/>
<use xlink:href="#glyph-2-9" x="187.052506" y="144.932083"/>
<use xlink:href="#glyph-2-3" x="191.729635" y="144.932083"/>
<use xlink:href="#glyph-2-9" x="195.939288" y="144.932083"/>
</g>
<g fill="rgb(0%, 0%, 0%)" fill-opacity="1">
<use xlink:href="#glyph-2-10" x="203.421268" y="144.932083"/>
<use xlink:href="#glyph-2-11" x="206.695178" y="144.932083"/>
<use xlink:href="#glyph-2-12" x="209.97622" y="144.932083"/>
<use xlink:href="#glyph-2-13" x="213.717606" y="144.932083"/>
<use xlink:href="#glyph-2-3" x="217.458992" y="144.932083"/>
<use xlink:href="#glyph-2-14" x="221.668646" y="144.932083"/>
<use xlink:href="#glyph-2-14" x="224.006814" y="144.932083"/>
<use xlink:href="#glyph-2-15" x="226.344982" y="144.932083"/>
</g>
<g fill="rgb(0%, 0%, 0%)" fill-opacity="1">
<use xlink:href="#glyph-3-0" x="12.310126" y="79.292726"/>
<use xlink:href="#glyph-3-1" x="12.310126" y="73.567344"/>
<use xlink:href="#glyph-3-2" x="12.310126" y="70.286302"/>
<use xlink:href="#glyph-3-3" x="12.310126" y="66.544916"/>
<use xlink:href="#glyph-3-4" x="12.310126" y="62.80353"/>
<use xlink:href="#glyph-3-5" x="12.310126" y="60.465362"/>
<use xlink:href="#glyph-3-4" x="12.310126" y="57.144703"/>
<use xlink:href="#glyph-3-6" x="12.310126" y="54.806535"/>
<use xlink:href="#glyph-3-7" x="12.310126" y="50.596882"/>
</g>
<path fill-rule="nonzero" fill="rgb(100%, 100%, 100%)" fill-opacity="1" stroke-width="0.3985" stroke-linecap="butt" stroke-linejoin="miter" stroke="rgb(0%, 0%, 0%)" stroke-opacity="1" stroke-miterlimit="10" d="M 9.569309 3.788153 L 97.334576 3.788153 L 97.334576 29.70987 L 9.569309 29.70987 Z M 9.569309 3.788153 " transform="matrix(0.994129, 0, 0, -0.994129, 33.365779, 122.043257)"/>
<path fill="none" stroke-width="0.79701" stroke-linecap="butt" stroke-linejoin="miter" stroke="rgb(12.156677%, 46.665955%, 70.588684%)" stroke-opacity="1" stroke-miterlimit="10" d="M 0.000381538 -0.000624173 L 17.006474 -0.000624173 " transform="matrix(0.994129, 0, 0, -0.994129, 46.245714, 99.940786)"/>
<path fill-rule="nonzero" fill="rgb(12.156677%, 46.665955%, 70.588684%)" fill-opacity="1" stroke-width="0.79701" stroke-linecap="butt" stroke-linejoin="miter" stroke="rgb(12.156677%, 46.665955%, 70.588684%)" stroke-opacity="1" stroke-miterlimit="10" d="M 9.800103 -0.000624173 C 9.800103 0.714512 9.218564 1.296051 8.503428 1.296051 C 7.788292 1.296051 7.210682 0.714512 7.210682 -0.000624173 C 7.210682 -0.71576 7.788292 -1.29337 8.503428 -1.29337 C 9.218564 -1.29337 9.800103 -0.71576 9.800103 -0.000624173 Z M 9.800103 -0.000624173 " transform="matrix(0.994129, 0, 0, -0.994129, 46.245714, 99.940786)"/>
<g fill="rgb(0%, 0%, 0%)" fill-opacity="1">
<use xlink:href="#glyph-2-16" x="65.530824" y="101.927056"/>
<use xlink:href="#glyph-2-17" x="71.61117" y="101.927056"/>
<use xlink:href="#glyph-2-18" x="77.102815" y="101.927056"/>
<use xlink:href="#glyph-2-19" x="79.90925" y="101.927056"/>
<use xlink:href="#glyph-2-20" x="82.940708" y="101.927056"/>
<use xlink:href="#glyph-2-17" x="89.367303" y="101.927056"/>
</g>
<path fill="none" stroke-width="0.79701" stroke-linecap="butt" stroke-linejoin="miter" stroke="rgb(78.431702%, 15.684509%, 15.684509%)" stroke-opacity="1" stroke-dasharray="2.98883 2.98883" stroke-miterlimit="10" d="M 0.000381538 0.00164676 L 17.006474 0.00164676 " transform="matrix(0.994129, 0, 0, -0.994129, 46.245714, 110.845387)"/>
<path fill="none" stroke-width="0.79701" stroke-linecap="butt" stroke-linejoin="miter" stroke="rgb(78.431702%, 15.684509%, 15.684509%)" stroke-opacity="1" stroke-dasharray="2.98883 2.98883" stroke-miterlimit="10" d="M 7.210682 -1.295028 L 9.800103 -1.295028 L 9.800103 1.294393 L 7.210682 1.294393 Z M 7.210682 -1.295028 " transform="matrix(0.994129, 0, 0, -0.994129, 46.245714, 110.845387)"/>
<g fill="rgb(0%, 0%, 0%)" fill-opacity="1">
<use xlink:href="#glyph-2-21" x="65.530824" y="112.832651"/>
<use xlink:href="#glyph-2-11" x="68.103522" y="112.832651"/>
<use xlink:href="#glyph-2-12" x="71.384563" y="112.832651"/>
<use xlink:href="#glyph-2-13" x="75.125949" y="112.832651"/>
<use xlink:href="#glyph-2-4" x="78.867335" y="112.832651"/>
<use xlink:href="#glyph-2-12" x="83.544464" y="112.832651"/>
<use xlink:href="#glyph-2-22" x="87.28585" y="112.832651"/>
<use xlink:href="#glyph-2-13" x="91.962978" y="112.832651"/>
<use xlink:href="#glyph-2-7" x="95.704364" y="112.832651"/>
<use xlink:href="#glyph-2-3" x="98.042532" y="112.832651"/>
</g>
<g fill="rgb(0%, 0%, 0%)" fill-opacity="1">
<use xlink:href="#glyph-2-23" x="105.057037" y="112.832651"/>
<use xlink:href="#glyph-2-11" x="109.734165" y="112.832651"/>
<use xlink:href="#glyph-2-4" x="113.015207" y="112.832651"/>
<use xlink:href="#glyph-2-6" x="117.692336" y="112.832651"/>
<use xlink:href="#glyph-2-3" x="120.966247" y="112.832651"/>
</g>
</svg>
