<?xml version="1.0" encoding="UTF-8"?>
<svg xmlns="http://www.w3.org/2000/svg" xmlns:xlink="http://www.w3.org/1999/xlink" width="296.604" height="216.071" viewBox="0 0 134.82 98.214">
<defs>
<g>
<g id="glyph-0-0">
<path d="M 5.515625 0 L 5.515625 -0.25 L 5.375 -0.25 C 4.921875 -0.25 4.859375 -0.3125 4.796875 -0.515625 L 3.109375 -4.78125 C 3.0625 -4.890625 3.046875 -4.9375 2.921875 -4.9375 C 2.78125 -4.9375 2.765625 -4.890625 2.71875 -4.78125 L 1.125 -0.734375 C 1.046875 -0.546875 0.9375 -0.25 0.3125 -0.25 L 0.3125 0 C 0.546875 -0.015625 0.796875 -0.03125 1.03125 -0.03125 C 1.296875 -0.03125 1.8125 0 1.859375 0 L 1.859375 -0.25 C 1.546875 -0.25 1.359375 -0.390625 1.359375 -0.578125 C 1.359375 -0.640625 1.359375 -0.65625 1.390625 -0.71875 L 1.71875 -1.578125 L 3.6875 -1.578125 L 4.09375 -0.5625 C 4.109375 -0.53125 4.125 -0.484375 4.125 -0.4375 C 4.125 -0.25 3.75 -0.25 3.5625 -0.25 L 3.5625 0 L 4.59375 -0.03125 C 4.921875 -0.03125 5.4375 0 5.515625 0 Z M 3.59375 -1.828125 L 1.828125 -1.828125 L 2.703125 -4.0625 Z M 3.59375 -1.828125 "/>
</g>
<g id="glyph-0-1">
<path d="M 4.015625 0 L 4.015625 -0.25 C 3.5625 -0.25 3.5 -0.296875 3.5 -0.640625 L 3.5 -4.796875 L 2.46875 -4.734375 L 2.46875 -4.484375 C 2.921875 -4.484375 2.984375 -4.4375 2.984375 -4.09375 L 2.984375 -2.65625 C 2.734375 -2.90625 2.390625 -3.046875 2.015625 -3.046875 C 1.09375 -3.046875 0.3125 -2.359375 0.3125 -1.484375 C 0.3125 -0.625 1.046875 0.0625 1.9375 0.0625 C 2.5 0.0625 2.84375 -0.234375 2.953125 -0.359375 L 2.953125 0.0625 Z M 2.953125 -0.734375 C 2.78125 -0.40625 2.421875 -0.125 1.96875 -0.125 C 1.578125 -0.125 1.3125 -0.359375 1.171875 -0.546875 C 1.03125 -0.765625 0.953125 -1.03125 0.953125 -1.484375 C 0.953125 -1.640625 0.953125 -2.15625 1.234375 -2.484375 C 1.515625 -2.796875 1.84375 -2.859375 2.046875 -2.859375 C 2.375 -2.859375 2.671875 -2.703125 2.875 -2.453125 C 2.953125 -2.34375 2.953125 -2.34375 2.953125 -2.203125 Z M 2.953125 -0.734375 "/>
</g>
<g id="glyph-0-2">
<path d="M 3.765625 -0.625 L 3.765625 -1 L 3.53125 -1 L 3.53125 -0.625 C 3.53125 -0.5625 3.53125 -0.234375 3.28125 -0.234375 C 3.015625 -0.234375 3.015625 -0.546875 3.015625 -0.640625 L 3.015625 -1.859375 C 3.015625 -2.21875 3.015625 -2.484375 2.703125 -2.734375 C 2.421875 -2.96875 2.078125 -3.09375 1.671875 -3.09375 C 1.015625 -3.09375 0.546875 -2.84375 0.546875 -2.421875 C 0.546875 -2.1875 0.703125 -2.078125 0.890625 -2.078125 C 1.078125 -2.078125 1.21875 -2.21875 1.21875 -2.40625 C 1.21875 -2.515625 1.15625 -2.671875 0.96875 -2.71875 C 1.21875 -2.890625 1.625 -2.890625 1.65625 -2.890625 C 2.046875 -2.890625 2.46875 -2.640625 2.46875 -2.0625 L 2.46875 -1.84375 C 2.09375 -1.828125 1.640625 -1.8125 1.125 -1.625 C 0.5 -1.390625 0.3125 -1.015625 0.3125 -0.703125 C 0.3125 -0.109375 1.03125 0.0625 1.515625 0.0625 C 2.078125 0.0625 2.40625 -0.25 2.546875 -0.515625 C 2.578125 -0.234375 2.765625 0.03125 3.078125 0.03125 C 3.078125 0.03125 3.765625 0.03125 3.765625 -0.625 Z M 2.46875 -0.96875 C 2.46875 -0.3125 1.890625 -0.125 1.578125 -0.125 C 1.21875 -0.125 0.890625 -0.359375 0.890625 -0.703125 C 0.890625 -1.078125 1.21875 -1.609375 2.46875 -1.65625 Z M 2.46875 -0.96875 "/>
</g>
<g id="glyph-0-3">
<path d="M 5.03125 -1.265625 C 5.03125 -1.875 4.4375 -2.375 3.578125 -2.46875 C 4.265625 -2.59375 4.828125 -3.015625 4.828125 -3.546875 C 4.828125 -4.171875 4.109375 -4.734375 3.140625 -4.734375 L 0.421875 -4.734375 L 0.421875 -4.484375 L 0.578125 -4.484375 C 1.109375 -4.484375 1.125 -4.40625 1.125 -4.171875 L 1.125 -0.5625 C 1.125 -0.328125 1.109375 -0.25 0.578125 -0.25 L 0.421875 -0.25 L 0.421875 0 L 3.34375 0 C 4.328125 0 5.03125 -0.609375 5.03125 -1.265625 Z M 4.140625 -3.546875 C 4.140625 -3.0625 3.671875 -2.546875 2.875 -2.546875 L 1.734375 -2.546875 L 1.734375 -4.203125 C 1.734375 -4.421875 1.75 -4.484375 2.0625 -4.484375 L 3.09375 -4.484375 C 3.78125 -4.484375 4.140625 -3.984375 4.140625 -3.546875 Z M 4.328125 -1.28125 C 4.328125 -0.765625 3.875 -0.25 3.109375 -0.25 L 2.0625 -0.25 C 1.75 -0.25 1.734375 -0.296875 1.734375 -0.515625 L 1.734375 -2.359375 L 3.21875 -2.359375 C 3.953125 -2.359375 4.328125 -1.765625 4.328125 -1.28125 Z M 4.328125 -1.28125 "/>
</g>
<g id="glyph-0-4">
<path d="M 2.8125 -2.609375 C 2.8125 -2.84375 2.59375 -3.046875 2.265625 -3.046875 C 1.921875 -3.046875 1.546875 -2.84375 1.328125 -2.3125 L 1.328125 -3.046875 L 0.34375 -2.96875 L 0.34375 -2.734375 C 0.796875 -2.734375 0.859375 -2.671875 0.859375 -2.34375 L 0.859375 -0.546875 C 0.859375 -0.25 0.796875 -0.25 0.34375 -0.25 L 0.34375 0 C 0.375 0 0.84375 -0.03125 1.125 -0.03125 L 2.03125 0 L 2.03125 -0.25 L 1.890625 -0.25 C 1.375 -0.25 1.375 -0.328125 1.375 -0.5625 L 1.375 -1.578125 C 1.375 -2.15625 1.640625 -2.859375 2.3125 -2.859375 C 2.25 -2.8125 2.1875 -2.71875 2.1875 -2.609375 C 2.1875 -2.375 2.375 -2.296875 2.5 -2.296875 C 2.671875 -2.296875 2.8125 -2.40625 2.8125 -2.609375 Z M 2.8125 -2.609375 "/>
</g>
<g id="glyph-0-5">
<path d="M 4.078125 0 L 4.078125 -0.25 C 3.625 -0.25 3.5625 -0.296875 3.5625 -0.640625 L 3.5625 -3.046875 L 2.5 -2.96875 L 2.5 -2.734375 C 2.96875 -2.734375 3.015625 -2.671875 3.015625 -2.34375 L 3.015625 -1.15625 C 3.015625 -0.546875 2.625 -0.125 2.09375 -0.125 C 1.46875 -0.125 1.4375 -0.421875 1.4375 -0.78125 L 1.4375 -3.046875 L 0.375 -2.96875 L 0.375 -2.734375 C 0.890625 -2.734375 0.890625 -2.703125 0.890625 -2.09375 L 0.890625 -1.046875 C 0.890625 -0.578125 0.890625 0.0625 2.046875 0.0625 C 2.203125 0.0625 2.703125 0.0625 3.03125 -0.515625 L 3.046875 -0.515625 L 3.046875 0.0625 Z M 4.078125 0 "/>
</g>
<g id="glyph-0-6">
<path d="M 5.15625 -1.625 C 5.15625 -1.703125 5.140625 -1.75 5.03125 -1.75 C 4.984375 -1.75 4.921875 -1.75 4.921875 -1.65625 C 4.859375 -0.546875 3.921875 -0.109375 3.234375 -0.109375 C 2.484375 -0.109375 1.21875 -0.5625 1.21875 -2.359375 C 1.21875 -4.234375 2.5625 -4.609375 3.21875 -4.609375 C 3.90625 -4.609375 4.71875 -4.15625 4.90625 -2.96875 C 4.921875 -2.890625 4.984375 -2.890625 5.03125 -2.890625 C 5.15625 -2.890625 5.15625 -2.921875 5.15625 -3.0625 L 5.15625 -4.6875 C 5.15625 -4.796875 5.15625 -4.859375 5.046875 -4.859375 C 5.03125 -4.859375 4.984375 -4.859375 4.9375 -4.78125 L 4.5625 -4.25 C 4.28125 -4.546875 3.796875 -4.859375 3.140625 -4.859375 C 1.6875 -4.859375 0.484375 -3.75 0.484375 -2.375 C 0.484375 -0.96875 1.703125 0.140625 3.140625 0.140625 C 4.359375 0.140625 5.15625 -0.78125 5.15625 -1.625 Z M 5.15625 -1.625 "/>
</g>
<g id="glyph-0-7">
<path d="M 3.65625 -1.46875 C 3.65625 -2.34375 2.921875 -3.09375 1.96875 -3.09375 C 1.015625 -3.09375 0.265625 -2.34375 0.265625 -1.46875 C 0.265625 -0.609375 1.03125 0.0625 1.96875 0.0625 C 2.90625 0.0625 3.65625 -0.609375 3.65625 -1.46875 Z M 3.03125 -1.53125 C 3.03125 -1.203125 3.015625 -0.84375 2.8125 -0.546875 C 2.625 -0.296875 2.3125 -0.15625 1.96875 -0.15625 C 1.703125 -0.15625 1.328125 -0.234375 1.109375 -0.578125 C 0.921875 -0.859375 0.90625 -1.21875 0.90625 -1.53125 C 0.90625 -1.828125 0.90625 -2.25 1.15625 -2.546875 C 1.328125 -2.734375 1.609375 -2.890625 1.96875 -2.890625 C 2.375 -2.890625 2.671875 -2.703125 2.8125 -2.484375 C 3.015625 -2.21875 3.03125 -1.875 3.03125 -1.53125 Z M 3.03125 -1.53125 "/>
</g>
<g id="glyph-0-8">
<path d="M 3.875 -1.28125 C 3.875 -1.90625 3.4375 -2.484375 2.75 -2.65625 L 1.71875 -2.890625 C 1.109375 -3.03125 0.921875 -3.453125 0.921875 -3.75 C 0.921875 -4.203125 1.34375 -4.640625 1.984375 -4.640625 C 2.921875 -4.640625 3.3125 -4.015625 3.421875 -3.296875 C 3.4375 -3.1875 3.453125 -3.15625 3.546875 -3.15625 C 3.671875 -3.15625 3.671875 -3.203125 3.671875 -3.34375 L 3.671875 -4.6875 C 3.671875 -4.796875 3.671875 -4.859375 3.578125 -4.859375 C 3.515625 -4.859375 3.5 -4.84375 3.453125 -4.765625 L 3.203125 -4.375 C 2.75 -4.84375 2.171875 -4.859375 1.984375 -4.859375 C 1.109375 -4.859375 0.484375 -4.25 0.484375 -3.546875 C 0.484375 -3.15625 0.65625 -2.859375 0.90625 -2.625 C 1.1875 -2.359375 1.40625 -2.3125 2.15625 -2.140625 C 2.796875 -2 2.921875 -1.96875 3.125 -1.78125 C 3.28125 -1.625 3.4375 -1.390625 3.4375 -1.09375 C 3.4375 -0.609375 3.03125 -0.109375 2.375 -0.109375 C 1.703125 -0.109375 0.765625 -0.375 0.71875 -1.421875 C 0.71875 -1.53125 0.71875 -1.578125 0.609375 -1.578125 C 0.484375 -1.578125 0.484375 -1.515625 0.484375 -1.390625 L 0.484375 -0.046875 C 0.484375 0.078125 0.484375 0.140625 0.578125 0.140625 C 0.640625 0.140625 0.65625 0.125 0.6875 0.0625 C 0.75 -0.03125 0.890625 -0.25 0.953125 -0.34375 C 1.390625 0.046875 1.921875 0.140625 2.375 0.140625 C 3.28125 0.140625 3.875 -0.546875 3.875 -1.28125 Z M 3.875 -1.28125 "/>
</g>
<g id="glyph-0-9">
<path d="M 2.5 0 L 2.5 -0.25 L 2.328125 -0.25 C 1.765625 -0.25 1.765625 -0.328125 1.765625 -0.5625 L 1.765625 -4.15625 C 1.765625 -4.390625 1.765625 -4.484375 2.328125 -4.484375 L 2.5 -4.484375 L 2.5 -4.734375 L 1.4375 -4.703125 L 0.359375 -4.734375 L 0.359375 -4.484375 L 0.53125 -4.484375 C 1.09375 -4.484375 1.09375 -4.390625 1.09375 -4.15625 L 1.09375 -0.5625 C 1.09375 -0.328125 1.09375 -0.25 0.53125 -0.25 L 0.359375 -0.25 L 0.359375 0 L 1.421875 -0.03125 Z M 2.5 0 "/>
</g>
<g id="glyph-0-10">
<path d="M 5.6875 -1.65625 L 5.6875 -1.90625 C 5.640625 -1.90625 5.140625 -1.875 4.796875 -1.875 C 4.4375 -1.875 3.90625 -1.875 3.546875 -1.90625 L 3.546875 -1.65625 L 3.8125 -1.65625 C 4.5 -1.65625 4.5 -1.578125 4.5 -1.34375 L 4.5 -0.90625 C 4.5 -0.75 4.5 -0.484375 4.109375 -0.28125 C 3.765625 -0.109375 3.375 -0.109375 3.28125 -0.109375 C 2.5 -0.109375 1.21875 -0.5625 1.21875 -2.375 C 1.21875 -4.203125 2.546875 -4.609375 3.21875 -4.609375 C 3.890625 -4.609375 4.734375 -4.171875 4.90625 -2.96875 C 4.921875 -2.890625 4.984375 -2.890625 5.03125 -2.890625 C 5.15625 -2.890625 5.15625 -2.921875 5.15625 -3.0625 L 5.15625 -4.6875 C 5.15625 -4.796875 5.15625 -4.859375 5.0625 -4.859375 C 5.03125 -4.859375 5 -4.859375 4.9375 -4.78125 L 4.578125 -4.25 C 4.234375 -4.609375 3.75 -4.859375 3.140625 -4.859375 C 1.703125 -4.859375 0.484375 -3.75 0.484375 -2.375 C 0.484375 -1 1.65625 0.140625 3.15625 0.140625 C 3.53125 0.140625 4.3125 0.0625 4.625 -0.421875 C 4.75 -0.234375 5 0 5.078125 0 C 5.15625 0 5.15625 -0.078125 5.15625 -0.1875 L 5.15625 -1.359375 C 5.15625 -1.65625 5.21875 -1.65625 5.6875 -1.65625 Z M 5.6875 -1.65625 "/>
</g>
<g id="glyph-0-11">
<path d="M 5.4375 -4.484375 L 5.4375 -4.734375 C 5.15625 -4.703125 4.875 -4.703125 4.609375 -4.703125 C 4.328125 -4.703125 4.046875 -4.703125 3.765625 -4.734375 L 3.765625 -4.484375 C 4.484375 -4.484375 4.484375 -4.171875 4.484375 -3.984375 L 4.484375 -1.609375 C 4.484375 -0.65625 3.75 -0.109375 3.03125 -0.109375 C 2.609375 -0.109375 1.765625 -0.328125 1.765625 -1.578125 L 1.765625 -4.171875 C 1.765625 -4.40625 1.765625 -4.484375 2.3125 -4.484375 L 2.46875 -4.484375 L 2.46875 -4.734375 L 1.4375 -4.703125 L 0.390625 -4.734375 L 0.390625 -4.484375 L 0.546875 -4.484375 C 1.09375 -4.484375 1.09375 -4.40625 1.09375 -4.171875 L 1.09375 -1.59375 C 1.09375 -0.59375 1.984375 0.140625 3.015625 0.140625 C 3.953125 0.140625 4.734375 -0.609375 4.734375 -1.578125 L 4.734375 -3.984375 C 4.734375 -4.171875 4.734375 -4.484375 5.4375 -4.484375 Z M 5.4375 -4.484375 "/>
</g>
<g id="glyph-0-12">
<path d="M 5.03125 -1.828125 L 4.796875 -1.828125 C 4.625 -0.78125 4.46875 -0.25 3.1875 -0.25 L 2.09375 -0.25 C 1.765625 -0.25 1.765625 -0.296875 1.765625 -0.515625 L 1.765625 -2.3125 L 2.453125 -2.3125 C 3.15625 -2.3125 3.265625 -2.109375 3.265625 -1.515625 L 3.5 -1.515625 L 3.5 -3.375 L 3.265625 -3.375 C 3.265625 -2.78125 3.15625 -2.5625 2.453125 -2.5625 L 1.765625 -2.5625 L 1.765625 -4.1875 C 1.765625 -4.390625 1.765625 -4.453125 2.09375 -4.453125 L 3.125 -4.453125 C 4.265625 -4.453125 4.46875 -4.078125 4.59375 -3.109375 L 4.828125 -3.109375 L 4.609375 -4.703125 L 0.390625 -4.703125 L 0.390625 -4.453125 L 0.546875 -4.453125 C 1.09375 -4.453125 1.09375 -4.375 1.09375 -4.140625 L 1.09375 -0.5625 C 1.09375 -0.328125 1.09375 -0.25 0.546875 -0.25 L 0.390625 -0.25 L 0.390625 0 L 4.734375 0 Z M 5.03125 -1.828125 "/>
</g>
</g>
<clipPath id="clip-0">
<path clip-rule="nonzero" d="M 0.445312 3 L 38 3 L 38 44 L 0.445312 44 Z M 0.445312 3 "/>
</clipPath>
<clipPath id="clip-1">
<path clip-rule="nonzero" d="M 35 60 L 75 60 L 75 97.433594 L 35 97.433594 Z M 35 60 "/>
</clipPath>
</defs>
<path fill-rule="nonzero" fill="rgb(80.39093%, 87.841797%, 94.900513%)" fill-opacity="1" d="M 31.730469 23.488281 C 31.730469 15.722656 25.433594 9.429688 17.667969 9.429688 C 9.902344 9.429688 3.609375 15.722656 3.609375 23.488281 C 3.609375 31.253906 9.902344 37.550781 17.667969 37.550781 C 25.433594 37.550781 31.730469 31.253906 31.730469 23.488281 Z M 31.730469 23.488281 "/>
<g clip-path="url(#clip-0)">
<path fill="none" stroke-width="0.3985" stroke-linecap="butt" stroke-linejoin="miter" stroke="rgb(0%, 0%, 0%)" stroke-opacity="1" stroke-miterlimit="10" d="M 14.173928 0.000743624 C 14.173928 7.828516 7.826659 14.171847 -0.00111336 14.171847 C -7.828886 14.171847 -14.172217 7.828516 -14.172217 0.000743624 C -14.172217 -7.827029 -7.828886 -14.174298 -0.00111336 -14.174298 C 7.826659 -14.174298 14.173928 -7.827029 14.173928 0.000743624 Z M 14.173928 0.000743624 " transform="matrix(0.992061, 0, 0, -0.992061, 17.669073, 23.489019)"/>
</g>
<g fill="rgb(0%, 0%, 0%)" fill-opacity="1">
<use xlink:href="#glyph-0-0" x="10.7058" y="25.871949"/>
</g>
<g fill="rgb(0%, 0%, 0%)" fill-opacity="1">
<use xlink:href="#glyph-0-1" x="16.325642" y="25.871949"/>
<use xlink:href="#glyph-0-2" x="20.691173" y="25.871949"/>
</g>
<path fill-rule="nonzero" fill="rgb(80.39093%, 87.841797%, 94.900513%)" fill-opacity="1" stroke-width="0.3985" stroke-linecap="butt" stroke-linejoin="miter" stroke="rgb(0%, 0%, 0%)" stroke-opacity="1" stroke-miterlimit="10" d="M 110.950084 0.000743624 C 110.950084 7.828516 104.606753 14.171847 96.778981 14.171847 C 88.951208 14.171847 82.603939 7.828516 82.603939 0.000743624 C 82.603939 -7.827029 88.951208 -14.174298 96.778981 -14.174298 C 104.606753 -14.174298 110.950084 -7.827029 110.950084 0.000743624 Z M 110.950084 0.000743624 " transform="matrix(0.992061, 0, 0, -0.992061, 17.669073, 23.489019)"/>
<g fill="rgb(0%, 0%, 0%)" fill-opacity="1">
<use xlink:href="#glyph-0-3" x="107.187662" y="25.871949"/>
<use xlink:href="#glyph-0-4" x="112.712722" y="25.871949"/>
<use xlink:href="#glyph-0-5" x="115.80111" y="25.871949"/>
</g>
<path fill-rule="nonzero" fill="rgb(80.39093%, 87.841797%, 94.900513%)" fill-opacity="1" d="M 68.769531 80.210938 C 68.769531 72.445312 62.472656 66.152344 54.707031 66.152344 C 46.941406 66.152344 40.644531 72.445312 40.644531 80.210938 C 40.644531 87.976562 46.941406 94.273438 54.707031 94.273438 C 62.472656 94.273438 68.769531 87.976562 68.769531 80.210938 Z M 68.769531 80.210938 "/>
<g clip-path="url(#clip-1)">
<path fill="none" stroke-width="0.3985" stroke-linecap="butt" stroke-linejoin="miter" stroke="rgb(0%, 0%, 0%)" stroke-opacity="1" stroke-miterlimit="10" d="M 51.509411 -57.17586 C 51.509411 -49.348087 45.162143 -43.004756 37.33437 -43.004756 C 29.506597 -43.004756 23.159329 -49.348087 23.159329 -57.17586 C 23.159329 -65.003633 29.506597 -71.350901 37.33437 -71.350901 C 45.162143 -71.350901 51.509411 -65.003633 51.509411 -57.17586 Z M 51.509411 -57.17586 " transform="matrix(0.992061, 0, 0, -0.992061, 17.669073, 23.489019)"/>
</g>
<g fill="rgb(0%, 0%, 0%)" fill-opacity="1">
<use xlink:href="#glyph-0-6" x="47.945771" y="82.594006"/>
<use xlink:href="#glyph-0-2" x="53.587752" y="82.594006"/>
<use xlink:href="#glyph-0-7" x="57.527108" y="82.594006"/>
</g>
<path fill="none" stroke-width="0.59776" stroke-linecap="butt" stroke-linejoin="miter" stroke="rgb(0%, 0%, 0%)" stroke-opacity="1" stroke-miterlimit="10" d="M 13.882552 3.721692 C 39.878003 10.68715 56.899865 10.68715 79.068054 4.745445 " transform="matrix(0.992061, 0, 0, -0.992061, 17.669073, 23.489019)"/>
<path fill-rule="nonzero" fill="rgb(0%, 0%, 0%)" fill-opacity="1" stroke-width="0.59776" stroke-linecap="butt" stroke-linejoin="miter" stroke="rgb(0%, 0%, 0%)" stroke-opacity="1" stroke-miterlimit="10" d="M 5.385347 -0.0019058 L 0.963748 1.666944 L 2.421581 -0.00105522 L 0.964345 -1.667386 Z M 5.385347 -0.0019058 " transform="matrix(0.958261, 0.256735, 0.256735, -0.958261, 93.929764, 18.197596)"/>
<g fill="rgb(0%, 0%, 0%)" fill-opacity="1">
<use xlink:href="#glyph-0-8" x="53.431866" y="11.02477"/>
<use xlink:href="#glyph-0-9" x="57.797397" y="11.02477"/>
<use xlink:href="#glyph-0-10" x="60.652634" y="11.02477"/>
<use xlink:href="#glyph-0-11" x="66.767836" y="11.02477"/>
<use xlink:href="#glyph-0-12" x="72.60215" y="11.02477"/>
</g>
<path fill="none" stroke-width="0.59776" stroke-linecap="butt" stroke-linejoin="miter" stroke="rgb(0%, 0%, 0%)" stroke-opacity="1" stroke-miterlimit="10" d="M 82.895315 -3.720205 C 56.899865 -10.685662 39.878003 -10.685662 17.709813 -4.743958 " transform="matrix(0.992061, 0, 0, -0.992061, 17.669073, 23.489019)"/>
<path fill-rule="nonzero" fill="rgb(0%, 0%, 0%)" fill-opacity="1" stroke-width="0.59776" stroke-linecap="butt" stroke-linejoin="miter" stroke="rgb(0%, 0%, 0%)" stroke-opacity="1" stroke-miterlimit="10" d="M 5.384339 0.000360763 L 0.963759 1.665407 L 2.420573 0.00121135 L 0.964356 -1.668923 Z M 5.384339 0.000360763 " transform="matrix(-0.958261, -0.256735, -0.256735, 0.958261, 37.417508, 28.780442)"/>
<g fill="rgb(0%, 0%, 0%)" fill-opacity="1">
<use xlink:href="#glyph-0-8" x="53.431866" y="40.718136"/>
<use xlink:href="#glyph-0-9" x="57.797397" y="40.718136"/>
<use xlink:href="#glyph-0-10" x="60.652634" y="40.718136"/>
<use xlink:href="#glyph-0-11" x="66.767836" y="40.718136"/>
<use xlink:href="#glyph-0-12" x="72.60215" y="40.718136"/>
</g>
<path fill="none" stroke-width="0.59776" stroke-linecap="butt" stroke-linejoin="miter" stroke="rgb(0%, 0%, 0%)" stroke-opacity="1" stroke-miterlimit="10" d="M 7.85816 -12.032291 L 27.309466 -41.823503 " transform="matrix(0.992061, 0, 0, -0.992061, 17.669073, 23.489019)"/>
<path fill-rule="nonzero" fill="rgb(0%, 0%, 0%)" fill-opacity="1" stroke-width="0.59776" stroke-linecap="butt" stroke-linejoin="miter" stroke="rgb(0%, 0%, 0%)" stroke-opacity="1" stroke-miterlimit="10" d="M 5.384379 -0.000736562 L 0.966011 1.666322 L 2.422453 0.000490124 L 0.966153 -1.668015 Z M 5.384379 -0.000736562 " transform="matrix(0.542379, 0.830633, 0.830633, -0.542379, 43.529454, 63.093566)"/>
<g fill="rgb(0%, 0%, 0%)" fill-opacity="1">
<use xlink:href="#glyph-0-8" x="8.114538" y="54.232977"/>
<use xlink:href="#glyph-0-9" x="12.480068" y="54.232977"/>
<use xlink:href="#glyph-0-10" x="15.335305" y="54.232977"/>
<use xlink:href="#glyph-0-11" x="21.450508" y="54.232977"/>
<use xlink:href="#glyph-0-12" x="27.284822" y="54.232977"/>
</g>
<path fill="none" stroke-width="0.59776" stroke-linecap="butt" stroke-linejoin="miter" stroke="rgb(0%, 0%, 0%)" stroke-opacity="1" stroke-miterlimit="10" d="M 47.693963 -47.213956 L 83.564692 -12.709543 " transform="matrix(0.992061, 0, 0, -0.992061, 17.669073, 23.489019)"/>
<path fill-rule="nonzero" fill="rgb(0%, 0%, 0%)" fill-opacity="1" stroke-width="0.59776" stroke-linecap="butt" stroke-linejoin="miter" stroke="rgb(0%, 0%, 0%)" stroke-opacity="1" stroke-miterlimit="10" d="M 5.385586 0.00158882 L 0.967015 1.667368 L 2.422512 -0.000324098 L 0.965045 -1.668955 Z M 5.385586 0.00158882 " transform="matrix(0.714968, -0.687696, -0.687696, -0.714968, 98.943539, 37.661815)"/>
<g fill="rgb(0%, 0%, 0%)" fill-opacity="1">
<use xlink:href="#glyph-0-8" x="87.782957" y="60.206174"/>
<use xlink:href="#glyph-0-9" x="92.148487" y="60.206174"/>
<use xlink:href="#glyph-0-10" x="95.003724" y="60.206174"/>
<use xlink:href="#glyph-0-11" x="101.118927" y="60.206174"/>
<use xlink:href="#glyph-0-12" x="106.953241" y="60.206174"/>
</g>
</svg>
