<?xml version="1.0" encoding="UTF-8"?>
<svg xmlns="http://www.w3.org/2000/svg" xmlns:xlink="http://www.w3.org/1999/xlink" width="684.856" height="70.154" viewBox="0 0 311.298 31.888">
<defs>
<g>
<g id="glyph-0-0">
<path d="M 5.96875 -2.65625 C 5.96875 -4.1875 4.796875 -5.421875 3.375 -5.421875 L 0.359375 -5.421875 L 0.359375 -5.15625 L 0.546875 -5.15625 C 1.15625 -5.15625 1.171875 -5.078125 1.171875 -4.78125 L 1.171875 -0.640625 C 1.171875 -0.34375 1.15625 -0.265625 0.546875 -0.265625 L 0.359375 -0.265625 L 0.359375 0 L 3.375 0 C 4.8125 0 5.96875 -1.1875 5.96875 -2.65625 Z M 5.15625 -2.671875 C 5.15625 -2.265625 5.15625 -1.484375 4.65625 -0.890625 C 4.375 -0.578125 3.875 -0.265625 3.171875 -0.265625 L 2.25 -0.265625 C 1.890625 -0.265625 1.875 -0.3125 1.875 -0.59375 L 1.875 -4.828125 C 1.875 -5.109375 1.890625 -5.15625 2.25 -5.15625 L 3.171875 -5.15625 C 3.78125 -5.15625 4.296875 -4.90625 4.65625 -4.515625 C 5.15625 -3.90625 5.15625 -3.0625 5.15625 -2.671875 Z M 5.15625 -2.671875 "/>
</g>
<g id="glyph-0-1">
<path d="M 3.96875 -1.6875 C 3.96875 -2.6875 3.15625 -3.546875 2.109375 -3.546875 C 1.0625 -3.546875 0.234375 -2.6875 0.234375 -1.6875 C 0.234375 -0.703125 1.09375 0.078125 2.109375 0.078125 C 3.125 0.078125 3.96875 -0.703125 3.96875 -1.6875 Z M 3.265625 -1.765625 C 3.265625 -1.390625 3.25 -0.953125 3.03125 -0.625 C 2.8125 -0.3125 2.453125 -0.171875 2.109375 -0.171875 C 1.671875 -0.171875 1.34375 -0.375 1.171875 -0.65625 C 0.96875 -0.96875 0.9375 -1.359375 0.9375 -1.765625 C 0.9375 -2.0625 0.9375 -2.546875 1.1875 -2.875 C 1.390625 -3.15625 1.734375 -3.3125 2.109375 -3.3125 C 2.515625 -3.3125 2.859375 -3.125 3.046875 -2.84375 C 3.25 -2.515625 3.265625 -2.078125 3.265625 -1.765625 Z M 3.265625 -1.765625 "/>
</g>
<g id="glyph-0-2">
<path d="M 3.5 -0.953125 C 3.5 -1.046875 3.390625 -1.046875 3.375 -1.046875 C 3.3125 -1.046875 3.28125 -1.046875 3.25 -0.953125 C 3.203125 -0.796875 2.96875 -0.171875 2.1875 -0.171875 C 1.6875 -0.171875 0.984375 -0.546875 0.984375 -1.71875 C 0.984375 -2.859375 1.578125 -3.296875 2.15625 -3.296875 C 2.21875 -3.296875 2.640625 -3.296875 2.921875 -3.15625 C 2.703125 -3.078125 2.671875 -2.890625 2.671875 -2.796875 C 2.671875 -2.59375 2.8125 -2.421875 3.046875 -2.421875 C 3.25 -2.421875 3.40625 -2.578125 3.40625 -2.8125 C 3.40625 -3.296875 2.875 -3.546875 2.125 -3.546875 C 1.03125 -3.546875 0.28125 -2.65625 0.28125 -1.71875 C 0.28125 -0.703125 1.109375 0.078125 2.109375 0.078125 C 3.21875 0.078125 3.5 -0.859375 3.5 -0.953125 Z M 3.5 -0.953125 "/>
</g>
<g id="glyph-0-3">
<path d="M 4.453125 0 L 4.453125 -0.265625 C 3.921875 -0.265625 3.859375 -0.3125 3.859375 -0.703125 L 3.859375 -3.5 L 2.65625 -3.40625 L 2.65625 -3.15625 C 3.1875 -3.15625 3.25 -3.09375 3.25 -2.703125 L 3.25 -1.328125 C 3.25 -0.640625 2.84375 -0.140625 2.25 -0.140625 C 1.5625 -0.140625 1.53125 -0.484375 1.53125 -0.875 L 1.53125 -3.5 L 0.328125 -3.40625 L 0.328125 -3.15625 C 0.921875 -3.15625 0.921875 -3.125 0.921875 -2.421875 L 0.921875 -1.234375 C 0.921875 -0.65625 0.921875 0.078125 2.203125 0.078125 C 2.9375 0.078125 3.234375 -0.484375 3.265625 -0.5625 L 3.28125 -0.5625 L 3.28125 0.078125 Z M 4.453125 0 "/>
</g>
<g id="glyph-0-4">
<path d="M 6.796875 0 L 6.796875 -0.265625 C 6.296875 -0.265625 6.203125 -0.265625 6.203125 -0.625 L 6.203125 -2.40625 C 6.203125 -3.046875 5.921875 -3.5 5.0625 -3.5 C 4.328125 -3.5 3.953125 -3 3.828125 -2.765625 C 3.6875 -3.34375 3.234375 -3.5 2.71875 -3.5 C 1.953125 -3.5 1.59375 -2.953125 1.484375 -2.734375 L 1.46875 -2.734375 L 1.46875 -3.5 L 0.328125 -3.40625 L 0.328125 -3.15625 C 0.859375 -3.15625 0.921875 -3.09375 0.921875 -2.703125 L 0.921875 -0.625 C 0.921875 -0.265625 0.828125 -0.265625 0.328125 -0.265625 L 0.328125 0 C 0.671875 -0.03125 1.015625 -0.03125 1.234375 -0.03125 C 1.453125 -0.03125 1.796875 -0.03125 2.140625 0 L 2.140625 -0.265625 C 1.625 -0.265625 1.53125 -0.265625 1.53125 -0.625 L 1.53125 -2.0625 C 1.53125 -2.890625 2.15625 -3.28125 2.65625 -3.28125 C 3.171875 -3.28125 3.265625 -2.875 3.265625 -2.4375 L 3.265625 -0.625 C 3.265625 -0.265625 3.171875 -0.265625 2.65625 -0.265625 L 2.65625 0 C 3 -0.03125 3.34375 -0.03125 3.5625 -0.03125 C 3.796875 -0.03125 4.125 -0.03125 4.46875 0 L 4.46875 -0.265625 C 3.953125 -0.265625 3.859375 -0.265625 3.859375 -0.625 L 3.859375 -2.0625 C 3.859375 -2.890625 4.5 -3.28125 5 -3.28125 C 5.515625 -3.28125 5.59375 -2.875 5.59375 -2.4375 L 5.59375 -0.625 C 5.59375 -0.265625 5.5 -0.265625 5 -0.265625 L 5 0 C 5.328125 -0.03125 5.6875 -0.03125 5.890625 -0.03125 C 6.125 -0.03125 6.46875 -0.03125 6.796875 0 Z M 6.796875 0 "/>
</g>
<g id="glyph-0-5">
<path d="M 3.5 -0.953125 C 3.5 -0.984375 3.484375 -1.0625 3.375 -1.0625 C 3.28125 -1.0625 3.265625 -1.015625 3.25 -0.953125 C 2.96875 -0.1875 2.28125 -0.171875 2.140625 -0.171875 C 1.78125 -0.171875 1.421875 -0.328125 1.1875 -0.703125 C 0.9375 -1.0625 0.9375 -1.578125 0.9375 -1.8125 L 3.28125 -1.8125 C 3.453125 -1.8125 3.5 -1.8125 3.5 -2 C 3.5 -2.703125 3.109375 -3.546875 2 -3.546875 C 1.015625 -3.546875 0.234375 -2.71875 0.234375 -1.734375 C 0.234375 -0.71875 1.09375 0.078125 2.09375 0.078125 C 3.109375 0.078125 3.5 -0.765625 3.5 -0.953125 Z M 2.953125 -2.015625 L 0.953125 -2.015625 C 1.03125 -3.125 1.703125 -3.3125 2 -3.3125 C 2.921875 -3.3125 2.953125 -2.203125 2.953125 -2.015625 Z M 2.953125 -2.015625 "/>
</g>
<g id="glyph-0-6">
<path d="M 4.453125 0 L 4.453125 -0.265625 C 3.953125 -0.265625 3.859375 -0.265625 3.859375 -0.625 L 3.859375 -2.40625 C 3.859375 -3.078125 3.5625 -3.5 2.71875 -3.5 C 1.9375 -3.5 1.578125 -2.921875 1.484375 -2.734375 L 1.46875 -2.734375 L 1.46875 -3.5 L 0.328125 -3.40625 L 0.328125 -3.15625 C 0.859375 -3.15625 0.921875 -3.09375 0.921875 -2.703125 L 0.921875 -0.625 C 0.921875 -0.265625 0.828125 -0.265625 0.328125 -0.265625 L 0.328125 0 C 0.671875 -0.03125 1.015625 -0.03125 1.234375 -0.03125 C 1.453125 -0.03125 1.796875 -0.03125 2.140625 0 L 2.140625 -0.265625 C 1.625 -0.265625 1.53125 -0.265625 1.53125 -0.625 L 1.53125 -2.0625 C 1.53125 -2.890625 2.171875 -3.28125 2.65625 -3.28125 C 3.140625 -3.28125 3.25 -2.9375 3.25 -2.4375 L 3.25 -0.625 C 3.25 -0.265625 3.15625 -0.265625 2.65625 -0.265625 L 2.65625 0 C 3 -0.03125 3.34375 -0.03125 3.5625 -0.03125 C 3.78125 -0.03125 4.125 -0.03125 4.453125 0 Z M 4.453125 0 "/>
</g>
<g id="glyph-0-7">
<path d="M 2.796875 -0.984375 L 2.796875 -1.4375 L 2.5625 -1.4375 L 2.5625 -1.015625 C 2.5625 -0.453125 2.3125 -0.171875 2.015625 -0.171875 C 1.46875 -0.171875 1.46875 -0.84375 1.46875 -0.96875 L 1.46875 -3.15625 L 2.65625 -3.15625 L 2.65625 -3.421875 L 1.46875 -3.421875 L 1.46875 -4.875 L 1.234375 -4.875 C 1.21875 -4.15625 0.890625 -3.40625 0.15625 -3.375 L 0.15625 -3.15625 L 0.875 -3.15625 L 0.875 -0.984375 C 0.875 -0.0625 1.59375 0.078125 1.953125 0.078125 C 2.484375 0.078125 2.796875 -0.390625 2.796875 -0.984375 Z M 2.796875 -0.984375 "/>
</g>
<g id="glyph-0-8">
<path d="M 2.796875 1.890625 C 2.796875 1.859375 2.796875 1.84375 2.6875 1.75 C 1.609375 0.71875 1.328125 -0.75 1.328125 -1.984375 C 1.328125 -4.265625 2.28125 -5.34375 2.6875 -5.703125 C 2.796875 -5.8125 2.796875 -5.8125 2.796875 -5.859375 C 2.796875 -5.890625 2.765625 -5.953125 2.6875 -5.953125 C 2.5625 -5.953125 2.171875 -5.546875 2.109375 -5.484375 C 1.046875 -4.359375 0.8125 -2.9375 0.8125 -1.984375 C 0.8125 -0.203125 1.5625 1.21875 2.640625 1.984375 C 2.703125 1.984375 2.796875 1.984375 2.796875 1.890625 Z M 2.796875 1.890625 "/>
</g>
<g id="glyph-0-9">
<path d="M 4.3125 0 L 4.3125 -0.265625 C 3.828125 -0.265625 3.75 -0.296875 3.546875 -0.546875 L 2.4375 -1.859375 C 2.671875 -2.140625 2.890625 -2.40625 3.140625 -2.671875 C 3.390625 -2.9375 3.671875 -3.15625 4.171875 -3.15625 L 4.171875 -3.421875 C 3.859375 -3.390625 3.84375 -3.390625 3.5 -3.390625 C 3.453125 -3.390625 2.984375 -3.390625 2.734375 -3.421875 L 2.734375 -3.15625 C 2.890625 -3.140625 2.921875 -3.046875 2.921875 -2.9375 C 2.921875 -2.84375 2.875 -2.75 2.78125 -2.640625 L 2.28125 -2.046875 L 1.65625 -2.796875 C 1.5625 -2.90625 1.5625 -2.96875 1.5625 -2.96875 C 1.5625 -3.03125 1.609375 -3.15625 1.8125 -3.15625 L 1.8125 -3.421875 C 1.5 -3.390625 1.046875 -3.390625 0.953125 -3.390625 C 0.8125 -3.390625 0.40625 -3.390625 0.171875 -3.421875 L 0.171875 -3.15625 C 0.71875 -3.15625 0.71875 -3.15625 1.140625 -2.671875 L 1.953125 -1.671875 L 1.234375 -0.828125 C 1.03125 -0.609375 0.734375 -0.28125 0.140625 -0.265625 L 0.140625 0 C 0.421875 -0.03125 0.484375 -0.03125 0.8125 -0.03125 C 0.8125 -0.03125 1.3125 -0.03125 1.578125 0 L 1.578125 -0.265625 C 1.46875 -0.28125 1.375 -0.328125 1.375 -0.46875 C 1.375 -0.625 1.46875 -0.734375 1.5 -0.765625 L 2.125 -1.46875 L 2.765625 -0.703125 C 2.921875 -0.515625 2.921875 -0.5 2.921875 -0.4375 C 2.921875 -0.375 2.875 -0.265625 2.6875 -0.265625 L 2.6875 0 C 3.03125 -0.03125 3.375 -0.03125 3.53125 -0.03125 C 3.671875 -0.03125 4.078125 -0.03125 4.3125 0 Z M 4.3125 0 "/>
</g>
<g id="glyph-0-10">
<path d="M 2.453125 -1.984375 C 2.453125 -2.734375 2.328125 -3.640625 1.828125 -4.578125 C 1.4375 -5.3125 0.71875 -5.953125 0.578125 -5.953125 C 0.5 -5.953125 0.46875 -5.890625 0.46875 -5.859375 C 0.46875 -5.828125 0.46875 -5.8125 0.578125 -5.71875 C 1.6875 -4.65625 1.9375 -3.203125 1.9375 -1.984375 C 1.9375 0.296875 0.984375 1.375 0.59375 1.734375 C 0.484375 1.84375 0.46875 1.84375 0.46875 1.890625 C 0.46875 1.921875 0.5 1.984375 0.578125 1.984375 C 0.703125 1.984375 1.109375 1.578125 1.171875 1.515625 C 2.234375 0.390625 2.453125 -1.03125 2.453125 -1.984375 Z M 2.453125 -1.984375 "/>
</g>
<g id="glyph-0-11">
<path d="M 5.609375 -1.859375 C 5.609375 -1.9375 5.609375 -2.015625 5.484375 -2.015625 C 5.390625 -2.015625 5.375 -1.96875 5.359375 -1.890625 C 5.296875 -0.671875 4.3125 -0.09375 3.484375 -0.09375 C 2.796875 -0.09375 1.296875 -0.515625 1.296875 -2.71875 C 1.296875 -4.84375 2.71875 -5.328125 3.484375 -5.328125 C 4.21875 -5.328125 5.140625 -4.796875 5.34375 -3.421875 C 5.359375 -3.359375 5.359375 -3.3125 5.484375 -3.3125 C 5.609375 -3.3125 5.609375 -3.359375 5.609375 -3.515625 L 5.609375 -5.375 C 5.609375 -5.515625 5.609375 -5.59375 5.515625 -5.59375 C 5.453125 -5.59375 5.4375 -5.578125 5.375 -5.484375 L 4.96875 -4.890625 C 4.6875 -5.203125 4.15625 -5.59375 3.390625 -5.59375 C 1.796875 -5.59375 0.46875 -4.3125 0.46875 -2.71875 C 0.46875 -1.109375 1.796875 0.171875 3.40625 0.171875 C 4.734375 0.171875 5.609375 -0.890625 5.609375 -1.859375 Z M 5.609375 -1.859375 "/>
</g>
<g id="glyph-0-12">
<path d="M 4.390625 0 L 4.390625 -0.265625 C 3.859375 -0.265625 3.796875 -0.3125 3.796875 -0.703125 L 3.796875 -5.515625 L 2.609375 -5.421875 L 2.609375 -5.15625 C 3.15625 -5.15625 3.21875 -5.109375 3.21875 -4.71875 L 3.21875 -3.046875 C 2.9375 -3.34375 2.5625 -3.5 2.15625 -3.5 C 1.15625 -3.5 0.28125 -2.734375 0.28125 -1.703125 C 0.28125 -0.734375 1.078125 0.078125 2.078125 0.078125 C 2.546875 0.078125 2.921875 -0.140625 3.1875 -0.421875 L 3.1875 0.078125 Z M 3.1875 -0.984375 C 3.1875 -0.84375 3.1875 -0.8125 3.078125 -0.65625 C 2.84375 -0.328125 2.484375 -0.140625 2.109375 -0.140625 C 1.75 -0.140625 1.421875 -0.328125 1.234375 -0.625 C 1.03125 -0.9375 0.984375 -1.328125 0.984375 -1.703125 C 0.984375 -2.15625 1.0625 -2.484375 1.234375 -2.765625 C 1.421875 -3.0625 1.78125 -3.28125 2.1875 -3.28125 C 2.578125 -3.28125 2.953125 -3.09375 3.1875 -2.671875 Z M 3.1875 -0.984375 "/>
</g>
<g id="glyph-0-13">
<path d="M 2.0625 0 L 2.0625 -0.265625 C 1.546875 -0.265625 1.515625 -0.296875 1.515625 -0.609375 L 1.515625 -3.5 L 0.359375 -3.40625 L 0.359375 -3.15625 C 0.859375 -3.15625 0.9375 -3.109375 0.9375 -2.71875 L 0.9375 -0.625 C 0.9375 -0.265625 0.84375 -0.265625 0.328125 -0.265625 L 0.328125 0 C 0.640625 -0.03125 1.09375 -0.03125 1.203125 -0.03125 C 1.3125 -0.03125 1.78125 -0.03125 2.0625 0 Z M 1.609375 -4.78125 C 1.609375 -5.046875 1.40625 -5.21875 1.171875 -5.21875 C 0.9375 -5.21875 0.734375 -5.046875 0.734375 -4.78125 C 0.734375 -4.546875 0.921875 -4.34375 1.171875 -4.34375 C 1.421875 -4.34375 1.609375 -4.546875 1.609375 -4.78125 Z M 1.609375 -4.78125 "/>
</g>
<g id="glyph-0-14">
<path d="M 4.390625 0 L 4.390625 -0.265625 C 3.890625 -0.265625 3.796875 -0.265625 3.796875 -0.625 L 3.796875 -3.515625 L 2.75 -3.4375 C 2.671875 -3.4375 2.625 -3.4375 2.609375 -3.421875 C 2.59375 -3.421875 2.578125 -3.421875 2.46875 -3.421875 L 1.4375 -3.421875 L 1.4375 -4.28125 C 1.4375 -5.078125 2.171875 -5.359375 2.671875 -5.359375 C 2.90625 -5.359375 3.140625 -5.3125 3.34375 -5.15625 C 3.34375 -5.15625 3.015625 -5.09375 3.015625 -4.765625 C 3.015625 -4.515625 3.21875 -4.390625 3.390625 -4.390625 C 3.515625 -4.390625 3.78125 -4.453125 3.78125 -4.78125 C 3.78125 -5.203125 3.359375 -5.59375 2.6875 -5.59375 C 1.90625 -5.59375 0.875 -5.203125 0.875 -4.296875 L 0.875 -3.421875 L 0.234375 -3.421875 L 0.234375 -3.15625 L 0.875 -3.15625 L 0.875 -0.625 C 0.875 -0.265625 0.78125 -0.265625 0.28125 -0.265625 L 0.28125 0 C 0.59375 -0.03125 1.03125 -0.03125 1.171875 -0.03125 C 1.328125 -0.03125 1.75 -0.03125 2.0625 0 L 2.0625 -0.265625 C 1.5625 -0.265625 1.453125 -0.265625 1.453125 -0.625 L 1.453125 -3.15625 L 2.828125 -3.15625 C 3.15625 -3.15625 3.21875 -3.0625 3.21875 -2.734375 L 3.21875 -0.625 C 3.21875 -0.265625 3.125 -0.265625 2.609375 -0.265625 L 2.609375 0 C 2.921875 -0.03125 3.359375 -0.03125 3.5 -0.03125 C 3.65625 -0.03125 4.09375 -0.03125 4.390625 0 Z M 4.390625 0 "/>
</g>
<g id="glyph-0-15">
<path d="M 4.078125 -0.71875 L 4.078125 -1.15625 L 3.828125 -1.15625 L 3.828125 -0.71875 C 3.828125 -0.390625 3.71875 -0.265625 3.546875 -0.265625 C 3.25 -0.265625 3.25 -0.625 3.25 -0.71875 L 3.25 -2.359375 C 3.25 -3.140625 2.5 -3.546875 1.78125 -3.546875 C 1.125 -3.546875 0.53125 -3.28125 0.53125 -2.765625 C 0.53125 -2.53125 0.703125 -2.375 0.90625 -2.375 C 1.125 -2.375 1.28125 -2.546875 1.28125 -2.75 C 1.28125 -2.9375 1.15625 -3.078125 0.984375 -3.125 C 1.28125 -3.3125 1.703125 -3.3125 1.765625 -3.3125 C 2.203125 -3.3125 2.65625 -3.015625 2.65625 -2.359375 L 2.65625 -2.109375 C 2.1875 -2.09375 1.65625 -2.0625 1.109375 -1.828125 C 0.40625 -1.53125 0.265625 -1.078125 0.265625 -0.8125 C 0.265625 -0.125 1.078125 0.078125 1.625 0.078125 C 2.203125 0.078125 2.5625 -0.25 2.734375 -0.5625 C 2.765625 -0.265625 2.96875 0.046875 3.328125 0.046875 C 3.40625 0.046875 4.078125 0.015625 4.078125 -0.71875 Z M 2.65625 -1.125 C 2.65625 -0.34375 2 -0.140625 1.6875 -0.140625 C 1.265625 -0.140625 0.921875 -0.421875 0.921875 -0.796875 C 0.921875 -1.328125 1.40625 -1.859375 2.65625 -1.90625 Z M 2.65625 -1.125 "/>
</g>
<g id="glyph-0-16">
<path d="M 3.046875 -3 C 3.046875 -3.28125 2.796875 -3.5 2.4375 -3.5 C 1.921875 -3.5 1.578125 -3.109375 1.40625 -2.671875 L 1.40625 -3.5 L 0.28125 -3.40625 L 0.28125 -3.15625 C 0.8125 -3.15625 0.875 -3.09375 0.875 -2.703125 L 0.875 -0.625 C 0.875 -0.265625 0.78125 -0.265625 0.28125 -0.265625 L 0.28125 0 C 0.59375 -0.03125 1.03125 -0.03125 1.21875 -0.03125 C 1.6875 -0.03125 1.703125 -0.03125 2.21875 0 L 2.21875 -0.265625 L 2.0625 -0.265625 C 1.46875 -0.265625 1.453125 -0.34375 1.453125 -0.640625 L 1.453125 -1.8125 C 1.453125 -2.40625 1.703125 -3.265625 2.46875 -3.28125 C 2.421875 -3.25 2.34375 -3.1875 2.34375 -3 C 2.34375 -2.75 2.53125 -2.640625 2.6875 -2.640625 C 2.875 -2.640625 3.046875 -2.765625 3.046875 -3 Z M 3.046875 -3 "/>
</g>
<g id="glyph-0-17">
<path d="M 4.390625 -1.71875 C 4.390625 -2.71875 3.578125 -3.5 2.609375 -3.5 C 1.984375 -3.5 1.59375 -3.15625 1.453125 -3.015625 L 1.453125 -5.515625 L 0.28125 -5.421875 L 0.28125 -5.15625 C 0.8125 -5.15625 0.875 -5.109375 0.875 -4.71875 L 0.875 0 L 1.125 0 L 1.40625 -0.484375 C 1.609375 -0.21875 1.96875 0.078125 2.515625 0.078125 C 3.53125 0.078125 4.390625 -0.703125 4.390625 -1.71875 Z M 3.6875 -1.71875 C 3.6875 -1.546875 3.6875 -0.96875 3.40625 -0.609375 C 3.125 -0.25 2.75 -0.140625 2.484375 -0.140625 C 2.109375 -0.140625 1.78125 -0.34375 1.578125 -0.65625 C 1.484375 -0.796875 1.484375 -0.8125 1.484375 -0.953125 L 1.484375 -2.515625 C 1.484375 -2.65625 1.484375 -2.671875 1.609375 -2.8125 C 1.828125 -3.109375 2.203125 -3.28125 2.5625 -3.28125 C 2.96875 -3.28125 3.28125 -3.03125 3.4375 -2.796875 C 3.578125 -2.578125 3.6875 -2.296875 3.6875 -1.71875 Z M 3.6875 -1.71875 "/>
</g>
<g id="glyph-0-18">
<path d="M 4.09375 -3.1875 C 4.09375 -3.3125 3.984375 -3.59375 3.640625 -3.59375 C 3.5 -3.59375 3.125 -3.5625 2.75 -3.21875 C 2.5625 -3.359375 2.25 -3.5 1.875 -3.5 C 1.09375 -3.5 0.515625 -2.953125 0.515625 -2.328125 C 0.515625 -1.953125 0.71875 -1.6875 0.875 -1.53125 C 0.703125 -1.328125 0.640625 -1.078125 0.640625 -0.875 C 0.640625 -0.5625 0.796875 -0.3125 0.96875 -0.171875 C 0.5625 -0.0625 0.234375 0.25 0.234375 0.609375 C 0.234375 1.1875 1.0625 1.625 2.109375 1.625 C 3.09375 1.625 3.96875 1.21875 3.96875 0.59375 C 3.96875 0.171875 3.71875 -0.171875 3.453125 -0.296875 C 2.984375 -0.546875 2.59375 -0.546875 1.8125 -0.546875 L 1.375 -0.546875 C 1.125 -0.578125 0.921875 -0.78125 0.921875 -1.078125 C 0.921875 -1.265625 0.96875 -1.328125 1.03125 -1.40625 C 1.359375 -1.203125 1.671875 -1.171875 1.859375 -1.171875 C 2.65625 -1.171875 3.234375 -1.71875 3.234375 -2.328125 C 3.234375 -2.640625 3.09375 -2.890625 2.90625 -3.09375 C 3.015625 -3.1875 3.28125 -3.359375 3.671875 -3.359375 C 3.640625 -3.34375 3.59375 -3.296875 3.59375 -3.171875 C 3.59375 -3.03125 3.703125 -2.921875 3.84375 -2.921875 C 3.953125 -2.921875 4.09375 -3 4.09375 -3.1875 Z M 2.609375 -2.328125 C 2.609375 -2.046875 2.5625 -1.828125 2.4375 -1.671875 C 2.265625 -1.453125 2.015625 -1.390625 1.875 -1.390625 C 1.140625 -1.390625 1.140625 -2.15625 1.140625 -2.328125 C 1.140625 -2.625 1.171875 -2.828125 1.296875 -3 C 1.421875 -3.171875 1.65625 -3.265625 1.859375 -3.265625 C 2.609375 -3.265625 2.609375 -2.515625 2.609375 -2.328125 Z M 3.5 0.609375 C 3.5 1.03125 2.890625 1.390625 2.109375 1.390625 C 1.3125 1.390625 0.703125 1.03125 0.703125 0.609375 C 0.703125 0.4375 0.828125 -0.03125 1.484375 -0.03125 L 2.25 -0.03125 C 2.453125 -0.03125 3.5 -0.03125 3.5 0.609375 Z M 3.5 0.609375 "/>
</g>
<g id="glyph-0-19">
<path d="M 6.140625 -5.15625 L 6.140625 -5.421875 C 5.90625 -5.390625 5.5 -5.390625 5.34375 -5.390625 C 5.203125 -5.390625 4.828125 -5.390625 4.484375 -5.421875 L 4.484375 -5.15625 C 4.828125 -5.15625 5.015625 -4.984375 5.015625 -4.765625 C 5.015625 -4.703125 5.015625 -4.6875 4.96875 -4.59375 L 3.390625 -0.75 L 1.734375 -4.78125 C 1.703125 -4.859375 1.6875 -4.890625 1.6875 -4.921875 C 1.6875 -5.15625 2.109375 -5.15625 2.3125 -5.15625 L 2.3125 -5.421875 L 1.203125 -5.390625 C 0.8125 -5.390625 0.578125 -5.390625 0.171875 -5.421875 L 0.171875 -5.15625 C 0.65625 -5.15625 0.828125 -5.15625 0.953125 -4.859375 L 2.9375 -0.015625 C 3 0.140625 3.0625 0.171875 3.15625 0.171875 C 3.296875 0.171875 3.3125 0.109375 3.359375 -0.015625 L 5.265625 -4.625 C 5.484375 -5.15625 5.984375 -5.15625 6.140625 -5.15625 Z M 6.140625 -5.15625 "/>
</g>
<g id="glyph-0-20">
<path d="M 3.046875 -1.03125 C 3.046875 -1.40625 2.8125 -1.953125 1.859375 -2.140625 C 1.796875 -2.15625 1.359375 -2.234375 1.328125 -2.234375 C 1.078125 -2.28125 0.703125 -2.453125 0.703125 -2.765625 C 0.703125 -3.015625 0.875 -3.34375 1.640625 -3.34375 C 2.53125 -3.34375 2.5625 -2.6875 2.578125 -2.46875 C 2.59375 -2.40625 2.640625 -2.375 2.703125 -2.375 C 2.828125 -2.375 2.828125 -2.4375 2.828125 -2.59375 L 2.828125 -3.328125 C 2.828125 -3.453125 2.828125 -3.546875 2.71875 -3.546875 C 2.6875 -3.546875 2.65625 -3.546875 2.53125 -3.40625 C 2.515625 -3.40625 2.4375 -3.328125 2.421875 -3.328125 C 2.421875 -3.328125 2.390625 -3.328125 2.34375 -3.359375 C 2.21875 -3.453125 2 -3.546875 1.640625 -3.546875 C 0.53125 -3.546875 0.28125 -2.9375 0.28125 -2.5625 C 0.28125 -2.15625 0.578125 -1.921875 0.59375 -1.90625 C 0.90625 -1.671875 1.09375 -1.640625 1.625 -1.546875 C 2 -1.46875 2.609375 -1.359375 2.609375 -0.8125 C 2.609375 -0.515625 2.40625 -0.140625 1.671875 -0.140625 C 0.875 -0.140625 0.640625 -0.765625 0.546875 -1.1875 C 0.515625 -1.28125 0.5 -1.328125 0.40625 -1.328125 C 0.28125 -1.328125 0.28125 -1.265625 0.28125 -1.109375 L 0.28125 -0.125 C 0.28125 0 0.28125 0.078125 0.375 0.078125 C 0.421875 0.078125 0.4375 0.078125 0.578125 -0.078125 C 0.625 -0.125 0.703125 -0.21875 0.75 -0.265625 C 1.109375 0.0625 1.46875 0.078125 1.6875 0.078125 C 2.6875 0.078125 3.046875 -0.5 3.046875 -1.03125 Z M 3.046875 -1.03125 "/>
</g>
<g id="glyph-0-21">
<path d="M 2.125 0 L 2.125 -0.265625 C 1.609375 -0.265625 1.515625 -0.265625 1.515625 -0.625 L 1.515625 -5.515625 L 0.328125 -5.421875 L 0.328125 -5.15625 C 0.875 -5.15625 0.9375 -5.109375 0.9375 -4.71875 L 0.9375 -0.625 C 0.9375 -0.265625 0.84375 -0.265625 0.328125 -0.265625 L 0.328125 0 C 0.640625 -0.03125 1.09375 -0.03125 1.21875 -0.03125 C 1.375 -0.03125 1.8125 -0.03125 2.125 0 Z M 2.125 0 "/>
</g>
<g id="glyph-0-22">
<path d="M 3.96875 -1.6875 C 3.96875 -2.6875 3.15625 -3.546875 2.109375 -3.546875 C 1.0625 -3.546875 0.234375 -2.6875 0.234375 -1.6875 C 0.234375 -0.703125 1.09375 0.078125 2.109375 0.078125 C 3.125 0.078125 3.96875 -0.703125 3.96875 -1.6875 Z M 3.265625 -1.765625 C 3.265625 -1.390625 3.25 -0.953125 3.03125 -0.625 C 2.8125 -0.3125 2.453125 -0.171875 2.109375 -0.171875 C 1.671875 -0.171875 1.34375 -0.375 1.171875 -0.65625 C 0.96875 -0.96875 0.9375 -1.359375 0.9375 -1.765625 C 0.9375 -2.0625 0.9375 -2.546875 1.1875 -2.875 C 1.390625 -3.15625 1.734375 -3.3125 2.109375 -3.3125 C 2.515625 -3.3125 2.859375 -3.125 3.046875 -2.84375 C 3.25 -2.515625 3.265625 -2.078125 3.265625 -1.765625 Z M 3.15625 -5.21875 C 3.15625 -5.40625 3 -5.546875 2.84375 -5.546875 C 2.8125 -5.546875 2.703125 -5.546875 2.609375 -5.40625 L 1.59375 -4.203125 L 1.75 -4.03125 L 3 -4.953125 C 3.09375 -5.03125 3.15625 -5.09375 3.15625 -5.21875 Z M 3.15625 -5.21875 "/>
</g>
<g id="glyph-0-23">
<path d="M 6.078125 -1.984375 C 6.078125 -2.171875 5.90625 -2.171875 5.796875 -2.171875 L 3.453125 -2.171875 L 3.453125 -4.515625 C 3.453125 -4.625 3.453125 -4.796875 3.28125 -4.796875 C 3.09375 -4.796875 3.09375 -4.625 3.09375 -4.515625 L 3.09375 -2.171875 L 0.75 -2.171875 C 0.640625 -2.171875 0.46875 -2.171875 0.46875 -1.984375 C 0.46875 -1.796875 0.640625 -1.796875 0.75 -1.796875 L 3.09375 -1.796875 L 3.09375 0.546875 C 3.09375 0.65625 3.09375 0.828125 3.28125 0.828125 C 3.453125 0.828125 3.453125 0.65625 3.453125 0.546875 L 3.453125 -1.796875 L 5.796875 -1.796875 C 5.90625 -1.796875 6.078125 -1.796875 6.078125 -1.984375 Z M 6.078125 -1.984375 "/>
</g>
<g id="glyph-1-0">
<path d="M 6.078125 -1.984375 C 6.078125 -2.171875 5.90625 -2.171875 5.796875 -2.171875 L 3.453125 -2.171875 L 3.453125 -4.515625 C 3.453125 -4.625 3.453125 -4.796875 3.28125 -4.796875 C 3.09375 -4.796875 3.09375 -4.625 3.09375 -4.515625 L 3.09375 -2.171875 L 0.75 -2.171875 C 0.640625 -2.171875 0.46875 -2.171875 0.46875 -1.984375 C 0.46875 -1.796875 0.640625 -1.796875 0.75 -1.796875 L 3.09375 -1.796875 L 3.09375 0.546875 C 3.09375 0.65625 3.09375 0.828125 3.28125 0.828125 C 3.453125 0.828125 3.453125 0.65625 3.453125 0.546875 L 3.453125 -1.796875 L 5.796875 -1.796875 C 5.90625 -1.796875 6.078125 -1.796875 6.078125 -1.984375 Z M 6.078125 -1.984375 "/>
</g>
<g id="glyph-2-0">
<path d="M 1.90625 0 L 1.90625 -0.25 C 1.5 -0.25 1.4375 -0.25 1.4375 -0.546875 L 1.4375 -3.0625 L 0.40625 -2.984375 L 0.40625 -2.734375 C 0.84375 -2.734375 0.90625 -2.703125 0.90625 -2.359375 L 0.90625 -0.546875 C 0.90625 -0.25 0.84375 -0.25 0.390625 -0.25 L 0.390625 0 C 0.390625 0 0.890625 -0.03125 1.171875 -0.03125 C 1.40625 -0.03125 1.65625 -0.015625 1.90625 0 Z M 1.515625 -4.1875 C 1.515625 -4.40625 1.34375 -4.59375 1.125 -4.59375 C 0.890625 -4.59375 0.734375 -4.390625 0.734375 -4.1875 C 0.734375 -3.96875 0.90625 -3.796875 1.125 -3.796875 C 1.359375 -3.796875 1.515625 -3.984375 1.515625 -4.1875 Z M 1.515625 -4.1875 "/>
</g>
<g id="glyph-2-1">
<path d="M 4.109375 0 L 4.109375 -0.25 C 3.65625 -0.25 3.578125 -0.25 3.578125 -0.546875 L 3.578125 -2.109375 C 3.578125 -2.71875 3.28125 -3.0625 2.53125 -3.0625 C 1.96875 -3.0625 1.59375 -2.75 1.40625 -2.390625 L 1.390625 -2.390625 L 1.390625 -3.0625 L 0.375 -2.984375 L 0.375 -2.734375 C 0.84375 -2.734375 0.890625 -2.6875 0.890625 -2.34375 L 0.890625 -0.546875 C 0.890625 -0.25 0.828125 -0.25 0.375 -0.25 L 0.375 0 C 0.375 0 0.875 -0.03125 1.171875 -0.03125 C 1.421875 -0.03125 1.90625 0 1.96875 0 L 1.96875 -0.25 C 1.515625 -0.25 1.453125 -0.25 1.453125 -0.546875 L 1.453125 -1.796875 C 1.453125 -2.53125 2.015625 -2.875 2.484375 -2.875 C 2.96875 -2.875 3.03125 -2.484375 3.03125 -2.140625 L 3.03125 -0.546875 C 3.03125 -0.25 2.96875 -0.25 2.515625 -0.25 L 2.515625 0 C 2.515625 0 3.015625 -0.03125 3.296875 -0.03125 C 3.5625 -0.03125 4.046875 0 4.109375 0 Z M 4.109375 0 "/>
</g>
<g id="glyph-2-2">
<path d="M 2.828125 -0.90625 C 2.828125 -1.171875 2.71875 -1.390625 2.53125 -1.546875 C 2.265625 -1.796875 1.953125 -1.84375 1.703125 -1.890625 C 1.140625 -1.984375 0.703125 -2.078125 0.703125 -2.4375 C 0.703125 -2.65625 0.890625 -2.9375 1.546875 -2.9375 C 2.34375 -2.9375 2.390625 -2.375 2.40625 -2.171875 C 2.40625 -2.09375 2.484375 -2.09375 2.515625 -2.09375 C 2.640625 -2.09375 2.640625 -2.140625 2.640625 -2.28125 L 2.640625 -2.921875 C 2.640625 -3.03125 2.640625 -3.09375 2.53125 -3.09375 C 2.5 -3.09375 2.484375 -3.09375 2.40625 -3.015625 C 2.390625 -3.015625 2.3125 -2.953125 2.28125 -2.90625 C 2.0625 -3.0625 1.796875 -3.09375 1.546875 -3.09375 C 0.546875 -3.09375 0.3125 -2.578125 0.3125 -2.234375 C 0.3125 -2.015625 0.40625 -1.828125 0.578125 -1.6875 C 0.84375 -1.453125 1.109375 -1.40625 1.53125 -1.34375 C 1.890625 -1.28125 2.453125 -1.1875 2.453125 -0.71875 C 2.453125 -0.4375 2.265625 -0.125 1.59375 -0.125 C 0.921875 -0.125 0.6875 -0.5625 0.5625 -1.03125 C 0.53125 -1.125 0.53125 -1.15625 0.4375 -1.15625 C 0.3125 -1.15625 0.3125 -1.109375 0.3125 -0.96875 L 0.3125 -0.109375 C 0.3125 0 0.3125 0.0625 0.40625 0.0625 C 0.46875 0.0625 0.609375 -0.078125 0.75 -0.234375 C 1.046875 0.0625 1.421875 0.0625 1.59375 0.0625 C 2.5 0.0625 2.828125 -0.421875 2.828125 -0.90625 Z M 2.828125 -0.90625 "/>
</g>
<g id="glyph-2-3">
<path d="M 3.25 -0.828125 C 3.25 -0.859375 3.234375 -0.9375 3.140625 -0.9375 C 3.046875 -0.9375 3.03125 -0.890625 3.015625 -0.828125 C 2.796875 -0.25 2.265625 -0.15625 2.015625 -0.15625 C 1.6875 -0.15625 1.375 -0.296875 1.171875 -0.5625 C 0.90625 -0.890625 0.90625 -1.3125 0.90625 -1.578125 L 3.0625 -1.578125 C 3.203125 -1.578125 3.25 -1.578125 3.25 -1.734375 C 3.25 -2.34375 2.90625 -3.09375 1.875 -3.09375 C 0.96875 -3.09375 0.265625 -2.375 0.265625 -1.515625 C 0.265625 -0.640625 1.046875 0.0625 1.96875 0.0625 C 2.90625 0.0625 3.25 -0.6875 3.25 -0.828125 Z M 2.765625 -1.765625 L 0.90625 -1.765625 C 0.984375 -2.75 1.609375 -2.90625 1.875 -2.90625 C 2.734375 -2.90625 2.765625 -1.9375 2.765625 -1.765625 Z M 2.765625 -1.765625 "/>
</g>
<g id="glyph-2-4">
<path d="M 2.828125 -2.625 C 2.828125 -2.859375 2.609375 -3.0625 2.28125 -3.0625 C 1.9375 -3.0625 1.546875 -2.84375 1.34375 -2.328125 L 1.328125 -2.328125 L 1.328125 -3.0625 L 0.34375 -2.984375 L 0.34375 -2.734375 C 0.8125 -2.734375 0.859375 -2.6875 0.859375 -2.34375 L 0.859375 -0.546875 C 0.859375 -0.25 0.796875 -0.25 0.34375 -0.25 L 0.34375 0 C 0.375 0 0.84375 -0.03125 1.140625 -0.03125 L 2.03125 0 L 2.03125 -0.25 L 1.890625 -0.25 C 1.390625 -0.25 1.390625 -0.328125 1.390625 -0.5625 L 1.390625 -1.578125 C 1.390625 -2.171875 1.65625 -2.875 2.3125 -2.875 C 2.25 -2.828125 2.203125 -2.734375 2.203125 -2.625 C 2.203125 -2.390625 2.375 -2.296875 2.515625 -2.296875 C 2.671875 -2.296875 2.828125 -2.40625 2.828125 -2.625 Z M 2.828125 -2.625 "/>
</g>
<g id="glyph-2-5">
<path d="M 2.609375 -0.875 L 2.609375 -1.265625 L 2.375 -1.265625 L 2.375 -0.890625 C 2.375 -0.40625 2.15625 -0.15625 1.875 -0.15625 C 1.390625 -0.15625 1.390625 -0.734375 1.390625 -0.859375 L 1.390625 -2.75 L 2.484375 -2.75 L 2.484375 -3 L 1.390625 -3 L 1.390625 -4.28125 L 1.15625 -4.28125 C 1.15625 -3.65625 0.875 -2.96875 0.203125 -2.9375 L 0.203125 -2.75 L 0.84375 -2.75 L 0.84375 -0.875 C 0.84375 -0.09375 1.4375 0.0625 1.828125 0.0625 C 2.28125 0.0625 2.609375 -0.328125 2.609375 -0.875 Z M 2.609375 -0.875 "/>
</g>
<g id="glyph-2-6">
<path d="M 3.78125 -0.625 L 3.78125 -1.015625 L 3.546875 -1.015625 L 3.546875 -0.625 C 3.546875 -0.5625 3.546875 -0.234375 3.28125 -0.234375 C 3.03125 -0.234375 3.03125 -0.5625 3.03125 -0.640625 L 3.03125 -1.859375 C 3.03125 -2.234375 3.03125 -2.5 2.71875 -2.75 C 2.421875 -2.984375 2.09375 -3.09375 1.6875 -3.09375 C 1.015625 -3.09375 0.5625 -2.84375 0.5625 -2.421875 C 0.5625 -2.203125 0.703125 -2.09375 0.890625 -2.09375 C 1.078125 -2.09375 1.21875 -2.21875 1.21875 -2.40625 C 1.21875 -2.53125 1.15625 -2.671875 0.96875 -2.734375 C 1.21875 -2.90625 1.625 -2.90625 1.671875 -2.90625 C 2.0625 -2.90625 2.484375 -2.65625 2.484375 -2.0625 L 2.484375 -1.84375 C 2.09375 -1.828125 1.640625 -1.8125 1.140625 -1.625 C 0.5 -1.390625 0.3125 -1.015625 0.3125 -0.703125 C 0.3125 -0.109375 1.03125 0.0625 1.53125 0.0625 C 2.09375 0.0625 2.40625 -0.25 2.5625 -0.515625 C 2.59375 -0.234375 2.78125 0.03125 3.09375 0.03125 C 3.09375 0.03125 3.78125 0.03125 3.78125 -0.625 Z M 2.484375 -0.984375 C 2.484375 -0.3125 1.890625 -0.125 1.578125 -0.125 C 1.234375 -0.125 0.890625 -0.359375 0.890625 -0.703125 C 0.890625 -1.078125 1.234375 -1.625 2.484375 -1.671875 Z M 2.484375 -0.984375 "/>
</g>
</g>
<clipPath id="clip-0">
<path clip-rule="nonzero" d="M 0.195312 0 L 60 0 L 60 31.777344 L 0.195312 31.777344 Z M 0.195312 0 "/>
</clipPath>
<clipPath id="clip-1">
<path clip-rule="nonzero" d="M 82 0 L 148 0 L 148 31.777344 L 82 31.777344 Z M 82 0 "/>
</clipPath>
<clipPath id="clip-2">
<path clip-rule="nonzero" d="M 170 0 L 228 0 L 228 31.777344 L 170 31.777344 Z M 170 0 "/>
</clipPath>
<clipPath id="clip-3">
<path clip-rule="nonzero" d="M 250 0 L 310 0 L 310 31.777344 L 250 31.777344 Z M 250 0 "/>
</clipPath>
</defs>
<path fill-rule="nonzero" fill="rgb(80.39093%, 87.841797%, 94.900513%)" fill-opacity="1" d="M 49.414062 3.175781 L 7.34375 3.175781 C 5.148438 3.175781 3.371094 4.953125 3.371094 7.148438 L 3.371094 24.628906 C 3.371094 26.820312 5.148438 28.597656 7.34375 28.597656 L 49.414062 28.597656 C 51.609375 28.597656 53.386719 26.820312 53.386719 24.628906 L 53.386719 7.148438 C 53.386719 4.953125 51.609375 3.175781 49.414062 3.175781 Z M 49.414062 3.175781 "/>
<g clip-path="url(#clip-0)">
<path fill="none" stroke-width="0.3985" stroke-linecap="butt" stroke-linejoin="miter" stroke="rgb(0%, 0%, 0%)" stroke-opacity="1" stroke-miterlimit="10" d="M 21.108934 12.757064 L -21.109141 12.757064 C -23.312165 12.757064 -25.095751 10.973478 -25.095751 8.770455 L -25.095751 -8.77141 C -25.095751 -10.970513 -23.312165 -12.7541 -21.109141 -12.7541 L 21.108934 -12.7541 C 23.311957 -12.7541 25.095544 -10.970513 25.095544 -8.77141 L 25.095544 8.770455 C 25.095544 10.973478 23.311957 12.757064 21.108934 12.757064 Z M 21.108934 12.757064 " transform="matrix(0.9965, 0, 0, -0.9965, 28.379009, 15.888196)"/>
</g>
<g fill="rgb(0%, 0%, 0%)" fill-opacity="1">
<use xlink:href="#glyph-0-0" x="7.342894" y="12.915637"/>
<use xlink:href="#glyph-0-1" x="13.784817" y="12.915637"/>
</g>
<g fill="rgb(0%, 0%, 0%)" fill-opacity="1">
<use xlink:href="#glyph-0-2" x="18.234834" y="12.915637"/>
</g>
<g fill="rgb(0%, 0%, 0%)" fill-opacity="1">
<use xlink:href="#glyph-0-3" x="21.993085" y="12.915637"/>
<use xlink:href="#glyph-0-4" x="26.681369" y="12.915637"/>
<use xlink:href="#glyph-0-5" x="33.713397" y="12.915637"/>
<use xlink:href="#glyph-0-6" x="37.463706" y="12.915637"/>
</g>
<g fill="rgb(0%, 0%, 0%)" fill-opacity="1">
<use xlink:href="#glyph-0-7" x="41.913723" y="12.915637"/>
<use xlink:href="#glyph-0-1" x="45.195442" y="12.915637"/>
</g>
<g fill="rgb(0%, 0%, 0%)" fill-opacity="1">
<use xlink:href="#glyph-0-8" x="15.603879" y="22.346513"/>
<use xlink:href="#glyph-0-7" x="18.885598" y="22.346513"/>
<use xlink:href="#glyph-0-5" x="22.167317" y="22.346513"/>
<use xlink:href="#glyph-0-9" x="25.917626" y="22.346513"/>
<use xlink:href="#glyph-0-7" x="30.370821" y="22.346513"/>
<use xlink:href="#glyph-0-1" x="33.65254" y="22.346513"/>
<use xlink:href="#glyph-0-10" x="37.872233" y="22.346513"/>
</g>
<path fill-rule="nonzero" fill="rgb(83.529663%, 91.764832%, 83.529663%)" fill-opacity="1" d="M 138.066406 3.175781 L 91.652344 3.175781 C 89.457031 3.175781 87.679688 4.953125 87.679688 7.148438 L 87.679688 24.628906 C 87.679688 26.820312 89.457031 28.597656 91.652344 28.597656 L 138.066406 28.597656 C 140.257812 28.597656 142.039062 26.820312 142.039062 24.628906 L 142.039062 7.148438 C 142.039062 4.953125 140.257812 3.175781 138.066406 3.175781 Z M 138.066406 3.175781 "/>
<g clip-path="url(#clip-1)">
<path fill="none" stroke-width="0.3985" stroke-linecap="butt" stroke-linejoin="miter" stroke="rgb(0%, 0%, 0%)" stroke-opacity="1" stroke-miterlimit="10" d="M 110.072651 12.757064 L 63.495569 12.757064 C 61.292546 12.757064 59.508959 10.973478 59.508959 8.770455 L 59.508959 -8.77141 C 59.508959 -10.970513 61.292546 -12.7541 63.495569 -12.7541 L 110.072651 -12.7541 C 112.271754 -12.7541 114.05926 -10.970513 114.05926 -8.77141 L 114.05926 8.770455 C 114.05926 10.973478 112.271754 12.757064 110.072651 12.757064 Z M 110.072651 12.757064 " transform="matrix(0.9965, 0, 0, -0.9965, 28.379009, 15.888196)"/>
</g>
<g fill="rgb(0%, 0%, 0%)" fill-opacity="1">
<use xlink:href="#glyph-0-11" x="93.640791" y="12.915637"/>
<use xlink:href="#glyph-0-1" x="99.735639" y="12.915637"/>
</g>
<g fill="rgb(0%, 0%, 0%)" fill-opacity="1">
<use xlink:href="#glyph-0-12" x="104.185656" y="12.915637"/>
<use xlink:href="#glyph-0-13" x="108.87394" y="12.915637"/>
</g>
<g fill="rgb(0%, 0%, 0%)" fill-opacity="1">
<use xlink:href="#glyph-0-14" x="111.225626" y="12.915637"/>
</g>
<g fill="rgb(0%, 0%, 0%)" fill-opacity="1">
<use xlink:href="#glyph-0-2" x="115.905968" y="12.915637"/>
</g>
<g fill="rgb(0%, 0%, 0%)" fill-opacity="1">
<use xlink:href="#glyph-0-15" x="119.664219" y="12.915637"/>
</g>
<g fill="rgb(0%, 0%, 0%)" fill-opacity="1">
<use xlink:href="#glyph-0-12" x="123.87597" y="12.915637"/>
<use xlink:href="#glyph-0-1" x="128.564253" y="12.915637"/>
<use xlink:href="#glyph-0-16" x="132.783947" y="12.915637"/>
</g>
<g fill="rgb(0%, 0%, 0%)" fill-opacity="1">
<use xlink:href="#glyph-0-8" x="91.651777" y="22.346513"/>
<use xlink:href="#glyph-0-5" x="94.933496" y="22.346513"/>
<use xlink:href="#glyph-0-4" x="98.683805" y="22.346513"/>
</g>
<g fill="rgb(0%, 0%, 0%)" fill-opacity="1">
<use xlink:href="#glyph-0-17" x="105.485509" y="22.346513"/>
</g>
<g fill="rgb(0%, 0%, 0%)" fill-opacity="1">
<use xlink:href="#glyph-0-5" x="110.404116" y="22.346513"/>
<use xlink:href="#glyph-0-12" x="114.154425" y="22.346513"/>
<use xlink:href="#glyph-0-12" x="118.842709" y="22.346513"/>
<use xlink:href="#glyph-0-13" x="123.530992" y="22.346513"/>
<use xlink:href="#glyph-0-6" x="125.874737" y="22.346513"/>
<use xlink:href="#glyph-0-18" x="130.56302" y="22.346513"/>
<use xlink:href="#glyph-0-10" x="134.782714" y="22.346513"/>
</g>
<path fill-rule="nonzero" fill="rgb(100%, 100%, 100%)" fill-opacity="1" d="M 218.324219 3.175781 L 180.304688 3.175781 C 178.109375 3.175781 176.332031 4.953125 176.332031 7.148438 L 176.332031 24.628906 C 176.332031 26.820312 178.109375 28.597656 180.304688 28.597656 L 218.324219 28.597656 C 220.519531 28.597656 222.296875 26.820312 222.296875 24.628906 L 222.296875 7.148438 C 222.296875 4.953125 220.519531 3.175781 218.324219 3.175781 Z M 218.324219 3.175781 "/>
<g clip-path="url(#clip-2)">
<path fill="none" stroke-width="0.3985" stroke-linecap="butt" stroke-linejoin="miter" stroke="rgb(0%, 0%, 0%)" stroke-opacity="1" stroke-miterlimit="10" d="M 190.612352 12.757064 L 152.459285 12.757064 C 150.256262 12.757064 148.472676 10.973478 148.472676 8.770455 L 148.472676 -8.77141 C 148.472676 -10.970513 150.256262 -12.7541 152.459285 -12.7541 L 190.612352 -12.7541 C 192.815376 -12.7541 194.598962 -10.970513 194.598962 -8.77141 L 194.598962 8.770455 C 194.598962 10.973478 192.815376 12.757064 190.612352 12.757064 Z M 190.612352 12.757064 " transform="matrix(0.9965, 0, 0, -0.9965, 28.379009, 15.888196)"/>
</g>
<g fill="rgb(0%, 0%, 0%)" fill-opacity="1">
<use xlink:href="#glyph-0-19" x="182.669097" y="13.908151"/>
</g>
<g fill="rgb(0%, 0%, 0%)" fill-opacity="1">
<use xlink:href="#glyph-0-5" x="188.283442" y="13.908151"/>
</g>
<g fill="rgb(0%, 0%, 0%)" fill-opacity="1">
<use xlink:href="#glyph-0-2" x="192.041693" y="13.908151"/>
<use xlink:href="#glyph-0-7" x="195.792002" y="13.908151"/>
<use xlink:href="#glyph-0-1" x="199.073721" y="13.908151"/>
<use xlink:href="#glyph-0-16" x="203.293415" y="13.908151"/>
</g>
<g fill="rgb(0%, 0%, 0%)" fill-opacity="1">
<use xlink:href="#glyph-1-0" x="209.391242" y="13.908151"/>
</g>
<g fill="rgb(0%, 0%, 0%)" fill-opacity="1">
<use xlink:href="#glyph-0-4" x="180.301413" y="23.339027"/>
<use xlink:href="#glyph-0-5" x="187.333441" y="23.339027"/>
<use xlink:href="#glyph-0-7" x="191.083751" y="23.339027"/>
<use xlink:href="#glyph-0-15" x="194.365469" y="23.339027"/>
<use xlink:href="#glyph-0-12" x="198.585163" y="23.339027"/>
<use xlink:href="#glyph-0-15" x="203.273446" y="23.339027"/>
<use xlink:href="#glyph-0-7" x="207.49314" y="23.339027"/>
<use xlink:href="#glyph-0-1" x="210.774859" y="23.339027"/>
<use xlink:href="#glyph-0-20" x="214.994552" y="23.339027"/>
</g>
<path fill-rule="nonzero" fill="rgb(80.39093%, 87.841797%, 94.900513%)" fill-opacity="1" d="M 299.949219 3.175781 L 260.5625 3.175781 C 258.367188 3.175781 256.589844 4.953125 256.589844 7.148438 L 256.589844 24.628906 C 256.589844 26.820312 258.367188 28.597656 260.5625 28.597656 L 299.949219 28.597656 C 302.144531 28.597656 303.921875 26.820312 303.921875 24.628906 L 303.921875 7.148438 C 303.921875 4.953125 302.144531 3.175781 299.949219 3.175781 Z M 299.949219 3.175781 "/>
<g clip-path="url(#clip-3)">
<path fill="none" stroke-width="0.3985" stroke-linecap="butt" stroke-linejoin="miter" stroke="rgb(0%, 0%, 0%)" stroke-opacity="1" stroke-miterlimit="10" d="M 272.524043 12.757064 L 232.998987 12.757064 C 230.795964 12.757064 229.012378 10.973478 229.012378 8.770455 L 229.012378 -8.77141 C 229.012378 -10.970513 230.795964 -12.7541 232.998987 -12.7541 L 272.524043 -12.7541 C 274.727066 -12.7541 276.510653 -10.970513 276.510653 -8.77141 L 276.510653 8.770455 C 276.510653 10.973478 274.727066 12.757064 272.524043 12.757064 Z M 272.524043 12.757064 " transform="matrix(0.9965, 0, 0, -0.9965, 28.379009, 15.888196)"/>
</g>
<g fill="rgb(0%, 0%, 0%)" fill-opacity="1">
<use xlink:href="#glyph-0-11" x="262.672103" y="12.915637"/>
<use xlink:href="#glyph-0-1" x="268.766951" y="12.915637"/>
<use xlink:href="#glyph-0-21" x="272.986645" y="12.915637"/>
<use xlink:href="#glyph-0-5" x="275.330389" y="12.915637"/>
<use xlink:href="#glyph-0-2" x="279.080698" y="12.915637"/>
<use xlink:href="#glyph-0-2" x="282.831007" y="12.915637"/>
<use xlink:href="#glyph-0-13" x="286.581316" y="12.915637"/>
<use xlink:href="#glyph-0-22" x="288.925061" y="12.915637"/>
<use xlink:href="#glyph-0-6" x="293.144754" y="12.915637"/>
</g>
<g fill="rgb(0%, 0%, 0%)" fill-opacity="1">
<use xlink:href="#glyph-0-8" x="260.558527" y="22.346513"/>
<use xlink:href="#glyph-0-23" x="263.840246" y="22.346513"/>
</g>
<g fill="rgb(0%, 0%, 0%)" fill-opacity="1">
<use xlink:href="#glyph-0-6" x="273.215224" y="22.346513"/>
<use xlink:href="#glyph-0-1" x="277.903508" y="22.346513"/>
<use xlink:href="#glyph-0-16" x="282.123201" y="22.346513"/>
<use xlink:href="#glyph-0-4" x="285.412068" y="22.346513"/>
<use xlink:href="#glyph-0-15" x="292.444096" y="22.346513"/>
<use xlink:href="#glyph-0-10" x="296.663789" y="22.346513"/>
</g>
<path fill="none" stroke-width="0.3985" stroke-linecap="butt" stroke-linejoin="miter" stroke="rgb(0%, 0%, 0%)" stroke-opacity="1" stroke-miterlimit="10" d="M 25.295462 0.00148244 L 55.647789 0.00148244 " transform="matrix(0.9965, 0, 0, -0.9965, 28.379009, 15.888196)"/>
<path fill-rule="nonzero" fill="rgb(0%, 0%, 0%)" fill-opacity="1" stroke-width="0.3985" stroke-linecap="butt" stroke-linejoin="miter" stroke="rgb(0%, 0%, 0%)" stroke-opacity="1" stroke-miterlimit="10" d="M 5.102865 0.00148244 L 0.641939 1.67923 L 2.108008 0.00148244 L 0.641939 -1.680185 Z M 5.102865 0.00148244 " transform="matrix(0.9965, 0, 0, -0.9965, 81.832964, 15.888196)"/>
<path fill="none" stroke-width="0.3985" stroke-linecap="butt" stroke-linejoin="miter" stroke="rgb(0%, 0%, 0%)" stroke-opacity="1" stroke-miterlimit="10" d="M 114.255259 0.00148244 L 144.611506 0.00148244 " transform="matrix(0.9965, 0, 0, -0.9965, 28.379009, 15.888196)"/>
<path fill-rule="nonzero" fill="rgb(0%, 0%, 0%)" fill-opacity="1" stroke-width="0.3985" stroke-linecap="butt" stroke-linejoin="miter" stroke="rgb(0%, 0%, 0%)" stroke-opacity="1" stroke-miterlimit="10" d="M 5.100522 0.00148244 L 0.643516 1.67923 L 2.105665 0.00148244 L 0.643516 -1.680185 Z M 5.100522 0.00148244 " transform="matrix(0.9965, 0, 0, -0.9965, 170.483736, 15.888196)"/>
<path fill="none" stroke-width="0.3985" stroke-linecap="butt" stroke-linejoin="miter" stroke="rgb(0%, 0%, 0%)" stroke-opacity="1" stroke-miterlimit="10" d="M 194.79888 0.00148244 L 225.151207 0.00148244 " transform="matrix(0.9965, 0, 0, -0.9965, 28.379009, 15.888196)"/>
<path fill-rule="nonzero" fill="rgb(0%, 0%, 0%)" fill-opacity="1" stroke-width="0.3985" stroke-linecap="butt" stroke-linejoin="miter" stroke="rgb(0%, 0%, 0%)" stroke-opacity="1" stroke-miterlimit="10" d="M 5.103683 0.00148244 L 0.642758 1.67923 L 2.104906 0.00148244 L 0.642758 -1.680185 Z M 5.103683 0.00148244 " transform="matrix(0.9965, 0, 0, -0.9965, 250.742304, 15.888196)"/>
<g fill="rgb(0%, 0%, 0%)" fill-opacity="1">
<use xlink:href="#glyph-2-0" x="227.705915" y="12.380516"/>
<use xlink:href="#glyph-2-1" x="229.953348" y="12.380516"/>
<use xlink:href="#glyph-2-2" x="234.338414" y="12.380516"/>
<use xlink:href="#glyph-2-3" x="237.483709" y="12.380516"/>
<use xlink:href="#glyph-2-4" x="241.013305" y="12.380516"/>
<use xlink:href="#glyph-2-5" x="244.115514" y="12.380516"/>
<use xlink:href="#glyph-2-6" x="247.217722" y="12.380516"/>
</g>
</svg>
