<?xml version="1.0" encoding="UTF-8"?>
<svg xmlns="http://www.w3.org/2000/svg" xmlns:xlink="http://www.w3.org/1999/xlink" width="774.008" height="551.815" viewBox="0 0 351.822 250.825">
<defs>
<g>
<g id="glyph-0-0">
<path d="M 3.875 -1.34375 C 3.875 -1.84375 3.609375 -2.171875 3.46875 -2.3125 C 3.34375 -2.4375 3.328125 -2.453125 2.640625 -2.875 C 3.09375 -3.09375 3.640625 -3.484375 3.640625 -4.109375 C 3.640625 -4.875 2.859375 -5.296875 2.125 -5.296875 C 1.28125 -5.296875 0.59375 -4.71875 0.59375 -3.96875 C 0.59375 -3.671875 0.6875 -3.40625 0.890625 -3.171875 C 1.03125 -3 1.0625 -2.984375 1.546875 -2.671875 C 0.5625 -2.234375 0.34375 -1.65625 0.34375 -1.21875 C 0.34375 -0.328125 1.234375 0.171875 2.109375 0.171875 C 3.078125 0.171875 3.875 -0.5 3.875 -1.34375 Z M 3.234375 -4.109375 C 3.234375 -3.65625 2.875 -3.265625 2.40625 -3.03125 L 1.40625 -3.625 C 1.171875 -3.765625 0.984375 -4 0.984375 -4.265625 C 0.984375 -4.765625 1.53125 -5.09375 2.109375 -5.09375 C 2.71875 -5.09375 3.234375 -4.671875 3.234375 -4.109375 Z M 3.421875 -1.0625 C 3.421875 -0.453125 2.765625 -0.078125 2.125 -0.078125 C 1.40625 -0.078125 0.8125 -0.5625 0.8125 -1.21875 C 0.8125 -1.8125 1.25 -2.28125 1.796875 -2.53125 L 2.875 -1.875 C 3 -1.796875 3.421875 -1.546875 3.421875 -1.0625 Z M 3.421875 -1.0625 "/>
</g>
<g id="glyph-0-1">
<path d="M 3.5625 0 L 3.5625 -0.265625 L 3.28125 -0.265625 C 2.53125 -0.265625 2.5 -0.359375 2.5 -0.65625 L 2.5 -5.078125 C 2.5 -5.296875 2.484375 -5.296875 2.265625 -5.296875 C 1.9375 -4.984375 1.515625 -4.796875 0.765625 -4.796875 L 0.765625 -4.53125 C 0.984375 -4.53125 1.40625 -4.53125 1.875 -4.734375 L 1.875 -0.65625 C 1.875 -0.359375 1.84375 -0.265625 1.09375 -0.265625 L 0.8125 -0.265625 L 0.8125 0 C 1.140625 -0.03125 1.828125 -0.03125 2.1875 -0.03125 C 2.546875 -0.03125 3.234375 -0.03125 3.5625 0 Z M 3.5625 0 "/>
</g>
<g id="glyph-0-2">
<path d="M 3.875 -1.625 C 3.875 -2.65625 3.078125 -3.390625 2.203125 -3.390625 C 1.625 -3.390625 1.28125 -3.03125 1.09375 -2.640625 C 1.09375 -3.296875 1.15625 -3.875 1.4375 -4.359375 C 1.6875 -4.765625 2.09375 -5.09375 2.59375 -5.09375 C 2.75 -5.09375 3.109375 -5.0625 3.296875 -4.796875 C 2.9375 -4.765625 2.90625 -4.5 2.90625 -4.421875 C 2.90625 -4.171875 3.09375 -4.046875 3.28125 -4.046875 C 3.421875 -4.046875 3.65625 -4.125 3.65625 -4.4375 C 3.65625 -4.90625 3.296875 -5.296875 2.578125 -5.296875 C 1.46875 -5.296875 0.34375 -4.25 0.34375 -2.53125 C 0.34375 -0.359375 1.359375 0.171875 2.125 0.171875 C 2.515625 0.171875 2.921875 0.0625 3.28125 -0.28125 C 3.609375 -0.59375 3.875 -0.921875 3.875 -1.625 Z M 3.125 -1.625 C 3.125 -1.21875 3.125 -0.875 2.96875 -0.578125 C 2.75 -0.21875 2.484375 -0.078125 2.125 -0.078125 C 1.703125 -0.078125 1.4375 -0.359375 1.328125 -0.59375 C 1.140625 -0.953125 1.125 -1.484375 1.125 -1.796875 C 1.125 -2.578125 1.546875 -3.171875 2.171875 -3.171875 C 2.5625 -3.171875 2.8125 -2.96875 2.953125 -2.6875 C 3.125 -2.390625 3.125 -2.03125 3.125 -1.625 Z M 3.125 -1.625 "/>
</g>
<g id="glyph-0-3">
<path d="M 3.875 -1.359375 C 3.875 -2.03125 3.34375 -2.625 2.53125 -2.8125 C 3.15625 -3.03125 3.640625 -3.5625 3.640625 -4.203125 C 3.640625 -4.84375 2.921875 -5.296875 2.09375 -5.296875 C 1.234375 -5.296875 0.59375 -4.84375 0.59375 -4.234375 C 0.59375 -3.9375 0.78125 -3.8125 1 -3.8125 C 1.25 -3.8125 1.40625 -3.984375 1.40625 -4.21875 C 1.40625 -4.515625 1.140625 -4.625 0.96875 -4.625 C 1.3125 -5.0625 1.921875 -5.09375 2.0625 -5.09375 C 2.265625 -5.09375 2.875 -5.03125 2.875 -4.203125 C 2.875 -3.65625 2.640625 -3.3125 2.53125 -3.1875 C 2.296875 -2.9375 2.109375 -2.921875 1.625 -2.890625 C 1.46875 -2.890625 1.40625 -2.875 1.40625 -2.765625 C 1.40625 -2.65625 1.484375 -2.65625 1.625 -2.65625 L 2.015625 -2.65625 C 2.640625 -2.65625 3.046875 -2.203125 3.046875 -1.359375 C 3.046875 -0.359375 2.484375 -0.078125 2.0625 -0.078125 C 1.625 -0.078125 1.015625 -0.234375 0.734375 -0.65625 C 1.03125 -0.65625 1.234375 -0.84375 1.234375 -1.09375 C 1.234375 -1.359375 1.046875 -1.53125 0.78125 -1.53125 C 0.578125 -1.53125 0.34375 -1.40625 0.34375 -1.078125 C 0.34375 -0.328125 1.15625 0.171875 2.078125 0.171875 C 3.125 0.171875 3.875 -0.5625 3.875 -1.359375 Z M 3.875 -1.359375 "/>
</g>
<g id="glyph-0-4">
<path d="M 3.796875 -1.421875 L 3.546875 -1.421875 C 3.53125 -1.265625 3.46875 -0.875 3.375 -0.71875 C 3.328125 -0.65625 2.71875 -0.65625 2.59375 -0.65625 L 1.171875 -0.65625 L 2.25 -1.625 C 2.375 -1.75 2.703125 -2.015625 2.84375 -2.125 C 3.328125 -2.578125 3.796875 -3.015625 3.796875 -3.734375 C 3.796875 -4.6875 3 -5.296875 2.015625 -5.296875 C 1.046875 -5.296875 0.421875 -4.578125 0.421875 -3.859375 C 0.421875 -3.46875 0.734375 -3.421875 0.84375 -3.421875 C 1.015625 -3.421875 1.265625 -3.53125 1.265625 -3.84375 C 1.265625 -4.25 0.859375 -4.25 0.765625 -4.25 C 1 -4.84375 1.53125 -5.03125 1.921875 -5.03125 C 2.65625 -5.03125 3.046875 -4.40625 3.046875 -3.734375 C 3.046875 -2.90625 2.46875 -2.296875 1.515625 -1.34375 L 0.515625 -0.296875 C 0.421875 -0.21875 0.421875 -0.203125 0.421875 0 L 3.5625 0 Z M 3.796875 -1.421875 "/>
</g>
<g id="glyph-0-5">
<path d="M 3.984375 -1.3125 L 3.984375 -1.5625 L 3.140625 -1.5625 L 3.140625 -5.15625 C 3.140625 -5.3125 3.140625 -5.375 2.96875 -5.375 C 2.875 -5.375 2.859375 -5.375 2.78125 -5.265625 L 0.234375 -1.5625 L 0.234375 -1.3125 L 2.484375 -1.3125 L 2.484375 -0.640625 C 2.484375 -0.34375 2.46875 -0.265625 1.84375 -0.265625 L 1.671875 -0.265625 L 1.671875 0 L 2.8125 -0.03125 L 3.953125 0 L 3.953125 -0.265625 L 3.78125 -0.265625 C 3.15625 -0.265625 3.140625 -0.34375 3.140625 -0.640625 L 3.140625 -1.3125 Z M 2.546875 -1.5625 L 0.515625 -1.5625 L 2.546875 -4.515625 Z M 2.546875 -1.5625 "/>
</g>
<g id="glyph-0-6">
<path d="M 3.796875 -1.59375 C 3.796875 -2.515625 3.125 -3.34375 2.1875 -3.34375 C 1.796875 -3.34375 1.421875 -3.21875 1.109375 -2.9375 L 1.109375 -4.484375 C 1.21875 -4.453125 1.53125 -4.359375 1.875 -4.359375 C 2.875 -4.359375 3.46875 -5.0625 3.46875 -5.1875 C 3.46875 -5.28125 3.421875 -5.296875 3.375 -5.296875 C 3.375 -5.296875 3.34375 -5.296875 3.28125 -5.265625 C 2.96875 -5.140625 2.59375 -5.046875 2.171875 -5.046875 C 1.703125 -5.046875 1.3125 -5.15625 1.0625 -5.265625 C 0.984375 -5.296875 0.953125 -5.296875 0.953125 -5.296875 C 0.859375 -5.296875 0.859375 -5.21875 0.859375 -5.0625 L 0.859375 -2.734375 C 0.859375 -2.59375 0.859375 -2.5 0.984375 -2.5 C 1.046875 -2.5 1.0625 -2.53125 1.109375 -2.59375 C 1.203125 -2.703125 1.5 -3.109375 2.1875 -3.109375 C 2.625 -3.109375 2.84375 -2.75 2.921875 -2.59375 C 3.046875 -2.3125 3.0625 -1.9375 3.0625 -1.640625 C 3.0625 -1.34375 3.0625 -0.90625 2.84375 -0.5625 C 2.6875 -0.3125 2.359375 -0.078125 1.9375 -0.078125 C 1.421875 -0.078125 0.921875 -0.390625 0.734375 -0.921875 C 0.75 -0.90625 0.8125 -0.90625 0.8125 -0.90625 C 1.03125 -0.90625 1.21875 -1.046875 1.21875 -1.296875 C 1.21875 -1.59375 0.984375 -1.703125 0.828125 -1.703125 C 0.671875 -1.703125 0.421875 -1.625 0.421875 -1.28125 C 0.421875 -0.5625 1.046875 0.171875 1.953125 0.171875 C 2.953125 0.171875 3.796875 -0.609375 3.796875 -1.59375 Z M 3.796875 -1.59375 "/>
</g>
<g id="glyph-0-7">
<path d="M 4.09375 -0.71875 L 4.09375 -1.15625 L 3.84375 -1.15625 L 3.84375 -0.71875 C 3.84375 -0.390625 3.734375 -0.265625 3.5625 -0.265625 C 3.265625 -0.265625 3.265625 -0.625 3.265625 -0.71875 L 3.265625 -2.375 C 3.265625 -3.15625 2.515625 -3.546875 1.78125 -3.546875 C 1.125 -3.546875 0.53125 -3.296875 0.53125 -2.765625 C 0.53125 -2.53125 0.703125 -2.390625 0.90625 -2.390625 C 1.125 -2.390625 1.28125 -2.546875 1.28125 -2.765625 C 1.28125 -2.953125 1.15625 -3.09375 0.984375 -3.125 C 1.28125 -3.328125 1.71875 -3.328125 1.765625 -3.328125 C 2.21875 -3.328125 2.65625 -3.015625 2.65625 -2.359375 L 2.65625 -2.125 C 2.203125 -2.09375 1.671875 -2.078125 1.109375 -1.84375 C 0.40625 -1.53125 0.265625 -1.078125 0.265625 -0.8125 C 0.265625 -0.125 1.078125 0.078125 1.625 0.078125 C 2.203125 0.078125 2.5625 -0.25 2.734375 -0.5625 C 2.78125 -0.265625 2.984375 0.046875 3.34375 0.046875 C 3.421875 0.046875 4.09375 0.015625 4.09375 -0.71875 Z M 2.65625 -1.125 C 2.65625 -0.34375 2.015625 -0.140625 1.6875 -0.140625 C 1.28125 -0.140625 0.921875 -0.421875 0.921875 -0.8125 C 0.921875 -1.328125 1.421875 -1.875 2.65625 -1.90625 Z M 2.65625 -1.125 "/>
</g>
<g id="glyph-0-8">
<path d="M 4.484375 0 L 4.484375 -0.265625 C 3.96875 -0.265625 3.875 -0.265625 3.875 -0.625 L 3.875 -2.421875 C 3.875 -3.078125 3.5625 -3.515625 2.734375 -3.515625 C 1.9375 -3.515625 1.578125 -2.9375 1.484375 -2.75 L 1.484375 -3.515625 L 0.328125 -3.421875 L 0.328125 -3.15625 C 0.875 -3.15625 0.9375 -3.109375 0.9375 -2.71875 L 0.9375 -0.625 C 0.9375 -0.265625 0.84375 -0.265625 0.328125 -0.265625 L 0.328125 0 C 0.671875 -0.03125 1.015625 -0.03125 1.234375 -0.03125 C 1.46875 -0.03125 1.796875 -0.03125 2.140625 0 L 2.140625 -0.265625 C 1.640625 -0.265625 1.53125 -0.265625 1.53125 -0.625 L 1.53125 -2.0625 C 1.53125 -2.90625 2.171875 -3.296875 2.65625 -3.296875 C 3.140625 -3.296875 3.265625 -2.953125 3.265625 -2.453125 L 3.265625 -0.625 C 3.265625 -0.265625 3.171875 -0.265625 2.65625 -0.265625 L 2.65625 0 C 3 -0.03125 3.359375 -0.03125 3.5625 -0.03125 C 3.796875 -0.03125 4.140625 -0.03125 4.484375 0 Z M 4.484375 0 "/>
</g>
<g id="glyph-0-9">
<path d="M 3.515625 -0.953125 C 3.515625 -1.046875 3.40625 -1.046875 3.390625 -1.046875 C 3.328125 -1.046875 3.296875 -1.046875 3.265625 -0.96875 C 3.21875 -0.796875 2.984375 -0.171875 2.1875 -0.171875 C 1.703125 -0.171875 0.984375 -0.546875 0.984375 -1.734375 C 0.984375 -2.875 1.578125 -3.3125 2.15625 -3.3125 C 2.234375 -3.3125 2.65625 -3.3125 2.9375 -3.15625 C 2.703125 -3.09375 2.671875 -2.90625 2.671875 -2.8125 C 2.671875 -2.59375 2.828125 -2.4375 3.046875 -2.4375 C 3.265625 -2.4375 3.421875 -2.578125 3.421875 -2.828125 C 3.421875 -3.3125 2.890625 -3.546875 2.140625 -3.546875 C 1.03125 -3.546875 0.28125 -2.671875 0.28125 -1.71875 C 0.28125 -0.703125 1.109375 0.078125 2.109375 0.078125 C 3.234375 0.078125 3.515625 -0.859375 3.515625 -0.953125 Z M 3.515625 -0.953125 "/>
</g>
<g id="glyph-0-10">
<path d="M 4.484375 0 L 4.484375 -0.265625 C 3.96875 -0.265625 3.875 -0.265625 3.875 -0.625 L 3.875 -2.421875 C 3.875 -3.078125 3.5625 -3.515625 2.734375 -3.515625 C 2.03125 -3.515625 1.671875 -3.0625 1.515625 -2.8125 L 1.515625 -5.53125 L 0.328125 -5.4375 L 0.328125 -5.171875 C 0.875 -5.171875 0.9375 -5.125 0.9375 -4.734375 L 0.9375 -0.625 C 0.9375 -0.265625 0.84375 -0.265625 0.328125 -0.265625 L 0.328125 0 C 0.671875 -0.03125 1.015625 -0.03125 1.234375 -0.03125 C 1.46875 -0.03125 1.796875 -0.03125 2.140625 0 L 2.140625 -0.265625 C 1.640625 -0.265625 1.53125 -0.265625 1.53125 -0.625 L 1.53125 -2.0625 C 1.53125 -2.90625 2.171875 -3.296875 2.65625 -3.296875 C 3.140625 -3.296875 3.265625 -2.953125 3.265625 -2.453125 L 3.265625 -0.625 C 3.265625 -0.265625 3.171875 -0.265625 2.65625 -0.265625 L 2.65625 0 C 3 -0.03125 3.359375 -0.03125 3.5625 -0.03125 C 3.796875 -0.03125 4.140625 -0.03125 4.484375 0 Z M 4.484375 0 "/>
</g>
<g id="glyph-0-11">
<path d="M 4.484375 0 L 4.484375 -0.265625 C 3.9375 -0.265625 3.875 -0.3125 3.875 -0.703125 L 3.875 -3.515625 L 2.65625 -3.421875 L 2.65625 -3.15625 C 3.203125 -3.15625 3.265625 -3.109375 3.265625 -2.71875 L 3.265625 -1.328125 C 3.265625 -0.640625 2.859375 -0.140625 2.25 -0.140625 C 1.5625 -0.140625 1.53125 -0.484375 1.53125 -0.890625 L 1.53125 -3.515625 L 0.328125 -3.421875 L 0.328125 -3.15625 C 0.9375 -3.15625 0.9375 -3.140625 0.9375 -2.4375 L 0.9375 -1.234375 C 0.9375 -0.65625 0.9375 0.078125 2.203125 0.078125 C 2.953125 0.078125 3.25 -0.5 3.28125 -0.5625 L 3.296875 -0.5625 L 3.296875 0.078125 Z M 4.484375 0 "/>
</g>
<g id="glyph-0-12">
<path d="M 3.0625 -3.015625 C 3.0625 -3.296875 2.8125 -3.515625 2.453125 -3.515625 C 1.9375 -3.515625 1.578125 -3.125 1.421875 -2.671875 L 1.40625 -2.671875 L 1.40625 -3.515625 L 0.28125 -3.421875 L 0.28125 -3.15625 C 0.828125 -3.15625 0.890625 -3.109375 0.890625 -2.71875 L 0.890625 -0.625 C 0.890625 -0.265625 0.78125 -0.265625 0.28125 -0.265625 L 0.28125 0 C 0.59375 -0.03125 1.03125 -0.03125 1.21875 -0.03125 C 1.6875 -0.03125 1.703125 -0.03125 2.21875 0 L 2.21875 -0.265625 L 2.0625 -0.265625 C 1.484375 -0.265625 1.46875 -0.34375 1.46875 -0.640625 L 1.46875 -1.8125 C 1.46875 -2.421875 1.71875 -3.28125 2.484375 -3.296875 C 2.4375 -3.265625 2.34375 -3.203125 2.34375 -3.015625 C 2.34375 -2.765625 2.546875 -2.65625 2.703125 -2.65625 C 2.890625 -2.65625 3.0625 -2.78125 3.0625 -3.015625 Z M 3.0625 -3.015625 "/>
</g>
<g id="glyph-0-13">
<path d="M 4.421875 0 L 4.421875 -0.265625 C 3.875 -0.265625 3.8125 -0.3125 3.8125 -0.703125 L 3.8125 -5.53125 L 2.625 -5.4375 L 2.625 -5.171875 C 3.15625 -5.171875 3.234375 -5.125 3.234375 -4.734375 L 3.234375 -3.046875 C 2.953125 -3.359375 2.578125 -3.515625 2.15625 -3.515625 C 1.15625 -3.515625 0.28125 -2.734375 0.28125 -1.71875 C 0.28125 -0.734375 1.078125 0.078125 2.078125 0.078125 C 2.546875 0.078125 2.9375 -0.140625 3.203125 -0.421875 L 3.203125 0.078125 Z M 3.203125 -0.984375 C 3.203125 -0.84375 3.203125 -0.8125 3.078125 -0.65625 C 2.859375 -0.328125 2.5 -0.140625 2.125 -0.140625 C 1.75 -0.140625 1.4375 -0.328125 1.25 -0.625 C 1.03125 -0.9375 0.984375 -1.328125 0.984375 -1.703125 C 0.984375 -2.171875 1.0625 -2.5 1.25 -2.765625 C 1.4375 -3.0625 1.796875 -3.296875 2.203125 -3.296875 C 2.578125 -3.296875 2.96875 -3.09375 3.203125 -2.6875 Z M 3.203125 -0.984375 "/>
</g>
<g id="glyph-0-14">
<path d="M 3.515625 -0.953125 C 3.515625 -0.984375 3.484375 -1.0625 3.390625 -1.0625 C 3.296875 -1.0625 3.28125 -1.015625 3.265625 -0.96875 C 2.984375 -0.1875 2.296875 -0.171875 2.15625 -0.171875 C 1.796875 -0.171875 1.421875 -0.328125 1.1875 -0.703125 C 0.953125 -1.0625 0.953125 -1.578125 0.953125 -1.8125 L 3.296875 -1.8125 C 3.46875 -1.8125 3.515625 -1.8125 3.515625 -2 C 3.515625 -2.703125 3.125 -3.546875 2 -3.546875 C 1.015625 -3.546875 0.234375 -2.734375 0.234375 -1.75 C 0.234375 -0.71875 1.09375 0.078125 2.109375 0.078125 C 3.109375 0.078125 3.515625 -0.765625 3.515625 -0.953125 Z M 2.96875 -2.03125 L 0.953125 -2.03125 C 1.03125 -3.140625 1.703125 -3.328125 2 -3.328125 C 2.9375 -3.328125 2.96875 -2.203125 2.96875 -2.03125 Z M 2.96875 -2.03125 "/>
</g>
<g id="glyph-0-15">
<path d="M 4.421875 -1.71875 C 4.421875 -2.71875 3.59375 -3.515625 2.625 -3.515625 C 1.984375 -3.515625 1.609375 -3.171875 1.46875 -3.03125 L 1.46875 -5.53125 L 0.28125 -5.4375 L 0.28125 -5.171875 C 0.828125 -5.171875 0.890625 -5.125 0.890625 -4.734375 L 0.890625 0 L 1.125 0 L 1.421875 -0.5 C 1.609375 -0.21875 1.984375 0.078125 2.53125 0.078125 C 3.53125 0.078125 4.421875 -0.703125 4.421875 -1.71875 Z M 3.703125 -1.734375 C 3.703125 -1.546875 3.703125 -0.984375 3.421875 -0.609375 C 3.125 -0.25 2.75 -0.140625 2.5 -0.140625 C 2.109375 -0.140625 1.796875 -0.34375 1.578125 -0.65625 C 1.484375 -0.8125 1.484375 -0.8125 1.484375 -0.96875 L 1.484375 -2.515625 C 1.484375 -2.671875 1.484375 -2.6875 1.609375 -2.828125 C 1.84375 -3.125 2.21875 -3.296875 2.578125 -3.296875 C 2.984375 -3.296875 3.296875 -3.046875 3.453125 -2.8125 C 3.59375 -2.59375 3.703125 -2.3125 3.703125 -1.734375 Z M 3.703125 -1.734375 "/>
</g>
<g id="glyph-0-16">
<path d="M 4.484375 0 L 4.484375 -0.265625 C 3.9375 -0.265625 3.875 -0.3125 3.875 -0.703125 L 3.875 -3.515625 L 2.65625 -3.421875 L 2.65625 -3.15625 C 3.203125 -3.15625 3.265625 -3.109375 3.265625 -2.71875 L 3.265625 -1.328125 C 3.265625 -0.640625 2.859375 -0.140625 2.25 -0.140625 C 1.5625 -0.140625 1.53125 -0.484375 1.53125 -0.890625 L 1.53125 -3.515625 L 0.328125 -3.421875 L 0.328125 -3.15625 C 0.9375 -3.15625 0.9375 -3.140625 0.9375 -2.4375 L 0.9375 -1.234375 C 0.9375 -0.65625 0.9375 0.078125 2.203125 0.078125 C 2.953125 0.078125 3.25 -0.5 3.28125 -0.5625 L 3.296875 -0.5625 L 3.296875 0.078125 Z M 3.40625 -5.25 C 3.40625 -5.421875 3.25 -5.5625 3.09375 -5.5625 C 3.0625 -5.5625 2.953125 -5.5625 2.859375 -5.4375 L 1.828125 -4.21875 L 2 -4.046875 L 3.25 -4.984375 C 3.34375 -5.046875 3.40625 -5.109375 3.40625 -5.25 Z M 3.40625 -5.25 "/>
</g>
<g id="glyph-0-17">
<path d="M 3.046875 -1.03125 C 3.046875 -1.40625 2.828125 -1.96875 1.875 -2.140625 C 1.8125 -2.15625 1.359375 -2.234375 1.328125 -2.234375 C 1.078125 -2.296875 0.703125 -2.46875 0.703125 -2.78125 C 0.703125 -3.015625 0.890625 -3.359375 1.640625 -3.359375 C 2.53125 -3.359375 2.578125 -2.703125 2.59375 -2.484375 C 2.59375 -2.421875 2.65625 -2.390625 2.703125 -2.390625 C 2.84375 -2.390625 2.84375 -2.453125 2.84375 -2.59375 L 2.84375 -3.34375 C 2.84375 -3.46875 2.84375 -3.546875 2.734375 -3.546875 C 2.6875 -3.546875 2.671875 -3.546875 2.546875 -3.421875 C 2.53125 -3.421875 2.453125 -3.34375 2.4375 -3.34375 C 2.4375 -3.34375 2.40625 -3.34375 2.359375 -3.375 C 2.234375 -3.46875 2 -3.546875 1.640625 -3.546875 C 0.53125 -3.546875 0.28125 -2.953125 0.28125 -2.5625 C 0.28125 -2.171875 0.578125 -1.9375 0.59375 -1.90625 C 0.921875 -1.671875 1.09375 -1.640625 1.640625 -1.546875 C 2.015625 -1.46875 2.625 -1.359375 2.625 -0.828125 C 2.625 -0.515625 2.421875 -0.140625 1.6875 -0.140625 C 0.875 -0.140625 0.640625 -0.765625 0.546875 -1.1875 C 0.515625 -1.296875 0.5 -1.328125 0.40625 -1.328125 C 0.28125 -1.328125 0.28125 -1.265625 0.28125 -1.109375 L 0.28125 -0.125 C 0.28125 0 0.28125 0.078125 0.375 0.078125 C 0.4375 0.078125 0.4375 0.078125 0.578125 -0.078125 C 0.625 -0.125 0.703125 -0.21875 0.75 -0.265625 C 1.109375 0.0625 1.484375 0.078125 1.6875 0.078125 C 2.703125 0.078125 3.046875 -0.5 3.046875 -1.03125 Z M 3.046875 -1.03125 "/>
</g>
<g id="glyph-0-18">
<path d="M 4.421875 1.546875 L 4.421875 1.28125 C 3.90625 1.28125 3.8125 1.28125 3.8125 0.921875 L 3.8125 -3.515625 L 3.59375 -3.515625 L 3.296875 -2.828125 C 3.03125 -3.25 2.65625 -3.515625 2.15625 -3.515625 C 1.15625 -3.515625 0.28125 -2.734375 0.28125 -1.71875 C 0.28125 -0.71875 1.09375 0.078125 2.078125 0.078125 C 2.65625 0.078125 3.015625 -0.234375 3.21875 -0.484375 L 3.21875 0.921875 C 3.21875 1.28125 3.109375 1.28125 2.609375 1.28125 L 2.609375 1.546875 C 2.953125 1.515625 3.296875 1.515625 3.515625 1.515625 C 3.75 1.515625 4.078125 1.515625 4.421875 1.546875 Z M 3.234375 -1.125 C 3.234375 -1 3.234375 -0.953125 3.109375 -0.75 C 2.828125 -0.265625 2.40625 -0.140625 2.125 -0.140625 C 1.484375 -0.140625 0.984375 -0.859375 0.984375 -1.71875 C 0.984375 -2.625 1.578125 -3.265625 2.203125 -3.265625 C 2.859375 -3.265625 3.234375 -2.625 3.234375 -2.1875 Z M 3.234375 -1.125 "/>
</g>
<g id="glyph-1-0">
<path d="M 3.890625 -2.546875 C 3.890625 -3.390625 3.8125 -3.90625 3.546875 -4.421875 C 3.203125 -5.125 2.546875 -5.296875 2.109375 -5.296875 C 1.109375 -5.296875 0.734375 -4.546875 0.625 -4.328125 C 0.34375 -3.75 0.328125 -2.953125 0.328125 -2.546875 C 0.328125 -2.015625 0.34375 -1.21875 0.734375 -0.578125 C 1.09375 0.015625 1.6875 0.171875 2.109375 0.171875 C 2.5 0.171875 3.171875 0.046875 3.578125 -0.734375 C 3.875 -1.3125 3.890625 -2.03125 3.890625 -2.546875 Z M 3.1875 -2.640625 C 3.1875 -2.171875 3.1875 -1.453125 3.09375 -1 C 2.921875 -0.171875 2.375 -0.0625 2.109375 -0.0625 C 1.84375 -0.0625 1.296875 -0.1875 1.125 -1.015625 C 1.03125 -1.46875 1.03125 -2.21875 1.03125 -2.640625 C 1.03125 -3.1875 1.03125 -3.75 1.125 -4.1875 C 1.296875 -5 1.90625 -5.078125 2.109375 -5.078125 C 2.375 -5.078125 2.9375 -4.9375 3.09375 -4.21875 C 3.1875 -3.78125 3.1875 -3.171875 3.1875 -2.640625 Z M 3.1875 -2.640625 "/>
</g>
<g id="glyph-1-1">
<path d="M 3.796875 -1.421875 L 3.546875 -1.421875 C 3.53125 -1.265625 3.46875 -0.875 3.375 -0.71875 C 3.328125 -0.65625 2.71875 -0.65625 2.59375 -0.65625 L 1.171875 -0.65625 L 2.25 -1.625 C 2.375 -1.75 2.703125 -2.015625 2.84375 -2.125 C 3.328125 -2.578125 3.796875 -3.015625 3.796875 -3.734375 C 3.796875 -4.6875 3 -5.296875 2.015625 -5.296875 C 1.046875 -5.296875 0.421875 -4.578125 0.421875 -3.859375 C 0.421875 -3.46875 0.734375 -3.421875 0.84375 -3.421875 C 1.015625 -3.421875 1.265625 -3.53125 1.265625 -3.84375 C 1.265625 -4.25 0.859375 -4.25 0.765625 -4.25 C 1 -4.84375 1.53125 -5.03125 1.921875 -5.03125 C 2.65625 -5.03125 3.046875 -4.40625 3.046875 -3.734375 C 3.046875 -2.90625 2.46875 -2.296875 1.515625 -1.34375 L 0.515625 -0.296875 C 0.421875 -0.21875 0.421875 -0.203125 0.421875 0 L 3.5625 0 Z M 3.796875 -1.421875 "/>
</g>
<g id="glyph-1-2">
<path d="M 3.984375 -1.3125 L 3.984375 -1.5625 L 3.140625 -1.5625 L 3.140625 -5.15625 C 3.140625 -5.3125 3.140625 -5.375 2.96875 -5.375 C 2.875 -5.375 2.859375 -5.375 2.78125 -5.265625 L 0.234375 -1.5625 L 0.234375 -1.3125 L 2.484375 -1.3125 L 2.484375 -0.640625 C 2.484375 -0.34375 2.46875 -0.265625 1.84375 -0.265625 L 1.671875 -0.265625 L 1.671875 0 L 2.8125 -0.03125 L 3.953125 0 L 3.953125 -0.265625 L 3.78125 -0.265625 C 3.15625 -0.265625 3.140625 -0.34375 3.140625 -0.640625 L 3.140625 -1.3125 Z M 2.546875 -1.5625 L 0.515625 -1.5625 L 2.546875 -4.515625 Z M 2.546875 -1.5625 "/>
</g>
<g id="glyph-1-3">
<path d="M 3.875 -1.625 C 3.875 -2.65625 3.078125 -3.390625 2.203125 -3.390625 C 1.625 -3.390625 1.28125 -3.03125 1.09375 -2.640625 C 1.09375 -3.296875 1.15625 -3.875 1.4375 -4.359375 C 1.6875 -4.765625 2.09375 -5.09375 2.59375 -5.09375 C 2.75 -5.09375 3.109375 -5.0625 3.296875 -4.796875 C 2.9375 -4.765625 2.90625 -4.5 2.90625 -4.421875 C 2.90625 -4.171875 3.09375 -4.046875 3.28125 -4.046875 C 3.421875 -4.046875 3.65625 -4.125 3.65625 -4.4375 C 3.65625 -4.90625 3.296875 -5.296875 2.578125 -5.296875 C 1.46875 -5.296875 0.34375 -4.25 0.34375 -2.53125 C 0.34375 -0.359375 1.359375 0.171875 2.125 0.171875 C 2.515625 0.171875 2.921875 0.0625 3.28125 -0.28125 C 3.609375 -0.59375 3.875 -0.921875 3.875 -1.625 Z M 3.125 -1.625 C 3.125 -1.21875 3.125 -0.875 2.96875 -0.578125 C 2.75 -0.21875 2.484375 -0.078125 2.125 -0.078125 C 1.703125 -0.078125 1.4375 -0.359375 1.328125 -0.59375 C 1.140625 -0.953125 1.125 -1.484375 1.125 -1.796875 C 1.125 -2.578125 1.546875 -3.171875 2.171875 -3.171875 C 2.5625 -3.171875 2.8125 -2.96875 2.953125 -2.6875 C 3.125 -2.390625 3.125 -2.03125 3.125 -1.625 Z M 3.125 -1.625 "/>
</g>
<g id="glyph-1-4">
<path d="M 3.875 -1.34375 C 3.875 -1.84375 3.609375 -2.171875 3.46875 -2.3125 C 3.34375 -2.4375 3.328125 -2.453125 2.640625 -2.875 C 3.09375 -3.09375 3.640625 -3.484375 3.640625 -4.109375 C 3.640625 -4.875 2.859375 -5.296875 2.125 -5.296875 C 1.28125 -5.296875 0.59375 -4.71875 0.59375 -3.96875 C 0.59375 -3.671875 0.6875 -3.40625 0.890625 -3.171875 C 1.03125 -3 1.0625 -2.984375 1.546875 -2.671875 C 0.5625 -2.234375 0.34375 -1.65625 0.34375 -1.21875 C 0.34375 -0.328125 1.234375 0.171875 2.109375 0.171875 C 3.078125 0.171875 3.875 -0.5 3.875 -1.34375 Z M 3.234375 -4.109375 C 3.234375 -3.65625 2.875 -3.265625 2.40625 -3.03125 L 1.40625 -3.625 C 1.171875 -3.765625 0.984375 -4 0.984375 -4.265625 C 0.984375 -4.765625 1.53125 -5.09375 2.109375 -5.09375 C 2.71875 -5.09375 3.234375 -4.671875 3.234375 -4.109375 Z M 3.421875 -1.0625 C 3.421875 -0.453125 2.765625 -0.078125 2.125 -0.078125 C 1.40625 -0.078125 0.8125 -0.5625 0.8125 -1.21875 C 0.8125 -1.8125 1.25 -2.28125 1.796875 -2.53125 L 2.875 -1.875 C 3 -1.796875 3.421875 -1.546875 3.421875 -1.0625 Z M 3.421875 -1.0625 "/>
</g>
<g id="glyph-1-5">
<path d="M 3.5625 0 L 3.5625 -0.265625 L 3.28125 -0.265625 C 2.53125 -0.265625 2.5 -0.359375 2.5 -0.65625 L 2.5 -5.078125 C 2.5 -5.296875 2.484375 -5.296875 2.265625 -5.296875 C 1.9375 -4.984375 1.515625 -4.796875 0.765625 -4.796875 L 0.765625 -4.53125 C 0.984375 -4.53125 1.40625 -4.53125 1.875 -4.734375 L 1.875 -0.65625 C 1.875 -0.359375 1.84375 -0.265625 1.09375 -0.265625 L 0.8125 -0.265625 L 0.8125 0 C 1.140625 -0.03125 1.828125 -0.03125 2.1875 -0.03125 C 2.546875 -0.03125 3.234375 -0.03125 3.5625 0 Z M 3.5625 0 "/>
</g>
<g id="glyph-2-0">
<path d="M 1.71875 -0.03125 C 1.71875 -0.53125 1.515625 -0.890625 1.171875 -0.890625 C 0.890625 -0.890625 0.734375 -0.65625 0.734375 -0.453125 C 0.734375 -0.21875 0.890625 0 1.171875 0 C 1.375 0 1.484375 -0.125 1.484375 -0.125 C 1.484375 0.390625 1.375 0.859375 0.890625 1.34375 C 0.859375 1.375 0.84375 1.390625 0.84375 1.421875 C 0.84375 1.484375 0.90625 1.53125 0.953125 1.53125 C 1.046875 1.53125 1.71875 0.90625 1.71875 -0.03125 Z M 1.71875 -0.03125 "/>
</g>
<g id="glyph-3-0">
<path d="M 3.75 -0.859375 C 3.75 -1.03125 3.609375 -1.109375 3.4375 -1.109375 C 3.3125 -1.109375 3.234375 -1.09375 3.140625 -0.921875 C 2.984375 -0.5625 2.59375 -0.484375 2.34375 -0.484375 C 1.765625 -0.484375 1.171875 -0.875 1.046875 -1.5 L 3.40625 -1.5 C 3.546875 -1.5 3.75 -1.5 3.75 -1.796875 C 3.75 -2.75 3.203125 -3.5 2.171875 -3.5 C 1.1875 -3.5 0.421875 -2.703125 0.421875 -1.734375 C 0.421875 -0.78125 1.21875 0.046875 2.296875 0.046875 C 3.390625 0.046875 3.75 -0.65625 3.75 -0.859375 Z M 3.125 -2.015625 L 1.0625 -2.015625 C 1.171875 -2.578125 1.65625 -2.96875 2.171875 -2.96875 C 2.890625 -2.96875 3.078125 -2.421875 3.125 -2.015625 Z M 3.125 -2.015625 "/>
</g>
<g id="glyph-3-1">
<path d="M 3.53125 -4.40625 C 3.53125 -4.90625 2.859375 -4.90625 2.734375 -4.90625 C 2.125 -4.90625 1.453125 -4.578125 1.453125 -3.828125 L 1.453125 -3.4375 L 0.6875 -3.4375 C 0.578125 -3.4375 0.34375 -3.4375 0.34375 -3.171875 C 0.34375 -2.90625 0.5625 -2.90625 0.6875 -2.90625 L 1.453125 -2.90625 L 1.453125 -0.53125 L 0.6875 -0.53125 C 0.578125 -0.53125 0.328125 -0.53125 0.328125 -0.265625 C 0.328125 0 0.578125 0 0.6875 0 L 2.84375 0 C 2.953125 0 3.1875 0 3.1875 -0.265625 C 3.1875 -0.53125 2.953125 -0.53125 2.84375 -0.53125 L 2.0625 -0.53125 L 2.0625 -2.90625 L 3.015625 -2.90625 C 3.125 -2.90625 3.359375 -2.90625 3.359375 -3.171875 C 3.359375 -3.4375 3.125 -3.4375 3.015625 -3.4375 L 2.0625 -3.4375 L 2.0625 -3.796875 C 2.0625 -4.296875 2.453125 -4.375 2.78125 -4.375 C 2.8125 -4.125 3.015625 -4.015625 3.15625 -4.015625 C 3.328125 -4.015625 3.53125 -4.140625 3.53125 -4.40625 Z M 3.53125 -4.40625 "/>
</g>
<g id="glyph-4-0">
<path d="M -3.015625 -3.0625 C -3.296875 -3.0625 -3.515625 -2.8125 -3.515625 -2.453125 C -3.515625 -1.9375 -3.125 -1.578125 -2.671875 -1.421875 L -2.671875 -1.40625 L -3.515625 -1.40625 L -3.421875 -0.28125 L -3.15625 -0.28125 C -3.15625 -0.828125 -3.109375 -0.890625 -2.71875 -0.890625 L -0.625 -0.890625 C -0.265625 -0.890625 -0.265625 -0.78125 -0.265625 -0.28125 L 0 -0.28125 C -0.03125 -0.59375 -0.03125 -1.03125 -0.03125 -1.21875 C -0.03125 -1.6875 -0.03125 -1.703125 0 -2.21875 L -0.265625 -2.21875 L -0.265625 -2.0625 C -0.265625 -1.484375 -0.34375 -1.46875 -0.640625 -1.46875 L -1.8125 -1.46875 C -2.421875 -1.46875 -3.28125 -1.71875 -3.296875 -2.484375 C -3.265625 -2.4375 -3.203125 -2.34375 -3.015625 -2.34375 C -2.765625 -2.34375 -2.65625 -2.546875 -2.65625 -2.703125 C -2.65625 -2.890625 -2.78125 -3.0625 -3.015625 -3.0625 Z M -3.015625 -3.0625 "/>
</g>
<g id="glyph-4-1">
<path d="M -0.953125 -3.515625 C -0.984375 -3.515625 -1.0625 -3.484375 -1.0625 -3.390625 C -1.0625 -3.296875 -1.015625 -3.28125 -0.96875 -3.265625 C -0.1875 -2.984375 -0.171875 -2.296875 -0.171875 -2.15625 C -0.171875 -1.796875 -0.328125 -1.421875 -0.703125 -1.1875 C -1.0625 -0.953125 -1.578125 -0.953125 -1.8125 -0.953125 L -1.8125 -3.296875 C -1.8125 -3.46875 -1.8125 -3.515625 -2 -3.515625 C -2.703125 -3.515625 -3.546875 -3.125 -3.546875 -2 C -3.546875 -1.015625 -2.734375 -0.234375 -1.75 -0.234375 C -0.71875 -0.234375 0.078125 -1.09375 0.078125 -2.109375 C 0.078125 -3.109375 -0.765625 -3.515625 -0.953125 -3.515625 Z M -2.03125 -2.96875 L -2.03125 -0.953125 C -3.140625 -1.03125 -3.328125 -1.703125 -3.328125 -2 C -3.328125 -2.9375 -2.203125 -2.96875 -2.03125 -2.96875 Z M -2.03125 -2.96875 "/>
</g>
<g id="glyph-4-2">
<path d="M -0.953125 -3.515625 C -1.046875 -3.515625 -1.046875 -3.40625 -1.046875 -3.390625 C -1.046875 -3.328125 -1.046875 -3.296875 -0.96875 -3.265625 C -0.796875 -3.21875 -0.171875 -2.984375 -0.171875 -2.1875 C -0.171875 -1.703125 -0.546875 -0.984375 -1.734375 -0.984375 C -2.875 -0.984375 -3.3125 -1.578125 -3.3125 -2.15625 C -3.3125 -2.234375 -3.3125 -2.65625 -3.15625 -2.9375 C -3.09375 -2.703125 -2.90625 -2.671875 -2.8125 -2.671875 C -2.59375 -2.671875 -2.4375 -2.828125 -2.4375 -3.046875 C -2.4375 -3.265625 -2.578125 -3.421875 -2.828125 -3.421875 C -3.3125 -3.421875 -3.546875 -2.890625 -3.546875 -2.140625 C -3.546875 -1.03125 -2.671875 -0.28125 -1.71875 -0.28125 C -0.703125 -0.28125 0.078125 -1.109375 0.078125 -2.109375 C 0.078125 -3.234375 -0.859375 -3.515625 -0.953125 -3.515625 Z M -0.953125 -3.515625 "/>
</g>
<g id="glyph-4-3">
<path d="M -0.71875 -4.09375 L -1.15625 -4.09375 L -1.15625 -3.84375 L -0.71875 -3.84375 C -0.390625 -3.84375 -0.265625 -3.734375 -0.265625 -3.5625 C -0.265625 -3.265625 -0.625 -3.265625 -0.71875 -3.265625 L -2.375 -3.265625 C -3.15625 -3.265625 -3.546875 -2.515625 -3.546875 -1.78125 C -3.546875 -1.125 -3.296875 -0.53125 -2.765625 -0.53125 C -2.53125 -0.53125 -2.390625 -0.703125 -2.390625 -0.90625 C -2.390625 -1.125 -2.546875 -1.28125 -2.765625 -1.28125 C -2.953125 -1.28125 -3.09375 -1.15625 -3.125 -0.984375 C -3.328125 -1.28125 -3.328125 -1.71875 -3.328125 -1.765625 C -3.328125 -2.21875 -3.015625 -2.65625 -2.359375 -2.65625 L -2.125 -2.65625 C -2.09375 -2.203125 -2.078125 -1.671875 -1.84375 -1.109375 C -1.53125 -0.40625 -1.078125 -0.265625 -0.8125 -0.265625 C -0.125 -0.265625 0.078125 -1.078125 0.078125 -1.625 C 0.078125 -2.203125 -0.25 -2.5625 -0.5625 -2.734375 C -0.265625 -2.78125 0.046875 -2.984375 0.046875 -3.34375 C 0.046875 -3.421875 0.015625 -4.09375 -0.71875 -4.09375 Z M -1.125 -2.65625 C -0.34375 -2.65625 -0.140625 -2.015625 -0.140625 -1.6875 C -0.140625 -1.28125 -0.421875 -0.921875 -0.8125 -0.921875 C -1.328125 -0.921875 -1.875 -1.421875 -1.90625 -2.65625 Z M -1.125 -2.65625 "/>
</g>
<g id="glyph-4-4">
<path d="M 0 -2.125 L -0.265625 -2.125 C -0.265625 -1.625 -0.265625 -1.515625 -0.625 -1.515625 L -5.53125 -1.515625 L -5.4375 -0.328125 L -5.171875 -0.328125 C -5.171875 -0.875 -5.125 -0.9375 -4.734375 -0.9375 L -0.625 -0.9375 C -0.265625 -0.9375 -0.265625 -0.84375 -0.265625 -0.328125 L 0 -0.328125 C -0.03125 -0.640625 -0.03125 -1.09375 -0.03125 -1.234375 C -0.03125 -1.390625 -0.03125 -1.8125 0 -2.125 Z M 0 -2.125 "/>
</g>
<g id="glyph-4-5">
<path d="M -0.578125 -6.109375 C -0.671875 -6.109375 -0.671875 -6.015625 -0.671875 -5.890625 L -0.671875 -5.828125 C -0.671875 -5.703125 -0.671875 -5.6875 -0.609375 -5.546875 C -0.203125 -4.609375 -0.140625 -3.75 -0.140625 -3.328125 C -0.140625 -1.78125 -1.390625 -0.71875 -2.765625 -0.71875 C -4.21875 -0.71875 -5.390625 -1.890625 -5.390625 -3.28125 C -5.390625 -4.5625 -4.390625 -5.859375 -2.6875 -5.859375 C -1.890625 -5.859375 -1.234375 -5.75 -1.234375 -5.25 C -1.234375 -5 -1.546875 -4.96875 -1.734375 -4.96875 L -3.640625 -4.96875 C -3.828125 -4.96875 -3.84375 -4.96875 -3.84375 -4.75 L -3.84375 -4.46875 C -4.359375 -4.109375 -4.515625 -3.640625 -4.515625 -3.28125 C -4.515625 -2.375 -3.75 -1.609375 -2.765625 -1.609375 C -1.78125 -1.609375 -1.015625 -2.375 -1.015625 -3.28125 C -1.015625 -3.71875 -1.234375 -4.09375 -1.546875 -4.375 C -1.09375 -4.484375 -1.015625 -5 -1.015625 -5.21875 C -1.015625 -5.921875 -1.828125 -6.109375 -2.71875 -6.109375 C -4.46875 -6.109375 -5.609375 -4.734375 -5.609375 -3.296875 C -5.609375 -1.71875 -4.328125 -0.46875 -2.765625 -0.46875 C -1.28125 -0.46875 0.078125 -1.625 0.078125 -3.328125 C 0.078125 -4.640625 -0.34375 -5.71875 -0.484375 -6.046875 C -0.5 -6.078125 -0.53125 -6.109375 -0.578125 -6.109375 Z M -2.109375 -4.359375 C -1.953125 -4.359375 -1.9375 -4.359375 -1.796875 -4.25 C -1.484375 -4.0625 -1.234375 -3.703125 -1.234375 -3.296875 C -1.234375 -2.71875 -1.875 -2.203125 -2.765625 -2.203125 C -3.65625 -2.203125 -4.296875 -2.71875 -4.296875 -3.296875 C -4.296875 -3.703125 -4.046875 -4.046875 -3.75 -4.25 C -3.578125 -4.359375 -3.5625 -4.359375 -3.421875 -4.359375 Z M -2.109375 -4.359375 "/>
</g>
<g id="glyph-4-6">
<path d="M 0 -3.5625 L -0.265625 -3.5625 L -0.265625 -3.28125 C -0.265625 -2.53125 -0.359375 -2.5 -0.65625 -2.5 L -5.078125 -2.5 C -5.296875 -2.5 -5.296875 -2.484375 -5.296875 -2.265625 C -4.984375 -1.9375 -4.796875 -1.515625 -4.796875 -0.765625 L -4.53125 -0.765625 C -4.53125 -0.984375 -4.53125 -1.40625 -4.734375 -1.875 L -0.65625 -1.875 C -0.359375 -1.875 -0.265625 -1.84375 -0.265625 -1.09375 L -0.265625 -0.8125 L 0 -0.8125 C -0.03125 -1.140625 -0.03125 -1.828125 -0.03125 -2.1875 C -0.03125 -2.546875 -0.03125 -3.234375 0 -3.5625 Z M 0 -3.5625 "/>
</g>
<g id="glyph-4-7">
<path d="M -2.546875 -3.890625 C -3.390625 -3.890625 -3.90625 -3.8125 -4.421875 -3.546875 C -5.125 -3.203125 -5.296875 -2.546875 -5.296875 -2.109375 C -5.296875 -1.109375 -4.546875 -0.734375 -4.328125 -0.625 C -3.75 -0.34375 -2.953125 -0.328125 -2.546875 -0.328125 C -2.015625 -0.328125 -1.21875 -0.34375 -0.578125 -0.734375 C 0.015625 -1.09375 0.171875 -1.6875 0.171875 -2.109375 C 0.171875 -2.5 0.046875 -3.171875 -0.734375 -3.578125 C -1.3125 -3.875 -2.03125 -3.890625 -2.546875 -3.890625 Z M -2.640625 -3.1875 C -2.171875 -3.1875 -1.453125 -3.1875 -1 -3.09375 C -0.171875 -2.921875 -0.0625 -2.375 -0.0625 -2.109375 C -0.0625 -1.84375 -0.1875 -1.296875 -1.015625 -1.125 C -1.46875 -1.03125 -2.21875 -1.03125 -2.640625 -1.03125 C -3.1875 -1.03125 -3.75 -1.03125 -4.1875 -1.125 C -5 -1.296875 -5.078125 -1.90625 -5.078125 -2.109375 C -5.078125 -2.375 -4.9375 -2.9375 -4.21875 -3.09375 C -3.78125 -3.1875 -3.171875 -3.1875 -2.640625 -3.1875 Z M -2.640625 -3.1875 "/>
</g>
</g>
</defs>
<path fill="none" stroke-width="0.3985" stroke-linecap="butt" stroke-linejoin="miter" stroke="rgb(87.998962%, 87.998962%, 87.998962%)" stroke-opacity="1" stroke-miterlimit="10" d="M 156.16734 0.0000150254 L 156.16734 218.793185 M 208.219257 0.0000150254 L 208.219257 218.793185 M 260.275082 0.0000150254 L 260.275082 218.793185 M 312.330907 0.0000150254 L 312.330907 218.793185 M 364.390641 0.0000150254 L 364.390641 218.793185 M 416.446466 0.0000150254 L 416.446466 218.793185 " transform="matrix(0.999303, 0, 0, -0.999303, -97.054553, 221.824234)"/>
<path fill="none" stroke-width="0.3985" stroke-linecap="butt" stroke-linejoin="miter" stroke="rgb(87.998962%, 87.998962%, 87.998962%)" stroke-opacity="1" stroke-miterlimit="10" d="M 130.137473 0.0000150254 L 442.476333 0.0000150254 M 130.137473 41.673602 L 442.476333 41.673602 M 130.137473 83.351097 L 442.476333 83.351097 M 130.137473 125.024684 L 442.476333 125.024684 M 130.137473 166.69827 L 442.476333 166.69827 M 130.137473 208.375766 L 442.476333 208.375766 " transform="matrix(0.999303, 0, 0, -0.999303, -97.054553, 221.824234)"/>
<path fill="none" stroke-width="0.19925" stroke-linecap="butt" stroke-linejoin="miter" stroke="rgb(50%, 50%, 50%)" stroke-opacity="1" stroke-miterlimit="10" d="M 156.16734 0.0000150254 L 156.16734 4.25298 M 208.219257 0.0000150254 L 208.219257 4.25298 M 260.275082 0.0000150254 L 260.275082 4.25298 M 312.330907 0.0000150254 L 312.330907 4.25298 M 364.390641 0.0000150254 L 364.390641 4.25298 M 416.446466 0.0000150254 L 416.446466 4.25298 M 156.16734 218.793185 L 156.16734 214.54022 M 208.219257 218.793185 L 208.219257 214.54022 M 260.275082 218.793185 L 260.275082 214.54022 M 312.330907 218.793185 L 312.330907 214.54022 M 364.390641 218.793185 L 364.390641 214.54022 M 416.446466 218.793185 L 416.446466 214.54022 " transform="matrix(0.999303, 0, 0, -0.999303, -97.054553, 221.824234)"/>
<path fill="none" stroke-width="0.19925" stroke-linecap="butt" stroke-linejoin="miter" stroke="rgb(50%, 50%, 50%)" stroke-opacity="1" stroke-miterlimit="10" d="M 130.137473 0.0000150254 L 134.378712 0.0000150254 M 130.137473 41.673602 L 134.378712 41.673602 M 130.137473 83.351097 L 134.378712 83.351097 M 130.137473 125.024684 L 134.378712 125.024684 M 130.137473 166.69827 L 134.378712 166.69827 M 130.137473 208.375766 L 134.378712 208.375766 M 442.476333 0.0000150254 L 438.235095 0.0000150254 M 442.476333 41.673602 L 438.235095 41.673602 M 442.476333 83.351097 L 438.235095 83.351097 M 442.476333 125.024684 L 438.235095 125.024684 M 442.476333 166.69827 L 438.235095 166.69827 M 442.476333 208.375766 L 438.235095 208.375766 " transform="matrix(0.999303, 0, 0, -0.999303, -97.054553, 221.824234)"/>
<path fill="none" stroke-width="0.3985" stroke-linecap="butt" stroke-linejoin="miter" stroke="rgb(0%, 0%, 0%)" stroke-opacity="1" stroke-miterlimit="10" d="M 130.137473 0.0000150254 L 130.137473 218.793185 L 442.476333 218.793185 L 442.476333 0.0000150254 Z M 130.137473 0.0000150254 " transform="matrix(0.999303, 0, 0, -0.999303, -97.054553, 221.824234)"/>
<g fill="rgb(0%, 0%, 0%)" fill-opacity="1">
<use xlink:href="#glyph-0-0" x="56.886043" y="230.474199"/>
</g>
<g fill="rgb(0%, 0%, 0%)" fill-opacity="1">
<use xlink:href="#glyph-0-1" x="106.785229" y="230.474199"/>
<use xlink:href="#glyph-0-2" x="111.016791" y="230.474199"/>
</g>
<g fill="rgb(0%, 0%, 0%)" fill-opacity="1">
<use xlink:href="#glyph-0-3" x="158.802936" y="230.474199"/>
<use xlink:href="#glyph-0-4" x="163.034498" y="230.474199"/>
</g>
<g fill="rgb(0%, 0%, 0%)" fill-opacity="1">
<use xlink:href="#glyph-0-2" x="210.821643" y="230.474199"/>
<use xlink:href="#glyph-0-5" x="215.053205" y="230.474199"/>
</g>
<g fill="rgb(0%, 0%, 0%)" fill-opacity="1">
<use xlink:href="#glyph-0-1" x="260.729822" y="230.474199"/>
<use xlink:href="#glyph-0-4" x="264.961384" y="230.474199"/>
<use xlink:href="#glyph-0-0" x="269.192946" y="230.474199"/>
</g>
<g fill="rgb(0%, 0%, 0%)" fill-opacity="1">
<use xlink:href="#glyph-0-4" x="312.748529" y="230.474199"/>
<use xlink:href="#glyph-0-6" x="316.980091" y="230.474199"/>
<use xlink:href="#glyph-0-2" x="321.211652" y="230.474199"/>
</g>
<g fill="rgb(0%, 0%, 0%)" fill-opacity="1">
<use xlink:href="#glyph-1-0" x="25.242121" y="224.390443"/>
</g>
<g fill="rgb(0%, 0%, 0%)" fill-opacity="1">
<use xlink:href="#glyph-1-0" x="18.660713" y="181.971039"/>
</g>
<g fill="rgb(0%, 0%, 0%)" fill-opacity="1">
<use xlink:href="#glyph-2-0" x="22.891761" y="181.971039"/>
</g>
<g fill="rgb(0%, 0%, 0%)" fill-opacity="1">
<use xlink:href="#glyph-1-1" x="25.242121" y="181.971039"/>
</g>
<g fill="rgb(0%, 0%, 0%)" fill-opacity="1">
<use xlink:href="#glyph-1-0" x="18.660713" y="140.325096"/>
</g>
<g fill="rgb(0%, 0%, 0%)" fill-opacity="1">
<use xlink:href="#glyph-2-0" x="22.891761" y="140.325096"/>
</g>
<g fill="rgb(0%, 0%, 0%)" fill-opacity="1">
<use xlink:href="#glyph-1-2" x="25.242121" y="140.325096"/>
</g>
<g fill="rgb(0%, 0%, 0%)" fill-opacity="1">
<use xlink:href="#glyph-1-0" x="18.660713" y="98.680151"/>
</g>
<g fill="rgb(0%, 0%, 0%)" fill-opacity="1">
<use xlink:href="#glyph-2-0" x="22.891761" y="98.680151"/>
</g>
<g fill="rgb(0%, 0%, 0%)" fill-opacity="1">
<use xlink:href="#glyph-1-3" x="25.242121" y="98.680151"/>
</g>
<g fill="rgb(0%, 0%, 0%)" fill-opacity="1">
<use xlink:href="#glyph-1-0" x="18.660713" y="57.035207"/>
</g>
<g fill="rgb(0%, 0%, 0%)" fill-opacity="1">
<use xlink:href="#glyph-2-0" x="22.891761" y="57.035207"/>
</g>
<g fill="rgb(0%, 0%, 0%)" fill-opacity="1">
<use xlink:href="#glyph-1-4" x="25.242121" y="57.035207"/>
</g>
<g fill="rgb(0%, 0%, 0%)" fill-opacity="1">
<use xlink:href="#glyph-1-5" x="25.242121" y="16.163723"/>
</g>
<path fill="none" stroke-width="0.79701" stroke-linecap="butt" stroke-linejoin="miter" stroke="rgb(12.156677%, 46.665955%, 70.588684%)" stroke-opacity="1" stroke-miterlimit="10" d="M 156.16734 100.12451 L 208.219257 121.064892 L 260.275082 150.757469 L 312.330907 171.076323 L 364.390641 194.936708 L 416.446466 202.226947 " transform="matrix(0.999303, 0, 0, -0.999303, -97.054553, 221.824234)"/>
<path fill-rule="nonzero" fill="rgb(12.156677%, 46.665955%, 70.588684%)" fill-opacity="1" stroke-width="0.79701" stroke-linecap="butt" stroke-linejoin="miter" stroke="rgb(12.156677%, 46.665955%, 70.588684%)" stroke-opacity="1" stroke-miterlimit="10" d="M 158.160918 100.12451 C 158.160918 101.222933 157.265763 102.118088 156.16734 102.118088 C 155.065009 102.118088 154.173763 101.222933 154.173763 100.12451 C 154.173763 99.022179 155.065009 98.130933 156.16734 98.130933 C 157.265763 98.130933 158.160918 99.022179 158.160918 100.12451 Z M 158.160918 100.12451 " transform="matrix(0.999303, 0, 0, -0.999303, -97.054553, 221.824234)"/>
<path fill-rule="nonzero" fill="rgb(12.156677%, 46.665955%, 70.588684%)" fill-opacity="1" stroke-width="0.79701" stroke-linecap="butt" stroke-linejoin="miter" stroke="rgb(12.156677%, 46.665955%, 70.588684%)" stroke-opacity="1" stroke-miterlimit="10" d="M 210.212834 121.064892 C 210.212834 122.167223 209.317679 123.058469 208.219257 123.058469 C 207.116926 123.058469 206.225679 122.167223 206.225679 121.064892 C 206.225679 119.966469 207.116926 119.075223 208.219257 119.075223 C 209.317679 119.075223 210.212834 119.966469 210.212834 121.064892 Z M 210.212834 121.064892 " transform="matrix(0.999303, 0, 0, -0.999303, -97.054553, 221.824234)"/>
<path fill-rule="nonzero" fill="rgb(12.156677%, 46.665955%, 70.588684%)" fill-opacity="1" stroke-width="0.79701" stroke-linecap="butt" stroke-linejoin="miter" stroke="rgb(12.156677%, 46.665955%, 70.588684%)" stroke-opacity="1" stroke-miterlimit="10" d="M 262.26475 150.757469 C 262.26475 151.8598 261.373504 152.751046 260.275082 152.751046 C 259.172751 152.751046 258.281504 151.8598 258.281504 150.757469 C 258.281504 149.659046 259.172751 148.7678 260.275082 148.7678 C 261.373504 148.7678 262.26475 149.659046 262.26475 150.757469 Z M 262.26475 150.757469 " transform="matrix(0.999303, 0, 0, -0.999303, -97.054553, 221.824234)"/>
<path fill-rule="nonzero" fill="rgb(12.156677%, 46.665955%, 70.588684%)" fill-opacity="1" stroke-width="0.79701" stroke-linecap="butt" stroke-linejoin="miter" stroke="rgb(12.156677%, 46.665955%, 70.588684%)" stroke-opacity="1" stroke-miterlimit="10" d="M 314.320575 171.076323 C 314.320575 172.174745 313.429329 173.0699 312.330907 173.0699 C 311.228576 173.0699 310.337329 172.174745 310.337329 171.076323 C 310.337329 169.973992 311.228576 169.082745 312.330907 169.082745 C 313.429329 169.082745 314.320575 169.973992 314.320575 171.076323 Z M 314.320575 171.076323 " transform="matrix(0.999303, 0, 0, -0.999303, -97.054553, 221.824234)"/>
<path fill-rule="nonzero" fill="rgb(12.156677%, 46.665955%, 70.588684%)" fill-opacity="1" stroke-width="0.79701" stroke-linecap="butt" stroke-linejoin="miter" stroke="rgb(12.156677%, 46.665955%, 70.588684%)" stroke-opacity="1" stroke-miterlimit="10" d="M 366.384219 194.936708 C 366.384219 196.03513 365.489063 196.926377 364.390641 196.926377 C 363.28831 196.926377 362.397064 196.03513 362.397064 194.936708 C 362.397064 193.834377 363.28831 192.943131 364.390641 192.943131 C 365.489063 192.943131 366.384219 193.834377 366.384219 194.936708 Z M 366.384219 194.936708 " transform="matrix(0.999303, 0, 0, -0.999303, -97.054553, 221.824234)"/>
<path fill-rule="nonzero" fill="rgb(12.156677%, 46.665955%, 70.588684%)" fill-opacity="1" stroke-width="0.79701" stroke-linecap="butt" stroke-linejoin="miter" stroke="rgb(12.156677%, 46.665955%, 70.588684%)" stroke-opacity="1" stroke-miterlimit="10" d="M 418.440044 202.226947 C 418.440044 203.329278 417.544888 204.220525 416.446466 204.220525 C 415.344135 204.220525 414.452889 203.329278 414.452889 202.226947 C 414.452889 201.128525 415.344135 200.237279 416.446466 200.237279 C 417.544888 200.237279 418.440044 201.128525 418.440044 202.226947 Z M 418.440044 202.226947 " transform="matrix(0.999303, 0, 0, -0.999303, -97.054553, 221.824234)"/>
<g fill="rgb(0%, 0%, 0%)" fill-opacity="1">
<use xlink:href="#glyph-0-7" x="144.433961" y="242.796601"/>
<use xlink:href="#glyph-0-8" x="148.665523" y="242.796601"/>
<use xlink:href="#glyph-0-9" x="153.366993" y="242.796601"/>
</g>
<g fill="rgb(0%, 0%, 0%)" fill-opacity="1">
<use xlink:href="#glyph-0-10" x="156.888914" y="242.796601"/>
</g>
<g fill="rgb(0%, 0%, 0%)" fill-opacity="1">
<use xlink:href="#glyph-0-11" x="161.359412" y="242.796601"/>
<use xlink:href="#glyph-0-12" x="166.060882" y="242.796601"/>
<use xlink:href="#glyph-0-7" x="169.358999" y="242.796601"/>
</g>
<g fill="rgb(0%, 0%, 0%)" fill-opacity="1">
<use xlink:href="#glyph-0-13" x="176.410009" y="242.796601"/>
<use xlink:href="#glyph-0-14" x="181.111479" y="242.796601"/>
</g>
<g fill="rgb(0%, 0%, 0%)" fill-opacity="1">
<use xlink:href="#glyph-0-15" x="187.691785" y="242.796601"/>
<use xlink:href="#glyph-0-16" x="192.393255" y="242.796601"/>
<use xlink:href="#glyph-0-17" x="197.094724" y="242.796601"/>
<use xlink:href="#glyph-0-18" x="200.432664" y="242.796601"/>
<use xlink:href="#glyph-0-11" x="204.898384" y="242.796601"/>
<use xlink:href="#glyph-0-14" x="209.599854" y="242.796601"/>
<use xlink:href="#glyph-0-13" x="213.360711" y="242.796601"/>
<use xlink:href="#glyph-0-7" x="218.062181" y="242.796601"/>
</g>
<g fill="rgb(0%, 0%, 0%)" fill-opacity="1">
<use xlink:href="#glyph-3-0" x="225.200611" y="242.796601"/>
<use xlink:href="#glyph-3-1" x="229.432173" y="242.796601"/>
</g>
<g fill="rgb(0%, 0%, 0%)" fill-opacity="1">
<use xlink:href="#glyph-4-0" x="11.825482" y="129.903367"/>
<use xlink:href="#glyph-4-1" x="11.825482" y="126.605249"/>
<use xlink:href="#glyph-4-2" x="11.825482" y="122.844392"/>
<use xlink:href="#glyph-4-3" x="11.825482" y="119.083535"/>
<use xlink:href="#glyph-4-4" x="11.825482" y="114.851973"/>
<use xlink:href="#glyph-4-4" x="11.825482" y="112.501636"/>
<use xlink:href="#glyph-4-5" x="11.825482" y="110.1513"/>
<use xlink:href="#glyph-4-6" x="11.825482" y="103.569401"/>
<use xlink:href="#glyph-4-7" x="11.825482" y="99.337839"/>
</g>
</svg>
