<?xml version="1.0" encoding="UTF-8"?>
<svg xmlns="http://www.w3.org/2000/svg" xmlns:xlink="http://www.w3.org/1999/xlink" width="774.272" height="566.328" viewBox="0 0 351.942 257.422">
<defs>
<g>
<g id="glyph-0-0">
<path d="M 3.890625 -2.53125 C 3.890625 -3.390625 3.796875 -3.90625 3.546875 -4.40625 C 3.1875 -5.109375 2.546875 -5.28125 2.109375 -5.28125 C 1.109375 -5.28125 0.734375 -4.546875 0.625 -4.3125 C 0.34375 -3.734375 0.328125 -2.953125 0.328125 -2.53125 C 0.328125 -2.015625 0.34375 -1.203125 0.734375 -0.578125 C 1.09375 0.015625 1.6875 0.171875 2.109375 0.171875 C 2.484375 0.171875 3.171875 0.046875 3.578125 -0.734375 C 3.859375 -1.3125 3.890625 -2.015625 3.890625 -2.53125 Z M 3.1875 -2.625 C 3.1875 -2.15625 3.1875 -1.453125 3.078125 -1 C 2.921875 -0.171875 2.375 -0.0625 2.109375 -0.0625 C 1.84375 -0.0625 1.28125 -0.1875 1.125 -1.015625 C 1.03125 -1.46875 1.03125 -2.21875 1.03125 -2.625 C 1.03125 -3.1875 1.03125 -3.734375 1.125 -4.171875 C 1.28125 -4.984375 1.90625 -5.0625 2.109375 -5.0625 C 2.375 -5.0625 2.921875 -4.9375 3.078125 -4.203125 C 3.1875 -3.765625 3.1875 -3.171875 3.1875 -2.625 Z M 3.1875 -2.625 "/>
</g>
<g id="glyph-0-1">
<path d="M 3.5625 0 L 3.5625 -0.265625 L 3.28125 -0.265625 C 2.515625 -0.265625 2.5 -0.359375 2.5 -0.65625 L 2.5 -5.0625 C 2.5 -5.28125 2.484375 -5.28125 2.265625 -5.28125 C 1.9375 -4.96875 1.515625 -4.78125 0.765625 -4.78125 L 0.765625 -4.515625 C 0.984375 -4.515625 1.40625 -4.515625 1.875 -4.734375 L 1.875 -0.65625 C 1.875 -0.359375 1.84375 -0.265625 1.09375 -0.265625 L 0.8125 -0.265625 L 0.8125 0 C 1.140625 -0.03125 1.828125 -0.03125 2.171875 -0.03125 C 2.53125 -0.03125 3.234375 -0.03125 3.5625 0 Z M 3.5625 0 "/>
</g>
<g id="glyph-0-2">
<path d="M 3.796875 -1.421875 L 3.546875 -1.421875 C 3.515625 -1.265625 3.453125 -0.859375 3.359375 -0.71875 C 3.3125 -0.65625 2.71875 -0.65625 2.578125 -0.65625 L 1.171875 -0.65625 L 2.25 -1.625 C 2.375 -1.734375 2.703125 -2 2.828125 -2.109375 C 3.328125 -2.5625 3.796875 -3 3.796875 -3.734375 C 3.796875 -4.671875 3 -5.28125 2 -5.28125 C 1.046875 -5.28125 0.421875 -4.5625 0.421875 -3.859375 C 0.421875 -3.46875 0.734375 -3.40625 0.84375 -3.40625 C 1.015625 -3.40625 1.25 -3.53125 1.25 -3.828125 C 1.25 -4.25 0.859375 -4.25 0.765625 -4.25 C 1 -4.828125 1.53125 -5.03125 1.921875 -5.03125 C 2.65625 -5.03125 3.03125 -4.390625 3.03125 -3.734375 C 3.03125 -2.90625 2.453125 -2.296875 1.515625 -1.34375 L 0.515625 -0.296875 C 0.421875 -0.21875 0.421875 -0.203125 0.421875 0 L 3.5625 0 Z M 3.796875 -1.421875 "/>
</g>
<g id="glyph-0-3">
<path d="M 3.859375 -1.359375 C 3.859375 -2.015625 3.34375 -2.625 2.53125 -2.796875 C 3.15625 -3.015625 3.625 -3.5625 3.625 -4.203125 C 3.625 -4.828125 2.90625 -5.28125 2.078125 -5.28125 C 1.234375 -5.28125 0.59375 -4.828125 0.59375 -4.21875 C 0.59375 -3.921875 0.78125 -3.796875 1 -3.796875 C 1.234375 -3.796875 1.40625 -3.984375 1.40625 -4.203125 C 1.40625 -4.5 1.140625 -4.609375 0.96875 -4.625 C 1.296875 -5.0625 1.921875 -5.078125 2.0625 -5.078125 C 2.265625 -5.078125 2.875 -5.015625 2.875 -4.203125 C 2.875 -3.640625 2.640625 -3.3125 2.53125 -3.1875 C 2.296875 -2.9375 2.109375 -2.921875 1.625 -2.890625 C 1.46875 -2.875 1.40625 -2.875 1.40625 -2.765625 C 1.40625 -2.65625 1.484375 -2.65625 1.609375 -2.65625 L 2.015625 -2.65625 C 2.640625 -2.65625 3.03125 -2.1875 3.03125 -1.359375 C 3.03125 -0.359375 2.46875 -0.078125 2.046875 -0.078125 C 1.609375 -0.078125 1.015625 -0.234375 0.734375 -0.65625 C 1.03125 -0.65625 1.21875 -0.828125 1.21875 -1.09375 C 1.21875 -1.359375 1.046875 -1.53125 0.78125 -1.53125 C 0.578125 -1.53125 0.34375 -1.40625 0.34375 -1.078125 C 0.34375 -0.328125 1.15625 0.171875 2.0625 0.171875 C 3.125 0.171875 3.859375 -0.5625 3.859375 -1.359375 Z M 3.859375 -1.359375 "/>
</g>
<g id="glyph-0-4">
<path d="M 3.984375 -1.296875 L 3.984375 -1.5625 L 3.140625 -1.5625 L 3.140625 -5.140625 C 3.140625 -5.3125 3.140625 -5.375 2.96875 -5.375 C 2.859375 -5.375 2.859375 -5.359375 2.78125 -5.25 L 0.234375 -1.5625 L 0.234375 -1.296875 L 2.484375 -1.296875 L 2.484375 -0.640625 C 2.484375 -0.34375 2.453125 -0.265625 1.84375 -0.265625 L 1.65625 -0.265625 L 1.65625 0 L 2.8125 -0.03125 L 3.953125 0 L 3.953125 -0.265625 L 3.765625 -0.265625 C 3.15625 -0.265625 3.140625 -0.34375 3.140625 -0.640625 L 3.140625 -1.296875 Z M 2.53125 -1.5625 L 0.515625 -1.5625 L 2.53125 -4.5 Z M 2.53125 -1.5625 "/>
</g>
<g id="glyph-0-5">
<path d="M 3.796875 -1.59375 C 3.796875 -2.515625 3.125 -3.328125 2.1875 -3.328125 C 1.796875 -3.328125 1.421875 -3.203125 1.109375 -2.9375 L 1.109375 -4.46875 C 1.21875 -4.4375 1.53125 -4.359375 1.875 -4.359375 C 2.859375 -4.359375 3.46875 -5.0625 3.46875 -5.171875 C 3.46875 -5.265625 3.40625 -5.28125 3.375 -5.28125 C 3.375 -5.28125 3.34375 -5.28125 3.265625 -5.25 C 2.953125 -5.125 2.59375 -5.03125 2.15625 -5.03125 C 1.6875 -5.03125 1.296875 -5.15625 1.0625 -5.25 C 0.984375 -5.28125 0.953125 -5.28125 0.953125 -5.28125 C 0.84375 -5.28125 0.84375 -5.203125 0.84375 -5.0625 L 0.84375 -2.734375 C 0.84375 -2.578125 0.84375 -2.484375 0.984375 -2.484375 C 1.046875 -2.484375 1.0625 -2.515625 1.109375 -2.578125 C 1.203125 -2.703125 1.5 -3.109375 2.171875 -3.109375 C 2.625 -3.109375 2.84375 -2.75 2.90625 -2.59375 C 3.046875 -2.3125 3.0625 -1.9375 3.0625 -1.625 C 3.0625 -1.34375 3.046875 -0.90625 2.828125 -0.5625 C 2.6875 -0.3125 2.359375 -0.078125 1.9375 -0.078125 C 1.421875 -0.078125 0.921875 -0.390625 0.734375 -0.921875 C 0.75 -0.90625 0.8125 -0.90625 0.8125 -0.90625 C 1.03125 -0.90625 1.203125 -1.046875 1.203125 -1.296875 C 1.203125 -1.59375 0.984375 -1.6875 0.8125 -1.6875 C 0.671875 -1.6875 0.421875 -1.609375 0.421875 -1.265625 C 0.421875 -0.5625 1.046875 0.171875 1.953125 0.171875 C 2.953125 0.171875 3.796875 -0.609375 3.796875 -1.59375 Z M 3.796875 -1.59375 "/>
</g>
<g id="glyph-0-6">
<path d="M 3.859375 -1.609375 C 3.859375 -2.65625 3.078125 -3.390625 2.1875 -3.390625 C 1.625 -3.390625 1.28125 -3.015625 1.09375 -2.625 C 1.09375 -3.296875 1.15625 -3.875 1.4375 -4.359375 C 1.671875 -4.75 2.078125 -5.078125 2.578125 -5.078125 C 2.75 -5.078125 3.109375 -5.0625 3.296875 -4.78125 C 2.9375 -4.765625 2.90625 -4.5 2.90625 -4.40625 C 2.90625 -4.171875 3.078125 -4.03125 3.28125 -4.03125 C 3.421875 -4.03125 3.65625 -4.125 3.65625 -4.421875 C 3.65625 -4.90625 3.296875 -5.28125 2.578125 -5.28125 C 1.46875 -5.28125 0.34375 -4.234375 0.34375 -2.515625 C 0.34375 -0.359375 1.359375 0.171875 2.125 0.171875 C 2.5 0.171875 2.921875 0.0625 3.28125 -0.28125 C 3.59375 -0.59375 3.859375 -0.921875 3.859375 -1.609375 Z M 3.125 -1.625 C 3.125 -1.21875 3.125 -0.859375 2.953125 -0.578125 C 2.75 -0.21875 2.46875 -0.078125 2.125 -0.078125 C 1.703125 -0.078125 1.4375 -0.359375 1.3125 -0.59375 C 1.140625 -0.953125 1.125 -1.484375 1.125 -1.796875 C 1.125 -2.578125 1.546875 -3.171875 2.15625 -3.171875 C 2.5625 -3.171875 2.796875 -2.953125 2.953125 -2.6875 C 3.125 -2.390625 3.125 -2.03125 3.125 -1.625 Z M 3.125 -1.625 "/>
</g>
<g id="glyph-0-7">
<path d="M 4.09375 -5.125 L 2.078125 -5.125 C 1.875 -5.125 1.625 -5.125 1.4375 -5.140625 C 1.015625 -5.171875 1.015625 -5.25 0.984375 -5.375 L 0.734375 -5.375 L 0.46875 -3.703125 L 0.71875 -3.703125 C 0.734375 -3.8125 0.8125 -4.359375 0.9375 -4.4375 C 1.015625 -4.46875 1.609375 -4.46875 1.734375 -4.46875 L 3.421875 -4.46875 L 2.59375 -3.375 C 1.6875 -2.15625 1.5 -0.90625 1.5 -0.28125 C 1.5 -0.203125 1.5 0.171875 1.875 0.171875 C 2.25 0.171875 2.25 -0.1875 2.25 -0.28125 L 2.25 -0.671875 C 2.25 -1.8125 2.4375 -2.75 2.828125 -3.265625 L 4.03125 -4.84375 C 4.09375 -4.9375 4.09375 -4.953125 4.09375 -5.125 Z M 4.09375 -5.125 "/>
</g>
<g id="glyph-0-8">
<path d="M 3.859375 -1.34375 C 3.859375 -1.84375 3.59375 -2.171875 3.46875 -2.3125 C 3.328125 -2.4375 3.328125 -2.4375 2.640625 -2.875 C 3.078125 -3.078125 3.625 -3.484375 3.625 -4.109375 C 3.625 -4.859375 2.859375 -5.28125 2.109375 -5.28125 C 1.265625 -5.28125 0.59375 -4.703125 0.59375 -3.953125 C 0.59375 -3.671875 0.6875 -3.390625 0.890625 -3.171875 C 1.03125 -3 1.0625 -2.984375 1.546875 -2.671875 C 0.5625 -2.234375 0.34375 -1.65625 0.34375 -1.203125 C 0.34375 -0.328125 1.234375 0.171875 2.09375 0.171875 C 3.078125 0.171875 3.859375 -0.5 3.859375 -1.34375 Z M 3.234375 -4.109375 C 3.234375 -3.640625 2.875 -3.25 2.40625 -3.015625 L 1.40625 -3.625 C 1.171875 -3.75 0.984375 -3.984375 0.984375 -4.265625 C 0.984375 -4.765625 1.53125 -5.078125 2.09375 -5.078125 C 2.71875 -5.078125 3.234375 -4.65625 3.234375 -4.109375 Z M 3.40625 -1.0625 C 3.40625 -0.453125 2.765625 -0.078125 2.109375 -0.078125 C 1.40625 -0.078125 0.796875 -0.5625 0.796875 -1.203125 C 0.796875 -1.8125 1.25 -2.28125 1.796875 -2.53125 L 2.875 -1.875 C 3 -1.796875 3.40625 -1.546875 3.40625 -1.0625 Z M 3.40625 -1.0625 "/>
</g>
<g id="glyph-0-9">
<path d="M 3.859375 -2.609375 C 3.859375 -4.6875 2.953125 -5.28125 2.125 -5.28125 C 1.1875 -5.28125 0.34375 -4.5625 0.34375 -3.515625 C 0.34375 -2.484375 1.125 -1.734375 2.015625 -1.734375 C 2.578125 -1.734375 2.921875 -2.09375 3.125 -2.5 L 3.125 -2.34375 C 3.125 -0.40625 2.1875 -0.078125 1.734375 -0.078125 C 1.5625 -0.078125 1.15625 -0.09375 0.9375 -0.34375 C 1.28125 -0.375 1.3125 -0.640625 1.3125 -0.71875 C 1.3125 -0.953125 1.125 -1.09375 0.9375 -1.09375 C 0.796875 -1.09375 0.5625 -1 0.5625 -0.703125 C 0.5625 -0.15625 1.015625 0.171875 1.734375 0.171875 C 2.828125 0.171875 3.859375 -0.921875 3.859375 -2.609375 Z M 3.109375 -3.34375 C 3.109375 -2.71875 2.765625 -1.96875 2.046875 -1.96875 C 1.6875 -1.96875 1.453125 -2.125 1.28125 -2.421875 C 1.09375 -2.71875 1.09375 -3.109375 1.09375 -3.5 C 1.09375 -3.984375 1.09375 -4.3125 1.3125 -4.640625 C 1.515625 -4.921875 1.765625 -5.078125 2.140625 -5.078125 C 2.671875 -5.078125 2.90625 -4.5625 2.921875 -4.515625 C 3.09375 -4.125 3.109375 -3.5 3.109375 -3.34375 Z M 3.109375 -3.34375 "/>
</g>
<g id="glyph-1-0">
<path d="M 3.046875 -1.03125 C 3.046875 -1.40625 2.8125 -1.96875 1.875 -2.140625 C 1.8125 -2.15625 1.359375 -2.234375 1.328125 -2.234375 C 1.078125 -2.296875 0.703125 -2.453125 0.703125 -2.78125 C 0.703125 -3.015625 0.875 -3.34375 1.640625 -3.34375 C 2.53125 -3.34375 2.5625 -2.703125 2.578125 -2.46875 C 2.59375 -2.40625 2.640625 -2.390625 2.703125 -2.390625 C 2.828125 -2.390625 2.828125 -2.4375 2.828125 -2.59375 L 2.828125 -3.34375 C 2.828125 -3.46875 2.828125 -3.546875 2.734375 -3.546875 C 2.6875 -3.546875 2.671875 -3.546875 2.53125 -3.421875 C 2.515625 -3.40625 2.453125 -3.34375 2.421875 -3.34375 C 2.421875 -3.34375 2.40625 -3.34375 2.359375 -3.375 C 2.234375 -3.453125 2 -3.546875 1.640625 -3.546875 C 0.53125 -3.546875 0.28125 -2.9375 0.28125 -2.5625 C 0.28125 -2.15625 0.578125 -1.9375 0.59375 -1.90625 C 0.921875 -1.671875 1.09375 -1.640625 1.625 -1.546875 C 2 -1.46875 2.609375 -1.359375 2.609375 -0.8125 C 2.609375 -0.515625 2.40625 -0.140625 1.671875 -0.140625 C 0.875 -0.140625 0.640625 -0.765625 0.546875 -1.1875 C 0.515625 -1.28125 0.5 -1.328125 0.40625 -1.328125 C 0.28125 -1.328125 0.28125 -1.265625 0.28125 -1.109375 L 0.28125 -0.125 C 0.28125 0 0.28125 0.078125 0.375 0.078125 C 0.421875 0.078125 0.4375 0.078125 0.578125 -0.078125 C 0.625 -0.125 0.703125 -0.21875 0.75 -0.265625 C 1.109375 0.0625 1.484375 0.078125 1.6875 0.078125 C 2.703125 0.078125 3.046875 -0.5 3.046875 -1.03125 Z M 3.046875 -1.03125 "/>
</g>
<g id="glyph-1-1">
<path d="M 3.5 -0.953125 C 3.5 -0.984375 3.484375 -1.0625 3.375 -1.0625 C 3.296875 -1.0625 3.28125 -1.015625 3.265625 -0.96875 C 2.96875 -0.1875 2.296875 -0.171875 2.140625 -0.171875 C 1.796875 -0.171875 1.421875 -0.328125 1.1875 -0.703125 C 0.953125 -1.0625 0.953125 -1.578125 0.953125 -1.8125 L 3.28125 -1.8125 C 3.453125 -1.8125 3.5 -1.8125 3.5 -2 C 3.5 -2.703125 3.125 -3.546875 2 -3.546875 C 1.015625 -3.546875 0.234375 -2.734375 0.234375 -1.734375 C 0.234375 -0.71875 1.09375 0.078125 2.09375 0.078125 C 3.109375 0.078125 3.5 -0.765625 3.5 -0.953125 Z M 2.96875 -2.015625 L 0.953125 -2.015625 C 1.03125 -3.140625 1.703125 -3.328125 2 -3.328125 C 2.921875 -3.328125 2.953125 -2.203125 2.96875 -2.015625 Z M 2.96875 -2.015625 "/>
</g>
<g id="glyph-1-2">
<path d="M 2.125 0 L 2.125 -0.265625 C 1.609375 -0.265625 1.515625 -0.265625 1.515625 -0.625 L 1.515625 -5.515625 L 0.328125 -5.4375 L 0.328125 -5.171875 C 0.875 -5.171875 0.9375 -5.109375 0.9375 -4.71875 L 0.9375 -0.625 C 0.9375 -0.265625 0.84375 -0.265625 0.328125 -0.265625 L 0.328125 0 C 0.640625 -0.03125 1.09375 -0.03125 1.21875 -0.03125 C 1.390625 -0.03125 1.8125 -0.03125 2.125 0 Z M 2.125 0 "/>
</g>
<g id="glyph-1-3">
<path d="M 3.5 -0.953125 C 3.5 -1.046875 3.40625 -1.046875 3.375 -1.046875 C 3.328125 -1.046875 3.28125 -1.046875 3.265625 -0.96875 C 3.203125 -0.796875 2.984375 -0.171875 2.1875 -0.171875 C 1.6875 -0.171875 0.984375 -0.546875 0.984375 -1.71875 C 0.984375 -2.875 1.578125 -3.296875 2.15625 -3.296875 C 2.234375 -3.296875 2.640625 -3.296875 2.921875 -3.15625 C 2.703125 -3.078125 2.671875 -2.90625 2.671875 -2.8125 C 2.671875 -2.59375 2.828125 -2.4375 3.046875 -2.4375 C 3.25 -2.4375 3.421875 -2.578125 3.421875 -2.8125 C 3.421875 -3.3125 2.875 -3.546875 2.125 -3.546875 C 1.03125 -3.546875 0.28125 -2.671875 0.28125 -1.71875 C 0.28125 -0.703125 1.109375 0.078125 2.109375 0.078125 C 3.234375 0.078125 3.5 -0.859375 3.5 -0.953125 Z M 3.5 -0.953125 "/>
</g>
<g id="glyph-1-4">
<path d="M 2.8125 -1 L 2.8125 -1.4375 L 2.5625 -1.4375 L 2.5625 -1.015625 C 2.5625 -0.46875 2.3125 -0.171875 2.015625 -0.171875 C 1.484375 -0.171875 1.484375 -0.84375 1.484375 -0.984375 L 1.484375 -3.171875 L 2.671875 -3.171875 L 2.671875 -3.421875 L 1.484375 -3.421875 L 1.484375 -4.890625 L 1.234375 -4.890625 C 1.21875 -4.171875 0.90625 -3.40625 0.15625 -3.390625 L 0.15625 -3.171875 L 0.875 -3.171875 L 0.875 -1 C 0.875 -0.0625 1.59375 0.078125 1.953125 0.078125 C 2.484375 0.078125 2.8125 -0.390625 2.8125 -1 Z M 2.8125 -1 "/>
</g>
<g id="glyph-1-5">
<path d="M 2.0625 0 L 2.0625 -0.265625 C 1.546875 -0.265625 1.515625 -0.296875 1.515625 -0.609375 L 1.515625 -3.5 L 0.359375 -3.421875 L 0.359375 -3.15625 C 0.859375 -3.15625 0.9375 -3.109375 0.9375 -2.71875 L 0.9375 -0.625 C 0.9375 -0.265625 0.84375 -0.265625 0.328125 -0.265625 L 0.328125 0 C 0.640625 -0.03125 1.09375 -0.03125 1.203125 -0.03125 C 1.3125 -0.03125 1.796875 -0.03125 2.0625 0 Z M 1.609375 -4.78125 C 1.609375 -5.046875 1.40625 -5.234375 1.171875 -5.234375 C 0.953125 -5.234375 0.734375 -5.046875 0.734375 -4.78125 C 0.734375 -4.5625 0.921875 -4.34375 1.171875 -4.34375 C 1.421875 -4.34375 1.609375 -4.5625 1.609375 -4.78125 Z M 1.609375 -4.78125 "/>
</g>
<g id="glyph-1-6">
<path d="M 4.28125 -3.171875 L 4.28125 -3.421875 C 4 -3.40625 3.984375 -3.40625 3.65625 -3.40625 C 3.59375 -3.40625 3.21875 -3.40625 2.96875 -3.421875 L 2.96875 -3.171875 C 3.25 -3.15625 3.3125 -2.96875 3.3125 -2.84375 C 3.3125 -2.765625 3.296875 -2.71875 3.265625 -2.640625 L 2.40625 -0.640625 L 1.46875 -2.796875 C 1.421875 -2.90625 1.421875 -2.96875 1.421875 -2.96875 C 1.421875 -3.171875 1.703125 -3.171875 1.84375 -3.171875 L 1.84375 -3.421875 C 1.5 -3.40625 1.125 -3.40625 0.984375 -3.40625 C 0.8125 -3.40625 0.421875 -3.40625 0.171875 -3.421875 L 0.171875 -3.171875 C 0.65625 -3.171875 0.703125 -3.125 0.8125 -2.84375 L 2.015625 -0.09375 C 2.0625 0.03125 2.109375 0.078125 2.234375 0.078125 C 2.34375 0.078125 2.390625 0.015625 2.4375 -0.078125 L 3.515625 -2.609375 C 3.71875 -3.046875 3.984375 -3.15625 4.28125 -3.171875 Z M 4.28125 -3.171875 "/>
</g>
<g id="glyph-1-7">
<path d="M 4.40625 0 L 4.40625 -0.265625 C 3.859375 -0.265625 3.796875 -0.3125 3.796875 -0.703125 L 3.796875 -5.515625 L 2.609375 -5.4375 L 2.609375 -5.171875 C 3.15625 -5.171875 3.21875 -5.109375 3.21875 -4.71875 L 3.21875 -3.046875 C 2.9375 -3.34375 2.5625 -3.5 2.15625 -3.5 C 1.15625 -3.5 0.28125 -2.734375 0.28125 -1.703125 C 0.28125 -0.734375 1.078125 0.078125 2.078125 0.078125 C 2.546875 0.078125 2.9375 -0.140625 3.203125 -0.421875 L 3.203125 0.078125 Z M 3.203125 -0.984375 C 3.203125 -0.84375 3.203125 -0.8125 3.078125 -0.65625 C 2.859375 -0.328125 2.484375 -0.140625 2.109375 -0.140625 C 1.75 -0.140625 1.4375 -0.328125 1.234375 -0.625 C 1.03125 -0.9375 0.984375 -1.328125 0.984375 -1.703125 C 0.984375 -2.15625 1.0625 -2.484375 1.234375 -2.765625 C 1.4375 -3.0625 1.796875 -3.28125 2.1875 -3.28125 C 2.578125 -3.28125 2.953125 -3.09375 3.203125 -2.6875 Z M 3.203125 -0.984375 "/>
</g>
<g id="glyph-1-8">
<path d="M 4.09375 -0.71875 L 4.09375 -1.15625 L 3.84375 -1.15625 L 3.84375 -0.71875 C 3.84375 -0.390625 3.71875 -0.265625 3.5625 -0.265625 C 3.265625 -0.265625 3.265625 -0.625 3.265625 -0.71875 L 3.265625 -2.375 C 3.265625 -3.15625 2.5 -3.546875 1.78125 -3.546875 C 1.125 -3.546875 0.53125 -3.296875 0.53125 -2.765625 C 0.53125 -2.53125 0.703125 -2.390625 0.90625 -2.390625 C 1.125 -2.390625 1.28125 -2.546875 1.28125 -2.765625 C 1.28125 -2.953125 1.15625 -3.078125 0.984375 -3.125 C 1.28125 -3.328125 1.703125 -3.328125 1.765625 -3.328125 C 2.21875 -3.328125 2.65625 -3.015625 2.65625 -2.359375 L 2.65625 -2.109375 C 2.1875 -2.09375 1.65625 -2.0625 1.109375 -1.84375 C 0.40625 -1.53125 0.265625 -1.078125 0.265625 -0.8125 C 0.265625 -0.125 1.078125 0.078125 1.625 0.078125 C 2.203125 0.078125 2.5625 -0.25 2.734375 -0.5625 C 2.78125 -0.265625 2.984375 0.046875 3.328125 0.046875 C 3.40625 0.046875 4.09375 0.015625 4.09375 -0.71875 Z M 2.65625 -1.125 C 2.65625 -0.34375 2 -0.140625 1.6875 -0.140625 C 1.265625 -0.140625 0.921875 -0.421875 0.921875 -0.796875 C 0.921875 -1.328125 1.421875 -1.875 2.65625 -1.90625 Z M 2.65625 -1.125 "/>
</g>
<g id="glyph-1-9">
<path d="M 4.40625 0 L 4.40625 -0.265625 C 3.890625 -0.265625 3.796875 -0.265625 3.796875 -0.625 L 3.796875 -3.515625 L 2.765625 -3.453125 C 2.671875 -3.4375 2.625 -3.4375 2.609375 -3.4375 C 2.59375 -3.421875 2.578125 -3.421875 2.46875 -3.421875 L 1.4375 -3.421875 L 1.4375 -4.296875 C 1.4375 -5.078125 2.171875 -5.375 2.671875 -5.375 C 2.90625 -5.375 3.15625 -5.328125 3.34375 -5.171875 C 3.34375 -5.171875 3.015625 -5.109375 3.015625 -4.78125 C 3.015625 -4.53125 3.234375 -4.390625 3.40625 -4.390625 C 3.515625 -4.390625 3.78125 -4.46875 3.78125 -4.796875 C 3.78125 -5.21875 3.375 -5.59375 2.703125 -5.59375 C 1.921875 -5.59375 0.875 -5.203125 0.875 -4.296875 L 0.875 -3.421875 L 0.234375 -3.421875 L 0.234375 -3.171875 L 0.875 -3.171875 L 0.875 -0.625 C 0.875 -0.265625 0.78125 -0.265625 0.28125 -0.265625 L 0.28125 0 C 0.59375 -0.03125 1.03125 -0.03125 1.171875 -0.03125 C 1.328125 -0.03125 1.75 -0.03125 2.0625 0 L 2.0625 -0.265625 C 1.5625 -0.265625 1.46875 -0.265625 1.46875 -0.625 L 1.46875 -3.171875 L 2.828125 -3.171875 C 3.171875 -3.171875 3.21875 -3.0625 3.21875 -2.734375 L 3.21875 -0.625 C 3.21875 -0.265625 3.125 -0.265625 2.609375 -0.265625 L 2.609375 0 C 2.921875 -0.03125 3.375 -0.03125 3.5 -0.03125 C 3.671875 -0.03125 4.09375 -0.03125 4.40625 0 Z M 4.40625 0 "/>
</g>
<g id="glyph-1-10">
<path d="M 3.046875 -3 C 3.046875 -3.28125 2.796875 -3.5 2.453125 -3.5 C 1.9375 -3.5 1.578125 -3.125 1.421875 -2.671875 L 1.40625 -2.671875 L 1.40625 -3.5 L 0.28125 -3.421875 L 0.28125 -3.15625 C 0.8125 -3.15625 0.875 -3.109375 0.875 -2.71875 L 0.875 -0.625 C 0.875 -0.265625 0.78125 -0.265625 0.28125 -0.265625 L 0.28125 0 C 0.59375 -0.03125 1.03125 -0.03125 1.21875 -0.03125 C 1.6875 -0.03125 1.703125 -0.03125 2.21875 0 L 2.21875 -0.265625 L 2.0625 -0.265625 C 1.484375 -0.265625 1.46875 -0.34375 1.46875 -0.640625 L 1.46875 -1.8125 C 1.46875 -2.40625 1.703125 -3.265625 2.46875 -3.28125 C 2.421875 -3.25 2.34375 -3.1875 2.34375 -3 C 2.34375 -2.765625 2.53125 -2.640625 2.703125 -2.640625 C 2.890625 -2.640625 3.046875 -2.78125 3.046875 -3 Z M 3.046875 -3 "/>
</g>
<g id="glyph-1-11">
<path d="M 3.984375 -1.6875 C 3.984375 -2.6875 3.15625 -3.546875 2.109375 -3.546875 C 1.0625 -3.546875 0.234375 -2.6875 0.234375 -1.6875 C 0.234375 -0.703125 1.09375 0.078125 2.109375 0.078125 C 3.140625 0.078125 3.984375 -0.703125 3.984375 -1.6875 Z M 3.265625 -1.765625 C 3.265625 -1.40625 3.25 -0.96875 3.03125 -0.625 C 2.8125 -0.3125 2.453125 -0.171875 2.109375 -0.171875 C 1.671875 -0.171875 1.34375 -0.375 1.171875 -0.65625 C 0.96875 -0.984375 0.953125 -1.375 0.953125 -1.765625 C 0.953125 -2.0625 0.953125 -2.546875 1.1875 -2.890625 C 1.40625 -3.171875 1.734375 -3.328125 2.109375 -3.328125 C 2.515625 -3.328125 2.859375 -3.125 3.046875 -2.84375 C 3.265625 -2.515625 3.265625 -2.078125 3.265625 -1.765625 Z M 3.265625 -1.765625 "/>
</g>
<g id="glyph-1-12">
<path d="M 2.8125 1.890625 C 2.8125 1.859375 2.796875 1.859375 2.703125 1.75 C 1.609375 0.71875 1.34375 -0.75 1.34375 -1.984375 C 1.34375 -4.28125 2.28125 -5.359375 2.6875 -5.71875 C 2.796875 -5.828125 2.8125 -5.828125 2.8125 -5.875 C 2.8125 -5.90625 2.78125 -5.96875 2.703125 -5.96875 C 2.5625 -5.96875 2.171875 -5.5625 2.109375 -5.484375 C 1.046875 -4.375 0.8125 -2.9375 0.8125 -1.984375 C 0.8125 -0.203125 1.5625 1.21875 2.640625 1.984375 C 2.71875 1.984375 2.8125 1.984375 2.8125 1.890625 Z M 2.8125 1.890625 "/>
</g>
<g id="glyph-1-13">
<path d="M 5.859375 -5.78125 C 5.859375 -5.890625 5.78125 -5.96875 5.671875 -5.96875 C 5.578125 -5.96875 5.546875 -5.90625 5.5 -5.859375 C 5.140625 -5.40625 4.640625 -5.078125 3.90625 -5.078125 C 3.609375 -5.078125 2.953125 -5.15625 2.328125 -5.6875 C 2.1875 -5.8125 2.015625 -5.96875 1.703125 -5.96875 C 1.0625 -5.96875 0.46875 -5.28125 0.46875 -4.359375 C 0.46875 -3.421875 1.078125 -2.765625 1.703125 -2.765625 C 2.328125 -2.765625 2.8125 -3.46875 2.8125 -4.359375 C 2.8125 -4.734375 2.71875 -5.03125 2.65625 -5.1875 C 3.265625 -4.859375 3.8125 -4.859375 3.90625 -4.859375 C 4.109375 -4.859375 4.5625 -4.890625 4.953125 -5.109375 L 4.953125 -5.09375 L 1.265625 0.09375 C 1.171875 0.203125 1.171875 0.21875 1.171875 0.265625 C 1.171875 0.359375 1.25 0.453125 1.359375 0.453125 C 1.4375 0.453125 1.484375 0.40625 1.546875 0.328125 L 5.78125 -5.609375 C 5.859375 -5.703125 5.859375 -5.765625 5.859375 -5.78125 Z M 6.5625 -1.15625 C 6.5625 -2.0625 6.0625 -2.765625 5.453125 -2.765625 C 4.8125 -2.765625 4.21875 -2.078125 4.21875 -1.15625 C 4.21875 -0.21875 4.828125 0.453125 5.453125 0.453125 C 6.078125 0.453125 6.5625 -0.265625 6.5625 -1.15625 Z M 2.5625 -4.359375 C 2.5625 -3.515625 2.125 -2.984375 1.71875 -2.984375 C 1.578125 -2.984375 1.015625 -3.046875 1.015625 -4.359375 C 1.015625 -5.671875 1.5625 -5.734375 1.71875 -5.734375 C 2.125 -5.734375 2.5625 -5.1875 2.5625 -4.359375 Z M 6.3125 -1.15625 C 6.3125 -0.3125 5.875 0.21875 5.46875 0.21875 C 5.328125 0.21875 4.765625 0.15625 4.765625 -1.15625 C 4.765625 -2.46875 5.328125 -2.53125 5.46875 -2.53125 C 5.890625 -2.53125 6.3125 -1.984375 6.3125 -1.15625 Z M 6.3125 -1.15625 "/>
</g>
<g id="glyph-1-14">
<path d="M 4.40625 1.546875 L 4.40625 1.28125 C 3.90625 1.28125 3.8125 1.28125 3.8125 0.921875 L 3.8125 -3.5 L 3.59375 -3.5 L 3.296875 -2.8125 C 3.03125 -3.234375 2.640625 -3.5 2.140625 -3.5 C 1.15625 -3.5 0.28125 -2.734375 0.28125 -1.703125 C 0.28125 -0.71875 1.09375 0.078125 2.078125 0.078125 C 2.640625 0.078125 3.015625 -0.234375 3.203125 -0.484375 L 3.203125 0.921875 C 3.203125 1.28125 3.109375 1.28125 2.59375 1.28125 L 2.59375 1.546875 C 2.9375 1.515625 3.296875 1.515625 3.5 1.515625 C 3.734375 1.515625 4.078125 1.515625 4.40625 1.546875 Z M 3.234375 -1.125 C 3.234375 -1 3.234375 -0.953125 3.109375 -0.75 C 2.8125 -0.265625 2.390625 -0.140625 2.125 -0.140625 C 1.484375 -0.140625 0.984375 -0.84375 0.984375 -1.703125 C 0.984375 -2.609375 1.578125 -3.265625 2.203125 -3.265625 C 2.84375 -3.265625 3.234375 -2.609375 3.234375 -2.171875 Z M 3.234375 -1.125 "/>
</g>
<g id="glyph-1-15">
<path d="M 4.46875 0 L 4.46875 -0.265625 C 3.921875 -0.265625 3.859375 -0.3125 3.859375 -0.703125 L 3.859375 -3.5 L 2.65625 -3.421875 L 2.65625 -3.15625 C 3.203125 -3.15625 3.265625 -3.109375 3.265625 -2.71875 L 3.265625 -1.328125 C 3.265625 -0.640625 2.84375 -0.140625 2.25 -0.140625 C 1.5625 -0.140625 1.53125 -0.484375 1.53125 -0.875 L 1.53125 -3.5 L 0.328125 -3.421875 L 0.328125 -3.15625 C 0.9375 -3.15625 0.9375 -3.140625 0.9375 -2.421875 L 0.9375 -1.234375 C 0.9375 -0.65625 0.9375 0.078125 2.203125 0.078125 C 2.953125 0.078125 3.234375 -0.5 3.28125 -0.5625 L 3.28125 0.078125 Z M 4.46875 0 "/>
</g>
<g id="glyph-1-16">
<path d="M 4.40625 -1.71875 C 4.40625 -2.71875 3.609375 -3.5 2.640625 -3.5 C 2.328125 -3.5 1.875 -3.421875 1.46875 -3.015625 L 1.46875 -3.5 L 0.28125 -3.421875 L 0.28125 -3.15625 C 0.84375 -3.15625 0.875 -3.109375 0.875 -2.78125 L 0.875 0.921875 C 0.875 1.28125 0.78125 1.28125 0.28125 1.28125 L 0.28125 1.546875 C 0.625 1.515625 0.96875 1.515625 1.1875 1.515625 C 1.421875 1.515625 1.75 1.515625 2.09375 1.546875 L 2.09375 1.28125 C 1.578125 1.28125 1.484375 1.28125 1.484375 0.921875 L 1.484375 -0.390625 C 1.859375 0.015625 2.265625 0.078125 2.515625 0.078125 C 3.53125 0.078125 4.40625 -0.703125 4.40625 -1.71875 Z M 3.703125 -1.71875 C 3.703125 -0.796875 3.125 -0.140625 2.484375 -0.140625 C 2.203125 -0.140625 1.84375 -0.265625 1.578125 -0.65625 C 1.484375 -0.796875 1.484375 -0.796875 1.484375 -0.953125 L 1.484375 -2.640625 C 1.671875 -2.96875 2.0625 -3.265625 2.5625 -3.265625 C 3.1875 -3.265625 3.703125 -2.578125 3.703125 -1.71875 Z M 3.703125 -1.71875 "/>
</g>
<g id="glyph-1-17">
<path d="M 2.453125 -1.984375 C 2.453125 -2.75 2.328125 -3.65625 1.84375 -4.59375 C 1.453125 -5.328125 0.71875 -5.96875 0.578125 -5.96875 C 0.5 -5.96875 0.484375 -5.90625 0.484375 -5.875 C 0.484375 -5.84375 0.484375 -5.828125 0.578125 -5.71875 C 1.6875 -4.671875 1.9375 -3.21875 1.9375 -1.984375 C 1.9375 0.296875 1 1.375 0.59375 1.734375 C 0.484375 1.84375 0.484375 1.859375 0.484375 1.890625 C 0.484375 1.9375 0.5 1.984375 0.578125 1.984375 C 0.703125 1.984375 1.109375 1.578125 1.171875 1.515625 C 2.234375 0.390625 2.453125 -1.03125 2.453125 -1.984375 Z M 2.453125 -1.984375 "/>
</g>
<g id="glyph-2-0">
<path d="M -0.953125 -3.5 C -1.046875 -3.5 -1.046875 -3.40625 -1.046875 -3.375 C -1.046875 -3.328125 -1.046875 -3.28125 -0.96875 -3.265625 C -0.796875 -3.203125 -0.171875 -2.984375 -0.171875 -2.1875 C -0.171875 -1.6875 -0.546875 -0.984375 -1.71875 -0.984375 C -2.875 -0.984375 -3.296875 -1.578125 -3.296875 -2.15625 C -3.296875 -2.234375 -3.296875 -2.640625 -3.15625 -2.921875 C -3.078125 -2.703125 -2.90625 -2.671875 -2.8125 -2.671875 C -2.59375 -2.671875 -2.4375 -2.828125 -2.4375 -3.046875 C -2.4375 -3.25 -2.578125 -3.421875 -2.8125 -3.421875 C -3.3125 -3.421875 -3.546875 -2.875 -3.546875 -2.125 C -3.546875 -1.03125 -2.671875 -0.28125 -1.71875 -0.28125 C -0.703125 -0.28125 0.078125 -1.109375 0.078125 -2.109375 C 0.078125 -3.234375 -0.859375 -3.5 -0.953125 -3.5 Z M -0.953125 -3.5 "/>
</g>
<g id="glyph-2-1">
<path d="M -1.6875 -3.984375 C -2.6875 -3.984375 -3.546875 -3.15625 -3.546875 -2.109375 C -3.546875 -1.0625 -2.6875 -0.234375 -1.6875 -0.234375 C -0.703125 -0.234375 0.078125 -1.09375 0.078125 -2.109375 C 0.078125 -3.140625 -0.703125 -3.984375 -1.6875 -3.984375 Z M -1.765625 -3.265625 C -1.40625 -3.265625 -0.96875 -3.25 -0.625 -3.03125 C -0.3125 -2.8125 -0.171875 -2.453125 -0.171875 -2.109375 C -0.171875 -1.671875 -0.375 -1.34375 -0.65625 -1.171875 C -0.984375 -0.96875 -1.375 -0.953125 -1.765625 -0.953125 C -2.0625 -0.953125 -2.546875 -0.953125 -2.890625 -1.1875 C -3.171875 -1.40625 -3.328125 -1.734375 -3.328125 -2.109375 C -3.328125 -2.515625 -3.125 -2.859375 -2.84375 -3.046875 C -2.515625 -3.265625 -2.078125 -3.265625 -1.765625 -3.265625 Z M -1.765625 -3.265625 "/>
</g>
<g id="glyph-2-2">
<path d="M -1.03125 -3.046875 C -1.40625 -3.046875 -1.96875 -2.8125 -2.140625 -1.875 C -2.15625 -1.8125 -2.234375 -1.359375 -2.234375 -1.328125 C -2.296875 -1.078125 -2.453125 -0.703125 -2.78125 -0.703125 C -3.015625 -0.703125 -3.34375 -0.875 -3.34375 -1.640625 C -3.34375 -2.53125 -2.703125 -2.5625 -2.46875 -2.578125 C -2.40625 -2.59375 -2.390625 -2.640625 -2.390625 -2.703125 C -2.390625 -2.828125 -2.4375 -2.828125 -2.59375 -2.828125 L -3.34375 -2.828125 C -3.46875 -2.828125 -3.546875 -2.828125 -3.546875 -2.734375 C -3.546875 -2.6875 -3.546875 -2.671875 -3.421875 -2.53125 C -3.40625 -2.515625 -3.34375 -2.453125 -3.34375 -2.421875 C -3.34375 -2.421875 -3.34375 -2.40625 -3.375 -2.359375 C -3.453125 -2.234375 -3.546875 -2 -3.546875 -1.640625 C -3.546875 -0.53125 -2.9375 -0.28125 -2.5625 -0.28125 C -2.15625 -0.28125 -1.9375 -0.578125 -1.90625 -0.59375 C -1.671875 -0.921875 -1.640625 -1.09375 -1.546875 -1.625 C -1.46875 -2 -1.359375 -2.609375 -0.8125 -2.609375 C -0.515625 -2.609375 -0.140625 -2.40625 -0.140625 -1.671875 C -0.140625 -0.875 -0.765625 -0.640625 -1.1875 -0.546875 C -1.28125 -0.515625 -1.328125 -0.5 -1.328125 -0.40625 C -1.328125 -0.28125 -1.265625 -0.28125 -1.109375 -0.28125 L -0.125 -0.28125 C 0 -0.28125 0.078125 -0.28125 0.078125 -0.375 C 0.078125 -0.421875 0.078125 -0.4375 -0.078125 -0.578125 C -0.125 -0.625 -0.21875 -0.703125 -0.265625 -0.75 C 0.0625 -1.109375 0.078125 -1.484375 0.078125 -1.6875 C 0.078125 -2.703125 -0.5 -3.046875 -1.03125 -3.046875 Z M -1.03125 -3.046875 "/>
</g>
<g id="glyph-2-3">
<path d="M -1 -2.8125 L -1.4375 -2.8125 L -1.4375 -2.5625 L -1.015625 -2.5625 C -0.46875 -2.5625 -0.171875 -2.3125 -0.171875 -2.015625 C -0.171875 -1.484375 -0.84375 -1.484375 -0.984375 -1.484375 L -3.171875 -1.484375 L -3.171875 -2.671875 L -3.421875 -2.671875 L -3.421875 -1.484375 L -4.890625 -1.484375 L -4.890625 -1.234375 C -4.171875 -1.21875 -3.40625 -0.90625 -3.390625 -0.15625 L -3.171875 -0.15625 L -3.171875 -0.875 L -1 -0.875 C -0.0625 -0.875 0.078125 -1.59375 0.078125 -1.953125 C 0.078125 -2.484375 -0.390625 -2.8125 -1 -2.8125 Z M -1 -2.8125 "/>
</g>
<g id="glyph-2-4">
<path d="M -0.953125 -3.5 C -0.984375 -3.5 -1.0625 -3.484375 -1.0625 -3.375 C -1.0625 -3.296875 -1.015625 -3.28125 -0.96875 -3.265625 C -0.1875 -2.96875 -0.171875 -2.296875 -0.171875 -2.140625 C -0.171875 -1.796875 -0.328125 -1.421875 -0.703125 -1.1875 C -1.0625 -0.953125 -1.578125 -0.953125 -1.8125 -0.953125 L -1.8125 -3.28125 C -1.8125 -3.453125 -1.8125 -3.5 -2 -3.5 C -2.703125 -3.5 -3.546875 -3.125 -3.546875 -2 C -3.546875 -1.015625 -2.734375 -0.234375 -1.734375 -0.234375 C -0.71875 -0.234375 0.078125 -1.09375 0.078125 -2.09375 C 0.078125 -3.109375 -0.765625 -3.5 -0.953125 -3.5 Z M -2.015625 -2.96875 L -2.015625 -0.953125 C -3.140625 -1.03125 -3.328125 -1.703125 -3.328125 -2 C -3.328125 -2.921875 -2.203125 -2.953125 -2.015625 -2.96875 Z M -2.015625 -2.96875 "/>
</g>
<g id="glyph-2-5">
<path d="M 0 -4.40625 L -0.265625 -4.40625 C -0.265625 -3.859375 -0.3125 -3.796875 -0.703125 -3.796875 L -5.515625 -3.796875 L -5.4375 -2.609375 L -5.171875 -2.609375 C -5.171875 -3.15625 -5.109375 -3.21875 -4.71875 -3.21875 L -3.046875 -3.21875 C -3.34375 -2.9375 -3.5 -2.5625 -3.5 -2.15625 C -3.5 -1.15625 -2.734375 -0.28125 -1.703125 -0.28125 C -0.734375 -0.28125 0.078125 -1.078125 0.078125 -2.078125 C 0.078125 -2.546875 -0.140625 -2.9375 -0.421875 -3.203125 L 0.078125 -3.203125 Z M -0.984375 -3.203125 C -0.84375 -3.203125 -0.8125 -3.203125 -0.65625 -3.078125 C -0.328125 -2.859375 -0.140625 -2.484375 -0.140625 -2.109375 C -0.140625 -1.75 -0.328125 -1.4375 -0.625 -1.234375 C -0.9375 -1.03125 -1.328125 -0.984375 -1.703125 -0.984375 C -2.15625 -0.984375 -2.484375 -1.0625 -2.765625 -1.234375 C -3.0625 -1.4375 -3.28125 -1.796875 -3.28125 -2.1875 C -3.28125 -2.578125 -3.09375 -2.953125 -2.6875 -3.203125 Z M -0.984375 -3.203125 "/>
</g>
<g id="glyph-2-6">
<path d="M 0 -2.125 L -0.265625 -2.125 C -0.265625 -1.609375 -0.265625 -1.515625 -0.625 -1.515625 L -5.515625 -1.515625 L -5.4375 -0.328125 L -5.171875 -0.328125 C -5.171875 -0.875 -5.109375 -0.9375 -4.71875 -0.9375 L -0.625 -0.9375 C -0.265625 -0.9375 -0.265625 -0.84375 -0.265625 -0.328125 L 0 -0.328125 C -0.03125 -0.640625 -0.03125 -1.09375 -0.03125 -1.21875 C -0.03125 -1.390625 -0.03125 -1.8125 0 -2.125 Z M 0 -2.125 "/>
</g>
<g id="glyph-2-7">
<path d="M 0 -4.40625 L -0.265625 -4.40625 C -0.265625 -3.890625 -0.265625 -3.796875 -0.625 -3.796875 L -3.515625 -3.796875 L -3.453125 -2.765625 C -3.4375 -2.671875 -3.4375 -2.625 -3.4375 -2.609375 C -3.421875 -2.59375 -3.421875 -2.578125 -3.421875 -2.46875 L -3.421875 -1.4375 L -4.296875 -1.4375 C -5.078125 -1.4375 -5.375 -2.171875 -5.375 -2.671875 C -5.375 -2.90625 -5.328125 -3.15625 -5.171875 -3.34375 C -5.171875 -3.34375 -5.109375 -3.015625 -4.78125 -3.015625 C -4.53125 -3.015625 -4.390625 -3.234375 -4.390625 -3.40625 C -4.390625 -3.515625 -4.46875 -3.78125 -4.796875 -3.78125 C -5.21875 -3.78125 -5.59375 -3.375 -5.59375 -2.703125 C -5.59375 -1.921875 -5.203125 -0.875 -4.296875 -0.875 L -3.421875 -0.875 L -3.421875 -0.234375 L -3.171875 -0.234375 L -3.171875 -0.875 L -0.625 -0.875 C -0.265625 -0.875 -0.265625 -0.78125 -0.265625 -0.28125 L 0 -0.28125 C -0.03125 -0.59375 -0.03125 -1.03125 -0.03125 -1.171875 C -0.03125 -1.328125 -0.03125 -1.75 0 -2.0625 L -0.265625 -2.0625 C -0.265625 -1.5625 -0.265625 -1.46875 -0.625 -1.46875 L -3.171875 -1.46875 L -3.171875 -2.828125 C -3.171875 -3.171875 -3.0625 -3.21875 -2.734375 -3.21875 L -0.625 -3.21875 C -0.265625 -3.21875 -0.265625 -3.125 -0.265625 -2.609375 L 0 -2.609375 C -0.03125 -2.921875 -0.03125 -3.375 -0.03125 -3.5 C -0.03125 -3.671875 -0.03125 -4.09375 0 -4.40625 Z M 0 -4.40625 "/>
</g>
<g id="glyph-2-8">
<path d="M -3 -3.046875 C -3.28125 -3.046875 -3.5 -2.796875 -3.5 -2.453125 C -3.5 -1.9375 -3.125 -1.578125 -2.671875 -1.421875 L -2.671875 -1.40625 L -3.5 -1.40625 L -3.421875 -0.28125 L -3.15625 -0.28125 C -3.15625 -0.8125 -3.109375 -0.875 -2.71875 -0.875 L -0.625 -0.875 C -0.265625 -0.875 -0.265625 -0.78125 -0.265625 -0.28125 L 0 -0.28125 C -0.03125 -0.59375 -0.03125 -1.03125 -0.03125 -1.21875 C -0.03125 -1.6875 -0.03125 -1.703125 0 -2.21875 L -0.265625 -2.21875 L -0.265625 -2.0625 C -0.265625 -1.484375 -0.34375 -1.46875 -0.640625 -1.46875 L -1.8125 -1.46875 C -2.40625 -1.46875 -3.265625 -1.703125 -3.28125 -2.46875 C -3.25 -2.421875 -3.1875 -2.34375 -3 -2.34375 C -2.765625 -2.34375 -2.640625 -2.53125 -2.640625 -2.703125 C -2.640625 -2.890625 -2.78125 -3.046875 -3 -3.046875 Z M -3 -3.046875 "/>
</g>
<g id="glyph-2-9">
<path d="M -0.71875 -4.09375 L -1.15625 -4.09375 L -1.15625 -3.84375 L -0.71875 -3.84375 C -0.390625 -3.84375 -0.265625 -3.71875 -0.265625 -3.5625 C -0.265625 -3.265625 -0.625 -3.265625 -0.71875 -3.265625 L -2.375 -3.265625 C -3.15625 -3.265625 -3.546875 -2.5 -3.546875 -1.78125 C -3.546875 -1.125 -3.296875 -0.53125 -2.765625 -0.53125 C -2.53125 -0.53125 -2.390625 -0.703125 -2.390625 -0.90625 C -2.390625 -1.125 -2.546875 -1.28125 -2.765625 -1.28125 C -2.953125 -1.28125 -3.078125 -1.15625 -3.125 -0.984375 C -3.328125 -1.28125 -3.328125 -1.703125 -3.328125 -1.765625 C -3.328125 -2.21875 -3.015625 -2.65625 -2.359375 -2.65625 L -2.109375 -2.65625 C -2.09375 -2.1875 -2.0625 -1.65625 -1.84375 -1.109375 C -1.53125 -0.40625 -1.078125 -0.265625 -0.8125 -0.265625 C -0.125 -0.265625 0.078125 -1.078125 0.078125 -1.625 C 0.078125 -2.203125 -0.25 -2.5625 -0.5625 -2.734375 C -0.265625 -2.78125 0.046875 -2.984375 0.046875 -3.328125 C 0.046875 -3.40625 0.015625 -4.09375 -0.71875 -4.09375 Z M -1.125 -2.65625 C -0.34375 -2.65625 -0.140625 -2 -0.140625 -1.6875 C -0.140625 -1.265625 -0.421875 -0.921875 -0.796875 -0.921875 C -1.328125 -0.921875 -1.875 -1.421875 -1.90625 -2.65625 Z M -1.125 -2.65625 "/>
</g>
<g id="glyph-2-10">
<path d="M 1.890625 -2.8125 C 1.859375 -2.8125 1.859375 -2.796875 1.75 -2.703125 C 0.71875 -1.609375 -0.75 -1.34375 -1.984375 -1.34375 C -4.28125 -1.34375 -5.359375 -2.28125 -5.71875 -2.6875 C -5.828125 -2.796875 -5.828125 -2.8125 -5.875 -2.8125 C -5.90625 -2.8125 -5.96875 -2.78125 -5.96875 -2.703125 C -5.96875 -2.5625 -5.5625 -2.171875 -5.484375 -2.109375 C -4.375 -1.046875 -2.9375 -0.8125 -1.984375 -0.8125 C -0.203125 -0.8125 1.21875 -1.5625 1.984375 -2.640625 C 1.984375 -2.71875 1.984375 -2.8125 1.890625 -2.8125 Z M 1.890625 -2.8125 "/>
</g>
<g id="glyph-2-11">
<path d="M 0 -6.8125 L -0.265625 -6.8125 C -0.265625 -6.3125 -0.265625 -6.21875 -0.625 -6.21875 L -2.40625 -6.21875 C -3.046875 -6.21875 -3.5 -5.9375 -3.5 -5.0625 C -3.5 -4.328125 -3 -3.96875 -2.78125 -3.84375 C -3.34375 -3.703125 -3.5 -3.25 -3.5 -2.734375 C -3.5 -1.953125 -2.953125 -1.59375 -2.75 -1.484375 L -3.5 -1.484375 L -3.421875 -0.328125 L -3.15625 -0.328125 C -3.15625 -0.859375 -3.109375 -0.9375 -2.71875 -0.9375 L -0.625 -0.9375 C -0.265625 -0.9375 -0.265625 -0.828125 -0.265625 -0.328125 L 0 -0.328125 C -0.03125 -0.671875 -0.03125 -1.015625 -0.03125 -1.234375 C -0.03125 -1.46875 -0.03125 -1.796875 0 -2.140625 L -0.265625 -2.140625 C -0.265625 -1.625 -0.265625 -1.53125 -0.625 -1.53125 L -2.0625 -1.53125 C -2.890625 -1.53125 -3.28125 -2.15625 -3.28125 -2.671875 C -3.28125 -3.1875 -2.875 -3.265625 -2.4375 -3.265625 L -0.625 -3.265625 C -0.265625 -3.265625 -0.265625 -3.171875 -0.265625 -2.671875 L 0 -2.671875 C -0.03125 -3 -0.03125 -3.359375 -0.03125 -3.578125 C -0.03125 -3.796875 -0.03125 -4.140625 0 -4.484375 L -0.265625 -4.484375 C -0.265625 -3.96875 -0.265625 -3.875 -0.625 -3.875 L -2.0625 -3.875 C -2.890625 -3.875 -3.28125 -4.5 -3.28125 -5 C -3.28125 -5.515625 -2.875 -5.609375 -2.4375 -5.609375 L -0.625 -5.609375 C -0.265625 -5.609375 -0.265625 -5.515625 -0.265625 -5 L 0 -5 C -0.03125 -5.34375 -0.03125 -5.6875 -0.03125 -5.90625 C -0.03125 -6.140625 -0.03125 -6.46875 0 -6.8125 Z M 0 -6.8125 "/>
</g>
<g id="glyph-2-12">
<path d="M -1.984375 -2.453125 C -2.75 -2.453125 -3.65625 -2.328125 -4.59375 -1.84375 C -5.328125 -1.453125 -5.96875 -0.71875 -5.96875 -0.578125 C -5.96875 -0.5 -5.90625 -0.484375 -5.875 -0.484375 C -5.84375 -0.484375 -5.828125 -0.484375 -5.71875 -0.578125 C -4.671875 -1.6875 -3.21875 -1.9375 -1.984375 -1.9375 C 0.296875 -1.9375 1.375 -1 1.734375 -0.59375 C 1.84375 -0.484375 1.859375 -0.484375 1.890625 -0.484375 C 1.9375 -0.484375 1.984375 -0.5 1.984375 -0.578125 C 1.984375 -0.703125 1.578125 -1.109375 1.515625 -1.171875 C 0.390625 -2.234375 -1.03125 -2.453125 -1.984375 -2.453125 Z M -1.984375 -2.453125 "/>
</g>
<g id="glyph-3-0">
<path d="M 5.171875 -2.140625 C 5.171875 -3.40625 4.21875 -4.390625 3.09375 -4.390625 C 2.328125 -4.390625 1.90625 -3.953125 1.703125 -3.734375 L 1.703125 -4.390625 L 0.28125 -4.28125 L 0.28125 -3.96875 C 0.984375 -3.96875 1.046875 -3.921875 1.046875 -3.484375 L 1.046875 1.171875 C 1.046875 1.625 0.9375 1.625 0.28125 1.625 L 0.28125 1.921875 L 1.390625 1.890625 L 2.515625 1.921875 L 2.515625 1.625 C 1.84375 1.625 1.734375 1.625 1.734375 1.171875 L 1.734375 -0.59375 C 1.78125 -0.421875 2.203125 0.109375 2.96875 0.109375 C 4.140625 0.109375 5.171875 -0.859375 5.171875 -2.140625 Z M 4.359375 -2.140625 C 4.359375 -0.9375 3.65625 -0.109375 2.921875 -0.109375 C 2.53125 -0.109375 2.140625 -0.3125 1.875 -0.71875 C 1.734375 -0.921875 1.734375 -0.9375 1.734375 -1.140625 L 1.734375 -3.34375 C 2.03125 -3.859375 2.515625 -4.140625 3.015625 -4.140625 C 3.75 -4.140625 4.359375 -3.265625 4.359375 -2.140625 Z M 4.359375 -2.140625 "/>
</g>
<g id="glyph-3-1">
<path d="M 4.6875 -2.125 C 4.6875 -3.40625 3.6875 -4.453125 2.484375 -4.453125 C 1.25 -4.453125 0.28125 -3.375 0.28125 -2.125 C 0.28125 -0.84375 1.3125 0.109375 2.46875 0.109375 C 3.671875 0.109375 4.6875 -0.859375 4.6875 -2.125 Z M 3.859375 -2.203125 C 3.859375 -1.84375 3.859375 -1.3125 3.640625 -0.875 C 3.421875 -0.421875 2.984375 -0.140625 2.484375 -0.140625 C 2.0625 -0.140625 1.625 -0.34375 1.34375 -0.8125 C 1.109375 -1.25 1.109375 -1.84375 1.109375 -2.203125 C 1.109375 -2.59375 1.109375 -3.125 1.34375 -3.5625 C 1.609375 -4.03125 2.078125 -4.234375 2.46875 -4.234375 C 2.90625 -4.234375 3.34375 -4.015625 3.59375 -3.59375 C 3.859375 -3.15625 3.859375 -2.578125 3.859375 -2.203125 Z M 3.859375 -2.203125 "/>
</g>
<g id="glyph-3-2">
<path d="M 3.625 -3.78125 C 3.625 -4.109375 3.3125 -4.390625 2.875 -4.390625 C 2.15625 -4.390625 1.796875 -3.734375 1.65625 -3.296875 L 1.65625 -4.390625 L 0.28125 -4.28125 L 0.28125 -3.96875 C 0.96875 -3.96875 1.046875 -3.90625 1.046875 -3.421875 L 1.046875 -0.75 C 1.046875 -0.3125 0.9375 -0.3125 0.28125 -0.3125 L 0.28125 0 L 1.40625 -0.03125 C 1.8125 -0.03125 2.28125 -0.03125 2.671875 0 L 2.671875 -0.3125 L 2.46875 -0.3125 C 1.734375 -0.3125 1.703125 -0.421875 1.703125 -0.78125 L 1.703125 -2.3125 C 1.703125 -3.296875 2.125 -4.171875 2.875 -4.171875 C 2.953125 -4.171875 2.96875 -4.171875 2.984375 -4.15625 C 2.96875 -4.15625 2.765625 -4.03125 2.765625 -3.78125 C 2.765625 -3.5 2.96875 -3.34375 3.1875 -3.34375 C 3.375 -3.34375 3.625 -3.46875 3.625 -3.78125 Z M 3.625 -3.78125 "/>
</g>
<g id="glyph-3-3">
<path d="M 5.234375 0 L 5.234375 -0.3125 C 4.578125 -0.3125 4.46875 -0.3125 4.46875 -0.75 L 4.46875 -4.40625 L 3.203125 -4.3125 C 3.046875 -4.296875 3.03125 -4.296875 3.03125 -4.296875 C 3.015625 -4.28125 2.984375 -4.28125 2.859375 -4.28125 L 1.671875 -4.28125 L 1.671875 -5.40625 C 1.671875 -6.390625 2.53125 -6.78125 3.15625 -6.78125 C 3.453125 -6.78125 3.8125 -6.6875 4 -6.453125 C 3.59375 -6.4375 3.53125 -6.15625 3.53125 -6 C 3.53125 -5.671875 3.796875 -5.546875 3.984375 -5.546875 C 4.21875 -5.546875 4.4375 -5.703125 4.4375 -6 C 4.4375 -6.59375 3.890625 -7 3.15625 -7 C 2.234375 -7 1.046875 -6.5 1.046875 -5.421875 L 1.046875 -4.28125 L 0.265625 -4.28125 L 0.265625 -3.96875 L 1.046875 -3.96875 L 1.046875 -0.75 C 1.046875 -0.3125 0.9375 -0.3125 0.28125 -0.3125 L 0.28125 0 L 1.375 -0.03125 L 2.484375 0 L 2.484375 -0.3125 C 1.8125 -0.3125 1.703125 -0.3125 1.703125 -0.75 L 1.703125 -3.96875 L 3.28125 -3.96875 C 3.734375 -3.96875 3.8125 -3.84375 3.8125 -3.4375 L 3.8125 -0.75 C 3.8125 -0.3125 3.703125 -0.3125 3.03125 -0.3125 L 3.03125 0 L 4.140625 -0.03125 Z M 5.234375 0 "/>
</g>
<g id="glyph-3-4">
<path d="M 2.53125 0 L 2.53125 -0.3125 C 1.875 -0.3125 1.765625 -0.3125 1.765625 -0.75 L 1.765625 -6.890625 L 0.328125 -6.78125 L 0.328125 -6.484375 C 1.03125 -6.484375 1.109375 -6.40625 1.109375 -5.921875 L 1.109375 -0.75 C 1.109375 -0.3125 1 -0.3125 0.328125 -0.3125 L 0.328125 0 L 1.4375 -0.03125 Z M 2.53125 0 "/>
</g>
<g id="glyph-3-5">
<path d="M 4.796875 -0.890625 L 4.796875 -1.4375 L 4.546875 -1.4375 L 4.546875 -0.890625 C 4.546875 -0.3125 4.296875 -0.25 4.1875 -0.25 C 3.859375 -0.25 3.828125 -0.703125 3.828125 -0.75 L 3.828125 -2.734375 C 3.828125 -3.15625 3.828125 -3.53125 3.46875 -3.90625 C 3.078125 -4.296875 2.578125 -4.453125 2.109375 -4.453125 C 1.296875 -4.453125 0.609375 -3.984375 0.609375 -3.328125 C 0.609375 -3.03125 0.8125 -2.859375 1.0625 -2.859375 C 1.34375 -2.859375 1.515625 -3.0625 1.515625 -3.3125 C 1.515625 -3.4375 1.46875 -3.765625 1.015625 -3.78125 C 1.28125 -4.125 1.765625 -4.234375 2.09375 -4.234375 C 2.578125 -4.234375 3.140625 -3.84375 3.140625 -2.96875 L 3.140625 -2.59375 C 2.640625 -2.5625 1.9375 -2.53125 1.3125 -2.234375 C 0.5625 -1.890625 0.3125 -1.375 0.3125 -0.9375 C 0.3125 -0.140625 1.28125 0.109375 1.90625 0.109375 C 2.5625 0.109375 3.015625 -0.28125 3.203125 -0.75 C 3.25 -0.359375 3.515625 0.0625 3.984375 0.0625 C 4.1875 0.0625 4.796875 -0.078125 4.796875 -0.890625 Z M 3.140625 -1.390625 C 3.140625 -0.453125 2.421875 -0.109375 1.984375 -0.109375 C 1.484375 -0.109375 1.078125 -0.453125 1.078125 -0.953125 C 1.078125 -1.5 1.5 -2.328125 3.140625 -2.390625 Z M 3.140625 -1.390625 "/>
</g>
<g id="glyph-3-6">
<path d="M 3.578125 -1.265625 C 3.578125 -1.796875 3.28125 -2.09375 3.15625 -2.21875 C 2.828125 -2.53125 2.4375 -2.609375 2.03125 -2.6875 C 1.46875 -2.796875 0.8125 -2.9375 0.8125 -3.515625 C 0.8125 -3.859375 1.0625 -4.265625 1.921875 -4.265625 C 3.015625 -4.265625 3.0625 -3.375 3.078125 -3.0625 C 3.09375 -2.96875 3.203125 -2.96875 3.203125 -2.96875 C 3.328125 -2.96875 3.328125 -3.015625 3.328125 -3.203125 L 3.328125 -4.21875 C 3.328125 -4.375 3.328125 -4.453125 3.21875 -4.453125 C 3.171875 -4.453125 3.15625 -4.453125 3.015625 -4.328125 C 2.984375 -4.296875 2.890625 -4.203125 2.859375 -4.171875 C 2.46875 -4.453125 2.0625 -4.453125 1.921875 -4.453125 C 0.703125 -4.453125 0.328125 -3.78125 0.328125 -3.234375 C 0.328125 -2.875 0.484375 -2.609375 0.75 -2.390625 C 1.078125 -2.125 1.34375 -2.0625 2.0625 -1.921875 C 2.28125 -1.890625 3.09375 -1.734375 3.09375 -1.015625 C 3.09375 -0.5 2.75 -0.109375 1.984375 -0.109375 C 1.140625 -0.109375 0.78125 -0.671875 0.59375 -1.515625 C 0.5625 -1.65625 0.5625 -1.6875 0.453125 -1.6875 C 0.328125 -1.6875 0.328125 -1.625 0.328125 -1.4375 L 0.328125 -0.125 C 0.328125 0.046875 0.328125 0.109375 0.4375 0.109375 C 0.484375 0.109375 0.5 0.09375 0.6875 -0.09375 C 0.703125 -0.109375 0.703125 -0.125 0.890625 -0.3125 C 1.328125 0.09375 1.765625 0.109375 1.984375 0.109375 C 3.125 0.109375 3.578125 -0.5625 3.578125 -1.265625 Z M 3.578125 -1.265625 "/>
</g>
<g id="glyph-3-7">
<path d="M 3.296875 2.390625 C 3.296875 2.359375 3.296875 2.328125 3.125 2.171875 C 1.875 0.921875 1.5625 -0.96875 1.5625 -2.484375 C 1.5625 -4.21875 1.9375 -5.9375 3.15625 -7.1875 C 3.296875 -7.296875 3.296875 -7.328125 3.296875 -7.359375 C 3.296875 -7.421875 3.25 -7.453125 3.1875 -7.453125 C 3.09375 -7.453125 2.203125 -6.78125 1.609375 -5.515625 C 1.109375 -4.421875 0.984375 -3.3125 0.984375 -2.484375 C 0.984375 -1.703125 1.09375 -0.5 1.640625 0.609375 C 2.234375 1.84375 3.09375 2.484375 3.1875 2.484375 C 3.25 2.484375 3.296875 2.453125 3.296875 2.390625 Z M 3.296875 2.390625 "/>
</g>
<g id="glyph-3-8">
<path d="M 5.234375 0 L 5.234375 -0.3125 C 4.546875 -0.3125 4.46875 -0.375 4.46875 -0.859375 L 4.46875 -6.890625 L 3.03125 -6.78125 L 3.03125 -6.484375 C 3.734375 -6.484375 3.8125 -6.40625 3.8125 -5.921875 L 3.8125 -3.78125 C 3.515625 -4.140625 3.09375 -4.390625 2.546875 -4.390625 C 1.375 -4.390625 0.34375 -3.421875 0.34375 -2.140625 C 0.34375 -0.875 1.3125 0.109375 2.4375 0.109375 C 3.078125 0.109375 3.53125 -0.234375 3.78125 -0.546875 L 3.78125 0.109375 Z M 3.78125 -1.171875 C 3.78125 -1 3.78125 -0.96875 3.671875 -0.8125 C 3.375 -0.328125 2.921875 -0.109375 2.5 -0.109375 C 2.046875 -0.109375 1.6875 -0.375 1.453125 -0.75 C 1.1875 -1.15625 1.15625 -1.71875 1.15625 -2.125 C 1.15625 -2.5 1.1875 -3.09375 1.46875 -3.53125 C 1.671875 -3.84375 2.0625 -4.171875 2.59375 -4.171875 C 2.9375 -4.171875 3.359375 -4.03125 3.671875 -3.578125 C 3.78125 -3.40625 3.78125 -3.390625 3.78125 -3.203125 Z M 3.78125 -1.171875 "/>
</g>
<g id="glyph-3-9">
<path d="M 2.453125 0 L 2.453125 -0.3125 C 1.796875 -0.3125 1.765625 -0.359375 1.765625 -0.75 L 1.765625 -4.390625 L 0.375 -4.28125 L 0.375 -3.96875 C 1.015625 -3.96875 1.109375 -3.921875 1.109375 -3.421875 L 1.109375 -0.75 C 1.109375 -0.3125 1 -0.3125 0.328125 -0.3125 L 0.328125 0 L 1.421875 -0.03125 C 1.765625 -0.03125 2.109375 -0.015625 2.453125 0 Z M 1.90625 -6 C 1.90625 -6.265625 1.671875 -6.53125 1.375 -6.53125 C 1.046875 -6.53125 0.84375 -6.25 0.84375 -6 C 0.84375 -5.734375 1.078125 -5.46875 1.375 -5.46875 C 1.703125 -5.46875 1.90625 -5.75 1.90625 -6 Z M 1.90625 -6 "/>
</g>
<g id="glyph-3-10">
<path d="M 4.125 -1.1875 C 4.125 -1.28125 4.03125 -1.28125 4 -1.28125 C 3.90625 -1.28125 3.890625 -1.25 3.859375 -1.1875 C 3.578125 -0.265625 2.9375 -0.140625 2.5625 -0.140625 C 2.03125 -0.140625 1.15625 -0.5625 1.15625 -2.171875 C 1.15625 -3.78125 1.984375 -4.203125 2.5 -4.203125 C 2.59375 -4.203125 3.21875 -4.1875 3.5625 -3.828125 C 3.15625 -3.8125 3.09375 -3.515625 3.09375 -3.375 C 3.09375 -3.125 3.28125 -2.921875 3.5625 -2.921875 C 3.8125 -2.921875 4.015625 -3.09375 4.015625 -3.390625 C 4.015625 -4.0625 3.265625 -4.453125 2.5 -4.453125 C 1.25 -4.453125 0.34375 -3.375 0.34375 -2.140625 C 0.34375 -0.875 1.328125 0.109375 2.46875 0.109375 C 3.8125 0.109375 4.125 -1.078125 4.125 -1.1875 Z M 4.125 -1.1875 "/>
</g>
<g id="glyph-3-11">
<path d="M 3.296875 -1.234375 L 3.296875 -1.796875 L 3.046875 -1.796875 L 3.046875 -1.25 C 3.046875 -0.515625 2.75 -0.140625 2.390625 -0.140625 C 1.71875 -0.140625 1.71875 -1.046875 1.71875 -1.21875 L 1.71875 -3.96875 L 3.140625 -3.96875 L 3.140625 -4.28125 L 1.71875 -4.28125 L 1.71875 -6.109375 L 1.46875 -6.109375 C 1.453125 -5.296875 1.15625 -4.234375 0.1875 -4.1875 L 0.1875 -3.96875 L 1.03125 -3.96875 L 1.03125 -1.234375 C 1.03125 -0.015625 1.953125 0.109375 2.3125 0.109375 C 3.015625 0.109375 3.296875 -0.59375 3.296875 -1.234375 Z M 3.296875 -1.234375 "/>
</g>
<g id="glyph-3-12">
<path d="M 2.875 -2.484375 C 2.875 -3.265625 2.765625 -4.46875 2.21875 -5.578125 C 1.625 -6.8125 0.765625 -7.453125 0.671875 -7.453125 C 0.609375 -7.453125 0.5625 -7.40625 0.5625 -7.359375 C 0.5625 -7.328125 0.5625 -7.296875 0.75 -7.125 C 1.734375 -6.140625 2.296875 -4.5625 2.296875 -2.484375 C 2.296875 -0.78125 1.921875 0.96875 0.703125 2.21875 C 0.5625 2.328125 0.5625 2.359375 0.5625 2.390625 C 0.5625 2.4375 0.609375 2.484375 0.671875 2.484375 C 0.765625 2.484375 1.65625 1.8125 2.25 0.546875 C 2.75 -0.546875 2.875 -1.65625 2.875 -2.484375 Z M 2.875 -2.484375 "/>
</g>
<g id="glyph-3-13">
<path d="M 5.3125 0 L 5.3125 -0.3125 C 4.625 -0.3125 4.546875 -0.375 4.546875 -0.859375 L 4.546875 -4.390625 L 3.078125 -4.28125 L 3.078125 -3.96875 C 3.78125 -3.96875 3.859375 -3.90625 3.859375 -3.421875 L 3.859375 -1.65625 C 3.859375 -0.78125 3.375 -0.109375 2.65625 -0.109375 C 1.8125 -0.109375 1.78125 -0.578125 1.78125 -1.09375 L 1.78125 -4.390625 L 0.3125 -4.28125 L 0.3125 -3.96875 C 1.09375 -3.96875 1.09375 -3.9375 1.09375 -3.0625 L 1.09375 -1.5625 C 1.09375 -0.796875 1.09375 0.109375 2.609375 0.109375 C 3.15625 0.109375 3.59375 -0.171875 3.890625 -0.78125 L 3.890625 0.109375 Z M 5.3125 0 "/>
</g>
<g id="glyph-3-14">
<path d="M 8.078125 0 L 8.078125 -0.3125 C 7.5625 -0.3125 7.3125 -0.3125 7.296875 -0.609375 L 7.296875 -2.5 C 7.296875 -3.359375 7.296875 -3.671875 7 -4.03125 C 6.859375 -4.1875 6.53125 -4.390625 5.953125 -4.390625 C 5.125 -4.390625 4.6875 -3.796875 4.515625 -3.421875 C 4.375 -4.28125 3.640625 -4.390625 3.1875 -4.390625 C 2.46875 -4.390625 2 -3.96875 1.71875 -3.34375 L 1.71875 -4.390625 L 0.3125 -4.28125 L 0.3125 -3.96875 C 1.015625 -3.96875 1.09375 -3.90625 1.09375 -3.421875 L 1.09375 -0.75 C 1.09375 -0.3125 0.984375 -0.3125 0.3125 -0.3125 L 0.3125 0 L 1.4375 -0.03125 L 2.546875 0 L 2.546875 -0.3125 C 1.890625 -0.3125 1.78125 -0.3125 1.78125 -0.75 L 1.78125 -2.578125 C 1.78125 -3.625 2.484375 -4.171875 3.125 -4.171875 C 3.75 -4.171875 3.859375 -3.640625 3.859375 -3.078125 L 3.859375 -0.75 C 3.859375 -0.3125 3.75 -0.3125 3.078125 -0.3125 L 3.078125 0 L 4.203125 -0.03125 L 5.3125 0 L 5.3125 -0.3125 C 4.65625 -0.3125 4.546875 -0.3125 4.546875 -0.75 L 4.546875 -2.578125 C 4.546875 -3.625 5.25 -4.171875 5.890625 -4.171875 C 6.515625 -4.171875 6.625 -3.640625 6.625 -3.078125 L 6.625 -0.75 C 6.625 -0.3125 6.515625 -0.3125 5.84375 -0.3125 L 5.84375 0 L 6.96875 -0.03125 Z M 8.078125 0 "/>
</g>
<g id="glyph-3-15">
<path d="M 5.3125 0 L 5.3125 -0.3125 C 4.796875 -0.3125 4.546875 -0.3125 4.546875 -0.609375 L 4.546875 -2.5 C 4.546875 -3.359375 4.546875 -3.671875 4.234375 -4.03125 C 4.09375 -4.1875 3.765625 -4.390625 3.1875 -4.390625 C 2.46875 -4.390625 2 -3.96875 1.71875 -3.34375 L 1.71875 -4.390625 L 0.3125 -4.28125 L 0.3125 -3.96875 C 1.015625 -3.96875 1.09375 -3.90625 1.09375 -3.421875 L 1.09375 -0.75 C 1.09375 -0.3125 0.984375 -0.3125 0.3125 -0.3125 L 0.3125 0 L 1.4375 -0.03125 L 2.546875 0 L 2.546875 -0.3125 C 1.890625 -0.3125 1.78125 -0.3125 1.78125 -0.75 L 1.78125 -2.578125 C 1.78125 -3.625 2.484375 -4.171875 3.125 -4.171875 C 3.75 -4.171875 3.859375 -3.640625 3.859375 -3.078125 L 3.859375 -0.75 C 3.859375 -0.3125 3.75 -0.3125 3.078125 -0.3125 L 3.078125 0 L 4.203125 -0.03125 Z M 5.3125 0 "/>
</g>
<g id="glyph-3-16">
<path d="M 5.046875 -3.96875 L 5.046875 -4.28125 C 4.8125 -4.265625 4.53125 -4.25 4.296875 -4.25 L 3.4375 -4.28125 L 3.4375 -3.96875 C 3.75 -3.96875 3.90625 -3.796875 3.90625 -3.546875 C 3.90625 -3.453125 3.890625 -3.421875 3.84375 -3.3125 L 2.84375 -0.859375 L 1.734375 -3.53125 C 1.703125 -3.640625 1.671875 -3.671875 1.671875 -3.71875 C 1.671875 -3.96875 2.046875 -3.96875 2.234375 -3.96875 L 2.234375 -4.28125 L 1.15625 -4.25 C 0.890625 -4.25 0.484375 -4.265625 0.1875 -4.28125 L 0.1875 -3.96875 C 0.671875 -3.96875 0.859375 -3.96875 1 -3.625 L 2.484375 0 L 2.234375 0.59375 C 2.015625 1.140625 1.734375 1.8125 1.109375 1.8125 C 1.046875 1.8125 0.828125 1.8125 0.640625 1.640625 C 0.9375 1.59375 1.03125 1.375 1.03125 1.21875 C 1.03125 0.96875 0.828125 0.8125 0.609375 0.8125 C 0.40625 0.8125 0.1875 0.9375 0.1875 1.234375 C 0.1875 1.671875 0.609375 2.03125 1.109375 2.03125 C 1.734375 2.03125 2.140625 1.46875 2.375 0.90625 L 4.125 -3.34375 C 4.375 -3.96875 4.890625 -3.96875 5.046875 -3.96875 Z M 5.046875 -3.96875 "/>
</g>
</g>
<clipPath id="clip-0">
<path clip-rule="nonzero" d="M 48 185 L 331 185 L 331 227.136719 L 48 227.136719 Z M 48 185 "/>
</clipPath>
</defs>
<path fill="none" stroke-width="0.3985" stroke-linecap="butt" stroke-linejoin="miter" stroke="rgb(87.998962%, 87.998962%, 87.998962%)" stroke-opacity="1" stroke-miterlimit="10" d="M -13.700286 -0.000717986 L -13.700286 224.459173 M 13.69703 -0.000717986 L 13.69703 224.459173 M 41.094346 -0.000717986 L 41.094346 224.459173 M 68.491662 -0.000717986 L 68.491662 224.459173 M 95.888978 -0.000717986 L 95.888978 224.459173 M 123.286294 -0.000717986 L 123.286294 224.459173 M 150.68361 -0.000717986 L 150.68361 224.459173 M 178.080926 -0.000717986 L 178.080926 224.459173 M 205.478242 -0.000717986 L 205.478242 224.459173 M 232.875558 -0.000717986 L 232.875558 224.459173 M 260.272874 -0.000717986 L 260.272874 224.459173 " transform="matrix(0.99776, 0, 0, -0.99776, 59.368812, 227.136002)"/>
<path fill="none" stroke-width="0.3985" stroke-linecap="butt" stroke-linejoin="miter" stroke="rgb(87.998962%, 87.998962%, 87.998962%)" stroke-opacity="1" stroke-miterlimit="10" d="M -26.028686 -0.000717986 L 286.299933 -0.000717986 M -26.028686 52.765933 L 286.299933 52.765933 M -26.028686 105.528669 L 286.299933 105.528669 M -26.028686 158.29532 L 286.299933 158.29532 M -26.028686 211.061972 L 286.299933 211.061972 " transform="matrix(0.99776, 0, 0, -0.99776, 59.368812, 227.136002)"/>
<path fill="none" stroke-width="0.19925" stroke-linecap="butt" stroke-linejoin="miter" stroke="rgb(50%, 50%, 50%)" stroke-opacity="1" stroke-miterlimit="10" d="M -13.700286 -0.000717986 L -13.700286 4.250995 M 13.69703 -0.000717986 L 13.69703 4.250995 M 41.094346 -0.000717986 L 41.094346 4.250995 M 68.491662 -0.000717986 L 68.491662 4.250995 M 95.888978 -0.000717986 L 95.888978 4.250995 M 123.286294 -0.000717986 L 123.286294 4.250995 M 150.68361 -0.000717986 L 150.68361 4.250995 M 178.080926 -0.000717986 L 178.080926 4.250995 M 205.478242 -0.000717986 L 205.478242 4.250995 M 232.875558 -0.000717986 L 232.875558 4.250995 M 260.272874 -0.000717986 L 260.272874 4.250995 M -13.700286 224.459173 L -13.700286 220.20746 M 13.69703 224.459173 L 13.69703 220.20746 M 41.094346 224.459173 L 41.094346 220.20746 M 68.491662 224.459173 L 68.491662 220.20746 M 95.888978 224.459173 L 95.888978 220.20746 M 123.286294 224.459173 L 123.286294 220.20746 M 150.68361 224.459173 L 150.68361 220.20746 M 178.080926 224.459173 L 178.080926 220.20746 M 205.478242 224.459173 L 205.478242 220.20746 M 232.875558 224.459173 L 232.875558 220.20746 M 260.272874 224.459173 L 260.272874 220.20746 " transform="matrix(0.99776, 0, 0, -0.99776, 59.368812, 227.136002)"/>
<path fill="none" stroke-width="0.19925" stroke-linecap="butt" stroke-linejoin="miter" stroke="rgb(50%, 50%, 50%)" stroke-opacity="1" stroke-miterlimit="10" d="M -26.028686 -0.000717986 L -21.776974 -0.000717986 M -26.028686 52.765933 L -21.776974 52.765933 M -26.028686 105.528669 L -21.776974 105.528669 M -26.028686 158.29532 L -21.776974 158.29532 M -26.028686 211.061972 L -21.776974 211.061972 M 286.299933 -0.000717986 L 282.04822 -0.000717986 M 286.299933 52.765933 L 282.04822 52.765933 M 286.299933 105.528669 L 282.04822 105.528669 M 286.299933 158.29532 L 282.04822 158.29532 M 286.299933 211.061972 L 282.04822 211.061972 " transform="matrix(0.99776, 0, 0, -0.99776, 59.368812, 227.136002)"/>
<path fill="none" stroke-width="0.3985" stroke-linecap="butt" stroke-linejoin="miter" stroke="rgb(0%, 0%, 0%)" stroke-opacity="1" stroke-miterlimit="10" d="M -26.028686 -0.000717986 L -26.028686 224.459173 L 286.299933 224.459173 L 286.299933 -0.000717986 Z M -26.028686 -0.000717986 " transform="matrix(0.99776, 0, 0, -0.99776, 59.368812, 227.136002)"/>
<g fill="rgb(0%, 0%, 0%)" fill-opacity="1">
<use xlink:href="#glyph-0-0" x="43.589242" y="235.77261"/>
</g>
<g fill="rgb(0%, 0%, 0%)" fill-opacity="1">
<use xlink:href="#glyph-0-1" x="68.811609" y="235.77261"/>
<use xlink:href="#glyph-0-0" x="73.036637" y="235.77261"/>
</g>
<g fill="rgb(0%, 0%, 0%)" fill-opacity="1">
<use xlink:href="#glyph-0-2" x="96.147232" y="235.77261"/>
<use xlink:href="#glyph-0-0" x="100.372259" y="235.77261"/>
</g>
<g fill="rgb(0%, 0%, 0%)" fill-opacity="1">
<use xlink:href="#glyph-0-3" x="123.482854" y="235.77261"/>
<use xlink:href="#glyph-0-0" x="127.707881" y="235.77261"/>
</g>
<g fill="rgb(0%, 0%, 0%)" fill-opacity="1">
<use xlink:href="#glyph-0-4" x="150.817478" y="235.77261"/>
<use xlink:href="#glyph-0-0" x="155.042506" y="235.77261"/>
</g>
<g fill="rgb(0%, 0%, 0%)" fill-opacity="1">
<use xlink:href="#glyph-0-5" x="178.1531" y="235.77261"/>
<use xlink:href="#glyph-0-0" x="182.378128" y="235.77261"/>
</g>
<g fill="rgb(0%, 0%, 0%)" fill-opacity="1">
<use xlink:href="#glyph-0-6" x="205.488723" y="235.77261"/>
<use xlink:href="#glyph-0-0" x="209.71375" y="235.77261"/>
</g>
<g fill="rgb(0%, 0%, 0%)" fill-opacity="1">
<use xlink:href="#glyph-0-7" x="232.823347" y="235.77261"/>
<use xlink:href="#glyph-0-0" x="237.048375" y="235.77261"/>
</g>
<g fill="rgb(0%, 0%, 0%)" fill-opacity="1">
<use xlink:href="#glyph-0-8" x="260.158969" y="235.77261"/>
<use xlink:href="#glyph-0-0" x="264.383997" y="235.77261"/>
</g>
<g fill="rgb(0%, 0%, 0%)" fill-opacity="1">
<use xlink:href="#glyph-0-9" x="287.494592" y="235.77261"/>
<use xlink:href="#glyph-0-0" x="291.719619" y="235.77261"/>
</g>
<g fill="rgb(0%, 0%, 0%)" fill-opacity="1">
<use xlink:href="#glyph-0-1" x="312.716959" y="235.77261"/>
<use xlink:href="#glyph-0-0" x="316.941986" y="235.77261"/>
<use xlink:href="#glyph-0-0" x="321.167014" y="235.77261"/>
</g>
<g fill="rgb(0%, 0%, 0%)" fill-opacity="1">
<use xlink:href="#glyph-0-0" x="25.662494" y="229.698249"/>
</g>
<g fill="rgb(0%, 0%, 0%)" fill-opacity="1">
<use xlink:href="#glyph-0-5" x="25.662494" y="177.052457"/>
</g>
<g fill="rgb(0%, 0%, 0%)" fill-opacity="1">
<use xlink:href="#glyph-0-1" x="21.437979" y="124.405667"/>
<use xlink:href="#glyph-0-0" x="25.663007" y="124.405667"/>
</g>
<g fill="rgb(0%, 0%, 0%)" fill-opacity="1">
<use xlink:href="#glyph-0-1" x="21.437979" y="71.758877"/>
<use xlink:href="#glyph-0-5" x="25.663007" y="71.758877"/>
</g>
<g fill="rgb(0%, 0%, 0%)" fill-opacity="1">
<use xlink:href="#glyph-0-2" x="21.437979" y="19.113085"/>
<use xlink:href="#glyph-0-0" x="25.663007" y="19.113085"/>
</g>
<path fill="none" stroke-width="0.79701" stroke-linecap="butt" stroke-linejoin="miter" stroke="rgb(12.156677%, 46.665955%, 70.588684%)" stroke-opacity="1" stroke-miterlimit="10" d="M -0.00162774 135.353298 L 54.793004 133.89691 L 123.286294 153.56989 L 260.272874 204.054084 " transform="matrix(0.99776, 0, 0, -0.99776, 59.368812, 227.136002)"/>
<g clip-path="url(#clip-0)">
<path fill="none" stroke-width="0.79701" stroke-linecap="butt" stroke-linejoin="miter" stroke="rgb(78.431702%, 15.684509%, 15.684509%)" stroke-opacity="1" stroke-dasharray="2.98883 2.98883" stroke-miterlimit="10" d="M -0.00162774 7.418247 L 54.793004 30.857476 L 123.286294 28.884306 L 260.272874 7.386926 " transform="matrix(0.99776, 0, 0, -0.99776, 59.368812, 227.136002)"/>
</g>
<path fill-rule="nonzero" fill="rgb(12.156677%, 46.665955%, 70.588684%)" fill-opacity="1" stroke-width="0.79701" stroke-linecap="butt" stroke-linejoin="miter" stroke="rgb(12.156677%, 46.665955%, 70.588684%)" stroke-opacity="1" stroke-miterlimit="10" d="M 1.991118 135.353298 C 1.991118 136.453419 1.102408 137.346044 -0.00162774 137.346044 C -1.101749 137.346044 -1.994373 136.453419 -1.994373 135.353298 C -1.994373 134.253177 -1.101749 133.360553 -0.00162774 133.360553 C 1.102408 133.360553 1.991118 134.253177 1.991118 135.353298 Z M 1.991118 135.353298 " transform="matrix(0.99776, 0, 0, -0.99776, 59.368812, 227.136002)"/>
<path fill-rule="nonzero" fill="rgb(12.156677%, 46.665955%, 70.588684%)" fill-opacity="1" stroke-width="0.79701" stroke-linecap="butt" stroke-linejoin="miter" stroke="rgb(12.156677%, 46.665955%, 70.588684%)" stroke-opacity="1" stroke-miterlimit="10" d="M 56.78575 133.89691 C 56.78575 134.997031 55.893125 135.889656 54.793004 135.889656 C 53.692883 135.889656 52.800259 134.997031 52.800259 133.89691 C 52.800259 132.79679 53.692883 131.904165 54.793004 131.904165 C 55.893125 131.904165 56.78575 132.79679 56.78575 133.89691 Z M 56.78575 133.89691 " transform="matrix(0.99776, 0, 0, -0.99776, 59.368812, 227.136002)"/>
<path fill-rule="nonzero" fill="rgb(12.156677%, 46.665955%, 70.588684%)" fill-opacity="1" stroke-width="0.79701" stroke-linecap="butt" stroke-linejoin="miter" stroke="rgb(12.156677%, 46.665955%, 70.588684%)" stroke-opacity="1" stroke-miterlimit="10" d="M 125.27904 153.56989 C 125.27904 154.670011 124.386415 155.562636 123.286294 155.562636 C 122.186173 155.562636 121.293549 154.670011 121.293549 153.56989 C 121.293549 152.465854 122.186173 151.577145 123.286294 151.577145 C 124.386415 151.577145 125.27904 152.465854 125.27904 153.56989 Z M 125.27904 153.56989 " transform="matrix(0.99776, 0, 0, -0.99776, 59.368812, 227.136002)"/>
<path fill-rule="nonzero" fill="rgb(12.156677%, 46.665955%, 70.588684%)" fill-opacity="1" stroke-width="0.79701" stroke-linecap="butt" stroke-linejoin="miter" stroke="rgb(12.156677%, 46.665955%, 70.588684%)" stroke-opacity="1" stroke-miterlimit="10" d="M 262.26562 204.054084 C 262.26562 205.154205 261.372995 206.04683 260.272874 206.04683 C 259.172753 206.04683 258.280128 205.154205 258.280128 204.054084 C 258.280128 202.953963 259.172753 202.061339 260.272874 202.061339 C 261.372995 202.061339 262.26562 202.953963 262.26562 204.054084 Z M 262.26562 204.054084 " transform="matrix(0.99776, 0, 0, -0.99776, 59.368812, 227.136002)"/>
<path fill-rule="nonzero" fill="rgb(78.431702%, 15.684509%, 15.684509%)" fill-opacity="1" stroke-width="0.79701" stroke-linecap="butt" stroke-linejoin="miter" stroke="rgb(78.431702%, 15.684509%, 15.684509%)" stroke-opacity="1" stroke-dasharray="2.98883 2.98883" stroke-miterlimit="10" d="M -1.994373 5.425501 L 1.991118 5.425501 L 1.991118 9.410992 L -1.994373 9.410992 Z M -1.994373 5.425501 " transform="matrix(0.99776, 0, 0, -0.99776, 59.368812, 227.136002)"/>
<path fill-rule="nonzero" fill="rgb(78.431702%, 15.684509%, 15.684509%)" fill-opacity="1" stroke-width="0.79701" stroke-linecap="butt" stroke-linejoin="miter" stroke="rgb(78.431702%, 15.684509%, 15.684509%)" stroke-opacity="1" stroke-dasharray="2.98883 2.98883" stroke-miterlimit="10" d="M 52.800259 28.864731 L 56.78575 28.864731 L 56.78575 32.850222 L 52.800259 32.850222 Z M 52.800259 28.864731 " transform="matrix(0.99776, 0, 0, -0.99776, 59.368812, 227.136002)"/>
<path fill-rule="nonzero" fill="rgb(78.431702%, 15.684509%, 15.684509%)" fill-opacity="1" stroke-width="0.79701" stroke-linecap="butt" stroke-linejoin="miter" stroke="rgb(78.431702%, 15.684509%, 15.684509%)" stroke-opacity="1" stroke-dasharray="2.98883 2.98883" stroke-miterlimit="10" d="M 121.293549 26.89156 L 125.27904 26.89156 L 125.27904 30.877052 L 121.293549 30.877052 Z M 121.293549 26.89156 " transform="matrix(0.99776, 0, 0, -0.99776, 59.368812, 227.136002)"/>
<path fill-rule="nonzero" fill="rgb(78.431702%, 15.684509%, 15.684509%)" fill-opacity="1" stroke-width="0.79701" stroke-linecap="butt" stroke-linejoin="miter" stroke="rgb(78.431702%, 15.684509%, 15.684509%)" stroke-opacity="1" stroke-dasharray="2.98883 2.98883" stroke-miterlimit="10" d="M 258.280128 5.394181 L 262.26562 5.394181 L 262.26562 9.379672 L 258.280128 9.379672 Z M 258.280128 5.394181 " transform="matrix(0.99776, 0, 0, -0.99776, 59.368812, 227.136002)"/>
<g fill="rgb(0%, 0%, 0%)" fill-opacity="1">
<use xlink:href="#glyph-1-0" x="123.442943" y="248.561894"/>
<use xlink:href="#glyph-1-1" x="126.775729" y="248.561894"/>
<use xlink:href="#glyph-1-2" x="130.530779" y="248.561894"/>
<use xlink:href="#glyph-1-1" x="132.877486" y="248.561894"/>
<use xlink:href="#glyph-1-3" x="136.632536" y="248.561894"/>
<use xlink:href="#glyph-1-4" x="140.387586" y="248.561894"/>
<use xlink:href="#glyph-1-5" x="143.673453" y="248.561894"/>
<use xlink:href="#glyph-1-6" x="146.020161" y="248.561894"/>
<use xlink:href="#glyph-1-5" x="150.478984" y="248.561894"/>
<use xlink:href="#glyph-1-7" x="152.825692" y="248.561894"/>
<use xlink:href="#glyph-1-8" x="157.519902" y="248.561894"/>
<use xlink:href="#glyph-1-7" x="161.744929" y="248.561894"/>
</g>
<g fill="rgb(0%, 0%, 0%)" fill-opacity="1">
<use xlink:href="#glyph-1-7" x="169.254234" y="248.561894"/>
<use xlink:href="#glyph-1-1" x="173.948443" y="248.561894"/>
<use xlink:href="#glyph-1-2" x="177.703493" y="248.561894"/>
</g>
<g fill="rgb(0%, 0%, 0%)" fill-opacity="1">
<use xlink:href="#glyph-1-9" x="182.873247" y="248.561894"/>
<use xlink:href="#glyph-1-2" x="187.567457" y="248.561894"/>
<use xlink:href="#glyph-1-4" x="189.914165" y="248.561894"/>
<use xlink:href="#glyph-1-10" x="193.200032" y="248.561894"/>
<use xlink:href="#glyph-1-11" x="196.493057" y="248.561894"/>
</g>
<g fill="rgb(0%, 0%, 0%)" fill-opacity="1">
<use xlink:href="#glyph-1-12" x="203.533179" y="248.561894"/>
</g>
<g fill="rgb(0%, 0%, 0%)" fill-opacity="1">
<use xlink:href="#glyph-1-13" x="209.634141" y="248.561894"/>
</g>
<g fill="rgb(0%, 0%, 0%)" fill-opacity="1">
<use xlink:href="#glyph-1-14" x="219.490152" y="248.561894"/>
<use xlink:href="#glyph-1-15" x="223.948976" y="248.561894"/>
<use xlink:href="#glyph-1-1" x="228.643186" y="248.561894"/>
</g>
<g fill="rgb(0%, 0%, 0%)" fill-opacity="1">
<use xlink:href="#glyph-1-16" x="235.221283" y="248.561894"/>
<use xlink:href="#glyph-1-8" x="239.915493" y="248.561894"/>
</g>
<g fill="rgb(0%, 0%, 0%)" fill-opacity="1">
<use xlink:href="#glyph-1-0" x="244.132568" y="248.561894"/>
<use xlink:href="#glyph-1-8" x="247.465353" y="248.561894"/>
<use xlink:href="#glyph-1-17" x="251.690381" y="248.561894"/>
</g>
<g fill="rgb(0%, 0%, 0%)" fill-opacity="1">
<use xlink:href="#glyph-2-0" x="12.624768" y="155.813146"/>
<use xlink:href="#glyph-2-1" x="12.624768" y="152.058097"/>
<use xlink:href="#glyph-2-2" x="12.624768" y="147.833069"/>
<use xlink:href="#glyph-2-3" x="12.624768" y="144.500283"/>
<use xlink:href="#glyph-2-4" x="12.624768" y="141.214416"/>
</g>
<g fill="rgb(0%, 0%, 0%)" fill-opacity="1">
<use xlink:href="#glyph-2-5" x="12.624768" y="134.644272"/>
<use xlink:href="#glyph-2-4" x="12.624768" y="129.950062"/>
<use xlink:href="#glyph-2-6" x="12.624768" y="126.195012"/>
</g>
<g fill="rgb(0%, 0%, 0%)" fill-opacity="1">
<use xlink:href="#glyph-2-7" x="12.624768" y="121.03321"/>
<use xlink:href="#glyph-2-6" x="12.624768" y="116.339"/>
</g>
<g fill="rgb(0%, 0%, 0%)" fill-opacity="1">
<use xlink:href="#glyph-2-3" x="12.624768" y="113.98434"/>
<use xlink:href="#glyph-2-8" x="12.624768" y="110.698473"/>
<use xlink:href="#glyph-2-9" x="12.624768" y="107.405448"/>
</g>
<g fill="rgb(0%, 0%, 0%)" fill-opacity="1">
<use xlink:href="#glyph-2-5" x="12.624768" y="103.188373"/>
<use xlink:href="#glyph-2-1" x="12.624768" y="98.494163"/>
</g>
<g fill="rgb(0%, 0%, 0%)" fill-opacity="1">
<use xlink:href="#glyph-2-10" x="12.624768" y="91.446089"/>
<use xlink:href="#glyph-2-11" x="12.624768" y="88.160222"/>
<use xlink:href="#glyph-2-2" x="12.624768" y="81.119304"/>
<use xlink:href="#glyph-2-12" x="12.624768" y="77.786519"/>
</g>
<path fill-rule="nonzero" fill="rgb(100%, 100%, 100%)" fill-opacity="1" stroke-width="0.3985" stroke-linecap="butt" stroke-linejoin="miter" stroke="rgb(0%, 0%, 0%)" stroke-opacity="1" stroke-miterlimit="10" d="M -16.460375 187.638402 L 110.464601 187.638402 L 110.464601 217.529586 L -16.460375 217.529586 Z M -16.460375 187.638402 " transform="matrix(0.99776, 0, 0, -0.99776, 59.368812, 227.136002)"/>
<path fill="none" stroke-width="0.79701" stroke-linecap="butt" stroke-linejoin="miter" stroke="rgb(12.156677%, 46.665955%, 70.588684%)" stroke-opacity="1" stroke-miterlimit="10" d="M -0.0018824 0.000480953 L 17.008883 0.000480953 " transform="matrix(0.99776, 0, 0, -0.99776, 46.326097, 18.547355)"/>
<path fill-rule="nonzero" fill="rgb(12.156677%, 46.665955%, 70.588684%)" fill-opacity="1" stroke-width="0.79701" stroke-linecap="butt" stroke-linejoin="miter" stroke="rgb(12.156677%, 46.665955%, 70.588684%)" stroke-opacity="1" stroke-miterlimit="10" d="M 10.498204 0.000480953 C 10.498204 1.100602 9.605579 1.993227 8.505458 1.993227 C 7.405337 1.993227 6.512712 1.100602 6.512712 0.000480953 C 6.512712 -1.09964 7.405337 -1.992265 8.505458 -1.992265 C 9.605579 -1.992265 10.498204 -1.09964 10.498204 0.000480953 Z M 10.498204 0.000480953 " transform="matrix(0.99776, 0, 0, -0.99776, 46.326097, 18.547355)"/>
<g fill="rgb(0%, 0%, 0%)" fill-opacity="1">
<use xlink:href="#glyph-3-0" x="65.681637" y="21.529659"/>
</g>
<g fill="rgb(0%, 0%, 0%)" fill-opacity="1">
<use xlink:href="#glyph-3-1" x="71.482785" y="21.529659"/>
<use xlink:href="#glyph-3-2" x="76.452925" y="21.529659"/>
</g>
<g fill="rgb(0%, 0%, 0%)" fill-opacity="1">
<use xlink:href="#glyph-3-3" x="83.656647" y="21.529659"/>
<use xlink:href="#glyph-3-4" x="89.179467" y="21.529659"/>
<use xlink:href="#glyph-3-5" x="91.940877" y="21.529659"/>
<use xlink:href="#glyph-3-6" x="96.911017" y="21.529659"/>
</g>
<g fill="rgb(0%, 0%, 0%)" fill-opacity="1">
<use xlink:href="#glyph-3-7" x="104.142571" y="21.529659"/>
<use xlink:href="#glyph-3-8" x="108.008346" y="21.529659"/>
<use xlink:href="#glyph-3-9" x="113.531166" y="21.529659"/>
<use xlink:href="#glyph-3-10" x="116.292576" y="21.529659"/>
<use xlink:href="#glyph-3-11" x="120.711031" y="21.529659"/>
<use xlink:href="#glyph-3-6" x="124.576806" y="21.529659"/>
<use xlink:href="#glyph-3-12" x="128.498247" y="21.529659"/>
</g>
<path fill="none" stroke-width="0.79701" stroke-linecap="butt" stroke-linejoin="miter" stroke="rgb(78.431702%, 15.684509%, 15.684509%)" stroke-opacity="1" stroke-dasharray="2.98883 2.98883" stroke-miterlimit="10" d="M -0.0018824 0.00159195 L 17.008883 0.00159195 " transform="matrix(0.99776, 0, 0, -0.99776, 46.326097, 31.470338)"/>
<path fill-rule="nonzero" fill="rgb(78.431702%, 15.684509%, 15.684509%)" fill-opacity="1" stroke-width="0.79701" stroke-linecap="butt" stroke-linejoin="miter" stroke="rgb(78.431702%, 15.684509%, 15.684509%)" stroke-opacity="1" stroke-dasharray="2.98883 2.98883" stroke-miterlimit="10" d="M 6.512712 -1.991154 L 10.498204 -1.991154 L 10.498204 1.994338 L 6.512712 1.994338 Z M 6.512712 -1.991154 " transform="matrix(0.99776, 0, 0, -0.99776, 46.326097, 31.470338)"/>
<g fill="rgb(0%, 0%, 0%)" fill-opacity="1">
<use xlink:href="#glyph-3-0" x="65.681637" y="34.451644"/>
</g>
<g fill="rgb(0%, 0%, 0%)" fill-opacity="1">
<use xlink:href="#glyph-3-1" x="71.482785" y="34.451644"/>
<use xlink:href="#glyph-3-2" x="76.452925" y="34.451644"/>
</g>
<g fill="rgb(0%, 0%, 0%)" fill-opacity="1">
<use xlink:href="#glyph-3-10" x="83.656647" y="34.451644"/>
<use xlink:href="#glyph-3-1" x="88.075101" y="34.451644"/>
<use xlink:href="#glyph-3-4" x="93.045242" y="34.451644"/>
<use xlink:href="#glyph-3-13" x="95.806652" y="34.451644"/>
<use xlink:href="#glyph-3-14" x="101.329472" y="34.451644"/>
<use xlink:href="#glyph-3-15" x="109.612708" y="34.451644"/>
<use xlink:href="#glyph-3-5" x="115.135528" y="34.451644"/>
<use xlink:href="#glyph-3-6" x="120.105668" y="34.451644"/>
</g>
<g fill="rgb(0%, 0%, 0%)" fill-opacity="1">
<use xlink:href="#glyph-3-7" x="127.337222" y="34.451644"/>
<use xlink:href="#glyph-3-15" x="131.202997" y="34.451644"/>
</g>
<g fill="rgb(0%, 0%, 0%)" fill-opacity="1">
<use xlink:href="#glyph-3-13" x="136.447489" y="34.451644"/>
<use xlink:href="#glyph-3-14" x="141.970309" y="34.451644"/>
<use xlink:href="#glyph-3-0" x="150.253545" y="34.451644"/>
</g>
<g fill="rgb(0%, 0%, 0%)" fill-opacity="1">
<use xlink:href="#glyph-3-16" x="155.498037" y="34.451644"/>
<use xlink:href="#glyph-3-12" x="160.744517" y="34.451644"/>
</g>
</svg>
