<?xml version="1.0" encoding="UTF-8"?>
<svg xmlns="http://www.w3.org/2000/svg" xmlns:xlink="http://www.w3.org/1999/xlink" width="678.066" height="177.923" viewBox="0 0 308.212 80.874">
<defs>
<g>
<g id="glyph-0-0">
<path d="M 6.359375 0 L 6.359375 -0.25 C 5.90625 -0.25 5.828125 -0.25 5.828125 -0.546875 L 5.828125 -2.109375 C 5.828125 -2.71875 5.53125 -3.0625 4.765625 -3.0625 C 4.203125 -3.0625 3.828125 -2.765625 3.625 -2.421875 C 3.484375 -2.90625 3.109375 -3.0625 2.59375 -3.0625 C 2 -3.0625 1.625 -2.75 1.4375 -2.390625 L 1.421875 -2.390625 L 1.421875 -3.0625 L 0.390625 -2.984375 L 0.390625 -2.734375 C 0.859375 -2.734375 0.921875 -2.6875 0.921875 -2.34375 L 0.921875 -0.546875 C 0.921875 -0.25 0.84375 -0.25 0.390625 -0.25 L 0.390625 0 C 0.390625 0 0.890625 -0.03125 1.1875 -0.03125 C 1.453125 -0.03125 1.9375 0 2 0 L 2 -0.25 C 1.546875 -0.25 1.46875 -0.25 1.46875 -0.546875 L 1.46875 -1.796875 C 1.46875 -2.53125 2.0625 -2.875 2.53125 -2.875 C 3.03125 -2.875 3.09375 -2.484375 3.09375 -2.140625 L 3.09375 -0.546875 C 3.09375 -0.25 3.015625 -0.25 2.5625 -0.25 L 2.5625 0 C 2.5625 0 3.078125 -0.03125 3.375 -0.03125 C 3.625 -0.03125 4.125 0 4.1875 0 L 4.1875 -0.25 C 3.71875 -0.25 3.65625 -0.25 3.65625 -0.546875 L 3.65625 -1.796875 C 3.65625 -2.53125 4.234375 -2.875 4.703125 -2.875 C 5.203125 -2.875 5.265625 -2.484375 5.265625 -2.140625 L 5.265625 -0.546875 C 5.265625 -0.25 5.203125 -0.25 4.734375 -0.25 L 4.734375 0 C 4.734375 0 5.25 -0.03125 5.546875 -0.03125 C 5.8125 -0.03125 6.296875 0 6.359375 0 Z M 6.359375 0 "/>
</g>
<g id="glyph-0-1">
<path d="M 3.75 -1.484375 C 3.75 -2.34375 3 -3.09375 2.015625 -3.09375 C 1.03125 -3.09375 0.28125 -2.34375 0.28125 -1.484375 C 0.28125 -0.625 1.0625 0.0625 2.015625 0.0625 C 2.96875 0.0625 3.75 -0.625 3.75 -1.484375 Z M 3.109375 -1.546875 C 3.109375 -1.203125 3.078125 -0.84375 2.875 -0.5625 C 2.6875 -0.296875 2.359375 -0.15625 2.015625 -0.15625 C 1.75 -0.15625 1.375 -0.234375 1.140625 -0.578125 C 0.9375 -0.859375 0.921875 -1.21875 0.921875 -1.546875 C 0.921875 -1.84375 0.921875 -2.25 1.171875 -2.546875 C 1.359375 -2.75 1.65625 -2.90625 2.015625 -2.90625 C 2.4375 -2.90625 2.734375 -2.71875 2.890625 -2.5 C 3.078125 -2.21875 3.109375 -1.875 3.109375 -1.546875 Z M 3.109375 -1.546875 "/>
</g>
<g id="glyph-0-2">
<path d="M 4.125 0 L 4.125 -0.25 C 3.640625 -0.25 3.59375 -0.296875 3.59375 -0.640625 L 3.59375 -4.828125 L 2.53125 -4.75 L 2.53125 -4.5 C 3 -4.5 3.0625 -4.453125 3.0625 -4.109375 L 3.0625 -2.671875 C 2.796875 -2.921875 2.453125 -3.0625 2.0625 -3.0625 C 1.125 -3.0625 0.328125 -2.375 0.328125 -1.5 C 0.328125 -0.625 1.078125 0.0625 1.984375 0.0625 C 2.5625 0.0625 2.90625 -0.234375 3.03125 -0.359375 L 3.03125 0.0625 Z M 3.03125 -0.734375 C 2.84375 -0.40625 2.484375 -0.125 2.015625 -0.125 C 1.625 -0.125 1.34375 -0.359375 1.203125 -0.5625 C 1.0625 -0.765625 0.96875 -1.046875 0.96875 -1.484375 C 0.96875 -1.640625 0.96875 -2.171875 1.265625 -2.5 C 1.546875 -2.8125 1.890625 -2.875 2.09375 -2.875 C 2.4375 -2.875 2.75 -2.71875 2.9375 -2.46875 C 3.03125 -2.359375 3.03125 -2.34375 3.03125 -2.21875 Z M 3.03125 -0.734375 "/>
</g>
<g id="glyph-0-3">
<path d="M 3.3125 -0.828125 C 3.3125 -0.859375 3.3125 -0.9375 3.203125 -0.9375 C 3.109375 -0.9375 3.09375 -0.890625 3.078125 -0.828125 C 2.859375 -0.25 2.3125 -0.15625 2.0625 -0.15625 C 1.71875 -0.15625 1.40625 -0.296875 1.1875 -0.5625 C 0.921875 -0.890625 0.921875 -1.3125 0.921875 -1.578125 L 3.125 -1.578125 C 3.265625 -1.578125 3.3125 -1.578125 3.3125 -1.734375 C 3.3125 -2.34375 2.96875 -3.09375 1.921875 -3.09375 C 0.984375 -3.09375 0.28125 -2.375 0.28125 -1.515625 C 0.28125 -0.640625 1.0625 0.0625 2 0.0625 C 2.96875 0.0625 3.3125 -0.6875 3.3125 -0.828125 Z M 2.828125 -1.765625 L 0.921875 -1.765625 C 1 -2.75 1.640625 -2.90625 1.921875 -2.90625 C 2.78125 -2.90625 2.8125 -1.9375 2.828125 -1.765625 Z M 2.828125 -1.765625 "/>
</g>
<g id="glyph-0-4">
<path d="M 2 0 L 2 -0.25 C 1.53125 -0.25 1.46875 -0.25 1.46875 -0.546875 L 1.46875 -4.828125 L 0.390625 -4.75 L 0.390625 -4.5 C 0.875 -4.5 0.921875 -4.453125 0.921875 -4.109375 L 0.921875 -0.546875 C 0.921875 -0.25 0.859375 -0.25 0.390625 -0.25 L 0.390625 0 C 0.390625 0 0.90625 -0.03125 1.1875 -0.03125 C 1.46875 -0.03125 1.71875 -0.015625 2 0 Z M 2 0 "/>
</g>
<g id="glyph-0-5">
<path d="M 5.65625 0 L 5.65625 -0.25 L 5.515625 -0.25 C 5.03125 -0.25 4.984375 -0.3125 4.90625 -0.515625 L 3.1875 -4.796875 C 3.140625 -4.90625 3.125 -4.953125 2.984375 -4.953125 C 2.859375 -4.953125 2.828125 -4.90625 2.78125 -4.796875 L 1.15625 -0.734375 C 1.078125 -0.5625 0.953125 -0.25 0.3125 -0.25 L 0.3125 0 C 0.5625 -0.015625 0.8125 -0.03125 1.046875 -0.03125 C 1.328125 -0.03125 1.859375 0 1.90625 0 L 1.90625 -0.25 C 1.59375 -0.25 1.390625 -0.390625 1.390625 -0.578125 C 1.390625 -0.640625 1.390625 -0.65625 1.421875 -0.71875 L 1.765625 -1.578125 L 3.78125 -1.578125 L 4.1875 -0.5625 C 4.203125 -0.53125 4.234375 -0.484375 4.234375 -0.4375 C 4.234375 -0.25 3.84375 -0.25 3.65625 -0.25 L 3.65625 0 L 4.703125 -0.03125 C 5.046875 -0.03125 5.578125 0 5.65625 0 Z M 3.6875 -1.828125 L 1.859375 -1.828125 L 2.78125 -4.09375 Z M 3.6875 -1.828125 "/>
</g>
<g id="glyph-0-6">
<path d="M 5.171875 -1.265625 C 5.171875 -1.875 4.546875 -2.390625 3.671875 -2.484375 C 4.375 -2.609375 4.953125 -3.03125 4.953125 -3.5625 C 4.953125 -4.1875 4.203125 -4.75 3.21875 -4.75 L 0.421875 -4.75 L 0.421875 -4.5 L 0.59375 -4.5 C 1.140625 -4.5 1.15625 -4.421875 1.15625 -4.1875 L 1.15625 -0.5625 C 1.15625 -0.328125 1.140625 -0.25 0.59375 -0.25 L 0.421875 -0.25 L 0.421875 0 L 3.4375 0 C 4.4375 0 5.171875 -0.609375 5.171875 -1.265625 Z M 4.234375 -3.5625 C 4.234375 -3.078125 3.765625 -2.5625 2.953125 -2.5625 L 1.78125 -2.5625 L 1.78125 -4.234375 C 1.78125 -4.4375 1.78125 -4.5 2.125 -4.5 L 3.171875 -4.5 C 3.875 -4.5 4.234375 -4 4.234375 -3.5625 Z M 4.4375 -1.28125 C 4.4375 -0.765625 3.96875 -0.25 3.1875 -0.25 L 2.125 -0.25 C 1.78125 -0.25 1.78125 -0.3125 1.78125 -0.515625 L 1.78125 -2.375 L 3.296875 -2.375 C 4.046875 -2.375 4.4375 -1.765625 4.4375 -1.28125 Z M 4.4375 -1.28125 "/>
</g>
<g id="glyph-0-7">
<path d="M 5.28125 -1.625 C 5.28125 -1.703125 5.265625 -1.765625 5.15625 -1.765625 C 5.109375 -1.765625 5.046875 -1.765625 5.03125 -1.671875 C 4.984375 -0.546875 4.015625 -0.109375 3.3125 -0.109375 C 2.546875 -0.109375 1.25 -0.5625 1.25 -2.375 C 1.25 -4.25 2.625 -4.640625 3.296875 -4.640625 C 4 -4.640625 4.84375 -4.171875 5.015625 -2.984375 C 5.03125 -2.90625 5.09375 -2.90625 5.15625 -2.90625 C 5.28125 -2.90625 5.28125 -2.9375 5.28125 -3.078125 L 5.28125 -4.703125 C 5.28125 -4.828125 5.28125 -4.890625 5.171875 -4.890625 C 5.15625 -4.890625 5.109375 -4.890625 5.0625 -4.8125 L 4.6875 -4.28125 C 4.390625 -4.5625 3.890625 -4.890625 3.21875 -4.890625 C 1.71875 -4.890625 0.5 -3.765625 0.5 -2.375 C 0.5 -0.96875 1.75 0.140625 3.21875 0.140625 C 4.46875 0.140625 5.28125 -0.78125 5.28125 -1.625 Z M 5.28125 -1.625 "/>
</g>
<g id="glyph-0-8">
<path d="M 6.84375 0 L 6.84375 -0.25 L 6.671875 -0.25 C 6.125 -0.25 6.109375 -0.3125 6.109375 -0.5625 L 6.109375 -4.1875 C 6.109375 -4.421875 6.125 -4.5 6.671875 -4.5 L 6.84375 -4.5 L 6.84375 -4.75 L 5.609375 -4.75 C 5.46875 -4.75 5.40625 -4.75 5.34375 -4.609375 L 3.640625 -0.671875 L 1.953125 -4.59375 C 1.890625 -4.75 1.828125 -4.75 1.6875 -4.75 L 0.4375 -4.75 L 0.4375 -4.5 L 0.609375 -4.5 C 1.15625 -4.5 1.171875 -4.421875 1.171875 -4.1875 L 1.171875 -0.75 C 1.171875 -0.5625 1.171875 -0.25 0.4375 -0.25 L 0.4375 0 C 0.734375 -0.015625 1.015625 -0.03125 1.3125 -0.03125 C 1.59375 -0.03125 1.875 -0.015625 2.171875 0 L 2.171875 -0.25 C 1.4375 -0.25 1.4375 -0.5625 1.4375 -0.75 L 1.4375 -4.421875 L 1.453125 -4.421875 L 3.296875 -0.15625 C 3.328125 -0.078125 3.359375 0 3.46875 0 C 3.515625 0 3.578125 -0.015625 3.640625 -0.140625 L 5.515625 -4.484375 L 5.515625 -0.5625 C 5.515625 -0.328125 5.5 -0.25 4.953125 -0.25 L 4.78125 -0.25 L 4.78125 0 L 5.8125 -0.03125 Z M 6.84375 0 "/>
</g>
<g id="glyph-0-9">
<path d="M 5.4375 -3.09375 L 5.28125 -4.703125 L 0.484375 -4.703125 L 0.34375 -3.09375 L 0.578125 -3.09375 C 0.6875 -4.296875 0.890625 -4.453125 1.984375 -4.453125 C 2.125 -4.453125 2.328125 -4.453125 2.390625 -4.4375 C 2.546875 -4.421875 2.546875 -4.34375 2.546875 -4.171875 L 2.546875 -0.5625 C 2.546875 -0.34375 2.546875 -0.25 1.8125 -0.25 L 1.515625 -0.25 L 1.515625 0 C 1.859375 -0.03125 2.53125 -0.03125 2.890625 -0.03125 C 3.265625 -0.03125 3.921875 -0.03125 4.265625 0 L 4.265625 -0.25 L 3.96875 -0.25 C 3.234375 -0.25 3.234375 -0.34375 3.234375 -0.5625 L 3.234375 -4.171875 C 3.234375 -4.34375 3.234375 -4.421875 3.390625 -4.4375 C 3.453125 -4.453125 3.65625 -4.453125 3.796875 -4.453125 C 4.203125 -4.453125 4.5 -4.453125 4.75 -4.3125 C 5.078125 -4.125 5.125 -3.671875 5.125 -3.640625 L 5.1875 -3.09375 Z M 5.4375 -3.09375 "/>
</g>
<g id="glyph-0-10">
<path d="M 5.171875 -1.828125 L 4.921875 -1.828125 C 4.734375 -0.78125 4.578125 -0.25 3.265625 -0.25 L 2.140625 -0.25 C 1.8125 -0.25 1.796875 -0.3125 1.796875 -0.515625 L 1.796875 -2.328125 L 2.515625 -2.328125 C 3.234375 -2.328125 3.34375 -2.125 3.34375 -1.515625 L 3.578125 -1.515625 L 3.578125 -3.390625 L 3.34375 -3.390625 C 3.34375 -2.78125 3.234375 -2.578125 2.515625 -2.578125 L 1.796875 -2.578125 L 1.796875 -4.203125 C 1.796875 -4.421875 1.8125 -4.46875 2.140625 -4.46875 L 3.203125 -4.46875 C 4.375 -4.46875 4.578125 -4.09375 4.703125 -3.125 L 4.9375 -3.125 L 4.734375 -4.71875 L 0.390625 -4.71875 L 0.390625 -4.46875 L 0.5625 -4.46875 C 1.109375 -4.46875 1.125 -4.40625 1.125 -4.15625 L 1.125 -0.5625 C 1.125 -0.328125 1.109375 -0.25 0.5625 -0.25 L 0.390625 -0.25 L 0.390625 0 L 4.84375 0 Z M 5.171875 -1.828125 "/>
</g>
<g id="glyph-0-11">
<path d="M 2.65625 1.640625 C 2.65625 1.609375 2.640625 1.59375 2.59375 1.546875 C 1.640625 0.703125 1.296875 -0.46875 1.296875 -1.734375 C 1.296875 -3.609375 2.03125 -4.53125 2.609375 -5.046875 C 2.640625 -5.078125 2.65625 -5.09375 2.65625 -5.125 C 2.65625 -5.21875 2.578125 -5.21875 2.515625 -5.21875 C 1.171875 -4.28125 0.8125 -2.8125 0.8125 -1.75 C 0.8125 -0.765625 1.109375 0.765625 2.515625 1.734375 C 2.578125 1.734375 2.65625 1.734375 2.65625 1.640625 Z M 2.65625 1.640625 "/>
</g>
<g id="glyph-0-12">
<path d="M 3.3125 -0.828125 C 3.3125 -0.921875 3.234375 -0.921875 3.203125 -0.921875 C 3.109375 -0.921875 3.09375 -0.890625 3.0625 -0.796875 C 2.90625 -0.375 2.53125 -0.15625 2.09375 -0.15625 C 1.609375 -0.15625 0.96875 -0.5 0.96875 -1.515625 C 0.96875 -2.390625 1.40625 -2.875 2.078125 -2.875 C 2.15625 -2.875 2.5 -2.875 2.765625 -2.78125 C 2.625 -2.71875 2.5625 -2.609375 2.5625 -2.46875 C 2.5625 -2.28125 2.703125 -2.140625 2.890625 -2.140625 C 3.078125 -2.140625 3.234375 -2.265625 3.234375 -2.484375 C 3.234375 -3.09375 2.25 -3.09375 2.046875 -3.09375 C 0.984375 -3.09375 0.328125 -2.296875 0.328125 -1.5 C 0.328125 -0.625 1.078125 0.0625 2.015625 0.0625 C 3.078125 0.0625 3.3125 -0.75 3.3125 -0.828125 Z M 3.3125 -0.828125 "/>
</g>
<g id="glyph-0-13">
<path d="M 4.1875 0 L 4.1875 -0.25 C 3.71875 -0.25 3.65625 -0.25 3.65625 -0.546875 L 3.65625 -2.109375 C 3.65625 -2.71875 3.34375 -3.0625 2.59375 -3.0625 C 2 -3.0625 1.625 -2.75 1.4375 -2.390625 L 1.421875 -2.390625 L 1.421875 -3.0625 L 0.390625 -2.984375 L 0.390625 -2.734375 C 0.859375 -2.734375 0.921875 -2.6875 0.921875 -2.34375 L 0.921875 -0.546875 C 0.921875 -0.25 0.84375 -0.25 0.390625 -0.25 L 0.390625 0 C 0.390625 0 0.890625 -0.03125 1.1875 -0.03125 C 1.453125 -0.03125 1.9375 0 2 0 L 2 -0.25 C 1.546875 -0.25 1.46875 -0.25 1.46875 -0.546875 L 1.46875 -1.796875 C 1.46875 -2.53125 2.0625 -2.875 2.53125 -2.875 C 3.03125 -2.875 3.09375 -2.484375 3.09375 -2.140625 L 3.09375 -0.546875 C 3.09375 -0.25 3.015625 -0.25 2.5625 -0.25 L 2.5625 0 C 2.5625 0 3.078125 -0.03125 3.375 -0.03125 C 3.625 -0.03125 4.125 0 4.1875 0 Z M 4.1875 0 "/>
</g>
<g id="glyph-0-14">
<path d="M 3.859375 -0.625 L 3.859375 -1.015625 L 3.625 -1.015625 L 3.625 -0.625 C 3.625 -0.5625 3.625 -0.234375 3.359375 -0.234375 C 3.09375 -0.234375 3.09375 -0.5625 3.09375 -0.640625 L 3.09375 -1.859375 C 3.09375 -2.234375 3.09375 -2.5 2.765625 -2.75 C 2.46875 -2.984375 2.140625 -3.09375 1.71875 -3.09375 C 1.046875 -3.09375 0.5625 -2.84375 0.5625 -2.421875 C 0.5625 -2.203125 0.71875 -2.09375 0.90625 -2.09375 C 1.09375 -2.09375 1.234375 -2.21875 1.234375 -2.40625 C 1.234375 -2.53125 1.1875 -2.671875 1 -2.734375 C 1.25 -2.90625 1.65625 -2.90625 1.703125 -2.90625 C 2.09375 -2.90625 2.53125 -2.65625 2.53125 -2.0625 L 2.53125 -1.84375 C 2.140625 -1.828125 1.671875 -1.8125 1.15625 -1.625 C 0.515625 -1.390625 0.3125 -1.015625 0.3125 -0.703125 C 0.3125 -0.109375 1.0625 0.0625 1.5625 0.0625 C 2.125 0.0625 2.46875 -0.25 2.609375 -0.515625 C 2.640625 -0.234375 2.828125 0.03125 3.15625 0.03125 C 3.15625 0.03125 3.859375 0.03125 3.859375 -0.625 Z M 2.53125 -0.984375 C 2.53125 -0.3125 1.9375 -0.125 1.625 -0.125 C 1.25 -0.125 0.921875 -0.359375 0.921875 -0.703125 C 0.921875 -1.078125 1.25 -1.625 2.53125 -1.671875 Z M 2.53125 -0.984375 "/>
</g>
<g id="glyph-0-15">
<path d="M 2.890625 -0.90625 C 2.890625 -1.171875 2.765625 -1.390625 2.578125 -1.546875 C 2.3125 -1.796875 1.984375 -1.84375 1.734375 -1.890625 C 1.171875 -1.984375 0.703125 -2.078125 0.703125 -2.4375 C 0.703125 -2.65625 0.90625 -2.9375 1.578125 -2.9375 C 2.390625 -2.9375 2.4375 -2.375 2.453125 -2.171875 C 2.453125 -2.09375 2.546875 -2.09375 2.5625 -2.09375 C 2.6875 -2.09375 2.6875 -2.140625 2.6875 -2.28125 L 2.6875 -2.921875 C 2.6875 -3.03125 2.6875 -3.09375 2.59375 -3.09375 C 2.546875 -3.09375 2.546875 -3.09375 2.453125 -3.015625 C 2.4375 -3.015625 2.359375 -2.953125 2.3125 -2.90625 C 2.109375 -3.0625 1.84375 -3.09375 1.578125 -3.09375 C 0.5625 -3.09375 0.3125 -2.578125 0.3125 -2.234375 C 0.3125 -2.015625 0.421875 -1.828125 0.59375 -1.6875 C 0.859375 -1.453125 1.125 -1.40625 1.5625 -1.34375 C 1.921875 -1.28125 2.5 -1.1875 2.5 -0.71875 C 2.5 -0.4375 2.3125 -0.125 1.625 -0.125 C 0.9375 -0.125 0.6875 -0.5625 0.5625 -1.03125 C 0.546875 -1.125 0.546875 -1.15625 0.4375 -1.15625 C 0.3125 -1.15625 0.3125 -1.109375 0.3125 -0.96875 L 0.3125 -0.109375 C 0.3125 0 0.3125 0.0625 0.421875 0.0625 C 0.484375 0.0625 0.609375 -0.078125 0.765625 -0.234375 C 1.078125 0.0625 1.453125 0.0625 1.625 0.0625 C 2.546875 0.0625 2.890625 -0.421875 2.890625 -0.90625 Z M 2.890625 -0.90625 "/>
</g>
<g id="glyph-0-16">
<path d="M 2.65625 -0.875 L 2.65625 -1.265625 L 2.421875 -1.265625 L 2.421875 -0.890625 C 2.421875 -0.40625 2.1875 -0.15625 1.921875 -0.15625 C 1.421875 -0.15625 1.421875 -0.734375 1.421875 -0.859375 L 1.421875 -2.75 L 2.53125 -2.75 L 2.53125 -3 L 1.421875 -3 L 1.421875 -4.28125 L 1.1875 -4.28125 C 1.171875 -3.65625 0.890625 -2.96875 0.203125 -2.9375 L 0.203125 -2.75 L 0.859375 -2.75 L 0.859375 -0.875 C 0.859375 -0.09375 1.46875 0.0625 1.859375 0.0625 C 2.328125 0.0625 2.65625 -0.328125 2.65625 -0.875 Z M 2.65625 -0.875 "/>
</g>
<g id="glyph-0-17">
<path d="M 2.890625 -2.625 C 2.890625 -2.859375 2.65625 -3.0625 2.328125 -3.0625 C 1.96875 -3.0625 1.578125 -2.84375 1.375 -2.328125 L 1.359375 -2.328125 L 1.359375 -3.0625 L 0.34375 -2.984375 L 0.34375 -2.734375 C 0.828125 -2.734375 0.875 -2.6875 0.875 -2.34375 L 0.875 -0.546875 C 0.875 -0.25 0.8125 -0.25 0.34375 -0.25 L 0.34375 0 C 0.390625 0 0.859375 -0.03125 1.15625 -0.03125 L 2.078125 0 L 2.078125 -0.25 L 1.9375 -0.25 C 1.40625 -0.25 1.40625 -0.328125 1.40625 -0.5625 L 1.40625 -1.578125 C 1.40625 -2.171875 1.6875 -2.875 2.359375 -2.875 C 2.296875 -2.828125 2.234375 -2.734375 2.234375 -2.625 C 2.234375 -2.390625 2.421875 -2.296875 2.5625 -2.296875 C 2.734375 -2.296875 2.890625 -2.40625 2.890625 -2.625 Z M 2.890625 -2.625 "/>
</g>
<g id="glyph-0-18">
<path d="M 2.34375 -1.734375 C 2.34375 -2.71875 2.046875 -4.234375 0.640625 -5.21875 C 0.59375 -5.21875 0.5 -5.21875 0.5 -5.125 C 0.5 -5.09375 0.53125 -5.078125 0.5625 -5.03125 C 1.171875 -4.484375 1.859375 -3.546875 1.859375 -1.75 C 1.859375 -0.296875 1.390625 0.8125 0.625 1.484375 C 0.515625 1.609375 0.5 1.609375 0.5 1.640625 C 0.5 1.6875 0.53125 1.734375 0.59375 1.734375 C 0.6875 1.734375 1.359375 1.265625 1.828125 0.40625 C 2.140625 -0.171875 2.34375 -0.921875 2.34375 -1.734375 Z M 2.34375 -1.734375 "/>
</g>
<g id="glyph-0-19">
<path d="M 1.71875 0.3125 L 1.71875 -3.0625 L 0.609375 -2.984375 L 0.609375 -2.734375 C 1.125 -2.734375 1.1875 -2.6875 1.1875 -2.34375 L 1.1875 0.328125 C 1.1875 0.59375 1.140625 1.21875 0.65625 1.21875 C 0.640625 1.21875 0.46875 1.21875 0.3125 1.15625 C 0.3125 1.140625 0.484375 1.0625 0.484375 0.859375 C 0.484375 0.671875 0.34375 0.53125 0.15625 0.53125 C -0.0625 0.53125 -0.1875 0.671875 -0.1875 0.859375 C -0.1875 1.234375 0.234375 1.421875 0.671875 1.421875 C 1.234375 1.421875 1.71875 0.984375 1.71875 0.3125 Z M 1.71875 -4.1875 C 1.71875 -4.40625 1.546875 -4.59375 1.3125 -4.59375 C 1.078125 -4.59375 0.921875 -4.390625 0.921875 -4.1875 C 0.921875 -3.96875 1.09375 -3.796875 1.3125 -3.796875 C 1.5625 -3.796875 1.71875 -3.984375 1.71875 -4.1875 Z M 1.71875 -4.1875 "/>
</g>
<g id="glyph-0-20">
<path d="M 4.140625 -1.5 C 4.140625 -2.359375 3.421875 -3.0625 2.515625 -3.0625 C 2.109375 -3.0625 1.703125 -2.921875 1.40625 -2.640625 L 1.40625 -3.0625 L 0.34375 -2.984375 L 0.34375 -2.734375 C 0.84375 -2.734375 0.875 -2.703125 0.875 -2.40625 L 0.875 0.796875 C 0.875 1.09375 0.8125 1.09375 0.34375 1.09375 L 0.34375 1.34375 C 0.34375 1.34375 0.859375 1.328125 1.15625 1.328125 C 1.421875 1.328125 1.90625 1.34375 1.96875 1.34375 L 1.96875 1.09375 C 1.515625 1.09375 1.4375 1.09375 1.4375 0.796875 L 1.4375 -0.328125 C 1.46875 -0.296875 1.8125 0.0625 2.40625 0.0625 C 3.34375 0.0625 4.140625 -0.625 4.140625 -1.5 Z M 3.5 -1.5 C 3.5 -0.703125 2.96875 -0.125 2.359375 -0.125 C 1.734375 -0.125 1.46875 -0.65625 1.4375 -0.703125 L 1.4375 -2.3125 C 1.65625 -2.65625 2.0625 -2.84375 2.4375 -2.84375 C 3.03125 -2.84375 3.5 -2.234375 3.5 -1.5 Z M 3.5 -1.5 "/>
</g>
<g id="glyph-0-21">
<path d="M 1.9375 0 L 1.9375 -0.25 C 1.53125 -0.25 1.46875 -0.25 1.46875 -0.546875 L 1.46875 -3.0625 L 0.421875 -2.984375 L 0.421875 -2.734375 C 0.859375 -2.734375 0.921875 -2.703125 0.921875 -2.359375 L 0.921875 -0.546875 C 0.921875 -0.25 0.859375 -0.25 0.390625 -0.25 L 0.390625 0 C 0.390625 0 0.90625 -0.03125 1.1875 -0.03125 C 1.4375 -0.03125 1.703125 -0.015625 1.9375 0 Z M 1.546875 -4.1875 C 1.546875 -4.40625 1.375 -4.59375 1.15625 -4.59375 C 0.90625 -4.59375 0.75 -4.390625 0.75 -4.1875 C 0.75 -3.96875 0.921875 -3.796875 1.15625 -3.796875 C 1.390625 -3.796875 1.546875 -3.984375 1.546875 -4.1875 Z M 1.546875 -4.1875 "/>
</g>
</g>
<clipPath id="clip-0">
<path clip-rule="nonzero" d="M 0 0.0390625 L 78 0.0390625 L 78 29 L 0 29 Z M 0 0.0390625 "/>
</clipPath>
<clipPath id="clip-1">
<path clip-rule="nonzero" d="M 0 52 L 78 52 L 78 80.707031 L 0 80.707031 Z M 0 52 "/>
</clipPath>
</defs>
<path fill-rule="nonzero" fill="rgb(80.39093%, 87.841797%, 94.900513%)" fill-opacity="1" d="M 70.019531 3.222656 L 5.167969 3.222656 C 4.070312 3.222656 3.179688 4.109375 3.179688 5.207031 L 3.179688 21.027344 C 3.179688 22.125 4.070312 23.011719 5.167969 23.011719 L 70.019531 23.011719 C 71.117188 23.011719 72.007812 22.125 72.007812 21.027344 L 72.007812 5.207031 C 72.007812 4.109375 71.117188 3.222656 70.019531 3.222656 Z M 70.019531 3.222656 "/>
<g clip-path="url(#clip-0)">
<path fill="none" stroke-width="0.3985" stroke-linecap="butt" stroke-linejoin="miter" stroke="rgb(0%, 0%, 0%)" stroke-opacity="1" stroke-miterlimit="10" d="M 32.508549 9.919489 L -32.508818 9.919489 C -33.609281 9.919489 -34.502183 9.030503 -34.502183 7.930041 L -34.502183 -7.930719 C -34.502183 -9.031182 -33.609281 -9.920168 -32.508818 -9.920168 L 32.508549 -9.920168 C 33.609012 -9.920168 34.501914 -9.031182 34.501914 -7.930719 L 34.501914 7.930041 C 34.501914 9.030503 33.609012 9.919489 32.508549 9.919489 Z M 32.508549 9.919489 " transform="matrix(0.99745, 0, 0, -0.99745, 37.593884, 13.116849)"/>
</g>
<g fill="rgb(0%, 0%, 0%)" fill-opacity="1">
<use xlink:href="#glyph-0-0" x="20.763913" y="15.512723"/>
<use xlink:href="#glyph-0-1" x="27.422698" y="15.512723"/>
</g>
<g fill="rgb(0%, 0%, 0%)" fill-opacity="1">
<use xlink:href="#glyph-0-2" x="31.675523" y="15.512723"/>
<use xlink:href="#glyph-0-3" x="36.152554" y="15.512723"/>
<use xlink:href="#glyph-0-4" x="39.756173" y="15.512723"/>
<use xlink:href="#glyph-0-1" x="42.05074" y="15.512723"/>
</g>
<g fill="rgb(0%, 0%, 0%)" fill-opacity="1">
<use xlink:href="#glyph-0-5" x="48.730101" y="15.512723"/>
</g>
<path fill-rule="nonzero" fill="rgb(80.39093%, 87.841797%, 94.900513%)" fill-opacity="1" stroke-width="0.3985" stroke-linecap="butt" stroke-linejoin="miter" stroke="rgb(0%, 0%, 0%)" stroke-opacity="1" stroke-miterlimit="10" d="M 32.508549 -17.408013 L -32.508818 -17.408013 C -33.609281 -17.408013 -34.502183 -18.296999 -34.502183 -19.397461 L -34.502183 -35.258221 C -34.502183 -36.358684 -33.609281 -37.24767 -32.508818 -37.24767 L 32.508549 -37.24767 C 33.609012 -37.24767 34.501914 -36.358684 34.501914 -35.258221 L 34.501914 -19.397461 C 34.501914 -18.296999 33.609012 -17.408013 32.508549 -17.408013 Z M 32.508549 -17.408013 " transform="matrix(0.99745, 0, 0, -0.99745, 37.593884, 13.116849)"/>
<g fill="rgb(0%, 0%, 0%)" fill-opacity="1">
<use xlink:href="#glyph-0-0" x="20.775883" y="42.770035"/>
<use xlink:href="#glyph-0-1" x="27.434668" y="42.770035"/>
</g>
<g fill="rgb(0%, 0%, 0%)" fill-opacity="1">
<use xlink:href="#glyph-0-2" x="31.687492" y="42.770035"/>
<use xlink:href="#glyph-0-3" x="36.164523" y="42.770035"/>
<use xlink:href="#glyph-0-4" x="39.768143" y="42.770035"/>
<use xlink:href="#glyph-0-1" x="42.06271" y="42.770035"/>
</g>
<g fill="rgb(0%, 0%, 0%)" fill-opacity="1">
<use xlink:href="#glyph-0-6" x="48.742071" y="42.770035"/>
</g>
<path fill-rule="nonzero" fill="rgb(80.39093%, 87.841797%, 94.900513%)" fill-opacity="1" d="M 70.019531 57.738281 L 5.167969 57.738281 C 4.070312 57.738281 3.179688 58.628906 3.179688 59.726562 L 3.179688 75.542969 C 3.179688 76.640625 4.070312 77.527344 5.167969 77.527344 L 70.019531 77.527344 C 71.117188 77.527344 72.007812 76.640625 72.007812 75.542969 L 72.007812 59.726562 C 72.007812 58.628906 71.117188 57.738281 70.019531 57.738281 Z M 70.019531 57.738281 "/>
<g clip-path="url(#clip-1)">
<path fill="none" stroke-width="0.3985" stroke-linecap="butt" stroke-linejoin="miter" stroke="rgb(0%, 0%, 0%)" stroke-opacity="1" stroke-miterlimit="10" d="M 32.508549 -44.735515 L -32.508818 -44.735515 C -33.609281 -44.735515 -34.502183 -45.628417 -34.502183 -46.72888 L -34.502183 -62.585724 C -34.502183 -63.686186 -33.609281 -64.575172 -32.508818 -64.575172 L 32.508549 -64.575172 C 33.609012 -64.575172 34.501914 -63.686186 34.501914 -62.585724 L 34.501914 -46.72888 C 34.501914 -45.628417 33.609012 -44.735515 32.508549 -44.735515 Z M 32.508549 -44.735515 " transform="matrix(0.99745, 0, 0, -0.99745, 37.593884, 13.116849)"/>
</g>
<g fill="rgb(0%, 0%, 0%)" fill-opacity="1">
<use xlink:href="#glyph-0-0" x="20.716036" y="70.028344"/>
<use xlink:href="#glyph-0-1" x="27.374821" y="70.028344"/>
</g>
<g fill="rgb(0%, 0%, 0%)" fill-opacity="1">
<use xlink:href="#glyph-0-2" x="31.627645" y="70.028344"/>
<use xlink:href="#glyph-0-3" x="36.104676" y="70.028344"/>
<use xlink:href="#glyph-0-4" x="39.708296" y="70.028344"/>
<use xlink:href="#glyph-0-1" x="42.002863" y="70.028344"/>
</g>
<g fill="rgb(0%, 0%, 0%)" fill-opacity="1">
<use xlink:href="#glyph-0-7" x="48.682224" y="70.028344"/>
</g>
<path fill-rule="nonzero" fill="rgb(80.39093%, 87.841797%, 94.900513%)" fill-opacity="1" stroke-width="0.3985" stroke-linecap="butt" stroke-linejoin="miter" stroke="rgb(0%, 0%, 0%)" stroke-opacity="1" stroke-miterlimit="10" d="M 147.266043 -12.763356 L 82.248676 -12.763356 C 81.148213 -12.763356 80.255311 -13.656258 80.255311 -14.756721 L 80.255311 -39.898962 C 80.255311 -40.999425 81.148213 -41.892327 82.248676 -41.892327 L 147.266043 -41.892327 C 148.366505 -41.892327 149.259407 -40.999425 149.259407 -39.898962 L 149.259407 -14.756721 C 149.259407 -13.656258 148.366505 -12.763356 147.266043 -12.763356 Z M 147.266043 -12.763356 " transform="matrix(0.99745, 0, 0, -0.99745, 37.593884, 13.116849)"/>
<g fill="rgb(0%, 0%, 0%)" fill-opacity="1">
<use xlink:href="#glyph-0-8" x="139.961164" y="33.950584"/>
<use xlink:href="#glyph-0-9" x="147.253545" y="33.950584"/>
<use xlink:href="#glyph-0-10" x="153.039628" y="33.950584"/>
<use xlink:href="#glyph-0-6" x="158.487983" y="33.950584"/>
</g>
<g fill="rgb(0%, 0%, 0%)" fill-opacity="1">
<use xlink:href="#glyph-0-11" x="136.498018" y="41.901256"/>
<use xlink:href="#glyph-0-2" x="139.665287" y="41.901256"/>
<use xlink:href="#glyph-0-3" x="144.142318" y="41.901256"/>
<use xlink:href="#glyph-0-12" x="147.745937" y="41.901256"/>
<use xlink:href="#glyph-0-3" x="151.349557" y="41.901256"/>
<use xlink:href="#glyph-0-13" x="154.953176" y="41.901256"/>
<use xlink:href="#glyph-0-14" x="159.430207" y="41.901256"/>
<use xlink:href="#glyph-0-15" x="163.470177" y="41.901256"/>
</g>
<g fill="rgb(0%, 0%, 0%)" fill-opacity="1">
<use xlink:href="#glyph-0-2" x="134.964938" y="49.850932"/>
<use xlink:href="#glyph-0-3" x="139.441968" y="49.850932"/>
</g>
<g fill="rgb(0%, 0%, 0%)" fill-opacity="1">
<use xlink:href="#glyph-0-16" x="145.684979" y="49.850932"/>
<use xlink:href="#glyph-0-14" x="148.852247" y="49.850932"/>
<use xlink:href="#glyph-0-17" x="152.892218" y="49.850932"/>
<use xlink:href="#glyph-0-3" x="156.059486" y="49.850932"/>
<use xlink:href="#glyph-0-14" x="159.663106" y="49.850932"/>
<use xlink:href="#glyph-0-15" x="163.703076" y="49.850932"/>
<use xlink:href="#glyph-0-18" x="166.914335" y="49.850932"/>
</g>
<path fill-rule="nonzero" fill="rgb(83.529663%, 91.764832%, 83.529663%)" fill-opacity="1" stroke-width="0.3985" stroke-linecap="butt" stroke-linejoin="miter" stroke="rgb(0%, 0%, 0%)" stroke-opacity="1" stroke-miterlimit="10" d="M 262.023537 -16.941981 L 197.006169 -16.941981 C 195.905707 -16.941981 195.012805 -17.834883 195.012805 -18.935346 L 195.012805 -35.720337 C 195.012805 -36.8208 195.905707 -37.713702 197.006169 -37.713702 L 262.023537 -37.713702 C 263.123999 -37.713702 264.016901 -36.8208 264.016901 -35.720337 L 264.016901 -18.935346 C 264.016901 -17.834883 263.123999 -16.941981 262.023537 -16.941981 Z M 262.023537 -16.941981 " transform="matrix(0.99745, 0, 0, -0.99745, 37.593884, 13.116849)"/>
<g fill="rgb(0%, 0%, 0%)" fill-opacity="1">
<use xlink:href="#glyph-0-3" x="252.33885" y="38.118927"/>
<use xlink:href="#glyph-0-4" x="255.942469" y="38.118927"/>
</g>
<g fill="rgb(0%, 0%, 0%)" fill-opacity="1">
<use xlink:href="#glyph-0-0" x="260.876427" y="38.118927"/>
<use xlink:href="#glyph-0-3" x="267.535212" y="38.118927"/>
<use xlink:href="#glyph-0-19" x="271.138832" y="38.118927"/>
<use xlink:href="#glyph-0-1" x="273.651929" y="38.118927"/>
<use xlink:href="#glyph-0-17" x="277.691899" y="38.118927"/>
</g>
<g fill="rgb(0%, 0%, 0%)" fill-opacity="1">
<use xlink:href="#glyph-0-20" x="242.530926" y="46.068602"/>
<use xlink:href="#glyph-0-14" x="247.007956" y="46.068602"/>
<use xlink:href="#glyph-0-17" x="251.047927" y="46.068602"/>
<use xlink:href="#glyph-0-14" x="254.215196" y="46.068602"/>
</g>
<g fill="rgb(0%, 0%, 0%)" fill-opacity="1">
<use xlink:href="#glyph-0-0" x="260.894557" y="46.068602"/>
<use xlink:href="#glyph-0-21" x="267.553342" y="46.068602"/>
</g>
<g fill="rgb(0%, 0%, 0%)" fill-opacity="1">
<use xlink:href="#glyph-0-16" x="272.487299" y="46.068602"/>
<use xlink:href="#glyph-0-14" x="275.654568" y="46.068602"/>
</g>
<g fill="rgb(0%, 0%, 0%)" fill-opacity="1">
<use xlink:href="#glyph-0-17" x="279.701634" y="46.068602"/>
<use xlink:href="#glyph-0-3" x="282.868902" y="46.068602"/>
<use xlink:href="#glyph-0-14" x="286.472522" y="46.068602"/>
</g>
<path fill="none" stroke-width="0.59776" stroke-linecap="butt" stroke-linejoin="miter" stroke="rgb(0%, 0%, 0%)" stroke-opacity="1" stroke-miterlimit="10" d="M 34.701642 -8.2636 L 76.574048 -18.246088 " transform="matrix(0.99745, 0, 0, -0.99745, 37.593884, 13.116849)"/>
<path fill-rule="nonzero" fill="rgb(0%, 0%, 0%)" fill-opacity="1" stroke-width="0.59776" stroke-linecap="butt" stroke-linejoin="miter" stroke="rgb(0%, 0%, 0%)" stroke-opacity="1" stroke-miterlimit="10" d="M 4.818898 0.000555902 L 0.965632 1.453273 L 2.237909 0.00117392 L 0.966208 -1.453561 Z M 4.818898 0.000555902 " transform="matrix(0.97019, 0.231329, 0.231329, -0.97019, 111.94572, 30.835009)"/>
<path fill="none" stroke-width="0.59776" stroke-linecap="butt" stroke-linejoin="miter" stroke="rgb(0%, 0%, 0%)" stroke-opacity="1" stroke-miterlimit="10" d="M 34.701642 -27.327841 L 76.476142 -27.327841 " transform="matrix(0.99745, 0, 0, -0.99745, 37.593884, 13.116849)"/>
<path fill-rule="nonzero" fill="rgb(0%, 0%, 0%)" fill-opacity="1" stroke-width="0.59776" stroke-linecap="butt" stroke-linejoin="miter" stroke="rgb(0%, 0%, 0%)" stroke-opacity="1" stroke-miterlimit="10" d="M 4.818759 0.0000385143 L 0.965182 1.452962 L 2.237959 0.0000385143 L 0.965182 -1.452885 Z M 4.818759 0.0000385143 " transform="matrix(0.99745, 0, 0, -0.99745, 111.791186, 40.375038)"/>
<path fill="none" stroke-width="0.59776" stroke-linecap="butt" stroke-linejoin="miter" stroke="rgb(0%, 0%, 0%)" stroke-opacity="1" stroke-miterlimit="10" d="M 34.701642 -46.392083 L 76.574048 -36.409595 " transform="matrix(0.99745, 0, 0, -0.99745, 37.593884, 13.116849)"/>
<path fill-rule="nonzero" fill="rgb(0%, 0%, 0%)" fill-opacity="1" stroke-width="0.59776" stroke-linecap="butt" stroke-linejoin="miter" stroke="rgb(0%, 0%, 0%)" stroke-opacity="1" stroke-miterlimit="10" d="M 4.818914 -0.000490697 L 0.966223 1.453626 L 2.237924 -0.00110872 L 0.965648 -1.453208 Z M 4.818914 -0.000490697 " transform="matrix(0.97019, -0.231329, -0.231329, -0.97019, 111.94572, 49.915058)"/>
<path fill="none" stroke-width="0.59776" stroke-linecap="butt" stroke-linejoin="miter" stroke="rgb(0%, 0%, 0%)" stroke-opacity="1" stroke-miterlimit="10" d="M 149.459136 -27.327841 L 191.233636 -27.327841 " transform="matrix(0.99745, 0, 0, -0.99745, 37.593884, 13.116849)"/>
<path fill-rule="nonzero" fill="rgb(0%, 0%, 0%)" fill-opacity="1" stroke-width="0.59776" stroke-linecap="butt" stroke-linejoin="miter" stroke="rgb(0%, 0%, 0%)" stroke-opacity="1" stroke-miterlimit="10" d="M 4.818633 0.0000385143 L 0.965056 1.452962 L 2.237833 0.0000385143 L 0.965056 -1.452885 Z M 4.818633 0.0000385143 " transform="matrix(0.99745, 0, 0, -0.99745, 226.256155, 40.375038)"/>
</svg>
